<svg width="242" height="155" viewBox="0 0 242 155" fill="none" xmlns="http://www.w3.org/2000/svg">
<circle cx="164.658" cy="77.2481" r="76.8954" fill="#6792F8" fill-opacity="0.26" stroke="#6792F8" stroke-width="0.705462"/>
<path d="M190.033 79.9011V81.391H184.073V86.555H182.262V81.391H176.403V79.9011H190.033ZM177.115 77.4292C178.074 77.305 178.926 77.0623 179.671 76.7011C180.427 76.3286 181.02 75.8884 181.449 75.3805C181.889 74.8613 182.132 74.3251 182.177 73.772H177.639V72.3329H188.746V73.772H184.259C184.305 74.3251 184.542 74.8613 184.971 75.3805C185.411 75.8884 186.003 76.3286 186.748 76.7011C187.505 77.0623 188.362 77.305 189.322 77.4292L188.645 78.8683C187.38 78.6877 186.274 78.3152 185.326 77.7508C184.378 77.1752 183.678 76.4754 183.227 75.6514C182.764 76.4754 182.058 77.1752 181.11 77.7508C180.162 78.3152 179.062 78.6877 177.809 78.8683L177.115 77.4292ZM196.518 72.1805V73.6366C196.518 74.6637 196.834 75.6006 197.466 76.4471C198.098 77.2824 198.99 77.8919 200.141 78.2757L199.227 79.6979C198.38 79.427 197.652 79.015 197.043 78.4619C196.433 77.9089 195.959 77.2542 195.621 76.4979C195.271 77.3106 194.78 78.0217 194.148 78.6313C193.515 79.2295 192.759 79.681 191.879 79.9857L190.981 78.5127C192.155 78.1177 193.058 77.4743 193.69 76.5826C194.334 75.6909 194.656 74.7089 194.656 73.6366V72.1805H196.518ZM193.233 81.2048H203.392V86.5719H201.563V82.6778H193.233V81.2048ZM201.563 71.4863H203.392V80.5106H201.563V71.4863Z" fill="#6792F8"/>
<circle cx="77.7481" cy="77.2481" r="76.8954" fill="#6792F8" fill-opacity="0.26" stroke="#6792F8" stroke-width="0.705462"/>
<path d="M50.4598 71.5033V82.5254H48.6143V77.1244H46.2439V75.6514H48.6143V71.5033H50.4598ZM39.6577 78.8852V74.2122H38.3371V72.7223H46.3286V74.2122H45.0249V78.6651C45.8601 78.5974 46.4866 78.5353 46.9042 78.4789L47.0397 79.8164C45.7303 80.0535 44.3363 80.2115 42.8577 80.2905C41.3903 80.3582 39.8214 80.3921 38.1509 80.3921L37.9646 78.8852H39.6577ZM40.6397 81.6111H42.4683V84.7772H50.8153V86.2672H40.6397V81.6111ZM41.4355 78.8514C42.2482 78.8288 42.8521 78.8062 43.2471 78.7836V74.2122H41.4355V78.8514ZM64.4791 72.79V74.28H55.9289V78.5466H64.6146V80.0196H54.1173V72.79H64.4791ZM52.475 83.1519H66.1214V84.6418H52.475V83.1519Z" fill="#6792F8"/>
<path d="M115.59 74.5509H108.97V78.0217H115.048V79.7656H108.97V83.5751H115.59V85.3021H107.209V72.8408H115.59V74.5509ZM125.545 74.5509H122.007V85.3021H120.229V74.5509H116.69V72.8408H125.545V74.5509ZM135.518 74.5509H129.068V78.1911H134.621V79.935H129.068V85.3021H127.307V72.8408H135.518V74.5509Z" fill="white"/>
</svg>
