<svg width="23" height="23" viewBox="0 0 23 23" fill="none" xmlns="http://www.w3.org/2000/svg">
<path d="M21.9043 21.1004C22.1108 21.3095 22.2266 21.592 22.2266 21.8864C22.2266 22.1808 22.1108 22.4632 21.9043 22.6724C21.6942 22.8763 21.4133 22.9902 21.121 22.9902C20.8287 22.9902 20.5478 22.8763 20.3377 22.6724L11.2266 13.5163L2.11544 22.6724C1.9053 22.8763 1.62443 22.9902 1.33213 22.9902C1.03982 22.9902 0.758955 22.8763 0.548819 22.6724C0.342375 22.4632 0.226563 22.1808 0.226562 21.8864C0.226562 21.592 0.342375 21.3095 0.548819 21.1004L9.67369 11.9581L0.548819 2.81577C0.373508 2.60143 0.283918 2.32933 0.297473 2.05238C0.311028 1.77543 0.426761 1.51344 0.622159 1.31738C0.817558 1.12131 1.07865 1.00518 1.35465 0.99158C1.63066 0.977978 1.90183 1.06788 2.11544 1.24379L11.2266 10.3999L20.3377 1.24379C20.5513 1.06788 20.8225 0.977978 21.0985 0.99158C21.3745 1.00518 21.6356 1.12131 21.831 1.31738C22.0264 1.51344 22.1421 1.77543 22.1557 2.05238C22.1692 2.32933 22.0796 2.60143 21.9043 2.81577L12.7794 11.9581L21.9043 21.1004Z" fill="#818181"/>
</svg>
