<svg width="38" height="39" viewBox="0 0 38 39" fill="none" xmlns="http://www.w3.org/2000/svg">
<g clip-path="url(#clip0_1363_7517)">
<path fill-rule="evenodd" clip-rule="evenodd" d="M37.1619 20.0838C37.1619 18.7388 37.0405 17.4474 36.8172 16.2061H18.9609V23.54H29.1653C28.7259 25.9103 27.3898 27.9179 25.3822 29.2629V34.0195H31.5105C35.0954 30.7186 37.1637 25.8585 37.1637 20.0838H37.1619Z" fill="#3E82F1"/>
<path fill-rule="evenodd" clip-rule="evenodd" d="M18.9631 38.6126C24.0822 38.6126 28.3744 36.9139 31.5109 34.0185L25.3826 29.262C23.6839 30.3998 21.5137 31.0714 18.9613 31.0714C14.0226 31.0714 9.84293 27.7366 8.35148 23.2551H2.01953V28.1671C5.13996 34.3633 11.5505 38.6126 18.9631 38.6126Z" fill="#32A753"/>
<path fill-rule="evenodd" clip-rule="evenodd" d="M8.35032 23.2558C7.97165 22.118 7.75552 20.9034 7.75552 19.6531C7.75552 18.4028 7.97165 17.1882 8.35032 16.0504V11.1384H2.01658C0.732327 13.698 0 16.5934 0 19.6531C0 22.7128 0.732327 25.6081 2.01658 28.1677L8.35032 23.2558Z" fill="#F9BB00"/>
<path fill-rule="evenodd" clip-rule="evenodd" d="M18.9631 8.23308C21.7459 8.23308 24.2466 9.19046 26.2113 11.0677L31.6502 5.62885C28.3654 2.57094 24.0733 0.691895 18.9631 0.691895C11.5505 0.691895 5.13996 4.94118 2.01953 11.1374L8.35327 16.0493C9.84472 11.5678 14.0243 8.23308 18.9631 8.23308Z" fill="#E74133"/>
</g>
<defs>
<clipPath id="clip0_1363_7517">
<rect width="37.1611" height="37.9203" fill="white" transform="translate(0 0.691162)"/>
</clipPath>
</defs>
</svg>
