<svg width="23" height="23" viewBox="0 0 23 23" fill="none" xmlns="http://www.w3.org/2000/svg">
<path d="M11.4488 19.3568C16.0027 19.3568 19.6944 15.665 19.6944 11.111C19.6944 6.55699 16.0027 2.86523 11.4488 2.86523C6.89482 2.86523 3.20312 6.55699 3.20312 11.111C3.20312 15.665 6.89482 19.3568 11.4488 19.3568Z" stroke="#818181" stroke-width="1.7353" stroke-linecap="round" stroke-linejoin="round"/>
<path d="M11.4487 16.6083C12.0179 16.6083 12.4794 16.1468 12.4794 15.5776C12.4794 15.0083 12.0179 14.5469 11.4487 14.5469C10.8794 14.5469 10.418 15.0083 10.418 15.5776C10.418 16.1468 10.8794 16.6083 11.4487 16.6083Z" fill="#818181"/>
<path d="M11.4479 12.4855V11.7983C11.9236 11.7983 12.3886 11.6573 12.7841 11.393C13.1796 11.1287 13.4878 10.7531 13.6699 10.3137C13.8519 9.8742 13.8995 9.39063 13.8067 8.9241C13.7139 8.45757 13.4849 8.02904 13.1485 7.69269C12.8122 7.35635 12.3837 7.12729 11.9171 7.03449C11.4506 6.9417 10.9671 6.98932 10.5276 7.17135C10.0881 7.35338 9.71254 7.66164 9.44828 8.05714C9.18402 8.45264 9.04297 8.91763 9.04297 9.3933" stroke="#818181" stroke-width="1.7353" stroke-linecap="round" stroke-linejoin="round"/>
</svg>
