<svg width="433" height="556" viewBox="0 0 433 556" fill="none" xmlns="http://www.w3.org/2000/svg">
<g filter="url(#filter0_d_2618_15876)">
<rect x="14.7402" y="14" width="404.371" height="528.2" rx="17.2164" fill="white"/>
</g>
<g filter="url(#filter1_d_2618_15876)">
<path d="M98.7988 200.078C98.7988 186.997 109.403 176.394 122.483 176.394H419.112V475.836C419.112 512.42 389.455 542.076 352.871 542.076H98.7988V200.078Z" fill="white"/>
</g>
<path d="M331.881 474.45C331.853 474.505 331.839 474.554 331.825 474.602L331.248 474.45C331.269 474.373 331.297 474.29 331.339 474.213C331.714 473.421 332.68 473.087 333.493 473.442C334.313 473.748 334.682 474.686 334.313 475.485C334.23 475.638 334.133 475.791 334.001 475.916L332.173 477.744H334.571V478.349H331.283V477.758L333.577 475.506C333.646 475.43 333.716 475.346 333.757 475.256C333.973 474.79 333.771 474.213 333.243 473.984C332.722 473.761 332.117 473.984 331.881 474.45ZM337.845 477.341C337.734 477.557 337.49 477.842 336.941 477.842C336.385 477.842 336.149 477.557 336.038 477.334C335.815 476.973 335.794 476.542 335.794 475.874C335.794 475.207 335.815 474.783 336.038 474.415C336.149 474.199 336.385 473.914 336.941 473.914C337.49 473.914 337.734 474.206 337.845 474.422C338.067 474.783 338.088 475.207 338.088 475.874C338.088 476.549 338.067 476.98 337.845 477.341ZM335.176 475.874C335.176 476.542 335.183 477.133 335.495 477.661C335.683 478.001 336.114 478.474 336.941 478.474C337.775 478.474 338.199 478.008 338.394 477.661C338.707 477.139 338.707 476.556 338.707 475.874C338.707 475.214 338.707 474.623 338.394 474.102C338.199 473.761 337.775 473.289 336.941 473.289C336.114 473.289 335.683 473.754 335.495 474.102C335.183 474.623 335.176 475.207 335.176 475.874ZM339.369 477.807V478.439H340.023V477.807H339.369ZM342.543 473.344H341.945L341.048 473.741L341.292 474.283L341.945 473.998V478.418H342.543V473.344ZM346.718 473.421H343.388V474.026H346.002L343.757 478.161L344.306 478.446L346.718 474.019V473.421ZM348.755 478.405H349.401L352.578 473.344H351.924L348.755 478.405ZM347.594 474.568C347.594 475.311 348.185 475.944 348.936 475.944C349.686 475.944 350.27 475.311 350.27 474.568C350.27 473.817 349.686 473.191 348.936 473.191C348.185 473.191 347.594 473.817 347.594 474.568ZM348.199 474.568C348.199 474.13 348.539 473.782 348.936 473.782C349.346 473.782 349.679 474.13 349.679 474.568C349.679 475.006 349.346 475.353 348.936 475.353C348.539 475.353 348.199 475.006 348.199 474.568ZM351 477.153C351 477.897 351.591 478.53 352.341 478.53C353.092 478.53 353.676 477.897 353.676 477.153C353.676 476.396 353.092 475.777 352.341 475.777C351.591 475.777 351 476.396 351 477.153ZM351.598 477.153C351.598 476.715 351.945 476.368 352.341 476.368C352.752 476.368 353.085 476.715 353.085 477.153C353.085 477.584 352.752 477.939 352.341 477.939C351.945 477.939 351.598 477.584 351.598 477.153Z" fill="#4492F7"/>
<path d="M325.761 454.186V454.615H328.779V454.661C328.779 454.893 328.779 455.142 328.767 455.42L325.616 455.536L325.697 455.993L328.738 455.82C328.709 456.167 328.657 456.555 328.558 456.995L329.091 457.053C329.306 455.982 329.3 455.281 329.3 454.661V454.186H325.761ZM325.216 458.142H329.839V457.714H327.51V456.405H326.971V457.714H325.216V458.142ZM332.202 454.041V454.429C332.202 455.263 331.322 456.051 330.372 456.225L330.603 456.671C331.408 456.497 332.156 455.959 332.486 455.24C332.816 455.959 333.563 456.497 334.374 456.671L334.612 456.225C333.65 456.051 332.764 455.275 332.764 454.429V454.041H332.202ZM330.192 458.142H334.82V457.708H330.192V458.142ZM338.852 453.705V458.82H339.385V453.705H338.852ZM335.174 457.129L335.226 457.575C336.152 457.569 337.375 457.551 338.464 457.372L338.435 456.984C338.18 457.013 337.919 457.042 337.653 457.059V454.661H338.191V454.232H335.301V454.661H335.84V457.123L335.174 457.129ZM336.355 457.117V454.661H337.137V457.088C336.876 457.105 336.61 457.111 336.355 457.117Z" fill="#3B3B3B"/>
<path d="M327.623 472.672L326.948 472.672L326.948 477.393L325.37 475.924L324.891 476.37L327.286 478.599L329.68 476.37L329.201 475.924L327.623 477.393L327.623 472.672Z" fill="#4492F7"/>
<path d="M360.005 475.3C360.005 474.437 360.265 473.626 360.711 472.925H361.262C360.764 473.614 360.468 474.431 360.468 475.3C360.468 476.168 360.764 476.985 361.262 477.674H360.711C360.265 476.974 360.005 476.163 360.005 475.3ZM363.2 475.444V476.354C362.697 476.371 362.216 476.371 361.805 476.371L361.868 476.817C362.778 476.811 364.017 476.811 365.152 476.591L365.112 476.197C364.672 476.267 364.197 476.307 363.733 476.331V475.444H363.2ZM361.949 475.201L362.193 475.618C362.801 475.433 363.253 475.039 363.473 474.523C363.704 475.01 364.156 475.386 364.759 475.56L365.002 475.143C364.249 474.94 363.762 474.413 363.733 473.805H364.88V473.377H363.733V472.768H363.2V473.377H362.077V473.805H363.2C363.177 474.448 362.697 474.981 361.949 475.201ZM365.431 477.848H365.963V472.716H365.431V477.848ZM370.592 472.722V474.755H369.931V472.832H369.433V477.576H369.931V475.195H370.592V477.837H371.101V472.722H370.592ZM366.925 476.603H367.267C367.997 476.603 368.524 476.58 369.138 476.458L369.086 476.012C368.547 476.128 368.072 476.151 367.452 476.157V473.77H368.819V473.342H366.925V476.603ZM376.41 472.722V475.665H376.949V474.413H377.678V473.967H376.949V472.722H376.41ZM373.201 475.329H373.606C374.359 475.329 375.13 475.271 375.987 475.103L375.923 474.668C375.141 474.819 374.423 474.871 373.728 474.877V473.017H373.201V475.329ZM373.624 476.365H376.41V477.842H376.949V475.931H373.624V476.365ZM378.362 472.907V473.336H379.109V474.373H378.391V474.801H379.99V475.369H377.945V475.804H382.567V475.369H380.517V474.801H382.104V474.373H381.386V473.336H382.133V472.907H378.362ZM378.461 476.696H381.461V477.842H382V476.273H378.461V476.696ZM379.642 474.373V473.336H380.859V474.373H379.642ZM384.34 475.3C384.34 476.163 384.079 476.974 383.639 477.674H383.083C383.587 476.985 383.876 476.168 383.876 475.3C383.876 474.431 383.587 473.614 383.083 472.925H383.639C384.079 473.626 384.34 474.437 384.34 475.3Z" fill="#818181"/>
<path d="M324.91 485.133V485.637H327.609V485.133H324.91ZM333.555 483.337H333.08L332.634 485.081H331.794L331.342 483.343H330.792L330.34 485.081H329.5L329.054 483.337H328.574L329.025 485.081H328.353V485.573H329.159L329.662 487.52H330.178L330.67 485.573H331.458L331.956 487.52H332.472L332.976 485.573H333.775V485.081H333.103L333.555 483.337ZM329.622 485.573H330.213L329.917 486.726L329.622 485.573ZM330.798 485.081L331.064 484.033L331.331 485.081H330.798ZM331.921 485.573H332.512L332.217 486.726L331.921 485.573ZM335.813 487.074C335.275 487.074 334.927 486.691 334.927 486.263C334.927 485.84 335.275 485.463 335.813 485.463C336.346 485.463 336.694 485.84 336.694 486.263C336.694 486.691 336.346 487.074 335.813 487.074ZM334.423 486.263C334.423 487.021 335.031 487.589 335.813 487.589C336.589 487.589 337.192 487.021 337.192 486.263C337.192 485.527 336.624 484.977 335.883 484.971C335.779 484.965 335.726 484.971 335.616 484.988L336.532 483.563L336.091 483.285L334.562 485.695C334.475 485.875 334.423 486.066 334.423 486.263ZM339.926 486.645C339.833 486.824 339.631 487.062 339.173 487.062C338.71 487.062 338.513 486.824 338.42 486.639C338.235 486.338 338.217 485.979 338.217 485.423C338.217 484.867 338.235 484.513 338.42 484.206C338.513 484.027 338.71 483.789 339.173 483.789C339.631 483.789 339.833 484.033 339.926 484.212C340.111 484.513 340.129 484.867 340.129 485.423C340.129 485.985 340.111 486.344 339.926 486.645ZM337.702 485.423C337.702 485.979 337.708 486.471 337.968 486.911C338.125 487.195 338.484 487.589 339.173 487.589C339.868 487.589 340.222 487.201 340.384 486.911C340.644 486.477 340.644 485.99 340.644 485.423C340.644 484.872 340.644 484.38 340.384 483.946C340.222 483.662 339.868 483.268 339.173 483.268C338.484 483.268 338.125 483.656 337.968 483.946C337.708 484.38 337.702 484.867 337.702 485.423ZM343.699 483.314H343.212L341.15 486.042V486.523H343.212V487.543H343.699V486.523H344.296V486.031H343.699V483.314ZM341.764 486.031L343.212 484.085V486.031H341.764ZM345.463 487.039H344.924L344.733 488.232H345.11L345.463 487.039ZM346.883 484.235C346.86 484.282 346.848 484.322 346.837 484.363L346.356 484.235C346.373 484.172 346.397 484.102 346.431 484.038C346.744 483.378 347.549 483.1 348.227 483.395C348.91 483.65 349.217 484.432 348.91 485.098C348.841 485.226 348.76 485.353 348.65 485.457L347.126 486.981H349.125V487.485H346.385V486.992L348.297 485.116C348.354 485.052 348.412 484.982 348.447 484.907C348.627 484.519 348.459 484.038 348.018 483.847C347.584 483.662 347.08 483.847 346.883 484.235ZM351.853 486.645C351.761 486.824 351.558 487.062 351.1 487.062C350.637 487.062 350.44 486.824 350.347 486.639C350.162 486.338 350.145 485.979 350.145 485.423C350.145 484.867 350.162 484.513 350.347 484.206C350.44 484.027 350.637 483.789 351.1 483.789C351.558 483.789 351.761 484.033 351.853 484.212C352.039 484.513 352.056 484.867 352.056 485.423C352.056 485.985 352.039 486.344 351.853 486.645ZM349.629 485.423C349.629 485.979 349.635 486.471 349.895 486.911C350.052 487.195 350.411 487.589 351.1 487.589C351.795 487.589 352.149 487.201 352.311 486.911C352.572 486.477 352.572 485.99 352.572 485.423C352.572 484.872 352.572 484.38 352.311 483.946C352.149 483.662 351.795 483.268 351.1 483.268C350.411 483.268 350.052 483.656 349.895 483.946C349.635 484.38 349.629 484.867 349.629 485.423ZM355.302 486.645C355.209 486.824 355.006 487.062 354.549 487.062C354.085 487.062 353.888 486.824 353.796 486.639C353.61 486.338 353.593 485.979 353.593 485.423C353.593 484.867 353.61 484.513 353.796 484.206C353.888 484.027 354.085 483.789 354.549 483.789C355.006 483.789 355.209 484.033 355.302 484.212C355.487 484.513 355.504 484.867 355.504 485.423C355.504 485.985 355.487 486.344 355.302 486.645ZM353.078 485.423C353.078 485.979 353.083 486.471 353.344 486.911C353.5 487.195 353.859 487.589 354.549 487.589C355.244 487.589 355.597 487.201 355.759 486.911C356.02 486.477 356.02 485.99 356.02 485.423C356.02 484.872 356.02 484.38 355.759 483.946C355.597 483.662 355.244 483.268 354.549 483.268C353.859 483.268 353.5 483.656 353.344 483.946C353.083 484.38 353.078 484.867 353.078 485.423Z" fill="#818181"/>
<path d="M362.427 487.786C361.067 487.786 359.965 486.684 359.965 485.324C359.965 483.964 361.067 482.862 362.427 482.862C363.786 482.862 364.888 483.964 364.888 485.324C364.888 486.684 363.786 487.786 362.427 487.786ZM362.427 487.293C362.949 487.293 363.45 487.086 363.819 486.717C364.188 486.347 364.396 485.846 364.396 485.324C364.396 484.802 364.188 484.301 363.819 483.931C363.45 483.562 362.949 483.355 362.427 483.355C361.904 483.355 361.403 483.562 361.034 483.931C360.665 484.301 360.457 484.802 360.457 485.324C360.457 485.846 360.665 486.347 361.034 486.717C361.403 487.086 361.904 487.293 362.427 487.293ZM362.18 486.063H362.673V486.555H362.18V486.063ZM362.673 485.658V485.816H362.18V485.447C362.18 485.382 362.206 485.319 362.253 485.273C362.299 485.227 362.361 485.201 362.427 485.201C362.497 485.201 362.565 485.181 362.624 485.144C362.683 485.106 362.73 485.053 362.76 484.99C362.79 484.926 362.802 484.856 362.793 484.787C362.785 484.717 362.756 484.652 362.712 484.598C362.668 484.543 362.609 484.503 362.543 484.481C362.476 484.459 362.405 484.456 362.337 484.473C362.269 484.49 362.208 484.526 362.159 484.577C362.111 484.627 362.078 484.691 362.064 484.759L361.581 484.663C361.611 484.513 361.681 484.374 361.782 484.26C361.883 484.146 362.013 484.06 362.158 484.013C362.303 483.965 362.458 483.957 362.607 483.989C362.756 484.021 362.894 484.092 363.007 484.195C363.12 484.298 363.203 484.429 363.249 484.574C363.295 484.72 363.301 484.875 363.267 485.024C363.233 485.173 363.16 485.31 363.055 485.421C362.951 485.532 362.819 485.614 362.673 485.658Z" fill="#818181"/>
<rect x="119.784" y="446.587" width="117.149" height="57.516" rx="4.12702" fill="white" stroke="#FF5852" stroke-width="0.434423"/>
<path d="M138.866 476.916C139.098 477.051 139.288 477.222 139.436 477.431C139.584 477.639 139.658 477.864 139.658 478.105C139.658 478.383 139.582 478.635 139.429 478.862C139.281 479.085 139.075 479.261 138.81 479.391C138.551 479.516 138.266 479.578 137.955 479.578C137.645 479.578 137.36 479.513 137.101 479.384C136.846 479.254 136.642 479.076 136.489 478.848C136.341 478.621 136.266 478.364 136.266 478.077H136.871C136.871 478.23 136.915 478.376 137.003 478.515C137.096 478.649 137.223 478.76 137.386 478.848C137.552 478.932 137.742 478.974 137.955 478.974C138.173 478.974 138.366 478.932 138.532 478.848C138.699 478.765 138.827 478.654 138.915 478.515C139.007 478.376 139.054 478.232 139.054 478.084C139.054 477.838 138.963 477.63 138.783 477.458C138.602 477.287 138.331 477.201 137.969 477.201H137.601V476.617H137.976C138.189 476.617 138.373 476.58 138.525 476.506C138.678 476.432 138.794 476.335 138.873 476.214C138.952 476.089 138.991 475.957 138.991 475.818C138.991 475.684 138.949 475.556 138.866 475.436C138.783 475.315 138.664 475.218 138.512 475.144C138.363 475.065 138.192 475.026 137.997 475.026C137.803 475.026 137.631 475.065 137.483 475.144C137.335 475.218 137.219 475.317 137.135 475.443C137.056 475.563 137.017 475.69 137.017 475.825H136.412C136.412 475.556 136.482 475.315 136.621 475.102C136.765 474.889 136.957 474.722 137.198 474.602C137.443 474.481 137.71 474.421 137.997 474.421C138.284 474.421 138.549 474.481 138.79 474.602C139.035 474.722 139.227 474.889 139.366 475.102C139.51 475.311 139.582 475.545 139.582 475.804C139.582 476.026 139.515 476.235 139.38 476.43C139.251 476.62 139.079 476.782 138.866 476.916ZM143.402 477.722H144.118V478.313H143.402V479.537H142.818V478.313H140.35V477.736L142.818 474.463H143.402V477.722ZM142.818 477.722V475.387L141.087 477.722H142.818ZM145.481 478.925V479.557H144.828V478.925H145.481ZM148.3 476.311C148.597 476.311 148.87 476.386 149.12 476.534C149.371 476.682 149.567 476.884 149.711 477.139C149.855 477.389 149.927 477.662 149.927 477.959C149.927 478.265 149.852 478.543 149.704 478.793C149.561 479.038 149.361 479.233 149.106 479.377C148.856 479.52 148.58 479.592 148.279 479.592C147.973 479.592 147.672 479.52 147.376 479.377C147.079 479.233 146.852 479.041 146.694 478.8C146.685 478.786 146.671 478.765 146.653 478.737C146.634 478.709 146.613 478.677 146.59 478.64L147.132 478.348L147.209 478.466C147.311 478.61 147.461 478.73 147.661 478.828C147.865 478.925 148.071 478.974 148.279 478.974C148.474 478.974 148.65 478.93 148.808 478.842C148.97 478.749 149.097 478.626 149.19 478.473C149.282 478.316 149.329 478.144 149.329 477.959C149.329 477.76 149.28 477.581 149.183 477.424C149.09 477.266 148.963 477.143 148.801 477.055C148.643 476.967 148.469 476.923 148.279 476.923C148.112 476.923 147.943 476.956 147.772 477.02C147.605 477.081 147.466 477.164 147.355 477.271L146.924 477.02V474.469H149.572V475.06H147.529V476.492C147.76 476.372 148.017 476.311 148.3 476.311ZM151.349 475.568C151.437 475.401 151.565 475.269 151.732 475.172C151.903 475.07 152.086 475.019 152.281 475.019C152.443 475.019 152.587 475.046 152.712 475.102C152.902 475.185 153.048 475.308 153.15 475.47C153.256 475.628 153.31 475.799 153.31 475.985C153.31 476.119 153.282 476.249 153.226 476.374C153.194 476.43 153.133 476.513 153.045 476.624L150.627 478.883V479.467H154.032V478.869H151.53L153.483 477.034C153.599 476.928 153.703 476.784 153.796 476.603C153.889 476.404 153.935 476.191 153.935 475.964C153.935 475.658 153.847 475.375 153.671 475.116C153.495 474.856 153.259 474.671 152.962 474.56C152.749 474.467 152.522 474.421 152.281 474.421C151.97 474.421 151.681 474.502 151.412 474.664C151.143 474.826 150.942 475.049 150.807 475.331C150.775 475.396 150.745 475.475 150.717 475.568L151.294 475.721C151.312 475.656 151.331 475.605 151.349 475.568ZM159.29 474.463H159.944L156.767 479.523H156.121L159.29 474.463ZM154.96 475.686C154.96 475.44 155.018 475.213 155.134 475.005C155.254 474.792 155.416 474.622 155.62 474.497C155.829 474.372 156.056 474.31 156.301 474.31C156.547 474.31 156.772 474.372 156.976 474.497C157.18 474.622 157.339 474.792 157.455 475.005C157.576 475.213 157.636 475.44 157.636 475.686C157.636 475.931 157.576 476.161 157.455 476.374C157.339 476.583 157.18 476.749 156.976 476.874C156.772 477 156.547 477.062 156.301 477.062C156.056 477.062 155.831 477 155.627 476.874C155.423 476.749 155.261 476.583 155.141 476.374C155.02 476.161 154.96 475.931 154.96 475.686ZM155.565 475.686C155.565 475.904 155.637 476.089 155.78 476.242C155.928 476.395 156.102 476.471 156.301 476.471C156.505 476.471 156.679 476.395 156.823 476.242C156.971 476.089 157.045 475.904 157.045 475.686C157.045 475.468 156.971 475.283 156.823 475.13C156.679 474.977 156.505 474.9 156.301 474.9C156.102 474.9 155.928 474.977 155.78 475.13C155.637 475.283 155.565 475.468 155.565 475.686ZM158.366 478.272C158.366 478.021 158.424 477.792 158.54 477.583C158.66 477.37 158.822 477.203 159.026 477.083C159.235 476.958 159.462 476.895 159.707 476.895C159.953 476.895 160.178 476.958 160.382 477.083C160.585 477.203 160.745 477.37 160.861 477.583C160.982 477.792 161.042 478.021 161.042 478.272C161.042 478.517 160.982 478.747 160.861 478.96C160.745 479.168 160.585 479.335 160.382 479.46C160.178 479.585 159.953 479.648 159.707 479.648C159.462 479.648 159.237 479.585 159.033 479.46C158.829 479.335 158.667 479.168 158.547 478.96C158.426 478.747 158.366 478.517 158.366 478.272ZM158.964 478.272C158.964 478.485 159.038 478.67 159.186 478.828C159.334 478.981 159.508 479.057 159.707 479.057C159.911 479.057 160.085 478.981 160.229 478.828C160.377 478.675 160.451 478.489 160.451 478.272C160.451 478.054 160.377 477.868 160.229 477.715C160.085 477.563 159.911 477.486 159.707 477.486C159.508 477.486 159.334 477.563 159.186 477.715C159.038 477.868 158.964 478.054 158.964 478.272Z" fill="#4492F7"/>
<path d="M133.427 454.967V459.57H132.968V457.214H132.379V459.336H131.926V455.066H132.379V456.818H132.968V454.967H133.427ZM129.731 455.515H130.21V457.98C130.718 457.966 131.185 457.92 131.613 457.84L131.665 458.257C131.38 458.309 131.107 458.345 130.846 458.366C130.586 458.384 130.315 458.392 130.033 458.392H129.731V455.515ZM137.105 458.622V457.626H135.64V457.24H136.323V455.786H135.629V455.389H139.065V455.786H138.371V457.24H139.054V457.626H137.579V458.622H139.44V459.018H135.275V458.622H137.105ZM137.892 457.24V455.786H136.802V457.24H137.892ZM143.486 455.353V455.744H140.837V456.37H143.387V456.755H140.837V457.423H143.533V457.808H140.358V455.353H143.486ZM139.831 458.601H143.997V459.002H139.831V458.601ZM148.157 455.087V455.457H147.484V456.255H148.131V456.63H146.697V457.026H148.548V457.407H144.388V457.026H146.223V456.63H144.789V456.255H145.435V455.457H144.763V455.087H148.157ZM144.883 457.735H148.021V458.768H145.368V459.164H148.151V459.523H144.898V458.434H147.547V458.085H144.883V457.735ZM147.01 456.255V455.457H145.915V456.255H147.01ZM152.729 454.962V459.581H152.249V454.962H152.729ZM149.199 455.384H151.337V457.068H149.695V458.079C150.098 458.079 150.468 458.069 150.805 458.048C151.142 458.024 151.49 457.98 151.848 457.918L151.895 458.309C151.516 458.371 151.147 458.415 150.789 458.439C150.431 458.463 150.034 458.476 149.596 458.476H149.21V456.677H150.852V455.78H149.199V455.384ZM155.575 455.259C155.902 455.259 156.192 455.31 156.446 455.41C156.703 455.511 156.903 455.654 157.045 455.838C157.191 456.022 157.264 456.236 157.264 456.479C157.264 456.701 157.202 456.901 157.076 457.079C156.955 457.252 156.785 457.393 156.566 457.501C156.347 457.605 156.095 457.668 155.81 457.688V458.606H157.666V459.002H153.5V458.606H155.335V457.688C155.054 457.664 154.804 457.6 154.585 457.496C154.369 457.388 154.201 457.247 154.079 457.073C153.957 456.9 153.897 456.701 153.897 456.479C153.897 456.236 153.968 456.022 154.11 455.838C154.256 455.654 154.456 455.511 154.71 455.41C154.963 455.31 155.252 455.259 155.575 455.259ZM154.36 456.479C154.36 456.646 154.413 456.794 154.517 456.922C154.621 457.047 154.765 457.145 154.95 457.214C155.134 457.28 155.342 457.313 155.575 457.313C155.811 457.313 156.022 457.28 156.206 457.214C156.39 457.145 156.533 457.047 156.633 456.922C156.738 456.794 156.79 456.646 156.79 456.479C156.79 456.312 156.738 456.166 156.633 456.041C156.533 455.913 156.39 455.813 156.206 455.744C156.022 455.674 155.811 455.64 155.575 455.64C155.342 455.64 155.134 455.674 154.95 455.744C154.765 455.813 154.621 455.913 154.517 456.041C154.413 456.166 154.36 456.312 154.36 456.479Z" fill="#3B3B3B"/>
<path d="M132.108 487.487V487.941H129.679V487.487H132.108ZM137.131 487.44H137.736V487.883H137.016L136.563 489.635H136.099L135.651 487.883H134.942L134.499 489.635H134.035L133.581 487.883H132.856V487.44H133.461L133.055 485.871H133.487L133.889 487.44H134.644L135.051 485.876H135.546L135.953 487.44H136.709L137.11 485.871H137.538L137.131 487.44ZM134.264 488.921L134.53 487.883H133.998L134.264 488.921ZM135.536 487.44L135.296 486.496L135.056 487.44H135.536ZM136.334 488.921L136.599 487.883H136.068L136.334 488.921ZM139.529 489.656H139.075V486.34L138.585 486.554L138.408 486.147L139.075 485.85H139.529V489.656ZM140.557 490.276H140.219L140.391 489.202H140.875L140.557 490.276ZM143.791 488.848C143.867 488.722 143.916 488.58 143.937 488.42C143.957 488.26 143.968 488.036 143.968 487.748C143.968 487.463 143.957 487.242 143.937 487.086C143.916 486.926 143.867 486.783 143.791 486.658C143.652 486.404 143.424 486.278 143.108 486.278C142.784 486.278 142.559 486.403 142.43 486.653C142.353 486.781 142.305 486.924 142.284 487.08C142.263 487.237 142.253 487.459 142.253 487.748C142.253 488.04 142.263 488.264 142.284 488.42C142.305 488.577 142.353 488.717 142.43 488.842C142.559 489.096 142.784 489.223 143.108 489.223C143.427 489.223 143.655 489.098 143.791 488.848ZM141.789 487.748C141.789 487.431 141.801 487.174 141.825 486.976C141.853 486.778 141.919 486.592 142.023 486.418C142.114 486.255 142.247 486.112 142.425 485.991C142.602 485.869 142.83 485.808 143.108 485.808C143.386 485.808 143.613 485.869 143.791 485.991C143.968 486.109 144.103 486.251 144.197 486.418C144.301 486.592 144.366 486.776 144.39 486.971C144.418 487.166 144.432 487.424 144.432 487.748C144.432 488.074 144.418 488.337 144.39 488.535C144.366 488.729 144.301 488.914 144.197 489.087C144.103 489.254 143.968 489.398 143.791 489.52C143.617 489.638 143.389 489.697 143.108 489.697C142.83 489.697 142.602 489.637 142.425 489.515C142.247 489.393 142.114 489.251 142.023 489.087C141.919 488.91 141.853 488.722 141.825 488.524C141.801 488.323 141.789 488.064 141.789 487.748ZM146.986 487.69C147.16 487.791 147.303 487.92 147.414 488.076C147.525 488.232 147.581 488.401 147.581 488.582C147.581 488.79 147.523 488.98 147.409 489.15C147.297 489.317 147.143 489.449 146.945 489.546C146.75 489.64 146.536 489.687 146.304 489.687C146.071 489.687 145.857 489.638 145.662 489.541C145.471 489.444 145.318 489.31 145.204 489.14C145.092 488.969 145.037 488.776 145.037 488.561H145.49C145.49 488.676 145.523 488.785 145.589 488.889C145.659 488.99 145.754 489.073 145.876 489.14C146.001 489.202 146.144 489.233 146.304 489.233C146.467 489.233 146.611 489.202 146.736 489.14C146.861 489.077 146.957 488.994 147.023 488.889C147.092 488.785 147.127 488.677 147.127 488.566C147.127 488.382 147.059 488.225 146.924 488.097C146.788 487.968 146.585 487.904 146.314 487.904H146.038V487.466H146.319C146.479 487.466 146.616 487.438 146.731 487.383C146.846 487.327 146.933 487.254 146.992 487.164C147.051 487.07 147.08 486.971 147.08 486.867C147.08 486.766 147.049 486.67 146.986 486.58C146.924 486.49 146.835 486.417 146.721 486.361C146.609 486.302 146.481 486.272 146.335 486.272C146.189 486.272 146.06 486.302 145.949 486.361C145.838 486.417 145.751 486.491 145.688 486.585C145.629 486.675 145.6 486.771 145.6 486.872H145.146C145.146 486.67 145.198 486.49 145.303 486.33C145.41 486.17 145.555 486.045 145.735 485.954C145.919 485.864 146.119 485.819 146.335 485.819C146.55 485.819 146.748 485.864 146.929 485.954C147.113 486.045 147.257 486.17 147.362 486.33C147.469 486.486 147.523 486.662 147.523 486.856C147.523 487.023 147.473 487.179 147.372 487.325C147.275 487.468 147.146 487.59 146.986 487.69ZM149.46 487.237C149.683 487.237 149.888 487.292 150.075 487.404C150.263 487.515 150.411 487.666 150.518 487.857C150.626 488.045 150.68 488.25 150.68 488.472C150.68 488.702 150.624 488.91 150.513 489.098C150.406 489.282 150.256 489.428 150.065 489.536C149.877 489.643 149.67 489.697 149.445 489.697C149.215 489.697 148.989 489.643 148.767 489.536C148.544 489.428 148.374 489.284 148.256 489.103C148.249 489.093 148.239 489.077 148.225 489.056C148.211 489.035 148.195 489.011 148.178 488.983L148.584 488.764L148.642 488.853C148.718 488.961 148.831 489.051 148.981 489.124C149.134 489.197 149.288 489.233 149.445 489.233C149.591 489.233 149.723 489.2 149.841 489.134C149.962 489.065 150.058 488.973 150.128 488.858C150.197 488.74 150.232 488.611 150.232 488.472C150.232 488.323 150.195 488.189 150.122 488.071C150.053 487.953 149.957 487.861 149.836 487.795C149.717 487.729 149.587 487.695 149.445 487.695C149.319 487.695 149.193 487.72 149.064 487.768C148.939 487.814 148.835 487.876 148.751 487.956L148.428 487.768V485.855H150.414V486.298H148.882V487.372C149.055 487.282 149.248 487.237 149.46 487.237ZM151.528 490.276H151.189L151.361 489.202H151.846L151.528 490.276ZM154.006 489.233C154.162 489.233 154.299 489.2 154.417 489.134C154.539 489.065 154.633 488.974 154.699 488.863C154.765 488.752 154.798 488.632 154.798 488.504C154.798 488.375 154.765 488.257 154.699 488.149C154.633 488.038 154.539 487.949 154.417 487.883C154.299 487.817 154.162 487.784 154.006 487.784C153.849 487.784 153.71 487.817 153.588 487.883C153.47 487.949 153.378 488.038 153.312 488.149C153.246 488.257 153.213 488.375 153.213 488.504C153.213 488.632 153.246 488.754 153.312 488.868C153.378 488.98 153.47 489.068 153.588 489.134C153.71 489.2 153.849 489.233 154.006 489.233ZM152.76 488.504C152.76 488.34 152.8 488.17 152.88 487.993L154.256 485.824L154.652 486.074L153.834 487.357C153.92 487.343 154 487.338 154.073 487.341C154.292 487.341 154.492 487.393 154.673 487.497C154.854 487.598 154.994 487.737 155.095 487.914C155.199 488.092 155.251 488.288 155.251 488.504C155.251 488.726 155.196 488.929 155.085 489.113C154.977 489.294 154.827 489.437 154.636 489.541C154.445 489.645 154.235 489.697 154.006 489.697C153.773 489.697 153.561 489.645 153.37 489.541C153.182 489.437 153.032 489.294 152.921 489.113C152.813 488.929 152.76 488.726 152.76 488.504ZM157.852 488.848C157.928 488.722 157.977 488.58 157.998 488.42C158.018 488.26 158.029 488.036 158.029 487.748C158.029 487.463 158.018 487.242 157.998 487.086C157.977 486.926 157.928 486.783 157.852 486.658C157.713 486.404 157.485 486.278 157.169 486.278C156.845 486.278 156.62 486.403 156.491 486.653C156.415 486.781 156.366 486.924 156.345 487.08C156.324 487.237 156.314 487.459 156.314 487.748C156.314 488.04 156.324 488.264 156.345 488.42C156.366 488.577 156.415 488.717 156.491 488.842C156.62 489.096 156.845 489.223 157.169 489.223C157.488 489.223 157.716 489.098 157.852 488.848ZM155.85 487.748C155.85 487.431 155.862 487.174 155.886 486.976C155.914 486.778 155.98 486.592 156.084 486.418C156.175 486.255 156.309 486.112 156.486 485.991C156.663 485.869 156.891 485.808 157.169 485.808C157.447 485.808 157.674 485.869 157.852 485.991C158.029 486.109 158.164 486.251 158.258 486.418C158.362 486.592 158.427 486.776 158.451 486.971C158.479 487.166 158.493 487.424 158.493 487.748C158.493 488.074 158.479 488.337 158.451 488.535C158.427 488.729 158.362 488.914 158.258 489.087C158.164 489.254 158.029 489.398 157.852 489.52C157.678 489.638 157.45 489.697 157.169 489.697C156.891 489.697 156.663 489.637 156.486 489.515C156.309 489.393 156.175 489.251 156.084 489.087C155.98 488.91 155.914 488.722 155.886 488.524C155.862 488.323 155.85 488.064 155.85 487.748ZM161.1 488.848C161.176 488.722 161.225 488.58 161.246 488.42C161.266 488.26 161.277 488.036 161.277 487.748C161.277 487.463 161.266 487.242 161.246 487.086C161.225 486.926 161.176 486.783 161.1 486.658C160.961 486.404 160.733 486.278 160.417 486.278C160.093 486.278 159.868 486.403 159.739 486.653C159.663 486.781 159.614 486.924 159.593 487.08C159.572 487.237 159.562 487.459 159.562 487.748C159.562 488.04 159.572 488.264 159.593 488.42C159.614 488.577 159.663 488.717 159.739 488.842C159.868 489.096 160.093 489.223 160.417 489.223C160.736 489.223 160.964 489.098 161.1 488.848ZM159.098 487.748C159.098 487.431 159.11 487.174 159.134 486.976C159.162 486.778 159.228 486.592 159.332 486.418C159.423 486.255 159.557 486.112 159.734 485.991C159.911 485.869 160.139 485.808 160.417 485.808C160.695 485.808 160.922 485.869 161.1 485.991C161.277 486.109 161.412 486.251 161.506 486.418C161.61 486.592 161.675 486.776 161.699 486.971C161.727 487.166 161.741 487.424 161.741 487.748C161.741 488.074 161.727 488.337 161.699 488.535C161.675 488.729 161.61 488.914 161.506 489.087C161.412 489.254 161.277 489.398 161.1 489.52C160.926 489.638 160.698 489.697 160.417 489.697C160.139 489.697 159.911 489.637 159.734 489.515C159.557 489.393 159.423 489.251 159.332 489.087C159.228 488.91 159.162 488.722 159.134 488.524C159.11 488.323 159.098 488.064 159.098 487.748Z" fill="#818181"/>
<rect x="206.74" y="452.452" width="24.0381" height="9.55731" rx="4.77866" fill="#FF5852" fill-opacity="0.13"/>
<rect x="211.398" y="455.485" width="2.89616" height="2.89616" rx="1.44808" fill="#FF5852"/>
<path d="M217.914 455.133C218.14 455.133 218.342 455.173 218.519 455.253C218.7 455.333 218.84 455.446 218.941 455.592C219.042 455.734 219.092 455.899 219.092 456.087C219.092 456.271 219.042 456.436 218.941 456.582C218.84 456.728 218.7 456.841 218.519 456.921C218.342 457.001 218.14 457.041 217.914 457.041C217.688 457.041 217.485 457.001 217.304 456.921C217.127 456.841 216.988 456.728 216.887 456.582C216.786 456.436 216.736 456.271 216.736 456.087C216.736 455.899 216.786 455.734 216.887 455.592C216.988 455.446 217.127 455.333 217.304 455.253C217.485 455.173 217.688 455.133 217.914 455.133ZM216.407 457.401C216.96 457.401 217.487 457.39 217.987 457.369C218.491 457.349 218.967 457.305 219.415 457.239L219.447 457.594C219.082 457.663 218.658 457.715 218.175 457.75V459.377H217.695V457.776C217.327 457.793 216.918 457.802 216.47 457.802L216.407 457.401ZM217.195 456.087C217.195 456.254 217.261 456.389 217.393 456.494C217.528 456.594 217.702 456.645 217.914 456.645C218.126 456.645 218.298 456.594 218.43 456.494C218.566 456.389 218.633 456.254 218.633 456.087C218.633 455.92 218.566 455.785 218.43 455.68C218.298 455.576 218.126 455.524 217.914 455.524C217.702 455.524 217.528 455.576 217.393 455.68C217.261 455.785 217.195 455.92 217.195 456.087ZM219.728 454.919H220.203V459.528H219.728V454.919ZM224.769 454.925V457.708H224.29V456.702H223.57V456.301H224.29V454.925H224.769ZM220.974 455.383H222.074V454.883H222.549V455.383H223.643V455.769H220.974V455.383ZM221.235 456.806C221.235 456.647 221.28 456.504 221.37 456.379C221.464 456.254 221.593 456.157 221.756 456.087C221.92 456.018 222.104 455.983 222.309 455.983C222.514 455.983 222.698 456.018 222.861 456.087C223.025 456.157 223.152 456.254 223.242 456.379C223.336 456.504 223.383 456.647 223.383 456.806C223.383 456.966 223.336 457.109 223.242 457.234C223.152 457.359 223.025 457.456 222.861 457.526C222.702 457.592 222.517 457.625 222.309 457.625C222.1 457.625 221.914 457.592 221.751 457.526C221.591 457.456 221.464 457.359 221.37 457.234C221.28 457.109 221.235 456.966 221.235 456.806ZM221.699 456.806C221.699 456.946 221.754 457.057 221.866 457.14C221.98 457.224 222.128 457.265 222.309 457.265C222.49 457.265 222.637 457.224 222.752 457.14C222.867 457.053 222.924 456.942 222.924 456.806C222.924 456.671 222.867 456.561 222.752 456.478C222.637 456.391 222.49 456.348 222.309 456.348C222.128 456.348 221.98 456.389 221.866 456.473C221.754 456.556 221.699 456.667 221.699 456.806ZM221.767 457.938H224.769V459.46H221.767V457.938ZM224.3 459.079V458.323H222.236V459.079H224.3Z" fill="black"/>
<path d="M132.515 473.852L131.822 473.852L131.822 478.702L130.202 477.193L129.71 477.651L132.169 479.941L134.627 477.651L134.136 477.193L132.515 478.702L132.515 473.852Z" fill="#4492F7"/>
<path d="M166.63 490.391C165.27 490.391 164.168 489.289 164.168 487.93C164.168 486.57 165.27 485.468 166.63 485.468C167.989 485.468 169.091 486.57 169.091 487.93C169.091 489.289 167.989 490.391 166.63 490.391ZM166.63 489.899C167.152 489.899 167.653 489.691 168.022 489.322C168.392 488.953 168.599 488.452 168.599 487.93C168.599 487.407 168.392 486.906 168.022 486.537C167.653 486.168 167.152 485.96 166.63 485.96C166.107 485.96 165.606 486.168 165.237 486.537C164.868 486.906 164.66 487.407 164.66 487.93C164.66 488.452 164.868 488.953 165.237 489.322C165.606 489.691 166.107 489.899 166.63 489.899ZM166.384 488.668H166.876V489.16H166.384V488.668ZM166.876 488.263V488.422H166.384V488.053C166.384 487.987 166.409 487.925 166.456 487.879C166.502 487.832 166.564 487.806 166.63 487.806C166.7 487.806 166.768 487.787 166.827 487.749C166.886 487.712 166.934 487.658 166.963 487.595C166.993 487.532 167.005 487.461 166.996 487.392C166.988 487.323 166.96 487.257 166.915 487.203C166.871 487.149 166.812 487.109 166.746 487.087C166.679 487.065 166.608 487.062 166.54 487.079C166.472 487.096 166.411 487.132 166.362 487.182C166.314 487.233 166.281 487.296 166.268 487.365L165.785 487.268C165.815 487.118 165.884 486.979 165.985 486.865C166.086 486.751 166.216 486.666 166.361 486.618C166.506 486.571 166.661 486.562 166.81 486.594C166.96 486.626 167.098 486.697 167.21 486.8C167.323 486.903 167.407 487.034 167.452 487.18C167.498 487.325 167.504 487.48 167.47 487.629C167.436 487.778 167.363 487.915 167.259 488.026C167.154 488.138 167.022 488.219 166.876 488.263Z" fill="#818181"/>
<path d="M163.261 476.712C163.261 477.094 163.315 477.466 163.423 477.827C163.534 478.185 163.692 478.526 163.897 478.849H164.392C164.163 478.533 163.986 478.194 163.86 477.833C163.739 477.468 163.678 477.094 163.678 476.712C163.678 476.33 163.739 475.958 163.86 475.596C163.986 475.231 164.163 474.891 164.392 474.574H163.897C163.692 474.898 163.534 475.24 163.423 475.601C163.315 475.959 163.261 476.33 163.261 476.712ZM166.695 476.842V477.64C167.164 477.615 167.578 477.575 167.936 477.52L167.972 477.874C167.527 477.961 167.079 478.017 166.627 478.041C166.175 478.062 165.638 478.074 165.016 478.078L164.959 477.676C165.494 477.676 165.913 477.671 166.215 477.661V476.842H166.695ZM165.089 476.623C165.426 476.522 165.696 476.361 165.897 476.138C166.099 475.912 166.205 475.655 166.215 475.367H165.204V474.981H166.215V474.434H166.695V474.981H167.727V475.367H166.695C166.709 475.641 166.818 475.888 167.023 476.107C167.228 476.326 167.499 476.481 167.837 476.571L167.618 476.946C167.35 476.87 167.115 476.752 166.914 476.592C166.716 476.429 166.565 476.236 166.46 476.013C166.359 476.246 166.21 476.448 166.012 476.618C165.814 476.788 165.579 476.915 165.308 476.999L165.089 476.623ZM168.222 474.387H168.702V479.006H168.222V474.387ZM173.404 474.392V478.995H172.945V476.618H172.351V478.761H171.903V474.491H172.351V476.222H172.945V474.392H173.404ZM169.646 474.95H171.35V475.336H170.12V477.483C170.429 477.48 170.695 477.469 170.918 477.452C171.14 477.435 171.364 477.402 171.59 477.353L171.637 477.754C171.376 477.807 171.119 477.841 170.865 477.859C170.615 477.876 170.311 477.885 169.953 477.885H169.646V474.95ZM178.823 474.392V475.513H179.48V475.914H178.823V477.04H178.338V474.392H178.823ZM175.45 474.658H175.925V476.331C176.623 476.324 177.282 476.262 177.9 476.144L177.958 476.535C177.266 476.67 176.552 476.738 175.815 476.738H175.45V474.658ZM175.831 477.28H178.823V479H178.338V477.671H175.831V477.28ZM183.567 474.559V474.945H182.895V475.878H183.541V476.264H182.113V476.774H183.958V477.165H179.798V476.774H181.638V476.264H180.2V475.878H180.846V474.945H180.173V474.559H183.567ZM180.262 477.588H183.447V479H182.962V477.968H180.262V477.588ZM182.42 475.878V474.945H181.326V475.878H182.42ZM185.632 476.712C185.632 476.333 185.576 475.963 185.465 475.601C185.357 475.24 185.202 474.898 185.001 474.574H184.5C184.73 474.891 184.905 475.23 185.027 475.591C185.152 475.952 185.215 476.326 185.215 476.712C185.215 477.098 185.152 477.471 185.027 477.833C184.905 478.194 184.73 478.533 184.5 478.849H185.001C185.202 478.526 185.357 478.184 185.465 477.822C185.576 477.461 185.632 477.091 185.632 476.712Z" fill="#818181"/>
<circle cx="171.712" cy="251.754" r="45.528" fill="#4FEDAE"/>
<path d="M171.712 206.226C178.831 206.226 185.851 207.895 192.208 211.1C198.565 214.305 204.081 218.956 208.315 224.679C212.548 230.403 215.381 237.04 216.584 244.056C217.788 251.073 217.329 258.274 215.245 265.081C213.161 271.889 209.51 278.112 204.584 283.252C199.659 288.393 193.597 292.306 186.885 294.679C180.173 297.051 172.998 297.817 165.936 296.914C158.874 296.011 152.123 293.464 146.224 289.479L171.712 251.754V206.226Z" fill="#6792F8"/>
<path d="M146.315 289.54C138.695 284.418 132.802 277.113 129.408 268.583C126.015 260.052 125.279 250.695 127.299 241.739L171.712 251.754L146.315 289.54Z" fill="#FFE073"/>
<ellipse cx="171.712" cy="251.931" rx="27.0323" ry="26.8544" fill="white"/>
<path d="M159.871 248.709H159.385L158.929 250.493H158.07L157.607 248.715H157.044L156.582 250.493H155.723L155.266 248.709H154.774L155.237 250.493H154.549V250.997H155.373L155.889 252.988H156.416L156.92 250.997H157.726L158.236 252.988H158.763L159.279 250.997H160.097V250.493H159.409L159.871 248.709ZM155.847 250.997H156.452L156.149 252.176L155.847 250.997ZM157.05 250.493L157.323 249.421L157.596 250.493H157.05ZM158.2 250.997H158.805L158.502 252.176L158.2 250.997ZM163.071 250.778C163.403 250.564 163.681 250.227 163.681 249.829C163.681 249.148 163.071 248.65 162.33 248.65C161.589 248.65 160.979 249.148 160.979 249.847H161.495C161.495 249.503 161.815 249.166 162.33 249.166C162.846 249.166 163.172 249.509 163.172 249.841C163.172 250.191 162.875 250.523 162.306 250.523H161.986V251.021H162.306C162.97 251.021 163.231 251.394 163.231 251.773C163.231 252.153 162.869 252.532 162.295 252.532C161.72 252.532 161.37 252.147 161.37 251.767H160.849C160.849 252.514 161.489 253.048 162.295 253.048C163.101 253.048 163.741 252.514 163.741 251.791C163.741 251.358 163.433 250.991 163.071 250.778ZM165.026 252.496H164.475L164.279 253.717H164.664L165.026 252.496ZM168.245 250.778C168.577 250.564 168.856 250.227 168.856 249.829C168.856 249.148 168.245 248.65 167.504 248.65C166.764 248.65 166.153 249.148 166.153 249.847H166.669C166.669 249.503 166.989 249.166 167.504 249.166C168.02 249.166 168.346 249.509 168.346 249.841C168.346 250.191 168.05 250.523 167.481 250.523H167.161V251.021H167.481C168.144 251.021 168.405 251.394 168.405 251.773C168.405 252.153 168.044 252.532 167.469 252.532C166.894 252.532 166.544 252.147 166.544 251.767H166.023C166.023 252.514 166.663 253.048 167.469 253.048C168.275 253.048 168.915 252.514 168.915 251.791C168.915 251.358 168.607 250.991 168.245 250.778ZM172.126 248.686H171.628L169.518 251.477V251.969H171.628V253.012H172.126V251.969H172.737V251.465H172.126V248.686ZM170.147 251.465L171.628 249.474V251.465H170.147ZM174.796 252.556C174.245 252.556 173.86 252.176 173.86 251.791C173.86 251.4 174.251 251.027 174.796 251.027C175.347 251.027 175.727 251.4 175.727 251.791C175.727 252.176 175.347 252.556 174.796 252.556ZM173.338 251.791C173.338 252.526 174.026 253.065 174.796 253.065C175.567 253.065 176.254 252.526 176.254 251.791C176.254 251.347 175.993 250.967 175.608 250.748C175.928 250.535 176.142 250.215 176.142 249.829C176.142 249.148 175.496 248.656 174.796 248.656C174.097 248.656 173.463 249.148 173.463 249.829C173.463 250.215 173.676 250.535 173.996 250.748C173.605 250.967 173.338 251.347 173.338 251.791ZM173.99 249.824C173.99 249.492 174.322 249.166 174.796 249.166C175.282 249.166 175.608 249.492 175.608 249.824C175.608 250.155 175.282 250.481 174.796 250.481C174.322 250.481 173.99 250.155 173.99 249.824ZM177.539 252.496H176.988L176.792 253.717H177.177L177.539 252.496ZM179.952 250.825C179.407 250.825 179.051 250.434 179.051 250.001C179.051 249.557 179.407 249.166 179.952 249.166C180.497 249.166 180.853 249.557 180.853 250.001C180.853 250.434 180.497 250.825 179.952 250.825ZM178.536 250.001C178.536 250.718 179.081 251.287 179.857 251.311C179.958 251.317 180.041 251.323 180.142 251.305L179.217 252.751L179.673 253.03L181.232 250.576C181.327 250.398 181.368 250.209 181.368 250.001C181.368 249.225 180.746 248.644 179.958 248.644C179.158 248.644 178.536 249.225 178.536 250.001ZM183.218 248.686H182.708L181.944 249.023L182.151 249.486L182.708 249.243V253.012H183.218V248.686ZM185.45 252.532C184.899 252.532 184.544 252.141 184.544 251.702C184.544 251.27 184.899 250.884 185.45 250.884C185.996 250.884 186.351 251.27 186.351 251.702C186.351 252.141 185.996 252.532 185.45 252.532ZM184.028 251.702C184.028 252.479 184.65 253.059 185.45 253.059C186.245 253.059 186.861 252.479 186.861 251.702C186.861 250.95 186.28 250.387 185.522 250.381C185.415 250.375 185.362 250.381 185.249 250.398L186.185 248.94L185.735 248.656L184.17 251.121C184.081 251.305 184.028 251.501 184.028 251.702Z" fill="#8C8C8C"/>
<path d="M122.949 192.795V193.601H120.602V194.095H125.923V193.601H123.556V192.795H122.949ZM120.882 192.608L121.096 193.095C122.102 192.981 122.942 192.555 123.256 191.928C123.576 192.561 124.416 192.981 125.423 193.095L125.643 192.608C124.589 192.508 123.756 192.028 123.676 191.455H125.443V190.961H121.089V191.455H122.856C122.776 192.035 121.936 192.508 120.882 192.608ZM121.236 195.562C121.236 196.208 121.989 196.568 123.256 196.568C124.523 196.568 125.276 196.208 125.276 195.562C125.276 194.902 124.523 194.535 123.256 194.535C121.989 194.535 121.236 194.902 121.236 195.562ZM121.849 195.562C121.849 195.195 122.362 195.002 123.256 195.002C124.143 195.002 124.649 195.195 124.649 195.562C124.649 195.908 124.143 196.108 123.256 196.108C122.362 196.108 121.849 195.908 121.849 195.562ZM127.103 190.941V192.961H128.783V193.648H126.43V194.141H131.75V193.648H129.39V192.961H131.063V190.941H127.103ZM127.023 195.195H130.477V196.588H131.097V194.702H127.023V195.195ZM127.703 192.468V191.421H130.457V192.468H127.703ZM136.504 190.701V191.508H135.224V190.968H134.617V191.768H133.144V190.968H132.53V193.541H135.224V193.055H136.504V193.755H137.111V190.701H136.504ZM133.144 193.048V192.241H134.617V193.048H133.144ZM133.304 194.515H136.511V195.008H133.317V196.502H137.324V196.015H133.917V195.468H137.111V194.028H133.304V194.515ZM135.224 192.581V191.981H136.504V192.581H135.224ZM143.835 190.688V196.595H144.448V190.688H143.835ZM139.948 195.182H142.748V191.181H142.141V192.715H140.555V191.181H139.948V195.182ZM140.555 194.682V193.195H142.141V194.682H140.555ZM145.449 193.435V193.928H147.795V194.495C146.715 194.555 146.082 194.922 146.082 195.535C146.082 196.195 146.835 196.568 148.102 196.568C149.362 196.568 150.122 196.195 150.122 195.535C150.122 194.922 149.482 194.555 148.402 194.495V193.928H150.769V193.435H145.449ZM145.729 192.621L145.949 193.108C146.949 192.995 147.789 192.561 148.109 191.935C148.422 192.561 149.262 192.995 150.269 193.108L150.489 192.621C149.422 192.521 148.602 192.035 148.522 191.455H150.289V190.961H145.935V191.455H147.702C147.622 192.035 146.782 192.521 145.729 192.621ZM146.695 195.535C146.695 195.162 147.215 194.968 148.102 194.968C148.982 194.968 149.496 195.162 149.496 195.535C149.496 195.902 148.982 196.095 148.102 196.095C147.215 196.095 146.695 195.902 146.695 195.535Z" fill="#818181"/>
<rect x="233.42" y="207.845" width="4.85632" height="12.5455" fill="#6792F8"/>
<rect x="233.42" y="226.459" width="4.85632" height="12.5455" fill="#6FC183"/>
<rect x="330.953" y="207.44" width="4.85632" height="12.5455" fill="#F8D25C"/>
<path d="M244.83 212.219H242.465V212.663H244.291C244.273 212.965 244.225 213.25 244.148 213.522L242.198 213.653L242.276 214.127L243.982 213.961C243.674 214.631 243.111 215.194 242.169 215.656L242.465 216.083C244.356 215.134 244.83 213.765 244.83 212.219ZM245.63 216.918H246.175V214.234H246.987V213.777H246.175V211.679H245.63V216.918ZM250.01 212.219H247.645V212.663H249.47C249.453 212.965 249.405 213.25 249.328 213.522L247.378 213.653L247.455 214.127L249.162 213.961C248.854 214.631 248.291 215.194 247.349 215.656L247.645 216.083C249.536 215.134 250.01 213.765 250.01 212.219ZM250.81 216.918H251.355V214.234H252.167V213.777H251.355V211.679H250.81V216.918ZM254.858 212.017C253.756 212.017 252.949 212.562 252.949 213.404C252.949 214.174 253.625 214.696 254.585 214.779V215.822H252.499V216.272H257.234V215.822H255.125V214.779C256.096 214.702 256.778 214.174 256.778 213.404C256.778 212.562 255.972 212.017 254.858 212.017ZM253.477 213.404C253.477 212.823 254.058 212.45 254.858 212.45C255.664 212.45 256.239 212.823 256.239 213.404C256.239 213.985 255.664 214.352 254.858 214.352C254.058 214.352 253.477 213.985 253.477 213.404Z" fill="#4A4A4A"/>
<path d="M244.302 232.269V232.713H245.008V235.274H245.523V230.426H245.008V232.269H244.302ZM242.329 234.302H242.667C243.467 234.302 243.965 234.284 244.557 234.177L244.504 233.733C243.976 233.839 243.532 233.857 242.844 233.863V232.761H244.036V232.334H242.844V231.362H244.267V230.918H242.329V234.302ZM246.074 235.534H246.596V230.301H246.074V235.534ZM249.405 230.349V230.515C249.405 231.125 248.581 231.647 247.574 231.753L247.758 232.174C248.599 232.062 249.352 231.694 249.684 231.149C250.016 231.694 250.757 232.062 251.604 232.174L251.794 231.753C250.786 231.647 249.956 231.125 249.956 230.515V230.349H249.405ZM247.319 232.909H252.049V232.47H247.319V232.909ZM247.882 233.757H250.911V234.195H247.9V235.481H251.598V235.06H248.433V234.586H251.45V233.348H247.882V233.757ZM255.99 230.295V235.546H256.535V232.814H257.359V232.352H256.535V230.295H255.99ZM252.701 231.226H254.532V232.251H252.707V234.296H253.127C254.105 234.296 254.805 234.254 255.616 234.106L255.563 233.662C254.81 233.804 254.141 233.839 253.246 233.839V232.696H255.065V230.775H252.701V231.226Z" fill="#4A4A4A"/>
<path d="M340.852 211.702C340.176 211.702 339.738 212.407 339.738 213.539C339.738 214.677 340.176 215.388 340.852 215.388C341.533 215.388 341.972 214.677 341.972 213.539C341.972 212.407 341.533 211.702 340.852 211.702ZM340.235 213.539C340.235 212.709 340.472 212.217 340.852 212.217C341.237 212.217 341.474 212.709 341.474 213.539C341.474 214.38 341.237 214.872 340.852 214.872C340.472 214.872 340.235 214.38 340.235 213.539ZM342.452 216.259H342.968V213.782H343.608V216.514H344.135V211.281H343.608V213.337H342.968V211.393H342.452V216.259ZM345.279 211.441V211.856H346.044V212.774H345.309V213.189H349.108V212.774H348.373V211.856H349.137V211.441H345.279ZM344.852 214.019H349.582V213.574H344.852V214.019ZM345.415 214.837H348.444V215.234H345.433V216.461H349.131V216.052H345.967V215.619H348.983V214.434H345.415V214.837ZM346.589 212.774V211.856H347.833V212.774H346.589Z" fill="#4A4A4A"/>
<path d="M302.764 216.006C302.213 216.006 301.857 215.614 301.857 215.176C301.857 214.743 302.213 214.358 302.764 214.358C303.309 214.358 303.665 214.743 303.665 215.176C303.665 215.614 303.309 216.006 302.764 216.006ZM301.342 215.176C301.342 215.952 301.964 216.533 302.764 216.533C303.558 216.533 304.175 215.952 304.175 215.176C304.175 214.423 303.594 213.86 302.835 213.854C302.728 213.848 302.675 213.854 302.563 213.872L303.499 212.414L303.049 212.13L301.484 214.595C301.395 214.779 301.342 214.974 301.342 215.176ZM306.03 212.159H305.52L304.756 212.497L304.963 212.959L305.52 212.716V216.486H306.03V212.159ZM306.887 215.964V216.503H307.444V215.964H306.887ZM310.713 215.567C310.618 215.751 310.411 215.994 309.943 215.994C309.469 215.994 309.267 215.751 309.172 215.561C308.983 215.253 308.965 214.885 308.965 214.317C308.965 213.748 308.983 213.386 309.172 213.072C309.267 212.888 309.469 212.645 309.943 212.645C310.411 212.645 310.618 212.894 310.713 213.078C310.903 213.386 310.921 213.748 310.921 214.317C310.921 214.891 310.903 215.259 310.713 215.567ZM308.437 214.317C308.437 214.885 308.443 215.389 308.71 215.84C308.87 216.13 309.237 216.533 309.943 216.533C310.654 216.533 311.015 216.136 311.181 215.84C311.448 215.395 311.448 214.897 311.448 214.317C311.448 213.753 311.448 213.25 311.181 212.805C311.015 212.515 310.654 212.112 309.943 212.112C309.237 212.112 308.87 212.509 308.71 212.805C308.443 213.25 308.437 213.748 308.437 214.317ZM313.275 216.474H313.827L316.535 212.159H315.978L313.275 216.474ZM312.286 213.202C312.286 213.836 312.789 214.376 313.43 214.376C314.07 214.376 314.567 213.836 314.567 213.202C314.567 212.562 314.07 212.029 313.43 212.029C312.789 212.029 312.286 212.562 312.286 213.202ZM312.801 213.202C312.801 212.829 313.092 212.533 313.43 212.533C313.779 212.533 314.064 212.829 314.064 213.202C314.064 213.576 313.779 213.872 313.43 213.872C313.092 213.872 312.801 213.576 312.801 213.202ZM315.19 215.407C315.19 216.041 315.693 216.58 316.334 216.58C316.974 216.58 317.471 216.041 317.471 215.407C317.471 214.761 316.974 214.234 316.334 214.234C315.693 214.234 315.19 214.761 315.19 215.407ZM315.699 215.407C315.699 215.034 315.996 214.737 316.334 214.737C316.683 214.737 316.968 215.034 316.968 215.407C316.968 215.774 316.683 216.077 316.334 216.077C315.996 216.077 315.699 215.774 315.699 215.407Z" fill="#4A4A4A"/>
<path d="M301.887 231.718C301.863 231.765 301.851 231.807 301.839 231.848L301.348 231.718C301.365 231.653 301.389 231.581 301.425 231.516C301.745 230.841 302.568 230.556 303.262 230.858C303.961 231.119 304.275 231.919 303.961 232.601C303.89 232.731 303.807 232.862 303.695 232.968L302.136 234.527H304.18V235.043H301.377V234.539L303.333 232.619C303.392 232.553 303.452 232.482 303.487 232.405C303.671 232.008 303.499 231.516 303.049 231.321C302.604 231.131 302.088 231.321 301.887 231.718ZM306.03 230.775H305.52L304.756 231.113L304.963 231.576L305.52 231.333V235.102H306.03V230.775ZM306.887 234.58V235.12H307.444V234.58H306.887ZM310.713 234.183C310.618 234.367 310.411 234.61 309.943 234.61C309.469 234.61 309.267 234.367 309.172 234.177C308.983 233.869 308.965 233.502 308.965 232.933C308.965 232.364 308.983 232.002 309.172 231.688C309.267 231.504 309.469 231.261 309.943 231.261C310.411 231.261 310.618 231.51 310.713 231.694C310.903 232.002 310.921 232.364 310.921 232.933C310.921 233.508 310.903 233.875 310.713 234.183ZM308.437 232.933C308.437 233.502 308.443 234.005 308.71 234.456C308.87 234.746 309.237 235.149 309.943 235.149C310.654 235.149 311.015 234.752 311.181 234.456C311.448 234.011 311.448 233.514 311.448 232.933C311.448 232.37 311.448 231.866 311.181 231.421C311.015 231.131 310.654 230.728 309.943 230.728C309.237 230.728 308.87 231.125 308.71 231.421C308.443 231.866 308.437 232.364 308.437 232.933ZM313.275 235.09H313.827L316.535 230.775H315.978L313.275 235.09ZM312.286 231.819C312.286 232.453 312.789 232.992 313.43 232.992C314.07 232.992 314.567 232.453 314.567 231.819C314.567 231.178 314.07 230.645 313.43 230.645C312.789 230.645 312.286 231.178 312.286 231.819ZM312.801 231.819C312.801 231.445 313.092 231.149 313.43 231.149C313.779 231.149 314.064 231.445 314.064 231.819C314.064 232.192 313.779 232.488 313.43 232.488C313.092 232.488 312.801 232.192 312.801 231.819ZM315.19 234.023C315.19 234.657 315.693 235.197 316.334 235.197C316.974 235.197 317.471 234.657 317.471 234.023C317.471 233.377 316.974 232.85 316.334 232.85C315.693 232.85 315.19 233.377 315.19 234.023ZM315.699 234.023C315.699 233.65 315.996 233.354 316.334 233.354C316.683 233.354 316.968 233.65 316.968 234.023C316.968 234.391 316.683 234.693 316.334 234.693C315.996 234.693 315.699 234.391 315.699 234.023Z" fill="#4A4A4A"/>
<rect x="126.02" y="310.688" width="293.091" height="7.25921" fill="#FFE07E"/>
<rect x="126.02" y="310.688" width="214.083" height="7.28448" fill="#6792F8"/>
<path d="M119.67 339.878C119.67 336.286 122.582 333.374 126.174 333.374H419.112V433.188H126.174C122.582 433.188 119.67 430.276 119.67 426.684V339.878Z" fill="#F6F8FF"/>
<path d="M130.73 348.597H418.677" stroke="#D8D8D8" stroke-width="0.497136"/>
<path d="M130.73 384.073H418.677" stroke="#D8D8D8" stroke-width="0.497136"/>
<path d="M130.73 420.141H418.677" stroke="#D8D8D8" stroke-width="0.497136"/>
<path d="M131.324 356.224H135.18L138.16 354.197L141.84 356.7L148.676 353.243L152.882 352.528L158.842 354.197L162.873 353.72L165.853 355.031L169.884 354.197L172.338 352.886L176.369 353.72L182.854 352.886L186.009 351.336L196.7 352.17L199.855 350.859L203.711 351.097L207.041 349.667L211.423 350.024L214.052 349.19H224.743L227.197 350.382H232.631L238.415 351.932H241.745L244.549 353.72H248.23L251.56 356.104H255.065L258.22 355.389H263.829L265.932 355.747L269.262 354.435L272.417 354.793L275.572 352.886L279.077 352.051L282.583 353.482L286.263 352.886L289.068 354.435L292.924 353.72L296.604 350.978L299.759 352.886L304.667 352.051L306.595 351.813L309.049 352.051L313.43 352.29L316.76 353.72L320.792 353.959L323.947 355.151L327.627 354.316L330.081 354.912L335.339 355.151L337.968 355.985L340.422 357.297L346.556 357.058L351.464 359.204L354.093 357.297L358.3 360.396L361.63 368.145L364.96 368.383L367.414 374.583L371.62 382.212L378.806 374.583L381.786 378.397L385.467 380.782L392.127 390.319L395.807 391.392L398.612 397.591L402.643 402.836L405.798 422.507L409.479 415.235L413.159 418.93L416.314 402.36" stroke="#6792F8" stroke-width="1.18253" stroke-linecap="round" stroke-linejoin="round"/>
<path d="M130.73 356.89L134.414 357.496H137.572L140.905 356.647L144.764 357.739H146.518L148.272 357.133L154.763 357.739H156.342L158.271 357.133H159.85L160.376 357.496H161.604L166.867 356.284H168.972L172.305 357.496H176.69L182.479 356.284H185.987L188.969 357.133H194.934L197.214 357.739H200.898L202.477 358.103L209.844 357.982L213.177 357.618L216.861 358.103L222.825 358.588L226.334 359.316H234.052L237.034 359.68H242.121L244.577 360.165L252.646 360.65L257.032 361.863H260.716L264.926 362.954L271.942 361.499H275.801L279.485 362.227H282.467L288.081 363.197H292.642L295.448 362.227H299.658L302.465 360.407L307.377 362.469H311.762L316.674 363.925L320.007 362.105L323.164 363.561L326.848 363.925L329.655 363.561L333.865 363.682L343.338 365.623H347.372L354.214 361.014L357.722 363.439L361.757 364.41H364.914L371.229 367.442L378.07 366.108L381.403 368.655L385.613 369.504H390.174L398.594 372.657H403.506L412.277 375.204L416.312 373.142" stroke="#FF5852" stroke-width="1.18253" stroke-linecap="round" stroke-linejoin="round"/>
<circle cx="279.368" cy="481.391" r="8.08464" fill="#6792F8" fill-opacity="0.15"/>
<path d="M278.546 479.674L277.427 483.078H277.381L276.265 479.674H275.33L276.937 484.104H277.868L279.478 479.674H278.546ZM283.387 480.883C283.307 480.121 282.689 479.617 281.706 479.617C280.676 479.617 279.99 480.159 279.99 480.946C279.99 481.561 280.408 481.987 281.204 482.16L281.896 482.313C282.369 482.42 282.58 482.605 282.58 482.89C282.58 483.262 282.216 483.496 281.651 483.496C281.129 483.496 280.826 483.297 280.751 482.893H279.86C279.97 483.721 280.598 484.194 281.66 484.194C282.793 484.194 283.471 483.623 283.471 482.821C283.471 482.198 283.073 481.809 282.263 481.621L281.553 481.46C281.069 481.347 280.858 481.16 280.861 480.897C280.858 480.563 281.216 480.303 281.712 480.303C282.193 480.303 282.47 480.531 282.551 480.883H283.387Z" fill="#6792F8"/>
<path d="M262.102 212.585V216.381H262.559V212.585H262.102ZM265.95 212.585H263.282V213.032H264.385V216.381H264.847V213.032H265.95V212.585Z" fill="#A5A5A5"/>
<path d="M360.179 212.661V213.046H361.167V213.113C361.167 213.701 360.741 214.226 360.044 214.429L360.273 214.803C360.814 214.632 361.214 214.278 361.417 213.82C361.625 214.242 362.025 214.564 362.561 214.72L362.774 214.346C362.082 214.148 361.64 213.664 361.64 213.113V213.046H362.628V212.661H361.64V212.13H361.167V212.661H360.179ZM360.845 216.67H363.84V215.084H360.845V216.67ZM361.313 216.29V215.464H363.372V216.29H361.313ZM362.504 213.8H363.362V214.855H363.84V212.146H363.362V213.404H362.504V213.8ZM367.678 212.146V215.464H368.162V213.872H368.822V213.477H368.162V212.146H367.678ZM364.787 214.673H365.145C366.123 214.673 366.664 214.637 367.272 214.507L367.226 214.127C366.654 214.247 366.149 214.278 365.26 214.278V212.921H366.82V212.531H364.787V214.673ZM365.275 216.639H368.349V216.244H365.749V215.126H365.275V216.639ZM373.64 212.141V216.732H374.118V212.141H373.64ZM370.385 215.516L370.639 215.895C372.194 215.136 372.766 213.976 372.766 212.63H370.603V213.02H372.283C372.189 214.096 371.596 214.928 370.385 215.516ZM376.708 212.172V212.318C376.708 212.853 375.98 213.295 375.101 213.394L375.257 213.758C376.001 213.664 376.661 213.342 376.953 212.869C377.244 213.342 377.899 213.664 378.643 213.758L378.804 213.394C377.92 213.295 377.192 212.853 377.192 212.318V212.172H376.708ZM374.878 214.413H376.708V214.824H375.372V215.188H378.029V215.562H375.387V216.686H378.632V216.316H375.855V215.911H378.502V214.824H377.181V214.413H379.027V214.023H374.878V214.413Z" fill="#A5A5A5"/>
<path d="M261.246 231.519V231.904H262.234V231.972C262.234 232.559 261.807 233.084 261.11 233.287L261.339 233.662C261.88 233.49 262.28 233.136 262.483 232.679C262.691 233.1 263.092 233.422 263.627 233.578L263.84 233.204C263.149 233.006 262.707 232.523 262.707 231.972V231.904H263.695V231.519H262.707V230.989H262.234V231.519H261.246ZM261.911 235.528H264.906V233.942H261.911V235.528ZM262.379 235.149V234.322H264.438V235.149H262.379ZM263.57 232.658H264.428V233.714H264.906V231.004H264.428V232.263H263.57V232.658ZM268.744 231.004V234.322H269.228V232.731H269.888V232.336H269.228V231.004H268.744ZM265.853 233.532H266.212C267.189 233.532 267.73 233.495 268.339 233.365L268.292 232.986C267.72 233.105 267.215 233.136 266.326 233.136V231.779H267.886V231.389H265.853V233.532ZM266.342 235.497H269.415V235.102H266.815V233.984H266.342V235.497ZM274.706 230.999V235.591H275.185V230.999H274.706ZM271.451 234.374L271.706 234.754C273.261 233.994 273.833 232.835 273.833 231.488H271.669V231.878H273.349C273.255 232.954 272.663 233.786 271.451 234.374ZM277.775 231.03V231.176C277.775 231.712 277.046 232.154 276.168 232.252L276.324 232.616C277.067 232.523 277.728 232.2 278.019 231.727C278.31 232.2 278.965 232.523 279.709 232.616L279.87 232.252C278.986 232.154 278.258 231.712 278.258 231.176V231.03H277.775ZM275.944 233.272H277.775V233.682H276.438V234.046H279.095V234.421H276.454V235.544H279.699V235.175H276.922V234.769H279.569V233.682H278.248V233.272H280.094V232.882H275.944V233.272Z" fill="#A5A5A5"/>
<path d="M42.3043 95.5263V96.9056H56.8046V95.5263H50.3439V92.2053H55.1168V83.966H53.4472V86.7427H45.6435V83.966H43.9739V92.2053H48.6924V95.5263H42.3043ZM45.6435 90.8441V88.1038H53.4472V90.8441H45.6435ZM57.8939 91.933V93.2941H61.5053V98.8837H63.2112V93.2941H67.0042V98.8837H68.7101V93.2941H72.3942V91.933H57.8939ZM59.4728 86.9968C59.4728 89.1382 61.7413 90.4993 65.0986 90.4993C68.4742 90.4993 70.7427 89.1382 70.7427 86.9968C70.7427 84.8371 68.4742 83.4942 65.0986 83.4942C61.7413 83.4942 59.4728 84.8371 59.4728 86.9968ZM61.1787 86.9968C61.1787 85.672 62.7575 84.819 65.0986 84.819C67.476 84.819 69.0368 85.672 69.0368 86.9968C69.0368 88.3216 67.476 89.1564 65.0986 89.1564C62.7575 89.1564 61.1787 88.3216 61.1787 86.9968ZM77.3938 90.3179V91.6608H83.7819V93.2034C80.8419 93.3667 79.1179 94.3649 79.1179 96.0345C79.1179 97.8311 81.1686 98.8474 84.6167 98.8474C88.0467 98.8474 90.1156 97.8311 90.1156 96.0345C90.1156 94.3649 88.3734 93.3667 85.4334 93.2034V91.6608H91.8759V90.3179H77.3938ZM78.156 88.1038L78.7549 89.4286C81.4771 89.1201 83.7638 87.9405 84.6349 86.2345C85.4878 87.9405 87.7745 89.1201 90.5148 89.4286L91.1137 88.1038C88.21 87.8316 85.9778 86.5068 85.76 84.9279H90.5693V83.5849H78.7186V84.9279H83.5278C83.3101 86.5068 81.0234 87.8316 78.156 88.1038ZM80.7875 96.0345C80.7875 95.0182 82.203 94.4919 84.6167 94.4919C87.0123 94.4919 88.4097 95.0182 88.4097 96.0345C88.4097 97.0326 87.0123 97.5589 84.6167 97.5589C82.203 97.5589 80.7875 97.0326 80.7875 96.0345ZM104.471 82.8772V94.5282H106.141V82.8772H104.471ZM93.3282 87.9405C93.3282 90.2634 95.143 91.9149 97.5385 91.9149C99.9522 91.9149 101.767 90.2634 101.767 87.9405C101.767 85.6175 99.9522 83.966 97.5385 83.966C95.143 83.966 93.3282 85.6175 93.3282 87.9405ZM94.9615 87.9405C94.9615 86.4342 96.0685 85.4179 97.5385 85.4179C99.0267 85.4179 100.134 86.4342 100.134 87.9405C100.134 89.4467 99.0267 90.463 97.5385 90.463C96.0685 90.463 94.9615 89.4467 94.9615 87.9405ZM95.7963 98.5571H106.631V97.1778H97.4478V93.3486H95.7963V98.5571ZM112.483 91.8967V93.276H118.853V98.8837H120.505V93.276H126.965V91.8967H112.483ZM113.3 89.356L113.935 90.6808C116.494 90.2634 118.763 88.9568 119.724 87.1238C120.704 88.9568 122.955 90.2634 125.532 90.6808L126.149 89.356C123.172 88.9386 120.686 87.1419 120.65 85.1457H125.586V83.8209H113.808V85.1457H118.799C118.763 87.1419 116.276 88.9386 113.3 89.356ZM132.156 83.6212V85.182C132.156 87.4868 130.65 89.6464 128.182 90.5356L129.017 91.8786C130.922 91.189 132.338 89.7371 133.027 87.9405C133.735 89.6101 135.114 90.9349 136.965 91.5701L137.782 90.2634C135.368 89.4286 133.844 87.4142 133.844 85.182V83.6212H132.156ZM130.523 94.6189H139.579V98.9019H141.248V93.2578H130.523V94.6189ZM139.579 92.4956H141.248V82.8772H139.579V92.4956ZM150.885 83.1494C147.328 83.1494 145.241 84.1112 145.241 85.8897C145.241 87.6864 147.328 88.6845 150.885 88.6845C154.461 88.6845 156.566 87.6864 156.566 85.8897C156.566 84.1112 154.461 83.1494 150.885 83.1494ZM143.662 90.9893H158.145V89.6645H143.662V90.9893ZM145.387 93.4938H154.66V94.7823H145.441V98.7204H156.765V97.4319H147.074V95.98H156.312V92.2597H145.387V93.4938ZM146.947 85.8897C146.947 84.9279 148.381 84.3834 150.885 84.3834C153.426 84.3834 154.842 84.9279 154.842 85.8897C154.842 86.8879 153.426 87.4142 150.885 87.4142C148.381 87.4142 146.947 86.8879 146.947 85.8897ZM174.65 82.8772V91.4612H176.338V82.8772H174.65ZM163.507 87.3053C163.507 89.5193 165.304 91.0438 167.718 91.0438C170.149 91.0438 171.946 89.5193 171.946 87.3053C171.946 85.1457 170.149 83.6212 167.718 83.6212C165.304 83.6212 163.507 85.1457 163.507 87.3053ZM165.141 87.3053C165.141 85.926 166.229 85.0005 167.718 85.0005C169.242 85.0005 170.313 85.926 170.313 87.3053C170.313 88.7027 169.242 89.6282 167.718 89.6282C166.229 89.6282 165.141 88.7027 165.141 87.3053ZM165.957 98.666H176.338V92.2415H174.686V94.0926H167.591V92.2415H165.957V98.666ZM167.591 97.3411V95.3993H174.686V97.3411H167.591ZM179.387 83.8209V85.182H184.668V87.1964H179.405V92.0964H180.567C183.761 92.0964 185.376 92.0419 187.318 91.679L187.155 90.336C185.358 90.6627 183.87 90.7353 181.075 90.7353V88.4849H186.32V83.8209H179.387ZM181.22 94.8912H190.312V98.92H192V93.5664H181.22V94.8912ZM187.354 89.9005H190.312V92.7315H192V82.8772H190.312V85.2183H187.354V86.5612H190.312V88.5575H187.354V89.9005ZM194.342 85.5268V86.8879H202.2V85.5268H199.114V83.3309H197.463V85.5268H194.342ZM194.832 91.5338C194.832 93.7478 196.283 95.236 198.28 95.236C200.294 95.236 201.746 93.7478 201.746 91.5338C201.746 89.3923 200.294 87.8679 198.28 87.8679C196.283 87.8679 194.832 89.3923 194.832 91.5338ZM196.32 91.5338C196.32 90.209 197.136 89.2834 198.28 89.2834C199.423 89.2834 200.24 90.209 200.24 91.5338C200.24 92.9312 199.423 93.8567 198.28 93.8567C197.136 93.8567 196.32 92.9312 196.32 91.5338ZM202.944 98.1215H204.523V90.9167H206.374V98.8837H207.953V82.859H206.374V89.5556H204.523V83.222H202.944V98.1215ZM42.2861 118.514V119.893H48.7105V124.902H50.362V119.893H56.7864V118.514H42.2861ZM44.1917 116.989H55.2075V115.646H45.8432V113.886H54.6631V112.579H45.8432V110.91H55.0261V109.585H44.1917V116.989ZM58.2024 110.474V111.872H61.7594V113.614C61.7594 116.336 59.9809 119.349 57.6035 120.51L58.5835 121.835C60.3983 120.909 61.8864 118.913 62.6124 116.645C63.3201 118.75 64.7538 120.564 66.5323 121.436L67.476 120.111C65.0805 118.967 63.4109 116.136 63.4109 113.614V111.872H66.859V110.474H58.2024ZM68.5831 124.902H70.2527V116.645H72.7934V115.247H70.2527V108.877H68.5831V124.902ZM88.9541 108.877V113.069H86.4134V114.43H88.9541V116.463H86.4134V117.806H88.9541V121.091H90.6419V108.877H88.9541ZM77.4301 112.089H86.3771V110.765H82.8019V108.859H81.1323V110.765H77.4301V112.089ZM78.3012 116.009C78.3012 117.824 79.8256 119.076 81.9671 119.076C84.1267 119.076 85.6149 117.824 85.6149 116.009C85.6149 114.158 84.1267 112.906 81.9671 112.906C79.8256 112.906 78.3012 114.158 78.3012 116.009ZM79.8982 116.009C79.8982 114.92 80.733 114.213 81.9671 114.213C83.2012 114.213 84.036 114.92 84.036 116.009C84.036 117.062 83.2012 117.77 81.9671 117.77C80.733 117.77 79.8982 117.062 79.8982 116.009ZM80.2793 124.557H91.0048V123.178H81.949V120.056H80.2793V124.557ZM103.781 108.877V119.73H105.469V115.029H107.738V113.632H105.469V108.877H103.781ZM92.8563 117.77L93.0741 119.076C95.8689 119.076 99.6437 119.04 103.019 118.441L102.91 117.28C101.567 117.479 100.134 117.588 98.7 117.661V116.554C100.497 116.354 101.622 115.537 101.622 114.303C101.622 112.888 100.134 112.035 97.8652 112.035C95.5604 112.035 94.0904 112.888 94.0904 114.303C94.0904 115.537 95.2156 116.354 97.0304 116.554V117.715C95.5423 117.77 94.0904 117.77 92.8563 117.77ZM93.2738 111.418H102.439V110.202H98.7V108.75H97.0304V110.202H93.2738V111.418ZM94.9797 122.397C94.9797 124.013 96.9215 124.884 100.279 124.884C103.618 124.884 105.578 124.013 105.578 122.397C105.578 120.782 103.618 119.929 100.279 119.929C96.9215 119.929 94.9797 120.782 94.9797 122.397ZM95.6693 114.303C95.6693 113.578 96.486 113.16 97.8652 113.16C99.2082 113.16 100.043 113.578 100.043 114.303C100.043 115.047 99.2082 115.447 97.8652 115.447C96.486 115.447 95.6693 115.047 95.6693 114.303ZM96.6493 122.397C96.6493 121.581 97.9196 121.145 100.279 121.145C102.62 121.145 103.89 121.581 103.89 122.397C103.89 123.214 102.62 123.65 100.279 123.65C97.9196 123.65 96.6493 123.214 96.6493 122.397ZM115.796 109.149C112.239 109.149 110.152 110.111 110.152 111.89C110.152 113.686 112.239 114.685 115.796 114.685C119.371 114.685 121.476 113.686 121.476 111.89C121.476 110.111 119.371 109.149 115.796 109.149ZM108.573 116.989H123.055V115.665H108.573V116.989ZM110.297 119.494H119.571V120.782H110.351V124.72H121.676V123.432H111.985V121.98H121.222V118.26H110.297V119.494ZM111.858 111.89C111.858 110.928 113.291 110.383 115.796 110.383C118.337 110.383 119.752 110.928 119.752 111.89C119.752 112.888 118.337 113.414 115.796 113.414C113.291 113.414 111.858 112.888 111.858 111.89ZM128.708 110.166V111.509H132.265V112.216C132.265 114.412 130.741 116.481 128.273 117.334L129.125 118.659C131.031 117.987 132.447 116.59 133.136 114.848C133.862 116.463 135.26 117.733 137.092 118.35L137.927 117.044C135.514 116.245 133.953 114.303 133.953 112.216V111.509H137.455V110.166H128.708ZM130.886 124.557H141.72V123.178H132.537V119.476H130.886V124.557ZM139.561 120.564H141.23V108.877H139.561V120.564ZM154.442 108.877V120.456H156.13V114.902H158.435V113.523H156.13V108.877H154.442ZM144.352 117.697H145.604C149.016 117.697 150.904 117.57 153.027 117.116L152.864 115.792C150.867 116.209 149.107 116.318 146.004 116.318V111.581H151.448V110.22H144.352V117.697ZM146.058 124.557H156.784V123.178H147.709V119.276H146.058V124.557ZM170.05 108.877V118.223H171.72V114.067H174.006V112.67H171.72V108.877H170.05ZM159.851 117.28H167.346V109.785H165.676V112.108H161.502V109.785H159.851V117.28ZM161.502 115.955V113.432H165.676V115.955H161.502ZM161.593 124.666H172.137V123.323H163.263V120.401H171.829V119.058H161.593V124.666ZM176.366 110.42V111.781H186.003V111.98C186.003 113.922 186.003 116.173 185.404 119.276L187.073 119.476C187.672 116.191 187.672 113.977 187.672 111.98V110.42H176.366ZM174.842 122.724H189.324V121.363H182.028V115.683H180.34V121.363H174.842V122.724Z" fill="#3B3B3B"/>
<path d="M13.5 347.716C13.5 338.292 21.1398 330.652 30.5641 330.652H402.044C411.469 330.652 419.109 338.292 419.109 347.716V525.013C419.109 534.437 411.469 542.077 402.044 542.077H30.5641C21.1399 542.077 13.5 534.437 13.5 525.013V347.716Z" fill="url(#paint0_linear_2618_15876)"/>
<rect x="42.0391" y="35.7168" width="63.6204" height="23.7618" rx="11.8809" fill="#EBF0FE"/>
<path d="M60.8506 44.3312L62.077 43.6566C61.8164 43.1967 61.4025 42.6908 60.7893 42.2616C59.6548 41.5104 58.3978 41.4031 57.5393 41.4797C56.7421 41.5411 55.4084 41.9243 54.7798 43.2274C54.2433 44.4385 54.6572 45.6189 55.1478 46.2321C55.2704 46.3854 55.577 46.692 56.0216 46.9986C56.3895 47.2592 56.8494 47.5045 57.386 47.6732L58.1372 47.9184C59.7775 48.3783 60.2527 48.7003 60.5133 48.9916C60.7586 49.2828 60.9886 49.7427 60.6973 50.4019C60.498 50.7699 60.2374 50.9845 59.8388 51.1838C59.5015 51.3524 59.103 51.5057 58.827 51.521C57.9225 51.613 57.294 51.475 56.4508 50.9232C55.7303 50.4326 55.4237 49.8041 55.3317 49.5281L54.0133 49.988C54.136 50.3559 54.6112 51.3677 55.6843 52.0883C56.7421 52.7781 57.7692 53.0234 58.919 52.9008C59.4249 52.8854 60.0688 52.6401 60.4827 52.4409C61.0652 52.1342 61.6171 51.659 61.9544 51.0151C62.5523 49.6967 61.985 48.5623 61.5558 48.0717C61.1725 47.6272 60.4214 47.1059 58.5357 46.5694L57.8152 46.3548C57.4013 46.2168 57.1254 46.0635 56.8188 45.8642C56.5122 45.6496 56.3282 45.4656 56.2209 45.343C55.9449 44.9597 55.7763 44.4538 56.0369 43.8099C56.4048 43.1201 57.064 42.9208 57.6619 42.8595C58.3671 42.8135 59.1949 42.8748 59.9921 43.4267C60.4367 43.718 60.6666 44.0092 60.8506 44.3312ZM68.3965 52.1496L67.4767 51.1071C67.2621 51.3064 67.1395 51.3677 66.8635 51.3677C66.3116 51.3677 65.9897 51.0458 65.9897 50.4786V46.0175H67.9213V44.7298H65.9897V42.2463H64.61V44.7298H63.3069V46.0175H64.61V50.4786C64.61 51.7203 65.6371 52.7475 66.8635 52.7475C67.5074 52.7475 68.0286 52.4715 68.3965 52.1496ZM75.0367 48.0871H70.2996C70.6062 46.9373 71.6027 46.1401 72.7065 46.1401C73.7796 46.1401 74.7147 46.9526 75.0367 48.0871ZM68.9506 48.8229C68.9506 50.9845 70.5909 52.8088 72.7065 52.8088C74.9294 52.8088 75.9105 51.0151 75.9105 51.0151L74.7607 50.4633C74.7607 50.4633 74.1015 51.521 72.7218 51.521C71.5261 51.521 70.4529 50.6166 70.269 49.3135H76.3244C76.3244 49.3135 76.5084 48.0411 75.9565 46.9833C75.9258 46.9066 74.96 44.8371 72.7065 44.8371C70.5909 44.8371 68.9506 46.6614 68.9506 48.8229ZM81.7999 51.5824C80.4662 51.5824 79.3164 50.4019 79.3164 48.8536C79.3164 47.3206 80.4662 46.1555 81.7999 46.1555C83.1183 46.1555 84.2834 47.3206 84.2834 48.8536C84.2834 50.4019 83.1183 51.5824 81.7999 51.5824ZM77.9367 56.7027H79.3011V51.3371C79.8223 52.3335 81.0181 52.8701 81.8613 52.8701C83.9768 52.8701 85.6325 51.0305 85.6325 48.8536C85.6325 46.7074 83.9768 44.8677 81.8613 44.8677C81.0488 44.8677 79.8223 45.3276 79.3011 46.3854V44.8677H77.9367V56.7027ZM93.4873 41.5871H92.1689L90.1913 42.4609L90.7279 43.6566L92.1689 43.0281V52.7781H93.4873V41.5871Z" fill="#6792F8"/>
<defs>
<filter id="filter0_d_2618_15876" x="0.967082" y="0.226848" width="431.919" height="555.747" filterUnits="userSpaceOnUse" color-interpolation-filters="sRGB">
<feFlood flood-opacity="0" result="BackgroundImageFix"/>
<feColorMatrix in="SourceAlpha" type="matrix" values="0 0 0 0 0 0 0 0 0 0 0 0 0 0 0 0 0 0 127 0" result="hardAlpha"/>
<feOffset/>
<feGaussianBlur stdDeviation="6.88658"/>
<feComposite in2="hardAlpha" operator="out"/>
<feColorMatrix type="matrix" values="0 0 0 0 0 0 0 0 0 0 0 0 0 0 0 0 0 0 0.1 0"/>
<feBlend mode="normal" in2="BackgroundImageFix" result="effect1_dropShadow_2618_15876"/>
<feBlend mode="normal" in="SourceGraphic" in2="effect1_dropShadow_2618_15876" result="shape"/>
</filter>
<filter id="filter1_d_2618_15876" x="85.344" y="162.939" width="338.254" height="383.622" filterUnits="userSpaceOnUse" color-interpolation-filters="sRGB">
<feFlood flood-opacity="0" result="BackgroundImageFix"/>
<feColorMatrix in="SourceAlpha" type="matrix" values="0 0 0 0 0 0 0 0 0 0 0 0 0 0 0 0 0 0 127 0" result="hardAlpha"/>
<feOffset dx="-4.48493" dy="-4.48493"/>
<feGaussianBlur stdDeviation="4.48493"/>
<feComposite in2="hardAlpha" operator="out"/>
<feColorMatrix type="matrix" values="0 0 0 0 0 0 0 0 0 0 0 0 0 0 0 0 0 0 0.05 0"/>
<feBlend mode="normal" in2="BackgroundImageFix" result="effect1_dropShadow_2618_15876"/>
<feBlend mode="normal" in="SourceGraphic" in2="effect1_dropShadow_2618_15876" result="shape"/>
</filter>
<linearGradient id="paint0_linear_2618_15876" x1="657.004" y1="330.652" x2="657.004" y2="542.077" gradientUnits="userSpaceOnUse">
<stop stop-color="#F6F8FF" stop-opacity="0"/>
<stop offset="1" stop-color="#EEF1FF"/>
</linearGradient>
</defs>
</svg>
