<svg width="110" height="33" viewBox="0 0 110 33" fill="none" xmlns="http://www.w3.org/2000/svg">
<path d="M3.36523 31.8283V15.1325C3.36523 12.1708 4.7462 3.11572 17.5063 3.11572" stroke="#6792F8" stroke-width="4.99708" stroke-miterlimit="10"/>
<path d="M17.507 16.1963L1.20703 16.1963" stroke="#6792F8" stroke-width="4.99708" stroke-miterlimit="10"/>
<path d="M23.7964 4.66143C24.3625 4.66143 24.8214 4.20925 24.8214 3.65145C24.8214 3.09366 24.3625 2.64148 23.7964 2.64148C23.2304 2.64148 22.7715 3.09366 22.7715 3.65145C22.7715 4.20925 23.2304 4.66143 23.7964 4.66143Z" fill="#4FEDAE" stroke="#4FEDAE" stroke-width="3.74781" stroke-miterlimit="10"/>
<path d="M23.7988 10.3705V31.777" stroke="#6792F8" stroke-width="4.99708" stroke-miterlimit="10"/>
<path d="M32.4082 10.3704V31.7769" stroke="#6792F8" stroke-width="4.99708" stroke-miterlimit="10"/>
<path d="M32.5137 16.3678C32.5137 16.3678 34.332 12.6848 39.1341 12.6848C39.1341 12.6848 45.1014 12.808 45.5753 18.6958V31.8265" stroke="#6792F8" stroke-width="4.99708" stroke-miterlimit="10"/>
<path d="M53.541 0.782227V20.7969" stroke="#6792F8" stroke-width="4.99708" stroke-miterlimit="10"/>
<path d="M62.9207 30.0477C68.1063 30.0477 72.3101 25.9064 72.3101 20.7978C72.3101 15.6893 68.1063 11.548 62.9207 11.548C57.735 11.548 53.5312 15.6893 53.5312 20.7978C53.5312 25.9064 57.735 30.0477 62.9207 30.0477Z" stroke="#6792F8" stroke-width="4.99708" stroke-miterlimit="10"/>
<path d="M80.0137 0.525269V23.2127C80.0137 23.2127 79.176 29.6297 86.1774 29.4203" stroke="#6792F8" stroke-width="4.99708" stroke-miterlimit="10"/>
<path d="M90.1892 24.8152L106.255 15.553C105.73 14.6908 104.455 12.8803 102.079 11.7718C101.704 11.5993 97.8283 9.86266 94.0025 11.7102C93.5899 11.9072 92.4022 12.5231 91.2894 13.7794C89.4766 15.8363 89.189 18.1272 89.114 18.8785C89.0015 19.9254 88.8389 22.98 90.9644 25.7266C92.8647 28.19 96.1279 29.8035 99.6536 29.3847C103.054 28.9906 105.992 26.7859 107.305 23.6451" stroke="#6792F8" stroke-width="4.99708" stroke-miterlimit="10"/>
</svg>
