<svg width="593" height="505" viewBox="0 0 593 505" fill="none" xmlns="http://www.w3.org/2000/svg">
<rect y="0.631836" width="592.5" height="504" rx="25" fill="#F6F8FF"/>
<path d="M56.014 54.9071H53.95L50.854 56.2751L51.694 58.1471L53.95 57.1631V72.4271H56.014V54.9071ZM68.1503 68.7071C67.7663 69.4511 66.9263 70.4351 65.0303 70.4351C63.1103 70.4351 62.2943 69.4511 61.9103 68.6831C61.1423 67.4351 61.0703 65.9471 61.0703 63.6431C61.0703 61.3391 61.1423 59.8751 61.9103 58.6031C62.2943 57.8591 63.1103 56.8751 65.0303 56.8751C66.9263 56.8751 67.7663 57.8831 68.1503 58.6271C68.9183 59.8751 68.9903 61.3391 68.9903 63.6431C68.9903 65.9711 68.9183 67.4591 68.1503 68.7071ZM58.9343 63.6431C58.9343 65.9471 58.9583 67.9871 60.0383 69.8111C60.6863 70.9871 62.1743 72.6191 65.0303 72.6191C67.9103 72.6191 69.3743 71.0111 70.0463 69.8111C71.1263 68.0111 71.1263 65.9951 71.1263 63.6431C71.1263 61.3631 71.1263 59.3231 70.0463 57.5231C69.3743 56.3471 67.9103 54.7151 65.0303 54.7151C62.1743 54.7151 60.6863 56.3231 60.0383 57.5231C58.9583 59.3231 58.9343 61.3391 58.9343 63.6431ZM88.1748 53.0111V55.6751H82.3908V57.4511H88.1748V59.6831H82.3908V61.4591H88.1748V68.6831H90.3828V53.0111H88.1748ZM74.0868 65.6351H75.6948C78.8148 65.6351 81.6948 65.4911 85.0068 64.8911L84.7668 63.0671C81.7668 63.5951 79.1268 63.7631 76.3188 63.7871V54.4751H74.0868V65.6351ZM76.7268 73.7471H90.9348V71.9231H78.9348V67.3151H76.7268V73.7471ZM98.6986 63.3311V65.1071H117.827V63.3311H109.331V61.0511H115.595V59.2751H103.283V55.6991H115.451V53.9471H101.075V61.0511H107.171V63.3311H98.6986ZM100.955 70.3391C100.955 72.7871 103.691 74.1551 108.227 74.1551C112.763 74.1551 115.499 72.7871 115.499 70.3391C115.499 67.8911 112.763 66.4751 108.227 66.4751C103.691 66.4751 100.955 67.8911 100.955 70.3391ZM103.163 70.3391C103.163 68.9711 105.035 68.2271 108.227 68.2271C111.395 68.2271 113.243 68.9711 113.243 70.3391C113.243 71.7071 111.395 72.4511 108.227 72.4511C105.035 72.4511 103.163 71.7071 103.163 70.3391ZM133.571 53.0111V68.5391H135.779V61.1711H138.803V59.3471H135.779V53.0111H133.571ZM119.603 59.7071C119.603 62.8031 122.027 64.9631 125.195 64.9631C128.363 64.9631 130.763 62.8031 130.763 59.7071C130.763 56.6351 128.363 54.4511 125.195 54.4511C122.027 54.4511 119.603 56.6351 119.603 59.7071ZM121.763 59.7071C121.763 57.7391 123.251 56.3711 125.195 56.3711C127.139 56.3711 128.627 57.7391 128.627 59.7071C128.627 61.6991 127.139 63.0431 125.195 63.0431C123.251 63.0431 121.763 61.6991 121.763 59.7071ZM122.459 73.7471H136.643V71.9231H124.667V66.9551H122.459V73.7471ZM153.839 60.9551V62.7551H156.695V73.1231H158.783V53.4911H156.695V60.9551H153.839ZM145.847 69.1871H147.215C150.455 69.1871 152.471 69.1151 154.871 68.6831L154.655 66.8831C152.519 67.3151 150.719 67.3871 147.935 67.4111V62.9471H152.759V61.2191H147.935V57.2831H153.695V55.4831H145.847V69.1871ZM161.015 74.1791H163.127V52.9871H161.015V74.1791ZM174.024 54.4031V56.0111C174.024 59.4671 170.376 62.7311 166.44 63.4511L167.4 65.2991C170.736 64.5791 173.832 62.3471 175.2 59.3711C176.568 62.3471 179.664 64.5791 183.024 65.2991L184.008 63.4511C180.024 62.7311 176.352 59.5151 176.352 56.0111V54.4031H174.024ZM165.696 71.3951H184.872V69.5951H165.696V71.3951ZM188.736 54.7631V66.0671H203.352V64.2911H190.944V61.2191H202.68V59.4431H190.944V56.5631H203.136V54.7631H188.736ZM186.312 71.5631H205.488V69.7151H186.312V71.5631ZM222.697 53.0111V58.7471H220.321V53.3231H218.233V65.8031H220.321V60.5231H222.697V66.1151H224.809V53.0111H222.697ZM206.809 57.0671H217.417V55.3391H213.241V53.1311H211.057V55.3391H206.809V57.0671ZM207.625 61.6991C207.625 63.8591 209.497 65.3231 212.137 65.3231C214.825 65.3231 216.649 63.8591 216.649 61.6991C216.649 59.4671 214.825 58.0271 212.137 58.0271C209.497 58.0271 207.625 59.4671 207.625 61.6991ZM208.225 72.2831L209.257 73.9151C211.249 73.2191 212.665 71.8751 213.433 70.2671C214.081 71.9471 215.353 73.3871 217.345 74.1071C219.289 73.3391 220.537 71.8271 221.209 70.1951C221.929 71.8751 223.345 73.2191 225.433 73.9151L226.513 72.2831C223.777 71.4671 222.313 69.4511 222.313 67.3631V66.7391H220.153V67.3631C220.153 68.8991 219.193 70.8431 217.297 72.0191C215.425 70.9391 214.537 69.1391 214.537 67.3631V66.7391H212.401V67.3631C212.401 69.3071 210.913 71.3951 208.225 72.2831ZM209.617 61.6991C209.617 60.4511 210.625 59.6591 212.137 59.6591C213.673 59.6591 214.705 60.4511 214.705 61.6991C214.705 62.8991 213.673 63.6911 212.137 63.6911C210.625 63.6911 209.617 62.8991 209.617 61.6991ZM237.097 53.3711C232.393 53.3711 229.633 54.6431 229.633 56.9951C229.633 59.3711 232.393 60.6911 237.097 60.6911C241.825 60.6911 244.609 59.3711 244.609 56.9951C244.609 54.6431 241.825 53.3711 237.097 53.3711ZM227.545 63.7391H246.697V61.9871H227.545V63.7391ZM229.825 67.0511H242.089V68.7551H229.897V73.9631H244.873V72.2591H232.057V70.3391H244.273V65.4191H229.825V67.0511ZM231.889 56.9951C231.889 55.7231 233.785 55.0031 237.097 55.0031C240.457 55.0031 242.329 55.7231 242.329 56.9951C242.329 58.3151 240.457 59.0111 237.097 59.0111C233.785 59.0111 231.889 58.3151 231.889 56.9951ZM265.285 53.4431V73.1471H267.325V63.3311H269.557V74.1791H271.621V52.9871H269.557V61.5071H267.325V53.4431H265.285ZM253.885 68.7551H254.749C255.685 68.7551 257.005 68.7551 258.709 68.3711L258.541 66.5471C257.557 66.7631 256.645 66.8591 255.901 66.9071V57.4271H258.421V55.6271H253.885V68.7551ZM259.285 68.7551H260.197C261.421 68.7551 262.813 68.7311 264.517 68.3231L264.325 66.4751C263.221 66.7871 262.189 66.8831 261.301 66.9071V57.4271H263.941V55.6271H259.285V68.7551ZM65.926 88.0111V91.2271H60.718C59.734 90.0511 58.222 89.3551 56.47 89.3551C53.326 89.3551 50.974 91.5631 50.974 94.6831C50.974 97.8271 53.326 100.035 56.47 100.035C58.246 100.035 59.758 99.3151 60.766 98.1151H65.926V103.611H68.158V88.0111H65.926ZM53.062 94.6831C53.062 92.6911 54.502 91.2751 56.47 91.2751C58.342 91.2751 59.806 92.6911 59.806 94.6831C59.806 96.6991 58.342 98.0911 56.47 98.0911C54.502 98.0911 53.062 96.6991 53.062 94.6831ZM54.502 108.747H68.71V106.923H56.734V102.027H54.502V108.747ZM61.702 93.0511H65.926V96.3151H61.702C61.87 95.8111 61.942 95.2591 61.942 94.6831C61.942 94.1071 61.87 93.5551 61.702 93.0511ZM83.3266 91.6831V93.4831H86.5666V95.5231H83.3266V97.3231H86.5666V101.043H88.7746V88.0111H86.5666V91.6831H83.3266ZM71.3266 98.0671L71.5426 99.9151C74.9746 99.9151 79.6786 99.8191 83.7346 99.1711L83.6146 97.5391C82.7746 97.6351 81.9106 97.7311 81.0226 97.7791V91.3471H83.0386V89.5231H71.9026V91.3471H73.8706V98.0671H71.3266ZM74.6626 105.291C74.6626 107.739 77.3506 109.155 81.7666 109.155C86.1826 109.155 88.8466 107.739 88.8466 105.291C88.8466 102.843 86.1826 101.451 81.7666 101.451C77.3506 101.451 74.6626 102.843 74.6626 105.291ZM76.0306 98.0191V91.3471H78.9106V97.9231C77.9506 97.9711 76.9666 97.9951 76.0306 98.0191ZM76.8226 105.291C76.8226 103.923 78.6466 103.155 81.7666 103.155C84.8626 103.155 86.6626 103.923 86.6626 105.291C86.6626 106.683 84.8626 107.451 81.7666 107.451C78.6466 107.451 76.8226 106.683 76.8226 105.291ZM94.2471 89.1151V90.8671H106.487C106.487 92.5471 106.487 94.4431 105.959 97.0111H91.8711V98.8111H98.2551V103.779H100.415V98.8111H103.727V103.779H105.863V98.8111H111.047V97.0111H108.167C108.647 94.4431 108.647 92.4751 108.647 90.7711V89.1151H94.2471ZM94.1271 108.747H109.223V106.923H96.3111V102.003H94.1271V108.747ZM126.083 88.7311V89.8591C126.083 92.7151 122.699 95.3311 118.571 95.9311L119.459 97.6831C122.891 97.1311 125.891 95.3551 127.259 92.8351C128.627 95.3311 131.627 97.1311 135.035 97.6831L135.923 95.9311C131.843 95.3311 128.387 92.6671 128.387 89.8591V88.7311H126.083ZM117.659 101.619H126.083V109.203H128.267V101.619H136.811V99.7951H117.659V101.619ZM141.515 101.667V103.467H153.467V109.203H155.699V101.667H141.515ZM138.731 94.2991C138.731 97.2511 141.107 99.3391 144.299 99.3391C147.515 99.3391 149.891 97.2511 149.891 94.2991C149.891 91.3471 147.515 89.2351 144.299 89.2351C141.107 89.2351 138.731 91.3471 138.731 94.2991ZM140.891 94.2991C140.891 92.3551 142.355 91.1311 144.299 91.1311C146.315 91.1311 147.731 92.3551 147.731 94.2991C147.731 96.1951 146.315 97.4911 144.299 97.4911C142.355 97.4911 140.891 96.1951 140.891 94.2991ZM153.467 100.539H155.699V88.0111H153.467V100.539ZM158.892 97.5871V99.2431H163.932V100.995H161.148V102.555H173.532V104.139H161.196V108.963H176.34V107.403H163.356V105.627H175.692V100.995H173.028V99.2431H178.068V97.5871H158.892ZM161.316 90.0751H173.46V91.6111H161.34V96.2431H176.028V94.6831H163.524V93.0751H175.644V88.5391H161.316V90.0751ZM166.116 100.995V99.2431H170.82V100.995H166.116ZM179.509 99.0511V100.851H198.661V99.0511H179.509ZM181.597 92.9551C181.597 95.6191 184.501 97.2031 189.061 97.2031C193.645 97.2031 196.573 95.6191 196.573 92.9551C196.573 90.2911 193.645 88.7071 189.061 88.7071C184.501 88.7071 181.597 90.2911 181.597 92.9551ZM181.957 108.747H196.501V106.923H184.141V102.603H181.957V108.747ZM183.853 92.9551C183.853 91.3711 185.893 90.4831 189.061 90.4831C192.301 90.4831 194.293 91.3711 194.293 92.9551C194.293 94.4911 192.301 95.4271 189.061 95.4271C185.893 95.4271 183.853 94.4911 183.853 92.9551ZM207.84 93.7231C207.744 93.9151 207.696 94.0831 207.648 94.2511L205.656 93.7231C205.728 93.4591 205.824 93.1711 205.968 92.9071C207.264 90.1711 210.6 89.0191 213.408 90.2431C216.24 91.2991 217.512 94.5391 216.24 97.2991C215.952 97.8271 215.616 98.3551 215.16 98.7871L208.848 105.099H217.128V107.187H205.776V105.147L213.696 97.3711C213.936 97.1071 214.176 96.8191 214.32 96.5071C215.064 94.8991 214.368 92.9071 212.544 92.1151C210.744 91.3471 208.656 92.1151 207.84 93.7231ZM225.122 105.579C222.89 105.579 221.33 104.043 221.33 102.483C221.33 100.899 222.914 99.3871 225.122 99.3871C227.354 99.3871 228.89 100.899 228.89 102.483C228.89 104.043 227.354 105.579 225.122 105.579ZM219.218 102.483C219.218 105.459 222.002 107.643 225.122 107.643C228.242 107.643 231.026 105.459 231.026 102.483C231.026 100.683 229.97 99.1471 228.41 98.2591C229.706 97.3951 230.57 96.0991 230.57 94.5391C230.57 91.7791 227.954 89.7871 225.122 89.7871C222.29 89.7871 219.722 91.7791 219.722 94.5391C219.722 96.0991 220.586 97.3951 221.882 98.2591C220.298 99.1471 219.218 100.683 219.218 102.483ZM221.858 94.5151C221.858 93.1711 223.202 91.8511 225.122 91.8511C227.09 91.8511 228.41 93.1711 228.41 94.5151C228.41 95.8591 227.09 97.1791 225.122 97.1791C223.202 97.1791 221.858 95.8591 221.858 94.5151ZM238.052 107.379H240.284L251.252 89.9071H248.996L238.052 107.379ZM234.044 94.1311C234.044 96.6991 236.084 98.8831 238.676 98.8831C241.268 98.8831 243.284 96.6991 243.284 94.1311C243.284 91.5391 241.268 89.3791 238.676 89.3791C236.084 89.3791 234.044 91.5391 234.044 94.1311ZM236.132 94.1311C236.132 92.6191 237.308 91.4191 238.676 91.4191C240.092 91.4191 241.244 92.6191 241.244 94.1311C241.244 95.6431 240.092 96.8431 238.676 96.8431C237.308 96.8431 236.132 95.6431 236.132 94.1311ZM245.804 103.059C245.804 105.627 247.844 107.811 250.436 107.811C253.028 107.811 255.044 105.627 255.044 103.059C255.044 100.443 253.028 98.3071 250.436 98.3071C247.844 98.3071 245.804 100.443 245.804 103.059ZM247.868 103.059C247.868 101.547 249.068 100.347 250.436 100.347C251.852 100.347 253.004 101.547 253.004 103.059C253.004 104.547 251.852 105.771 250.436 105.771C249.068 105.771 247.868 104.547 247.868 103.059ZM257.724 104.835V106.635H276.9V104.835H268.356V101.067H275.1V99.2671H262.26V96.0991H274.596V89.4991H260.028V91.2991H272.412V94.3471H260.076V101.067H266.172V104.835H257.724ZM294.408 89.9071H292.392L283.848 101.211V103.203H292.392V107.427H294.408V103.203H296.88V101.163H294.408V89.9071ZM286.392 101.163L292.392 93.0991V101.163H286.392ZM303.901 107.379H306.133L317.101 89.9071H314.845L303.901 107.379ZM299.893 94.1311C299.893 96.6991 301.933 98.8831 304.525 98.8831C307.117 98.8831 309.133 96.6991 309.133 94.1311C309.133 91.5391 307.117 89.3791 304.525 89.3791C301.933 89.3791 299.893 91.5391 299.893 94.1311ZM301.981 94.1311C301.981 92.6191 303.157 91.4191 304.525 91.4191C305.941 91.4191 307.093 92.6191 307.093 94.1311C307.093 95.6431 305.941 96.8431 304.525 96.8431C303.157 96.8431 301.981 95.6431 301.981 94.1311ZM311.653 103.059C311.653 105.627 313.693 107.811 316.285 107.811C318.877 107.811 320.893 105.627 320.893 103.059C320.893 100.443 318.877 98.3071 316.285 98.3071C313.693 98.3071 311.653 100.443 311.653 103.059ZM313.717 103.059C313.717 101.547 314.917 100.347 316.285 100.347C317.701 100.347 318.853 101.547 318.853 103.059C318.853 104.547 317.701 105.771 316.285 105.771C314.917 105.771 313.717 104.547 313.717 103.059ZM330.557 105.555C328.469 105.555 326.669 103.707 326.669 101.283C326.669 98.8831 328.469 97.0591 330.557 97.0591C332.621 97.0591 334.445 98.8831 334.445 101.283C334.445 103.707 332.621 105.555 330.557 105.555ZM324.509 113.571H326.645V105.171C327.461 106.731 329.333 107.571 330.653 107.571C333.965 107.571 336.557 104.691 336.557 101.283C336.557 97.9231 333.965 95.0431 330.653 95.0431C329.381 95.0431 327.461 95.7631 326.645 97.4191V95.0431H324.509V113.571ZM357.734 87.9631V99.8911H359.966V94.8271H362.99V93.0271H359.966V87.9631H357.734ZM344.438 98.3791H346.118C349.238 98.3791 352.43 98.1871 355.982 97.4911L355.718 95.6431C352.478 96.3151 349.502 96.5071 346.622 96.5311V89.1151H344.438V98.3791ZM345.542 107.379L346.382 109.059C349.526 108.531 352.142 107.067 353.342 105.027C354.542 107.043 357.134 108.555 360.278 109.083L361.118 107.403C357.47 106.851 354.686 104.835 354.494 102.699H360.278V100.923H346.334V102.699H352.142C351.974 104.883 349.238 106.851 345.542 107.379ZM369.735 89.5951C366.591 89.5951 364.335 92.4511 364.335 97.0111C364.335 101.547 366.591 104.451 369.735 104.451C372.855 104.451 375.087 101.547 375.087 97.0111C375.087 92.4511 372.855 89.5951 369.735 89.5951ZM366.471 97.0111C366.471 93.6511 367.791 91.5871 369.735 91.5871C371.655 91.5871 372.975 93.6511 372.975 97.0111C372.975 100.395 371.655 102.483 369.735 102.483C367.791 102.483 366.471 100.395 366.471 97.0111ZM378.231 109.203H380.439V98.1871H383.775V96.3391H380.439V88.0111H378.231V109.203ZM399.975 88.0111V91.9231H396.327V93.7231H399.975V95.4751H396.327V97.2511H399.975V100.371H402.207V88.0111H399.975ZM384.783 98.7631L385.887 100.515C388.407 99.6271 390.255 97.8031 391.167 95.4991C392.055 97.5871 393.783 99.2191 396.159 100.059L397.263 98.3311C394.143 97.2511 392.223 94.6831 392.223 91.9951V91.1791H396.687V89.3791H385.407V91.1791H389.967V92.0191C389.967 94.9471 388.023 97.6351 384.783 98.7631ZM385.839 107.283L386.967 108.891C388.935 108.147 390.327 106.755 391.071 105.075C391.719 106.827 392.991 108.315 395.007 109.107C396.951 108.291 398.199 106.683 398.871 104.955C399.591 106.731 400.983 108.147 403.047 108.891L404.151 107.283C401.439 106.347 399.999 104.187 399.999 101.979V101.019H397.815V101.979C397.815 103.587 396.879 105.675 394.959 106.923C393.063 105.771 392.175 103.827 392.175 101.979V101.019H389.991V101.979C389.991 104.019 388.551 106.299 385.839 107.283ZM407.344 90.0511V91.8511H420.088V92.1151C420.088 94.6831 420.088 97.6591 419.296 101.763L421.504 102.027C422.296 97.6831 422.296 94.7551 422.296 92.1151V90.0511H407.344ZM405.328 106.323H424.48V104.523H414.832V97.0111H412.6V104.523H405.328V106.323ZM56.566 134.267V138.035C54.478 138.107 52.486 138.107 50.782 138.107L51.046 139.955C54.814 139.931 59.95 139.931 64.654 139.019L64.486 137.387C62.662 137.675 60.694 137.843 58.774 137.939V134.267H56.566ZM51.382 133.259L52.39 134.987C54.91 134.219 56.782 132.587 57.694 130.451C58.654 132.467 60.526 134.027 63.022 134.747L64.03 133.019C60.91 132.179 58.894 129.995 58.774 127.475H63.526V125.699H58.774V123.179H56.566V125.699H51.91V127.475H56.566C56.47 130.139 54.478 132.347 51.382 133.259ZM65.806 144.227H68.014V122.963H65.806V144.227ZM87.1906 122.987V131.411H84.4546V123.443H82.3906V143.099H84.4546V133.235H87.1906V144.179H89.3026V122.987H87.1906ZM71.9986 139.067H73.4146C76.4386 139.067 78.6226 138.971 81.1666 138.467L80.9506 136.619C78.7186 137.099 76.7506 137.195 74.1826 137.219V127.331H79.8466V125.555H71.9986V139.067ZM111.298 122.987V135.179H113.53V129.995H116.554V128.147H113.53V122.987H111.298ZM98.0024 133.787H99.6824C102.802 133.787 105.994 133.547 109.546 132.851L109.282 131.051C106.042 131.675 103.066 131.891 100.186 131.915V124.211H98.0024V133.787ZM99.7544 138.083H111.298V144.203H113.53V136.283H99.7544V138.083ZM119.387 123.755V125.531H122.483V129.827H119.507V131.603H126.131V133.955H117.659V135.755H136.811V133.955H128.315V131.603H134.891V129.827H131.915V125.531H135.011V123.755H119.387ZM119.795 139.451H132.227V144.203H134.459V137.699H119.795V139.451ZM124.691 129.827V125.531H129.731V129.827H124.691ZM138.275 134.051V135.851H157.427V134.051H138.275ZM140.363 127.955C140.363 130.619 143.267 132.203 147.827 132.203C152.411 132.203 155.339 130.619 155.339 127.955C155.339 125.291 152.411 123.707 147.827 123.707C143.267 123.707 140.363 125.291 140.363 127.955ZM140.723 143.747H155.267V141.923H142.907V137.603H140.723V143.747ZM142.619 127.955C142.619 126.371 144.659 125.483 147.827 125.483C151.067 125.483 153.059 126.371 153.059 127.955C153.059 129.491 151.067 130.427 147.827 130.427C144.659 130.427 142.619 129.491 142.619 127.955ZM169.439 124.907H167.375L164.279 126.275L165.119 128.147L167.375 127.163V142.427H169.439V124.907ZM178.264 131.291C177.304 131.291 176.416 131.507 175.624 131.915V126.971H182.656V124.931H173.512V133.739L175.024 134.603C175.792 133.859 177.088 133.403 178.216 133.403C180.208 133.403 181.84 134.891 181.84 136.979C181.84 138.947 180.256 140.483 178.216 140.483C176.728 140.483 175.192 139.715 174.496 138.731L174.232 138.323L172.36 139.331C172.48 139.547 172.672 139.763 172.744 139.883C173.872 141.587 176.152 142.619 178.216 142.619C181.36 142.619 183.904 140.195 183.904 136.979C183.904 133.859 181.432 131.291 178.264 131.291ZM190.936 142.379H193.168L204.136 124.907H201.88L190.936 142.379ZM186.928 129.131C186.928 131.699 188.968 133.883 191.56 133.883C194.152 133.883 196.168 131.699 196.168 129.131C196.168 126.539 194.152 124.379 191.56 124.379C188.968 124.379 186.928 126.539 186.928 129.131ZM189.016 129.131C189.016 127.619 190.192 126.419 191.56 126.419C192.976 126.419 194.128 127.619 194.128 129.131C194.128 130.643 192.976 131.843 191.56 131.843C190.192 131.843 189.016 130.643 189.016 129.131ZM198.688 138.059C198.688 140.627 200.728 142.811 203.32 142.811C205.912 142.811 207.928 140.627 207.928 138.059C207.928 135.443 205.912 133.307 203.32 133.307C200.728 133.307 198.688 135.443 198.688 138.059ZM200.752 138.059C200.752 136.547 201.952 135.347 203.32 135.347C204.736 135.347 205.888 136.547 205.888 138.059C205.888 139.547 204.736 140.771 203.32 140.771C201.952 140.771 200.752 139.547 200.752 138.059ZM210.608 139.835V141.635H229.784V139.835H221.24V136.067H227.984V134.267H215.144V131.099H227.48V124.499H212.912V126.299H225.296V129.347H212.96V136.067H219.056V139.835H210.608ZM241.772 124.907H239.708L236.612 126.275L237.452 128.147L239.708 127.163V142.427H241.772V124.907ZM256.188 125.171H244.692V127.259H253.716L245.964 141.539L247.86 142.523L256.188 127.235V125.171ZM263.222 142.379H265.454L276.422 124.907H274.166L263.222 142.379ZM259.214 129.131C259.214 131.699 261.254 133.883 263.846 133.883C266.438 133.883 268.454 131.699 268.454 129.131C268.454 126.539 266.438 124.379 263.846 124.379C261.254 124.379 259.214 126.539 259.214 129.131ZM261.302 129.131C261.302 127.619 262.478 126.419 263.846 126.419C265.262 126.419 266.414 127.619 266.414 129.131C266.414 130.643 265.262 131.843 263.846 131.843C262.478 131.843 261.302 130.643 261.302 129.131ZM270.974 138.059C270.974 140.627 273.014 142.811 275.606 142.811C278.198 142.811 280.214 140.627 280.214 138.059C280.214 135.443 278.198 133.307 275.606 133.307C273.014 133.307 270.974 135.443 270.974 138.059ZM273.038 138.059C273.038 136.547 274.238 135.347 275.606 135.347C277.022 135.347 278.174 136.547 278.174 138.059C278.174 139.547 277.022 140.771 275.606 140.771C274.238 140.771 273.038 139.547 273.038 138.059ZM289.878 140.555C287.79 140.555 285.99 138.707 285.99 136.283C285.99 133.883 287.79 132.059 289.878 132.059C291.942 132.059 293.766 133.883 293.766 136.283C293.766 138.707 291.942 140.555 289.878 140.555ZM283.83 148.571H285.966V140.171C286.782 141.731 288.654 142.571 289.974 142.571C293.286 142.571 295.878 139.691 295.878 136.283C295.878 132.923 293.286 130.043 289.974 130.043C288.702 130.043 286.782 130.763 285.966 132.419V130.043H283.83V148.571ZM302.799 131.747V133.499H311.247V135.395H305.079V137.051H317.343V138.827H305.151V143.963H320.127V142.283H307.311V140.411H319.527V135.395H313.431V133.499H321.951V131.747H302.799ZM303.783 129.107L304.479 130.811C308.103 130.475 311.103 129.179 312.375 127.163C313.647 129.179 316.671 130.475 320.247 130.811L320.967 129.107C317.151 128.819 314.127 127.307 313.695 125.435H320.223V123.683H304.551V125.435H311.031C310.599 127.307 307.599 128.819 303.783 129.107ZM329.128 124.595C326.032 124.595 323.8 127.451 323.8 132.011C323.8 136.547 326.032 139.451 329.128 139.451C332.056 139.451 334.216 136.859 334.432 132.755H338.752V144.227H340.96V122.963H338.752V130.979H334.408C334.096 127.019 331.984 124.595 329.128 124.595ZM325.888 132.011C325.888 128.651 327.208 126.587 329.128 126.587C331.024 126.587 332.32 128.651 332.32 132.011C332.32 135.395 331.024 137.483 329.128 137.483C327.208 137.483 325.888 135.395 325.888 132.011ZM344.056 131.699V133.475H363.184V131.699H344.056ZM346.312 136.859H358.576V138.659H346.384V143.939H361.36V142.211H348.544V140.291H360.76V135.155H346.312V136.859ZM346.528 130.115H360.88V128.339H348.736V125.387H360.712V123.635H346.528V130.115ZM369.929 135.851V136.979C369.929 139.019 368.489 141.299 365.777 142.283L366.905 143.891C368.873 143.147 370.241 141.755 371.009 140.075C371.657 141.827 372.905 143.315 374.921 144.107C376.889 143.291 378.137 141.683 378.809 139.955C379.529 141.731 380.921 143.147 382.985 143.891L384.089 142.283C381.377 141.347 379.937 139.187 379.937 136.979V135.851H377.729V136.979C377.729 138.587 376.817 140.675 374.897 141.923C373.001 140.771 372.113 138.827 372.113 136.979V135.851H369.929ZM364.985 129.155C364.985 132.083 367.289 134.147 370.457 134.147C373.265 134.147 375.425 132.491 375.833 130.019H379.913V135.035H382.145V123.011H379.913V128.219H375.809C375.377 125.819 373.241 124.163 370.457 124.163C367.289 124.163 364.985 126.251 364.985 129.155ZM367.073 129.155C367.073 127.307 368.489 126.011 370.457 126.011C372.329 126.011 373.769 127.307 373.769 129.155C373.769 131.027 372.329 132.323 370.457 132.323C368.489 132.323 367.073 131.027 367.073 129.155ZM390.978 124.595C387.882 124.595 385.65 127.451 385.65 132.011C385.65 136.547 387.882 139.451 390.978 139.451C393.906 139.451 396.066 136.859 396.282 132.755H400.602V144.227H402.81V122.963H400.602V130.979H396.258C395.946 127.019 393.834 124.595 390.978 124.595ZM387.738 132.011C387.738 128.651 389.058 126.587 390.978 126.587C392.874 126.587 394.17 128.651 394.17 132.011C394.17 135.395 392.874 137.483 390.978 137.483C389.058 137.483 387.738 135.395 387.738 132.011ZM405.882 139.739V141.563H425.058V139.739H420.45V134.147C422.178 133.187 423.21 131.675 423.21 129.803C423.21 126.443 419.97 124.283 415.434 124.283C410.946 124.283 407.706 126.443 407.706 129.803C407.706 131.675 408.738 133.187 410.466 134.147V139.739H405.882ZM409.842 129.803C409.842 127.499 412.17 126.011 415.434 126.011C418.722 126.011 421.026 127.499 421.026 129.803C421.026 132.083 418.722 133.547 415.434 133.547C412.17 133.547 409.842 132.083 409.842 129.803ZM412.65 139.739V134.963C413.49 135.179 414.426 135.275 415.434 135.275C416.442 135.275 417.402 135.155 418.266 134.963V139.739H412.65Z" fill="#3B3B3B"/>
<g filter="url(#filter0_d_1636_17737)">
<rect x="49.75" y="190.383" width="235.536" height="239" rx="15.6407" fill="white"/>
</g>
<path d="M125.209 263.475C125.209 261.562 126.76 260.012 128.673 260.012H155.517C157.43 260.012 158.981 261.563 158.981 263.475V355.265H125.209V263.475Z" fill="#A7C1FF"/>
<path d="M194.5 278.409C194.5 276.496 196.051 274.945 197.964 274.945H225.036C226.949 274.945 228.5 276.496 228.5 278.409V354.945H194.5V278.409Z" fill="#6792F8"/>
<path d="M140.429 368.885V379.59H139.314V368.885H140.429ZM131.725 376.753C133.115 376.074 134.169 375.254 134.889 374.292C135.616 373.322 136.036 372.203 136.15 370.934H132.234V370.025H137.277C137.277 371.681 136.885 373.152 136.101 374.437C135.317 375.722 134.056 376.789 132.319 377.638L131.725 376.753ZM150.819 369.406V370.291H147.582C147.598 370.687 147.764 371.059 148.079 371.407C148.394 371.754 148.819 372.049 149.352 372.292C149.894 372.534 150.488 372.696 151.134 372.777L150.734 373.674C149.821 373.544 149.017 373.274 148.322 372.861C147.626 372.449 147.137 371.944 146.855 371.346C146.572 371.944 146.083 372.449 145.388 372.861C144.701 373.274 143.897 373.544 142.975 373.674L142.563 372.777C143.21 372.696 143.8 372.534 144.333 372.292C144.875 372.049 145.303 371.754 145.618 371.407C145.933 371.059 146.099 370.687 146.115 370.291H142.902V369.406H150.819ZM142.017 374.607H146.285V372.91H147.388V374.607H151.704V375.516H142.017V374.607ZM143.254 376.353H144.357V378.45H150.601V379.372H143.254V376.353ZM121.544 392.383V390.068H118.137V389.171H119.725V385.788H118.113V384.867H126.102V385.788H124.489V389.171H126.078V390.068H122.647V392.383H126.975V393.305H117.288V392.383H121.544ZM123.374 389.171V385.788H120.84V389.171H123.374ZM136.201 384.782V385.691H130.042V387.146H135.97V388.043H130.042V389.595H136.31V390.492H128.927V384.782H136.201ZM127.702 392.335H137.389V393.268H127.702V392.335ZM146.882 384.164V385.025H145.318V386.879H146.821V387.752H143.487V388.674H147.791V389.559H138.117V388.674H142.384V387.752H139.05V386.879H140.553V385.025H138.989V384.164H146.882ZM139.268 390.322H146.566V392.723H140.396V393.644H146.869V394.481H139.305V391.947H145.463V391.135H139.268V390.322ZM144.214 386.879V385.025H141.669V386.879H144.214ZM157.332 383.873V394.614H156.217V383.873H157.332ZM149.125 384.855H154.095V388.771H150.276V391.123C151.214 391.123 152.075 391.098 152.859 391.05C153.643 390.993 154.451 390.892 155.283 390.747L155.392 391.656C154.511 391.801 153.655 391.902 152.822 391.959C151.99 392.016 151.064 392.044 150.046 392.044H149.149V387.861H152.968V385.776H149.125V384.855ZM163.77 384.564C164.529 384.564 165.204 384.681 165.794 384.915C166.392 385.15 166.857 385.481 167.188 385.91C167.528 386.338 167.698 386.835 167.698 387.401C167.698 387.918 167.552 388.383 167.261 388.795C166.978 389.199 166.582 389.526 166.073 389.777C165.564 390.019 164.978 390.165 164.315 390.213V392.347H168.631V393.268H158.945V392.347H163.212V390.213C162.557 390.157 161.976 390.007 161.466 389.765C160.965 389.514 160.573 389.187 160.29 388.783C160.008 388.379 159.866 387.918 159.866 387.401C159.866 386.835 160.032 386.338 160.363 385.91C160.703 385.481 161.167 385.15 161.757 384.915C162.347 384.681 163.018 384.564 163.77 384.564ZM160.945 387.401C160.945 387.789 161.066 388.132 161.309 388.431C161.551 388.722 161.887 388.948 162.315 389.11C162.743 389.264 163.228 389.34 163.77 389.34C164.319 389.34 164.808 389.264 165.237 389.11C165.665 388.948 165.996 388.722 166.231 388.431C166.473 388.132 166.594 387.789 166.594 387.401C166.594 387.013 166.473 386.673 166.231 386.382C165.996 386.083 165.665 385.853 165.237 385.691C164.808 385.53 164.319 385.449 163.77 385.449C163.228 385.449 162.743 385.53 162.315 385.691C161.887 385.853 161.551 386.083 161.309 386.382C161.066 386.673 160.945 387.013 160.945 387.401Z" fill="#4D4D4D"/>
<path d="M192.009 369.879V371.795C192.009 372.724 192.199 373.589 192.579 374.389C192.959 375.189 193.492 375.779 194.179 376.159L193.525 377.032C193.04 376.757 192.624 376.377 192.276 375.892C191.929 375.399 191.658 374.833 191.464 374.195C191.262 374.89 190.979 375.508 190.615 376.05C190.252 376.591 189.819 377.016 189.318 377.323L188.603 376.498C189.338 376.062 189.908 375.419 190.312 374.571C190.724 373.722 190.93 372.821 190.93 371.867V369.879H192.009ZM194.446 369.115H195.501V373.152H196.798V368.885H197.865V379.59H196.798V374.074H195.501V379.068H194.446V369.115ZM203.418 377.395V375.492H200.338V372.098H206.57V370.558H200.314V369.649H207.673V372.983H201.442V374.583H207.927V375.492H204.521V377.395H208.837V378.305H199.15V377.395H203.418ZM217.535 369.831V374.85H212.577V369.831H217.535ZM216.444 373.952V370.728H213.668V373.952H216.444ZM213.777 375.977H214.88V378.45H220.942V379.372H213.777V375.977ZM219.39 368.897H220.505V372.11H222.033V373.031H220.505V376.729H219.39V368.897ZM232.265 374.268V375.177H222.603V374.268H232.265ZM223.803 376.219H224.918V378.45H231.259V379.359H223.803V376.219ZM223.803 369.334H231.065V370.219H224.918V372.255H231.162V373.164H223.803V369.334ZM189.09 392.383V390.068H185.684V389.171H187.272V385.788H185.66V384.867H193.649V385.788H192.036V389.171H193.624V390.068H190.194V392.383H194.522V393.305H184.835V392.383H189.09ZM190.921 389.171V385.788H188.387V389.171H190.921ZM203.748 384.782V385.691H197.589V387.146H203.517V388.043H197.589V389.595H203.857V390.492H196.474V384.782H203.748ZM195.249 392.335H204.936V393.268H195.249V392.335ZM214.428 384.164V385.025H212.865V386.879H214.368V387.752H211.034V388.674H215.338V389.559H205.663V388.674H209.931V387.752H206.597V386.879H208.1V385.025H206.536V384.164H214.428ZM206.815 390.322H214.113V392.723H207.943V393.644H214.416V394.481H206.851V391.947H213.01V391.135H206.815V390.322ZM211.761 386.879V385.025H209.215V386.879H211.761ZM224.879 383.873V394.614H223.764V383.873H224.879ZM216.672 384.855H221.642V388.771H217.823V391.123C218.761 391.123 219.621 391.098 220.405 391.05C221.189 390.993 221.998 390.892 222.83 390.747L222.939 391.656C222.058 391.801 221.202 391.902 220.369 391.959C219.537 392.016 218.611 392.044 217.593 392.044H216.696V387.861H220.515V385.776H216.672V384.855ZM231.317 384.564C232.076 384.564 232.751 384.681 233.341 384.915C233.939 385.15 234.404 385.481 234.735 385.91C235.075 386.338 235.245 386.835 235.245 387.401C235.245 387.918 235.099 388.383 234.808 388.795C234.525 389.199 234.129 389.526 233.62 389.777C233.111 390.019 232.525 390.165 231.862 390.213V392.347H236.178V393.268H226.492V392.347H230.759V390.213C230.104 390.157 229.522 390.007 229.013 389.765C228.512 389.514 228.12 389.187 227.837 388.783C227.554 388.379 227.413 387.918 227.413 387.401C227.413 386.835 227.579 386.338 227.91 385.91C228.249 385.481 228.714 385.15 229.304 384.915C229.894 384.681 230.565 384.564 231.317 384.564ZM228.492 387.401C228.492 387.789 228.613 388.132 228.856 388.431C229.098 388.722 229.433 388.948 229.862 389.11C230.29 389.264 230.775 389.34 231.317 389.34C231.866 389.34 232.355 389.264 232.784 389.11C233.212 388.948 233.543 388.722 233.778 388.431C234.02 388.132 234.141 387.789 234.141 387.401C234.141 387.013 234.02 386.673 233.778 386.382C233.543 386.083 233.212 385.853 232.784 385.691C232.355 385.53 231.866 385.449 231.317 385.449C230.775 385.449 230.29 385.53 229.862 385.691C229.433 385.853 229.098 386.083 228.856 386.382C228.613 386.673 228.492 387.013 228.492 387.401Z" fill="#4D4D4D"/>
<path d="M82.0733 358.507C82.2511 358.216 82.3643 357.885 82.4127 357.513C82.4612 357.141 82.4855 356.62 82.4855 355.949C82.4855 355.287 82.4612 354.773 82.4127 354.41C82.3643 354.038 82.2511 353.707 82.0733 353.416C81.75 352.826 81.2206 352.531 80.4852 352.531C79.7335 352.531 79.2082 352.822 78.9091 353.403C78.7313 353.702 78.6182 354.034 78.5697 354.398C78.5212 354.761 78.497 355.278 78.497 355.949C78.497 356.628 78.5212 357.149 78.5697 357.513C78.6182 357.877 78.7313 358.204 78.9091 358.495C79.2082 359.085 79.7335 359.38 80.4852 359.38C81.2287 359.38 81.7581 359.089 82.0733 358.507ZM77.418 355.949C77.418 355.214 77.4463 354.616 77.5029 354.155C77.5675 353.694 77.7211 353.262 77.9635 352.858C78.1737 352.478 78.4848 352.147 78.897 351.864C79.3092 351.581 79.8386 351.439 80.4852 351.439C81.1317 351.439 81.6611 351.581 82.0733 351.864C82.4855 352.139 82.8007 352.47 83.0189 352.858C83.2614 353.262 83.4109 353.69 83.4675 354.143C83.5321 354.596 83.5644 355.198 83.5644 355.949C83.5644 356.709 83.5321 357.319 83.4675 357.78C83.4109 358.232 83.2614 358.661 83.0189 359.065C82.8007 359.453 82.4855 359.788 82.0733 360.071C81.6692 360.346 81.1398 360.483 80.4852 360.483C79.8386 360.483 79.3092 360.342 78.897 360.059C78.4848 359.776 78.1737 359.445 77.9635 359.065C77.7211 358.653 77.5675 358.216 77.5029 357.756C77.4463 357.287 77.418 356.685 77.418 355.949Z" fill="#949494"/>
<path d="M86.1815 211.863V222.041H84.4825V218.596H81.2248C80.8923 218.97 80.4871 219.261 80.0091 219.469C79.5311 219.677 79.0219 219.781 78.4815 219.781C77.7957 219.781 77.1774 219.63 76.6267 219.329C76.0759 219.028 75.6395 218.607 75.3174 218.066C75.0056 217.526 74.8498 216.918 74.8498 216.243C74.8498 215.567 75.0056 214.959 75.3174 214.419C75.6395 213.879 76.0759 213.458 76.6267 213.156C77.1774 212.855 77.7957 212.704 78.4815 212.704C79.0323 212.704 79.5414 212.808 80.0091 213.016C80.4767 213.214 80.8767 213.499 81.2093 213.873H84.4825V211.863H86.1815ZM76.4552 216.243C76.4552 216.856 76.6423 217.355 77.0164 217.739C77.4008 218.113 77.8892 218.3 78.4815 218.3C79.0531 218.3 79.5259 218.113 79.8999 217.739C80.2844 217.355 80.4767 216.856 80.4767 216.243C80.4767 215.64 80.2844 215.146 79.8999 214.762C79.5259 214.377 79.0531 214.185 78.4815 214.185C77.8892 214.185 77.4008 214.377 77.0164 214.762C76.6423 215.136 76.4552 215.63 76.4552 216.243ZM77.1411 221.012H78.84V224.083H86.5244V225.455H77.1411V221.012ZM81.9574 215.245C82.0509 215.557 82.0977 215.889 82.0977 216.243C82.0977 216.565 82.0561 216.892 81.973 217.225H84.4825V215.245H81.9574ZM98.1215 214.17V211.847H99.8049V220.358H98.1215V218.082H96.251L96.3446 219.235C95.1807 219.433 93.939 219.563 92.6193 219.625C91.31 219.687 89.9279 219.719 88.4731 219.719L88.3017 218.331H89.876V214.185H88.6602V212.814H95.9705V214.185H94.7391V218.144C95.2379 218.113 95.7315 218.066 96.2199 218.004V216.741H98.1215V215.526H96.2199V214.17H98.1215ZM90.4683 223.148C90.4683 222.337 90.8839 221.714 91.7152 221.277C92.5465 220.83 93.6948 220.607 95.1599 220.607C96.6251 220.607 97.7734 220.83 98.6047 221.277C99.436 221.714 99.8516 222.337 99.8516 223.148C99.8516 223.958 99.436 224.587 98.6047 225.034C97.7734 225.481 96.6251 225.704 95.1599 225.704C93.6948 225.704 92.5465 225.481 91.7152 225.034C90.8839 224.587 90.4683 223.958 90.4683 223.148ZM91.497 218.3C92.2244 218.279 92.7699 218.259 93.1336 218.238V214.185H91.497V218.3ZM92.1361 223.148C92.1361 223.563 92.3959 223.88 92.9154 224.099C93.435 224.306 94.1832 224.41 95.1599 224.41C96.1367 224.41 96.8797 224.306 97.3889 224.099C97.9084 223.88 98.1682 223.563 98.1682 223.148C98.1682 222.732 97.9084 222.42 97.3889 222.213C96.8797 221.994 96.1367 221.885 95.1599 221.885C94.1832 221.885 93.435 221.994 92.9154 222.213C92.3959 222.42 92.1361 222.732 92.1361 223.148ZM112.929 212.549V213.671C112.929 214.44 112.914 215.12 112.883 215.713C112.852 216.305 112.768 216.965 112.633 217.692H114.457V219.048H111.184V222.181H109.547V219.048H107.723V222.181H106.071V219.048H101.894V217.692H110.934C111.069 216.986 111.158 216.347 111.199 215.775C111.241 215.204 111.262 214.57 111.262 213.873H103.421V212.549H112.929ZM103.297 220.981H104.98V224.083H113.304V225.439H103.297V220.981ZM126.28 212.284V213.001C126.28 213.583 126.482 214.149 126.887 214.7C127.303 215.25 127.88 215.723 128.618 216.118C129.355 216.513 130.192 216.778 131.127 216.913L130.457 218.269C129.314 218.092 128.295 217.734 127.402 217.194C126.519 216.643 125.854 215.973 125.407 215.183C124.949 215.973 124.274 216.643 123.38 217.194C122.487 217.734 121.463 218.092 120.31 218.269L119.655 216.913C120.601 216.778 121.442 216.518 122.18 216.134C122.918 215.739 123.489 215.266 123.895 214.715C124.3 214.164 124.503 213.593 124.503 213.001V212.284H126.28ZM119.11 219.485H131.657V220.856H126.17V225.72H124.503V220.856H119.11V219.485ZM144.189 220.716V225.735H142.49V222.072H134.837V220.716H144.189ZM132.998 215.993C132.998 215.349 133.159 214.772 133.481 214.263C133.803 213.754 134.245 213.359 134.806 213.079C135.367 212.788 135.996 212.642 136.692 212.642C137.388 212.642 138.017 212.788 138.578 213.079C139.15 213.359 139.596 213.754 139.919 214.263C140.241 214.772 140.402 215.349 140.402 215.993C140.402 216.627 140.241 217.199 139.919 217.708C139.596 218.217 139.15 218.617 138.578 218.908C138.017 219.189 137.388 219.329 136.692 219.329C135.996 219.329 135.367 219.189 134.806 218.908C134.245 218.617 133.803 218.217 133.481 217.708C133.159 217.199 132.998 216.627 132.998 215.993ZM134.65 215.993C134.65 216.565 134.842 217.027 135.227 217.381C135.611 217.734 136.1 217.911 136.692 217.911C137.295 217.911 137.788 217.739 138.173 217.396C138.557 217.043 138.749 216.575 138.749 215.993C138.749 215.401 138.557 214.933 138.173 214.59C137.799 214.248 137.305 214.076 136.692 214.076C136.089 214.076 135.596 214.248 135.211 214.59C134.837 214.933 134.65 215.401 134.65 215.993ZM142.49 211.847H144.189V220.03H142.49V211.847ZM158.919 218.066V219.298H155.708V220.295H157.376V223.444H149.489V224.426H157.797V225.595H147.837V222.337H155.724V221.464H147.806V220.295H149.567V219.298H146.356V218.066H158.919ZM147.915 212.143H157.361V215.245H149.598V216.134H157.594V217.303H147.946V214.154H155.693V213.297H147.915V212.143ZM154.025 220.295V219.298H151.235V220.295H154.025Z" fill="#4F4F4F"/>
<line x1="89.584" y1="355.297" x2="262.287" y2="355.297" stroke="#949494" stroke-width="0.865942"/>
<g filter="url(#filter1_d_1636_17737)">
<rect x="296.25" y="190.383" width="245.928" height="239" rx="15.6407" fill="white"/>
</g>
<path d="M475.743 311.474C475.738 313.387 474.184 314.934 472.271 314.929L445.427 314.86C443.514 314.855 441.967 313.3 441.972 311.387L442.108 258.144L475.88 258.231L475.743 311.474Z" fill="#FF5858"/>
<path d="M406.368 349.868C406.363 351.781 404.809 353.328 402.896 353.323L376.052 353.254C374.139 353.249 372.592 351.695 372.597 349.782L372.832 257.967L406.604 258.053L406.368 349.868Z" fill="#FFAEAE"/>
<path d="M333.769 260.656C333.946 260.365 334.06 260.033 334.108 259.662C334.157 259.29 334.181 258.769 334.181 258.098C334.181 257.435 334.157 256.922 334.108 256.558C334.06 256.186 333.946 255.855 333.769 255.564C333.445 254.974 332.916 254.679 332.18 254.679C331.429 254.679 330.903 254.97 330.604 255.552C330.427 255.851 330.313 256.182 330.265 256.546C330.217 256.91 330.192 257.427 330.192 258.098C330.192 258.777 330.217 259.298 330.265 259.662C330.313 260.025 330.427 260.353 330.604 260.644C330.903 261.234 331.429 261.529 332.18 261.529C332.924 261.529 333.453 261.238 333.769 260.656ZM329.113 258.098C329.113 257.362 329.142 256.764 329.198 256.304C329.263 255.843 329.416 255.41 329.659 255.006C329.869 254.626 330.18 254.295 330.592 254.012C331.005 253.729 331.534 253.588 332.18 253.588C332.827 253.588 333.356 253.729 333.769 254.012C334.181 254.287 334.496 254.618 334.714 255.006C334.957 255.41 335.106 255.839 335.163 256.291C335.227 256.744 335.26 257.346 335.26 258.098C335.26 258.857 335.227 259.468 335.163 259.928C335.106 260.381 334.957 260.809 334.714 261.213C334.496 261.601 334.181 261.937 333.769 262.22C333.364 262.494 332.835 262.632 332.18 262.632C331.534 262.632 331.005 262.49 330.592 262.207C330.18 261.925 329.869 261.593 329.659 261.213C329.416 260.801 329.263 260.365 329.198 259.904C329.142 259.435 329.113 258.833 329.113 258.098Z" fill="#949494"/>
<path d="M387.062 368.885V379.59H385.947V368.885H387.062ZM378.357 376.753C379.748 376.074 380.802 375.254 381.522 374.292C382.249 373.322 382.669 372.203 382.782 370.934H378.867V370.025H383.91C383.91 371.681 383.518 373.152 382.734 374.437C381.95 375.722 380.689 376.789 378.951 377.638L378.357 376.753ZM397.452 369.406V370.291H394.215C394.231 370.687 394.397 371.059 394.712 371.407C395.027 371.754 395.451 372.049 395.985 372.292C396.526 372.534 397.12 372.696 397.767 372.777L397.367 373.674C396.454 373.544 395.649 373.274 394.954 372.861C394.259 372.449 393.77 371.944 393.487 371.346C393.205 371.944 392.716 372.449 392.021 372.861C391.334 373.274 390.529 373.544 389.608 373.674L389.196 372.777C389.842 372.696 390.432 372.534 390.966 372.292C391.507 372.049 391.936 371.754 392.251 371.407C392.566 371.059 392.732 370.687 392.748 370.291H389.535V369.406H397.452ZM388.65 374.607H392.918V372.91H394.021V374.607H398.337V375.516H388.65V374.607ZM389.887 376.353H390.99V378.45H397.234V379.372H389.887V376.353ZM368.176 392.383V390.068H364.77V389.171H366.358V385.788H364.745V384.867H372.735V385.788H371.122V389.171H372.71V390.068H369.28V392.383H373.608V393.305H363.921V392.383H368.176ZM370.007 389.171V385.788H367.473V389.171H370.007ZM382.834 384.782V385.691H376.675V387.146H382.603V388.043H376.675V389.595H382.943V390.492H375.56V384.782H382.834ZM374.335 392.335H384.022V393.268H374.335V392.335ZM393.514 384.164V385.025H391.95V386.879H393.454V387.752H390.12V388.674H394.424V389.559H384.749V388.674H389.017V387.752H385.683V386.879H387.186V385.025H385.622V384.164H393.514ZM385.901 390.322H393.199V392.723H387.028V393.644H393.502V394.481H385.937V391.947H392.096V391.135H385.901V390.322ZM390.847 386.879V385.025H388.301V386.879H390.847ZM403.965 383.873V394.614H402.85V383.873H403.965ZM395.757 384.855H400.728V388.771H396.909V391.123C397.847 391.123 398.707 391.098 399.491 391.05C400.275 390.993 401.084 390.892 401.916 390.747L402.025 391.656C401.144 391.801 400.287 391.902 399.455 391.959C398.623 392.016 397.697 392.044 396.679 392.044H395.782V387.861H399.601V385.776H395.757V384.855ZM410.403 384.564C411.162 384.564 411.837 384.681 412.427 384.915C413.025 385.15 413.49 385.481 413.821 385.91C414.161 386.338 414.33 386.835 414.33 387.401C414.33 387.918 414.185 388.383 413.894 388.795C413.611 389.199 413.215 389.526 412.706 389.777C412.197 390.019 411.611 390.165 410.948 390.213V392.347H415.264V393.268H405.578V392.347H409.845V390.213C409.19 390.157 408.608 390.007 408.099 389.765C407.598 389.514 407.206 389.187 406.923 388.783C406.64 388.379 406.499 387.918 406.499 387.401C406.499 386.835 406.665 386.338 406.996 385.91C407.335 385.481 407.8 385.15 408.39 384.915C408.98 384.681 409.651 384.564 410.403 384.564ZM407.578 387.401C407.578 387.789 407.699 388.132 407.942 388.431C408.184 388.722 408.519 388.948 408.948 389.11C409.376 389.264 409.861 389.34 410.403 389.34C410.952 389.34 411.441 389.264 411.869 389.11C412.298 388.948 412.629 388.722 412.864 388.431C413.106 388.132 413.227 387.789 413.227 387.401C413.227 387.013 413.106 386.673 412.864 386.382C412.629 386.083 412.298 385.853 411.869 385.691C411.441 385.53 410.952 385.449 410.403 385.449C409.861 385.449 409.376 385.53 408.948 385.691C408.519 385.853 408.184 386.083 407.942 386.382C407.699 386.673 407.578 387.013 407.578 387.401Z" fill="#4B4B4B"/>
<path d="M440.416 369.879V371.795C440.416 372.724 440.606 373.589 440.985 374.389C441.365 375.189 441.899 375.779 442.586 376.159L441.931 377.032C441.446 376.757 441.03 376.377 440.682 375.892C440.335 375.399 440.064 374.833 439.87 374.195C439.668 374.89 439.385 375.508 439.021 376.05C438.658 376.591 438.225 377.016 437.724 377.323L437.009 376.498C437.745 376.062 438.314 375.419 438.718 374.571C439.131 373.722 439.337 372.821 439.337 371.867V369.879H440.416ZM442.852 369.115H443.907V373.152H445.204V368.885H446.271V379.59H445.204V374.074H443.907V379.068H442.852V369.115ZM451.824 377.395V375.492H448.745V372.098H454.976V370.558H448.72V369.649H456.079V372.983H449.848V374.583H456.334V375.492H452.927V377.395H457.243V378.305H447.556V377.395H451.824ZM465.941 369.831V374.85H460.983V369.831H465.941ZM464.85 373.952V370.728H462.074V373.952H464.85ZM462.183 375.977H463.286V378.45H469.348V379.372H462.183V375.977ZM467.796 368.897H468.911V372.11H470.439V373.031H468.911V376.729H467.796V368.897ZM480.671 374.268V375.177H471.009V374.268H480.671ZM472.209 376.219H473.325V378.45H479.665V379.359H472.209V376.219ZM472.209 369.334H479.471V370.219H473.325V372.255H479.568V373.164H472.209V369.334ZM437.497 392.383V390.068H434.09V389.171H435.678V385.788H434.066V384.867H442.055V385.788H440.443V389.171H442.031V390.068H438.6V392.383H442.928V393.305H433.241V392.383H437.497ZM439.327 389.171V385.788H436.794V389.171H439.327ZM452.154 384.782V385.691H445.995V387.146H451.924V388.043H445.995V389.595H452.263V390.492H444.88V384.782H452.154ZM443.656 392.335H453.342V393.268H443.656V392.335ZM462.835 384.164V385.025H461.271V386.879H462.774V387.752H459.44V388.674H463.744V389.559H454.07V388.674H458.337V387.752H455.003V386.879H456.506V385.025H454.942V384.164H462.835ZM455.221 390.322H462.519V392.723H456.349V393.644H462.823V394.481H455.258V391.947H461.416V391.135H455.221V390.322ZM460.168 386.879V385.025H457.622V386.879H460.168ZM473.285 383.873V394.614H472.17V383.873H473.285ZM465.078 384.855H470.048V388.771H466.229V391.123C467.167 391.123 468.028 391.098 468.812 391.05C469.596 390.993 470.404 390.892 471.236 390.747L471.345 391.656C470.465 391.801 469.608 391.902 468.775 391.959C467.943 392.016 467.017 392.044 465.999 392.044H465.102V387.861H468.921V385.776H465.078V384.855ZM479.723 384.564C480.483 384.564 481.157 384.681 481.747 384.915C482.346 385.15 482.81 385.481 483.142 385.91C483.481 386.338 483.651 386.835 483.651 387.401C483.651 387.918 483.505 388.383 483.214 388.795C482.931 389.199 482.535 389.526 482.026 389.777C481.517 390.019 480.931 390.165 480.268 390.213V392.347H484.584V393.268H474.898V392.347H479.165V390.213C478.511 390.157 477.929 390.007 477.419 389.765C476.918 389.514 476.526 389.187 476.244 388.783C475.961 388.379 475.819 387.918 475.819 387.401C475.819 386.835 475.985 386.338 476.316 385.91C476.656 385.481 477.12 385.15 477.71 384.915C478.3 384.681 478.971 384.564 479.723 384.564ZM476.898 387.401C476.898 387.789 477.019 388.132 477.262 388.431C477.504 388.722 477.84 388.948 478.268 389.11C478.696 389.264 479.181 389.34 479.723 389.34C480.272 389.34 480.761 389.264 481.19 389.11C481.618 388.948 481.949 388.722 482.184 388.431C482.426 388.132 482.548 387.789 482.548 387.401C482.548 387.013 482.426 386.673 482.184 386.382C481.949 386.083 481.618 385.853 481.19 385.691C480.761 385.53 480.272 385.449 479.723 385.449C479.181 385.449 478.696 385.53 478.268 385.691C477.84 385.853 477.504 386.083 477.262 386.382C477.019 386.673 476.898 387.013 476.898 387.401Z" fill="#4B4B4B"/>
<path d="M323.974 219.282V221.542C325.335 221.459 326.514 221.34 327.512 221.184L327.637 222.431C326.307 222.691 324.966 222.857 323.615 222.93C322.275 222.992 320.68 223.028 318.83 223.039L318.627 221.651C320.186 221.651 321.407 221.636 322.29 221.605V219.282H323.974ZM318.986 218.44C319.983 218.16 320.768 217.703 321.34 217.069C321.921 216.435 322.238 215.713 322.29 214.902H319.36V213.562H322.29V211.972H323.974V213.562H326.951V214.902H323.989C324.041 215.671 324.358 216.362 324.94 216.975C325.522 217.588 326.317 218.03 327.325 218.3L326.561 219.594C325.761 219.376 325.07 219.038 324.488 218.581C323.917 218.124 323.47 217.578 323.148 216.944C322.836 217.609 322.389 218.186 321.807 218.674C321.236 219.152 320.55 219.511 319.75 219.75L318.986 218.44ZM328.338 211.832H330.021V225.751H328.338V211.832ZM344.035 211.832V225.72H342.413V218.659H340.87V225.018H339.296V212.112H340.87V217.271H342.413V211.832H344.035ZM332.625 213.499H337.753V214.855H334.293V221.059C335.103 221.049 335.825 221.018 336.459 220.966C337.104 220.914 337.758 220.82 338.423 220.685L338.579 222.072C337.8 222.228 337.036 222.332 336.288 222.384C335.54 222.436 334.63 222.462 333.56 222.462H332.625V213.499ZM360.221 211.832V215.152H362.139V216.554H360.221V219.828H358.538V211.832H360.221ZM349.981 212.627H351.649V217.614C353.685 217.583 355.577 217.396 357.322 217.053L357.509 218.409C355.452 218.815 353.316 219.017 351.103 219.017H349.981V212.627ZM351.15 220.514H360.221V225.735H358.538V221.87H351.15V220.514ZM374.406 212.33V213.671H372.489V216.227H374.297V217.568H370.104V218.955H375.544V220.311H363.012V218.955H368.436V217.568H364.212V216.227H366.036V213.671H364.119V212.33H374.406ZM364.415 221.433H374.016V225.72H372.333V222.758H364.415V221.433ZM370.805 216.227V213.671H367.719V216.227H370.805Z" fill="#4F4F4F"/>
<line x1="511.503" y1="258.29" x2="338.8" y2="257.848" stroke="#949494" stroke-width="0.865942"/>
<rect x="31.75" y="325.292" width="529" height="145" fill="url(#paint0_linear_1636_17737)"/>
<defs>
<filter id="filter0_d_1636_17737" x="39.75" y="180.383" width="255.535" height="259" filterUnits="userSpaceOnUse" color-interpolation-filters="sRGB">
<feFlood flood-opacity="0" result="BackgroundImageFix"/>
<feColorMatrix in="SourceAlpha" type="matrix" values="0 0 0 0 0 0 0 0 0 0 0 0 0 0 0 0 0 0 127 0" result="hardAlpha"/>
<feOffset/>
<feGaussianBlur stdDeviation="5"/>
<feComposite in2="hardAlpha" operator="out"/>
<feColorMatrix type="matrix" values="0 0 0 0 0 0 0 0 0 0 0 0 0 0 0 0 0 0 0.08 0"/>
<feBlend mode="normal" in2="BackgroundImageFix" result="effect1_dropShadow_1636_17737"/>
<feBlend mode="normal" in="SourceGraphic" in2="effect1_dropShadow_1636_17737" result="shape"/>
</filter>
<filter id="filter1_d_1636_17737" x="286.25" y="180.383" width="265.926" height="259" filterUnits="userSpaceOnUse" color-interpolation-filters="sRGB">
<feFlood flood-opacity="0" result="BackgroundImageFix"/>
<feColorMatrix in="SourceAlpha" type="matrix" values="0 0 0 0 0 0 0 0 0 0 0 0 0 0 0 0 0 0 127 0" result="hardAlpha"/>
<feOffset/>
<feGaussianBlur stdDeviation="5"/>
<feComposite in2="hardAlpha" operator="out"/>
<feColorMatrix type="matrix" values="0 0 0 0 0 0 0 0 0 0 0 0 0 0 0 0 0 0 0.08 0"/>
<feBlend mode="normal" in2="BackgroundImageFix" result="effect1_dropShadow_1636_17737"/>
<feBlend mode="normal" in="SourceGraphic" in2="effect1_dropShadow_1636_17737" result="shape"/>
</filter>
<linearGradient id="paint0_linear_1636_17737" x1="296.25" y1="325.292" x2="317.818" y2="460.248" gradientUnits="userSpaceOnUse">
<stop offset="0.180738" stop-color="#F6F8FF" stop-opacity="0"/>
<stop offset="1" stop-color="#F6F8FF"/>
</linearGradient>
</defs>
</svg>
