<svg width="552" height="304" viewBox="0 0 552 304" fill="none" xmlns="http://www.w3.org/2000/svg">
<g filter="url(#filter0_d_1517_8146)">
<rect x="378" y="85.4761" width="164" height="124" rx="10" fill="white"/>
</g>
<circle cx="183.5" cy="128.976" r="114.5" fill="#DAE5FF"/>
<path d="M183.5 14.4761C201.404 14.4761 219.059 18.6747 235.046 26.7349C251.033 34.795 264.908 46.492 275.555 60.8864C286.202 75.2808 293.325 91.9714 296.352 109.618C299.379 127.264 298.225 145.374 292.984 162.494C287.743 179.614 278.56 195.266 266.173 208.194C253.786 221.121 238.54 230.963 221.659 236.93C204.779 242.897 186.734 244.822 168.975 242.551C151.215 240.28 134.236 233.875 119.4 223.852L183.5 128.976V14.4761Z" fill="#6792F8"/>
<path d="M252.622 226.239C232.499 240.811 208.261 248.598 183.417 248.475C158.573 248.351 134.414 240.322 114.438 225.551L184 131.476L252.622 226.239Z" fill="#A2BCFC"/>
<path d="M113.103 231.275C91.9369 216.027 76.1671 194.444 68.0721 169.645C59.977 144.846 59.9759 118.116 68.069 93.3166C76.1621 68.5173 91.9301 46.9332 113.095 31.6831C134.259 16.4331 159.724 8.30686 185.81 8.47874L185 131.476L113.103 231.275Z" fill="#DAE5FF"/>
<circle cx="183.5" cy="128.976" r="80.5" fill="white"/>
<path d="M416.599 165.292V168.076H431.511V165.292H416.599ZM437.769 160.332C437.641 160.588 437.577 160.812 437.513 161.036L434.857 160.332C434.953 159.98 435.081 159.596 435.273 159.244C437.001 155.596 441.449 154.06 445.193 155.692C448.969 157.1 450.665 161.42 448.969 165.1C448.585 165.804 448.137 166.508 447.529 167.084L439.113 175.5H450.153V178.284H435.017V175.564L445.577 165.196C445.897 164.844 446.217 164.46 446.409 164.044C447.401 161.9 446.473 159.244 444.041 158.188C441.641 157.164 438.857 158.188 437.769 160.332ZM460.811 176.14C457.835 176.14 455.755 174.092 455.755 172.012C455.755 169.9 457.867 167.884 460.811 167.884C463.787 167.884 465.835 169.9 465.835 172.012C465.835 174.092 463.787 176.14 460.811 176.14ZM452.939 172.012C452.939 175.98 456.651 178.892 460.811 178.892C464.971 178.892 468.683 175.98 468.683 172.012C468.683 169.612 467.275 167.564 465.195 166.38C466.923 165.228 468.075 163.5 468.075 161.42C468.075 157.74 464.587 155.084 460.811 155.084C457.035 155.084 453.611 157.74 453.611 161.42C453.611 163.5 454.763 165.228 456.491 166.38C454.379 167.564 452.939 169.612 452.939 172.012ZM456.459 161.388C456.459 159.596 458.251 157.836 460.811 157.836C463.435 157.836 465.195 159.596 465.195 161.388C465.195 163.18 463.435 164.94 460.811 164.94C458.251 164.94 456.459 163.18 456.459 161.388ZM478.051 178.54H481.027L495.651 155.244H492.643L478.051 178.54ZM472.707 160.876C472.707 164.3 475.427 167.212 478.883 167.212C482.339 167.212 485.027 164.3 485.027 160.876C485.027 157.42 482.339 154.54 478.883 154.54C475.427 154.54 472.707 157.42 472.707 160.876ZM475.491 160.876C475.491 158.86 477.059 157.26 478.883 157.26C480.771 157.26 482.307 158.86 482.307 160.876C482.307 162.892 480.771 164.492 478.883 164.492C477.059 164.492 475.491 162.892 475.491 160.876ZM488.387 172.78C488.387 176.204 491.107 179.116 494.563 179.116C498.019 179.116 500.707 176.204 500.707 172.78C500.707 169.292 498.019 166.444 494.563 166.444C491.107 166.444 488.387 169.292 488.387 172.78ZM491.139 172.78C491.139 170.764 492.739 169.164 494.563 169.164C496.451 169.164 497.987 170.764 497.987 172.78C497.987 174.764 496.451 176.396 494.563 176.396C492.739 176.396 491.139 174.764 491.139 172.78Z" fill="#6792F8"/>
<path d="M408.976 116.772V118.97C407.758 119.012 406.596 119.012 405.602 119.012L405.756 120.09C407.954 120.076 410.95 120.076 413.694 119.544L413.596 118.592C412.532 118.76 411.384 118.858 410.264 118.914V116.772H408.976ZM405.952 116.184L406.54 117.192C408.01 116.744 409.102 115.792 409.634 114.546C410.194 115.722 411.286 116.632 412.742 117.052L413.33 116.044C411.51 115.554 410.334 114.28 410.264 112.81H413.036V111.774H410.264V110.304H408.976V111.774H406.26V112.81H408.976C408.92 114.364 407.758 115.652 405.952 116.184ZM414.366 122.582H415.654V110.178H414.366V122.582ZM427.05 110.192V115.106H425.454V110.458H424.25V121.924H425.454V116.17H427.05V122.554H428.282V110.192H427.05ZM418.188 119.572H419.014C420.778 119.572 422.052 119.516 423.536 119.222L423.41 118.144C422.108 118.424 420.96 118.48 419.462 118.494V112.726H422.766V111.69H418.188V119.572ZM441.533 110.192V117.304H442.835V114.28H444.599V113.202H442.835V110.192H441.533ZM433.777 116.492H434.757C436.577 116.492 438.439 116.352 440.511 115.946L440.357 114.896C438.467 115.26 436.731 115.386 435.051 115.4V110.906H433.777V116.492ZM434.799 118.998H441.533V122.568H442.835V117.948H434.799V118.998ZM446.462 110.64V111.676H448.268V114.182H446.532V115.218H450.396V116.59H445.454V117.64H456.626V116.59H451.67V115.218H455.506V114.182H453.77V111.676H455.576V110.64H446.462ZM446.7 119.796H453.952V122.568H455.254V118.774H446.7V119.796ZM449.556 114.182V111.676H452.496V114.182H449.556Z" fill="#767676"/>
<g filter="url(#filter1_d_1517_8146)">
<rect x="261" y="10.4761" width="77" height="77" rx="38.5" fill="white"/>
</g>
<g filter="url(#filter2_d_1517_8146)">
<rect x="10" y="69.4761" width="77" height="77" rx="38.5" fill="white"/>
</g>
<g filter="url(#filter3_d_1517_8146)">
<rect x="127" y="216.476" width="77" height="77" rx="38.5" fill="white"/>
</g>
<path d="M287.782 36.1641V37.2281H292.696V41.5541H293.97V37.2281H298.954V36.1641H287.782ZM288.412 34.2041L288.902 35.2261C290.876 34.9041 292.626 33.8961 293.368 32.4821C294.124 33.8961 295.86 34.9041 297.848 35.2261L298.324 34.2041C296.028 33.8821 294.11 32.4961 294.082 30.9561H297.89V29.9341H288.804V30.9561H292.654C292.626 32.4961 290.708 33.8821 288.412 34.2041ZM303.168 29.7801V30.9841C303.168 32.7621 302.006 34.4281 300.102 35.1141L300.746 36.1501C302.216 35.6181 303.308 34.4981 303.84 33.1121C304.386 34.4001 305.45 35.4221 306.878 35.9121L307.508 34.9041C305.646 34.2601 304.47 32.7061 304.47 30.9841V29.7801H303.168ZM301.908 38.2641H308.894V41.5681H310.182V37.2141H301.908V38.2641ZM308.894 36.6261H310.182V29.2061H308.894V36.6261Z" fill="#6792F8"/>
<path d="M36.9917 90.4461V91.5101H39.2317V91.9721C39.2317 93.9601 38.3497 96.0741 36.6417 97.0681L37.4117 98.0481C38.6017 97.3341 39.4277 96.0321 39.8617 94.5341C40.3097 95.9341 41.1357 97.1241 42.3117 97.7681L43.0397 96.8021C41.3737 95.9061 40.4497 93.9181 40.4497 91.9721V91.5101H42.6897V90.4461H40.4637V88.6401H39.2317V90.4461H36.9917ZM43.4317 99.9521H44.6637V94.1981H46.1197V100.554H47.3657V88.1921H46.1197V93.1201H44.6637V88.4581H43.4317V99.9521ZM57.978 88.2061V94.8981H55.374V95.9061H57.978V97.5161H59.28V88.2061H57.978ZM48.934 93.0221L49.116 94.0861C50.082 94.0861 51.202 94.0721 52.364 94.0161V96.7461H53.638V93.9461C54.758 93.8621 55.906 93.7501 57.012 93.5541L56.928 92.6301C56.494 92.6861 56.046 92.7421 55.598 92.7841C55.864 91.2161 55.864 90.0681 55.864 89.3821V88.9201H50.068V89.9561H54.576C54.562 90.6561 54.506 91.6081 54.296 92.8821C52.406 93.0081 50.488 93.0221 48.934 93.0221ZM50.726 100.302H59.574V99.2381H52.028V96.5361H50.726V100.302Z" fill="#C2D4FF"/>
<path d="M161.314 235.836V236.872H168.426C168.426 237.81 168.412 238.888 168.076 240.344H159.9V241.394H171.086V240.344H169.35C169.686 238.846 169.686 237.74 169.686 236.76V235.836H161.314ZM161.258 247.386H169.7V242.962H161.258V247.386ZM162.518 246.364V243.998H168.44V246.364H162.518Z" fill="#A2BCFC"/>
<path d="M290.207 55.3121H289.031L284.047 61.9061V63.0681H289.031V65.5321H290.207V63.0681H291.649V61.8781H290.207V55.3121ZM285.531 61.8781L289.031 57.1741V61.8781H285.531ZM298.446 63.3621C298.222 63.7961 297.732 64.3701 296.626 64.3701C295.506 64.3701 295.03 63.7961 294.806 63.3481C294.358 62.6201 294.316 61.7521 294.316 60.4081C294.316 59.0641 294.358 58.2101 294.806 57.4681C295.03 57.0341 295.506 56.4601 296.626 56.4601C297.732 56.4601 298.222 57.0481 298.446 57.4821C298.894 58.2101 298.936 59.0641 298.936 60.4081C298.936 61.7661 298.894 62.6341 298.446 63.3621ZM293.07 60.4081C293.07 61.7521 293.084 62.9421 293.714 64.0061C294.092 64.6921 294.96 65.6441 296.626 65.6441C298.306 65.6441 299.16 64.7061 299.552 64.0061C300.182 62.9561 300.182 61.7801 300.182 60.4081C300.182 59.0781 300.182 57.8881 299.552 56.8381C299.16 56.1521 298.306 55.2001 296.626 55.2001C294.96 55.2001 294.092 56.1381 293.714 56.8381C293.084 57.8881 293.07 59.0641 293.07 60.4081ZM304.499 65.5041H305.801L312.199 55.3121H310.883L304.499 65.5041ZM302.161 57.7761C302.161 59.2741 303.351 60.5481 304.863 60.5481C306.375 60.5481 307.551 59.2741 307.551 57.7761C307.551 56.2641 306.375 55.0041 304.863 55.0041C303.351 55.0041 302.161 56.2641 302.161 57.7761ZM303.379 57.7761C303.379 56.8941 304.065 56.1941 304.863 56.1941C305.689 56.1941 306.361 56.8941 306.361 57.7761C306.361 58.6581 305.689 59.3581 304.863 59.3581C304.065 59.3581 303.379 58.6581 303.379 57.7761ZM309.021 62.9841C309.021 64.4821 310.211 65.7561 311.723 65.7561C313.235 65.7561 314.411 64.4821 314.411 62.9841C314.411 61.4581 313.235 60.2121 311.723 60.2121C310.211 60.2121 309.021 61.4581 309.021 62.9841ZM310.225 62.9841C310.225 62.1021 310.925 61.4021 311.723 61.4021C312.549 61.4021 313.221 62.1021 313.221 62.9841C313.221 63.8521 312.549 64.5661 311.723 64.5661C310.925 64.5661 310.225 63.8521 310.225 62.9841Z" fill="#6792F8"/>
<path d="M39.207 114.312H38.031L33.047 120.906V122.068H38.031V124.532H39.207V122.068H40.649V120.878H39.207V114.312ZM34.531 120.878L38.031 116.174V120.878H34.531ZM47.4464 122.362C47.2224 122.796 46.7324 123.37 45.6264 123.37C44.5064 123.37 44.0304 122.796 43.8064 122.348C43.3584 121.62 43.3164 120.752 43.3164 119.408C43.3164 118.064 43.3584 117.21 43.8064 116.468C44.0304 116.034 44.5064 115.46 45.6264 115.46C46.7324 115.46 47.2224 116.048 47.4464 116.482C47.8944 117.21 47.9364 118.064 47.9364 119.408C47.9364 120.766 47.8944 121.634 47.4464 122.362ZM42.0704 119.408C42.0704 120.752 42.0844 121.942 42.7144 123.006C43.0924 123.692 43.9604 124.644 45.6264 124.644C47.3064 124.644 48.1604 123.706 48.5524 123.006C49.1824 121.956 49.1824 120.78 49.1824 119.408C49.1824 118.078 49.1824 116.888 48.5524 115.838C48.1604 115.152 47.3064 114.2 45.6264 114.2C43.9604 114.2 43.0924 115.138 42.7144 115.838C42.0844 116.888 42.0704 118.064 42.0704 119.408ZM53.4994 124.504H54.8014L61.1994 114.312H59.8834L53.4994 124.504ZM51.1614 116.776C51.1614 118.274 52.3514 119.548 53.8634 119.548C55.3754 119.548 56.5514 118.274 56.5514 116.776C56.5514 115.264 55.3754 114.004 53.8634 114.004C52.3514 114.004 51.1614 115.264 51.1614 116.776ZM52.3794 116.776C52.3794 115.894 53.0654 115.194 53.8634 115.194C54.6894 115.194 55.3614 115.894 55.3614 116.776C55.3614 117.658 54.6894 118.358 53.8634 118.358C53.0654 118.358 52.3794 117.658 52.3794 116.776ZM58.0214 121.984C58.0214 123.482 59.2114 124.756 60.7234 124.756C62.2354 124.756 63.4114 123.482 63.4114 121.984C63.4114 120.458 62.2354 119.212 60.7234 119.212C59.2114 119.212 58.0214 120.458 58.0214 121.984ZM59.2254 121.984C59.2254 121.102 59.9254 120.402 60.7234 120.402C61.5494 120.402 62.2214 121.102 62.2214 121.984C62.2214 122.852 61.5494 123.566 60.7234 123.566C59.9254 123.566 59.2254 122.852 59.2254 121.984Z" fill="#C2D4FF"/>
<path d="M151.779 263.538C151.723 263.65 151.695 263.748 151.667 263.846L150.505 263.538C150.547 263.384 150.603 263.216 150.687 263.062C151.443 261.466 153.389 260.794 155.027 261.508C156.679 262.124 157.421 264.014 156.679 265.624C156.511 265.932 156.315 266.24 156.049 266.492L152.367 270.174H157.197V271.392H150.575V270.202L155.195 265.666C155.335 265.512 155.475 265.344 155.559 265.162C155.993 264.224 155.587 263.062 154.523 262.6C153.473 262.152 152.255 262.6 151.779 263.538ZM164.002 269.362C163.778 269.796 163.288 270.37 162.182 270.37C161.062 270.37 160.586 269.796 160.362 269.348C159.914 268.62 159.872 267.752 159.872 266.408C159.872 265.064 159.914 264.21 160.362 263.468C160.586 263.034 161.062 262.46 162.182 262.46C163.288 262.46 163.778 263.048 164.002 263.482C164.45 264.21 164.492 265.064 164.492 266.408C164.492 267.766 164.45 268.634 164.002 269.362ZM158.626 266.408C158.626 267.752 158.64 268.942 159.27 270.006C159.648 270.692 160.516 271.644 162.182 271.644C163.862 271.644 164.716 270.706 165.108 270.006C165.738 268.956 165.738 267.78 165.738 266.408C165.738 265.078 165.738 263.888 165.108 262.838C164.716 262.152 163.862 261.2 162.182 261.2C160.516 261.2 159.648 262.138 159.27 262.838C158.64 263.888 158.626 265.064 158.626 266.408ZM170.055 271.504H171.357L177.755 261.312H176.439L170.055 271.504ZM167.717 263.776C167.717 265.274 168.907 266.548 170.419 266.548C171.931 266.548 173.107 265.274 173.107 263.776C173.107 262.264 171.931 261.004 170.419 261.004C168.907 261.004 167.717 262.264 167.717 263.776ZM168.935 263.776C168.935 262.894 169.621 262.194 170.419 262.194C171.245 262.194 171.917 262.894 171.917 263.776C171.917 264.658 171.245 265.358 170.419 265.358C169.621 265.358 168.935 264.658 168.935 263.776ZM174.577 268.984C174.577 270.482 175.767 271.756 177.279 271.756C178.791 271.756 179.967 270.482 179.967 268.984C179.967 267.458 178.791 266.212 177.279 266.212C175.767 266.212 174.577 267.458 174.577 268.984ZM175.781 268.984C175.781 268.102 176.481 267.402 177.279 267.402C178.105 267.402 178.777 268.102 178.777 268.984C178.777 269.852 178.105 270.566 177.279 270.566C176.481 270.566 175.781 269.852 175.781 268.984Z" fill="#A2BCFC"/>
<defs>
<filter id="filter0_d_1517_8146" x="368" y="75.4761" width="184" height="144" filterUnits="userSpaceOnUse" color-interpolation-filters="sRGB">
<feFlood flood-opacity="0" result="BackgroundImageFix"/>
<feColorMatrix in="SourceAlpha" type="matrix" values="0 0 0 0 0 0 0 0 0 0 0 0 0 0 0 0 0 0 127 0" result="hardAlpha"/>
<feOffset/>
<feGaussianBlur stdDeviation="5"/>
<feComposite in2="hardAlpha" operator="out"/>
<feColorMatrix type="matrix" values="0 0 0 0 0 0 0 0 0 0 0 0 0 0 0 0 0 0 0.1 0"/>
<feBlend mode="normal" in2="BackgroundImageFix" result="effect1_dropShadow_1517_8146"/>
<feBlend mode="normal" in="SourceGraphic" in2="effect1_dropShadow_1517_8146" result="shape"/>
</filter>
<filter id="filter1_d_1517_8146" x="251" y="0.476074" width="97" height="97" filterUnits="userSpaceOnUse" color-interpolation-filters="sRGB">
<feFlood flood-opacity="0" result="BackgroundImageFix"/>
<feColorMatrix in="SourceAlpha" type="matrix" values="0 0 0 0 0 0 0 0 0 0 0 0 0 0 0 0 0 0 127 0" result="hardAlpha"/>
<feOffset/>
<feGaussianBlur stdDeviation="5"/>
<feComposite in2="hardAlpha" operator="out"/>
<feColorMatrix type="matrix" values="0 0 0 0 0 0 0 0 0 0 0 0 0 0 0 0 0 0 0.1 0"/>
<feBlend mode="normal" in2="BackgroundImageFix" result="effect1_dropShadow_1517_8146"/>
<feBlend mode="normal" in="SourceGraphic" in2="effect1_dropShadow_1517_8146" result="shape"/>
</filter>
<filter id="filter2_d_1517_8146" x="0" y="59.4761" width="97" height="97" filterUnits="userSpaceOnUse" color-interpolation-filters="sRGB">
<feFlood flood-opacity="0" result="BackgroundImageFix"/>
<feColorMatrix in="SourceAlpha" type="matrix" values="0 0 0 0 0 0 0 0 0 0 0 0 0 0 0 0 0 0 127 0" result="hardAlpha"/>
<feOffset/>
<feGaussianBlur stdDeviation="5"/>
<feComposite in2="hardAlpha" operator="out"/>
<feColorMatrix type="matrix" values="0 0 0 0 0 0 0 0 0 0 0 0 0 0 0 0 0 0 0.1 0"/>
<feBlend mode="normal" in2="BackgroundImageFix" result="effect1_dropShadow_1517_8146"/>
<feBlend mode="normal" in="SourceGraphic" in2="effect1_dropShadow_1517_8146" result="shape"/>
</filter>
<filter id="filter3_d_1517_8146" x="117" y="206.476" width="97" height="97" filterUnits="userSpaceOnUse" color-interpolation-filters="sRGB">
<feFlood flood-opacity="0" result="BackgroundImageFix"/>
<feColorMatrix in="SourceAlpha" type="matrix" values="0 0 0 0 0 0 0 0 0 0 0 0 0 0 0 0 0 0 127 0" result="hardAlpha"/>
<feOffset/>
<feGaussianBlur stdDeviation="5"/>
<feComposite in2="hardAlpha" operator="out"/>
<feColorMatrix type="matrix" values="0 0 0 0 0 0 0 0 0 0 0 0 0 0 0 0 0 0 0.1 0"/>
<feBlend mode="normal" in2="BackgroundImageFix" result="effect1_dropShadow_1517_8146"/>
<feBlend mode="normal" in="SourceGraphic" in2="effect1_dropShadow_1517_8146" result="shape"/>
</filter>
</defs>
</svg>
