<svg width="92" height="27" viewBox="0 0 92 27" fill="none" xmlns="http://www.w3.org/2000/svg">
<path d="M2.79102 25.9998V12.1324C2.79102 9.67246 3.93803 2.15137 14.5365 2.15137" stroke="#6792F8" stroke-width="4.14464" stroke-miterlimit="10"/>
<path d="M14.5386 13.0161L1 13.0161" stroke="#6792F8" stroke-width="4.14464" stroke-miterlimit="10"/>
<path d="M19.7595 3.43556C20.2297 3.43556 20.6108 3.05999 20.6108 2.59669C20.6108 2.13339 20.2297 1.75781 19.7595 1.75781C19.2893 1.75781 18.9082 2.13339 18.9082 2.59669C18.9082 3.05999 19.2893 3.43556 19.7595 3.43556Z" fill="#4FEDAE" stroke="#4FEDAE" stroke-width="3.10848" stroke-miterlimit="10"/>
<path d="M19.7617 8.17725V25.9573" stroke="#6792F8" stroke-width="4.14464" stroke-miterlimit="10"/>
<path d="M26.916 8.17725V25.9573" stroke="#6792F8" stroke-width="4.14464" stroke-miterlimit="10"/>
<path d="M27.002 13.1587C27.002 13.1587 28.5123 10.0996 32.5008 10.0996C32.5008 10.0996 37.4573 10.2019 37.8508 15.0923V25.9985" stroke="#6792F8" stroke-width="4.14464" stroke-miterlimit="10"/>
<path d="M44.4688 0.213379V16.8374" stroke="#6792F8" stroke-width="4.14464" stroke-miterlimit="10"/>
<path d="M52.2597 24.521C56.5668 24.521 60.0585 21.0813 60.0585 16.8381C60.0585 12.595 56.5668 9.15527 52.2597 9.15527C47.9526 9.15527 44.4609 12.595 44.4609 16.8381C44.4609 21.0813 47.9526 24.521 52.2597 24.521Z" stroke="#6792F8" stroke-width="4.14464" stroke-miterlimit="10"/>
<path d="M66.4595 0V18.844C66.4595 18.844 65.7638 24.1739 71.5791 24" stroke="#6792F8" stroke-width="4.14464" stroke-miterlimit="10"/>
<path d="M74.9114 20.1751L88.2555 12.4821C87.8193 11.7659 86.7601 10.2621 84.7871 9.34139C84.4755 9.19817 81.2563 7.75571 78.0787 9.29024C77.736 9.45392 76.7495 9.96543 75.8252 11.0089C74.3195 12.7173 74.0806 14.6202 74.0183 15.2442C73.9249 16.1138 73.7899 18.6509 75.5552 20.9322C77.1337 22.9782 79.844 24.3184 82.7725 23.9705C85.5971 23.6432 88.0374 21.812 89.1278 19.2033" stroke="#6792F8" stroke-width="4.14464" stroke-miterlimit="10"/>
</svg>
