<svg width="109" height="33" viewBox="0 0 109 33" fill="none" xmlns="http://www.w3.org/2000/svg">
<path d="M2.58008 31.7965V14.8622C2.58008 11.8583 3.95995 2.67383 16.71 2.67383" stroke="#6792F8" stroke-width="4.99708" stroke-miterlimit="10"/>
<path d="M16.711 15.9414L0.423828 15.9414" stroke="#6792F8" stroke-width="4.99708" stroke-miterlimit="10"/>
<path d="M22.9951 4.24216C23.5609 4.24216 24.0195 3.78352 24.0195 3.21776C24.0195 2.652 23.5609 2.19336 22.9951 2.19336C22.4293 2.19336 21.9707 2.652 21.9707 3.21776C21.9707 3.78352 22.4293 4.24216 22.9951 4.24216Z" fill="#FED957" stroke="#FED957" stroke-width="3.74781" stroke-miterlimit="10"/>
<path d="M22.9971 10.0332V31.7455" stroke="#6792F8" stroke-width="4.99708" stroke-miterlimit="10"/>
<path d="M31.6006 10.0332V31.7455" stroke="#6792F8" stroke-width="4.99708" stroke-miterlimit="10"/>
<path d="M31.7051 16.1165C31.7051 16.1165 33.522 12.3809 38.3203 12.3809C38.3203 12.3809 44.2829 12.5058 44.7564 18.4778V31.796" stroke="#6792F8" stroke-width="4.99708" stroke-miterlimit="10"/>
<path d="M52.7168 0.306641V20.6073" stroke="#6792F8" stroke-width="4.99708" stroke-miterlimit="10"/>
<path d="M62.0881 29.9906C67.2696 29.9906 71.4701 25.7901 71.4701 20.6086C71.4701 15.427 67.2696 11.2266 62.0881 11.2266C56.9065 11.2266 52.7061 15.427 52.7061 20.6086C52.7061 25.7901 56.9065 29.9906 62.0881 29.9906Z" stroke="#6792F8" stroke-width="4.99708" stroke-miterlimit="10"/>
<path d="M79.1689 0.046875V23.0584C79.1689 23.0584 78.3319 29.5671 85.3278 29.3547" stroke="#6792F8" stroke-width="4.99708" stroke-miterlimit="10"/>
<path d="M89.3367 24.6833L105.39 15.2888C104.865 14.4143 103.591 12.5779 101.217 11.4535C100.843 11.2786 96.9698 9.51714 93.147 11.391C92.7348 11.5909 91.548 12.2156 90.4361 13.4898C88.6247 15.5761 88.3373 17.8997 88.2624 18.6618C88.1499 19.7237 87.9875 22.8219 90.1113 25.6077C92.0102 28.1063 95.2708 29.7428 98.7937 29.3181C102.192 28.9183 105.128 26.6821 106.439 23.4965" stroke="#6792F8" stroke-width="4.99708" stroke-miterlimit="10"/>
</svg>
