<svg width="591" height="505" viewBox="0 0 591 505" fill="none" xmlns="http://www.w3.org/2000/svg">
<rect x="0.5" y="0.631836" width="590.5" height="504" rx="25" fill="#F6F8FF"/>
<path d="M68.676 53.4993V59.0193H65.244V60.7953H68.676V63.5073H65.244V65.2593H68.676V69.6273H70.86V53.4993H68.676ZM53.412 57.7233H65.22V55.9713H60.516V53.4513H58.332V55.9713H53.412V57.7233ZM54.564 62.8833C54.564 65.2833 56.556 66.9393 59.388 66.9393C62.244 66.9393 64.236 65.2833 64.236 62.8833C64.236 60.4353 62.244 58.8033 59.388 58.8033C56.556 58.8033 54.564 60.4353 54.564 62.8833ZM56.628 62.8833C56.628 61.4673 57.756 60.5073 59.388 60.5073C61.044 60.5073 62.172 61.4673 62.172 62.8833C62.172 64.3233 61.044 65.2353 59.388 65.2353C57.756 65.2353 56.628 64.3233 56.628 62.8833ZM57.156 74.2113H71.364V72.4113H59.34V68.2593H57.156V74.2113ZM90.0126 53.4753V61.9233H87.4686V53.9313H85.4046V73.6113H87.4686V63.7473H90.0126V74.6433H92.1006V53.4753H90.0126ZM73.7166 68.6913L75.0846 70.3953C77.1966 69.0993 78.6126 66.8913 79.3326 64.1313C80.1006 66.5553 81.4686 68.4993 83.5086 69.6273L84.8046 67.9233C81.7806 66.3873 80.3406 62.9313 80.3406 59.0913V57.6993H84.0366V55.8993H74.2686V57.6993H78.2286V59.0913C78.2286 63.3393 76.7646 66.9633 73.7166 68.6913ZM99.7684 66.2433V68.0673H108.264V74.6913H110.448V68.0673H118.944V66.2433H99.7684ZM102.312 64.2273H116.856V62.4753H104.472V60.1473H116.136V58.4193H104.472V56.2113H116.616V54.4593H102.312V64.2273ZM120.793 55.6113V57.4353H125.545V59.7873C125.545 63.3393 123.169 67.3473 120.049 68.8833L121.321 70.6113C123.697 69.4113 125.665 66.7713 126.625 63.7713C127.585 66.5313 129.457 68.9313 131.833 70.0833L133.081 68.3553C129.913 66.8673 127.705 63.0993 127.705 59.7873V57.4353H132.265V55.6113H120.793ZM134.545 74.6673H136.753V63.7713H140.113V61.9473H136.753V53.4993H134.545V74.6673ZM156.265 53.4753V65.9553H152.041V67.4913H156.265V69.5793H158.449V53.4753H156.265ZM140.905 63.1713L141.193 64.9713C142.897 64.9713 144.865 64.9473 146.905 64.8513V68.8593H149.089V64.7313C150.961 64.6113 152.857 64.4193 154.657 64.1313L154.513 62.5473C150.025 63.1233 144.793 63.1713 140.905 63.1713ZM142.537 58.0113C142.537 60.2673 144.673 61.7313 147.769 61.7313C150.865 61.7313 152.977 60.2673 152.977 58.0113C152.977 55.7793 150.865 54.3153 147.769 54.3153C144.673 54.3153 142.537 55.7793 142.537 58.0113ZM143.833 74.2113H158.953V72.4113H146.017V68.0193H143.833V74.2113ZM144.625 58.0113C144.625 56.7393 145.921 55.9233 147.769 55.9233C149.617 55.9233 150.889 56.7393 150.889 58.0113C150.889 59.3073 149.617 60.0993 147.769 60.0993C145.921 60.0993 144.625 59.3073 144.625 58.0113ZM164.09 54.5553V56.3553H176.258C176.258 57.9873 176.234 59.8113 175.682 62.3073H161.642V64.1073H180.818V62.3073H177.866C178.394 59.7393 178.394 57.8433 178.394 56.1633V54.5553H164.09ZM163.97 74.4033H178.418V66.8193H163.97V74.4033ZM166.106 72.6513V68.5473H176.282V72.6513H166.106ZM197.451 53.4993V68.8833H199.659V53.4993H197.451ZM182.691 60.1953C182.691 63.2433 185.115 65.4273 188.259 65.4273C191.427 65.4273 193.827 63.2433 193.827 60.1953C193.827 57.0993 191.427 54.9393 188.259 54.9393C185.115 54.9393 182.691 57.0993 182.691 60.1953ZM184.827 60.1953C184.827 58.1793 186.315 56.8353 188.259 56.8353C190.227 56.8353 191.715 58.1793 191.715 60.1953C191.715 62.1633 190.227 63.5073 188.259 63.5073C186.315 63.5073 184.827 62.1633 184.827 60.1953ZM185.955 74.2113H200.283V72.4113H188.139V67.3233H185.955V74.2113ZM208.526 70.9953V72.8673H219.398V70.9953H211.502C214.814 68.0193 219.11 64.4433 219.11 60.7713C219.11 57.2913 216.374 55.2513 213.758 55.2513C212.126 55.2513 209.606 55.9953 208.334 58.8993L210.23 59.7393C211.07 57.7953 212.534 57.1713 213.758 57.1713C215.534 57.1713 216.998 58.4673 216.998 60.7713C216.998 63.8193 212.006 67.6593 208.526 70.9953ZM224.165 70.8273H221.933L221.141 75.7713H222.701L224.165 70.8273ZM232.941 55.4673H230.829L227.133 57.6513L228.141 59.3553L230.829 57.7713V72.8433H232.941V55.4673ZM236.228 70.9953V72.8673H247.1V70.9953H239.204C242.516 68.0193 246.812 64.4433 246.812 60.7713C246.812 57.2913 244.076 55.2513 241.46 55.2513C239.828 55.2513 237.308 55.9953 236.036 58.8993L237.932 59.7393C238.772 57.7953 240.236 57.1713 241.46 57.1713C243.236 57.1713 244.7 58.4673 244.7 60.7713C244.7 63.8193 239.708 67.6593 236.228 70.9953ZM255.371 71.1633C252.707 71.1633 251.123 68.7873 251.123 64.1553C251.123 59.4993 252.707 57.1713 255.371 57.1713C258.035 57.1713 259.595 59.4993 259.595 64.1553C259.595 68.7873 258.035 71.1633 255.371 71.1633ZM249.011 64.1553C249.011 69.6753 251.531 73.0113 255.371 73.0113C259.211 73.0113 261.707 69.6753 261.707 64.1553C261.707 58.5873 259.187 55.2993 255.371 55.2993C251.531 55.2993 249.011 58.6113 249.011 64.1553ZM266.483 70.8273H264.251L263.459 75.7713H265.019L266.483 70.8273ZM276.424 71.1633C273.76 71.1633 272.176 68.7873 272.176 64.1553C272.176 59.4993 273.76 57.1713 276.424 57.1713C279.088 57.1713 280.648 59.4993 280.648 64.1553C280.648 68.7873 279.088 71.1633 276.424 71.1633ZM270.064 64.1553C270.064 69.6753 272.584 73.0113 276.424 73.0113C280.264 73.0113 282.76 69.6753 282.76 64.1553C282.76 58.5873 280.24 55.2993 276.424 55.2993C272.584 55.2993 270.064 58.6113 270.064 64.1553ZM291.041 71.1633C288.377 71.1633 286.793 68.7873 286.793 64.1553C286.793 59.4993 288.377 57.1713 291.041 57.1713C293.705 57.1713 295.265 59.4993 295.265 64.1553C295.265 68.7873 293.705 71.1633 291.041 71.1633ZM284.681 64.1553C284.681 69.6753 287.201 73.0113 291.041 73.0113C294.881 73.0113 297.377 69.6753 297.377 64.1553C297.377 58.5873 294.857 55.2993 291.041 55.2993C287.201 55.2993 284.681 58.6113 284.681 64.1553ZM305.657 71.1633C302.993 71.1633 301.409 68.7873 301.409 64.1553C301.409 59.4993 302.993 57.1713 305.657 57.1713C308.321 57.1713 309.881 59.4993 309.881 64.1553C309.881 68.7873 308.321 71.1633 305.657 71.1633ZM299.297 64.1553C299.297 69.6753 301.817 73.0113 305.657 73.0113C309.497 73.0113 311.993 69.6753 311.993 64.1553C311.993 58.5873 309.473 55.2993 305.657 55.2993C301.817 55.2993 299.297 58.6113 299.297 64.1553ZM328.914 53.4753V65.9553H324.69V67.4913H328.914V69.5793H331.098V53.4753H328.914ZM313.554 63.1713L313.842 64.9713C315.546 64.9713 317.514 64.9473 319.554 64.8513V68.8593H321.738V64.7313C323.61 64.6113 325.506 64.4193 327.306 64.1313L327.162 62.5473C322.674 63.1233 317.442 63.1713 313.554 63.1713ZM315.186 58.0113C315.186 60.2673 317.322 61.7313 320.418 61.7313C323.514 61.7313 325.626 60.2673 325.626 58.0113C325.626 55.7793 323.514 54.3153 320.418 54.3153C317.322 54.3153 315.186 55.7793 315.186 58.0113ZM316.482 74.2113H331.602V72.4113H318.666V68.0193H316.482V74.2113ZM317.274 58.0113C317.274 56.7393 318.57 55.9233 320.418 55.9233C322.266 55.9233 323.538 56.7393 323.538 58.0113C323.538 59.3073 322.266 60.0993 320.418 60.0993C318.57 60.0993 317.274 59.3073 317.274 58.0113ZM343.842 54.7473C339.45 54.7473 336.114 57.0993 336.114 60.6513C336.114 64.2033 339.45 66.5553 343.842 66.5553C348.282 66.5553 351.594 64.2033 351.594 60.6513C351.594 57.0993 348.282 54.7473 343.842 54.7473ZM334.29 71.8833H353.466V70.0593H334.29V71.8833ZM338.226 60.6513C338.226 58.1553 340.626 56.5233 343.842 56.5233C347.106 56.5233 349.482 58.1553 349.482 60.6513C349.482 63.1473 347.106 64.7553 343.842 64.7553C340.626 64.7553 338.226 63.1473 338.226 60.6513ZM354.907 70.2993V72.0993H374.083V70.2993H365.563V66.5073H372.259V64.7313H359.419V61.5393H371.779V54.9873H357.211V56.7633H369.595V59.8113H357.259V66.5073H363.379V70.2993H354.907ZM59.292 90.4673H57.18L53.484 92.6513L54.492 94.3553L57.18 92.7713V107.843H59.292V90.4673ZM68.6983 106.163C66.0343 106.163 64.4503 103.787 64.4503 99.1553C64.4503 94.4993 66.0343 92.1713 68.6983 92.1713C71.3623 92.1713 72.9223 94.4993 72.9223 99.1553C72.9223 103.787 71.3623 106.163 68.6983 106.163ZM62.3383 99.1553C62.3383 104.675 64.8583 108.011 68.6983 108.011C72.5383 108.011 75.0343 104.675 75.0343 99.1553C75.0343 93.5873 72.5143 90.2993 68.6983 90.2993C64.8583 90.2993 62.3383 93.6113 62.3383 99.1553ZM92.0269 88.4753V91.1633H86.2189V92.9153H92.0269V95.1713H86.2189V96.9473H92.0269V104.147H94.2109V88.4753H92.0269ZM77.9149 101.099H79.5469C82.6669 101.099 85.5229 100.955 88.8349 100.355L88.6189 98.5313C85.5949 99.0833 82.9309 99.2513 80.1229 99.2753V89.9633H77.9149V101.099ZM80.5549 109.211H94.7389V107.411H82.7389V102.779H80.5549V109.211ZM111.611 88.4993V103.859H113.819V96.5873H116.867V94.7633H113.819V88.4993H111.611ZM97.3074 99.7793L98.2434 101.555C104.363 99.6593 108.131 95.6513 108.131 90.1073H98.1954V91.9073H105.755C105.347 95.4353 102.251 98.3153 97.3074 99.7793ZM100.499 109.211H114.707V107.411H102.707V102.299H100.499V109.211ZM123.095 101.243V103.067H131.591V109.691H133.775V103.067H142.271V101.243H123.095ZM125.639 99.2273H140.183V97.4753H127.799V95.1473H139.463V93.4193H127.799V91.2113H139.943V89.4593H125.639V99.2273ZM144.12 90.6113V92.4353H148.872V94.7873C148.872 98.3393 146.496 102.347 143.376 103.883L144.648 105.611C147.024 104.411 148.992 101.771 149.952 98.7713C150.912 101.531 152.784 103.931 155.16 105.083L156.408 103.355C153.24 101.867 151.032 98.0993 151.032 94.7873V92.4353H155.592V90.6113H144.12ZM157.872 109.667H160.08V98.7713H163.44V96.9473H160.08V88.4993H157.872V109.667ZM180.168 88.4993V94.2113H177.768V88.8113H175.704V101.291H177.768V95.9873H180.168V101.603H182.256V88.4993H180.168ZM164.232 92.5553H174.864V90.8273H170.664V88.5953H168.504V90.8273H164.232V92.5553ZM165.072 97.1633C165.072 99.3233 166.92 100.787 169.584 100.787C172.248 100.787 174.096 99.3233 174.096 97.1633C174.096 94.9553 172.248 93.5153 169.584 93.5153C166.92 93.5153 165.072 94.9553 165.072 97.1633ZM165.672 107.771L166.68 109.379C168.672 108.707 170.088 107.363 170.856 105.755C171.528 107.435 172.8 108.851 174.768 109.595C176.712 108.827 177.96 107.315 178.632 105.683C179.352 107.339 180.792 108.707 182.88 109.379L183.912 107.771C181.224 106.955 179.736 104.939 179.736 102.875V102.227H177.576V102.875C177.576 104.387 176.64 106.331 174.72 107.507C172.848 106.427 171.936 104.603 171.936 102.875V102.227H169.824V102.875C169.824 104.771 168.336 106.883 165.672 107.771ZM167.016 97.1633C167.016 95.9153 168.072 95.1233 169.584 95.1233C171.096 95.1233 172.152 95.9153 172.152 97.1633C172.152 98.3633 171.096 99.1793 169.584 99.1793C168.072 99.1793 167.016 98.3633 167.016 97.1633ZM199.129 88.4513V109.691H201.337V98.5313H204.697V96.7073H201.337V88.4513H199.129ZM185.881 104.459H187.561C191.473 104.459 194.281 104.339 197.521 103.739L197.281 101.891C194.281 102.467 191.665 102.611 188.041 102.611V92.2913H195.721V90.5393H185.881V104.459ZM206.545 90.2753V100.307H216.265V98.4353H220.873V103.931H223.057V88.4993H220.873V92.1233H216.265V90.2753H206.545ZM208.681 98.5313V92.0273H214.129V98.5313H208.681ZM209.377 109.211H223.561V107.411H211.561V102.539H209.377V109.211ZM216.265 96.6593V93.8993H220.873V96.6593H216.265ZM237.253 99.7553V103.523C235.165 103.595 233.149 103.595 231.469 103.595L231.733 105.419C235.501 105.395 240.637 105.371 245.341 104.483L245.173 102.875C243.349 103.163 241.381 103.331 239.461 103.451V99.7553H237.253ZM232.045 98.7473L233.053 100.451C235.573 99.6833 237.445 98.0513 238.381 95.9153C239.317 97.9313 241.213 99.4913 243.685 100.211L244.693 98.5313C241.621 97.6673 239.581 95.5073 239.461 92.9633H244.213V91.1873H239.461V88.6433H237.253V91.1873H232.573V92.9633H237.253C237.157 95.6033 235.165 97.8353 232.045 98.7473ZM246.493 109.691H248.701V88.4513H246.493V109.691ZM260.438 96.0593V98.9393H251.99V100.715H271.118V98.9393H262.622V96.0593H260.438ZM252.998 95.3873L253.766 97.1153C257.39 96.7073 260.414 95.1953 261.566 92.9393C262.694 95.1953 265.742 96.7073 269.342 97.1153L270.134 95.3873C266.318 95.0513 263.294 93.2993 263.03 91.2113H269.39V89.4593H253.742V91.2113H260.078C259.814 93.2993 256.79 95.0513 252.998 95.3873ZM254.27 105.971C254.27 108.323 256.982 109.619 261.542 109.619C266.078 109.619 268.814 108.323 268.814 105.971C268.814 103.619 266.078 102.299 261.542 102.299C256.982 102.299 254.27 103.619 254.27 105.971ZM256.478 105.971C256.478 104.699 258.326 104.003 261.542 104.003C264.758 104.003 266.582 104.699 266.582 105.971C266.582 107.267 264.758 107.963 261.542 107.963C258.326 107.963 256.478 107.267 256.478 105.971ZM280.226 89.5553V91.3553H292.394C292.394 92.9873 292.37 94.8113 291.818 97.3073H277.778V99.1073H296.954V97.3073H294.002C294.53 94.7393 294.53 92.8433 294.53 91.1633V89.5553H280.226ZM280.106 109.403H294.554V101.819H280.106V109.403ZM282.242 107.651V103.547H292.418V107.651H282.242ZM303.362 89.8193C300.578 89.8193 298.562 91.8833 298.562 94.8353C298.562 97.8113 300.578 99.8753 303.362 99.8753C306.146 99.8753 308.186 97.8113 308.186 94.8353C308.186 91.8833 306.146 89.8193 303.362 89.8193ZM300.554 94.8353C300.554 92.9393 301.73 91.6673 303.362 91.6673C304.994 91.6673 306.218 92.9393 306.218 94.8353C306.218 96.7313 304.994 98.0273 303.362 98.0273C301.73 98.0273 300.554 96.7313 300.554 94.8353ZM301.994 104.003H314.09V109.667H316.274V102.227H301.994V104.003ZM309.674 100.979H311.738V95.6513H314.186V101.099H316.274V88.4993H314.186V93.8513H311.738V88.8833H309.674V100.979ZM319.011 99.5393V101.315H338.139V99.5393H319.011ZM321.075 93.4433C321.075 96.1073 324.027 97.6913 328.563 97.6913C333.123 97.6913 336.075 96.1073 336.075 93.4433C336.075 90.7793 333.123 89.1713 328.563 89.1713C324.027 89.1713 321.075 90.7793 321.075 93.4433ZM321.459 109.235H336.003V107.435H323.643V103.067H321.459V109.235ZM323.331 93.4433C323.331 91.8593 325.371 90.9713 328.563 90.9713C331.803 90.9713 333.819 91.8593 333.819 93.4433C333.819 95.0033 331.803 95.9393 328.563 95.9393C325.371 95.9393 323.331 95.0033 323.331 93.4433ZM59.484 141.163C57.3 141.163 55.764 139.435 55.764 137.275C55.764 135.163 57.324 133.363 59.484 133.363C61.668 133.363 63.276 135.163 63.276 137.275C63.276 139.435 61.668 141.163 59.484 141.163ZM53.652 137.275C53.652 140.515 56.388 143.035 59.532 143.035C62.7 143.035 65.388 140.515 65.388 137.275C65.388 134.083 62.676 131.515 59.532 131.515C59.172 131.515 58.812 131.539 58.452 131.611L61.98 125.443H59.556L54.564 134.203C53.988 135.091 53.652 136.147 53.652 137.275ZM70.1865 140.827H67.9545L67.1625 145.771H68.7225L70.1865 140.827ZM74.0074 140.995V142.867H84.8794V140.995H76.9834C80.2954 138.019 84.5914 134.443 84.5914 130.771C84.5914 127.291 81.8554 125.251 79.2394 125.251C77.6074 125.251 75.0874 125.995 73.8154 128.899L75.7114 129.739C76.5514 127.795 78.0154 127.171 79.2394 127.171C81.0154 127.171 82.4794 128.467 82.4794 130.771C82.4794 133.819 77.4874 137.659 74.0074 140.995ZM95.6462 133.867C96.9662 133.003 98.0462 131.659 98.0462 130.051C98.0462 127.339 95.6462 125.323 92.6942 125.323C89.7422 125.323 87.3182 127.339 87.3182 130.123H89.4302C89.4302 128.731 90.6302 127.195 92.6942 127.195C94.7342 127.195 95.9582 128.755 95.9582 130.099C95.9582 131.515 94.8542 132.931 92.5982 132.931H91.3262V134.779H92.5982C95.2382 134.779 96.2222 136.363 96.2222 137.875C96.2222 139.411 94.8302 141.115 92.5502 141.115C90.2702 141.115 88.9262 139.387 88.9262 137.875H86.8142C86.8142 140.851 89.3822 142.987 92.5502 142.987C95.7422 142.987 98.2862 140.851 98.2862 137.947C98.2862 136.195 97.0862 134.731 95.6462 133.867ZM106.571 141.163C103.907 141.163 102.323 138.787 102.323 134.155C102.323 129.499 103.907 127.171 106.571 127.171C109.235 127.171 110.795 129.499 110.795 134.155C110.795 138.787 109.235 141.163 106.571 141.163ZM100.211 134.155C100.211 139.675 102.731 143.011 106.571 143.011C110.411 143.011 112.907 139.675 112.907 134.155C112.907 128.587 110.387 125.299 106.571 125.299C102.731 125.299 100.211 128.611 100.211 134.155ZM117.684 140.827H115.452L114.66 145.771H116.22L117.684 140.827ZM127.625 141.163C124.961 141.163 123.377 138.787 123.377 134.155C123.377 129.499 124.961 127.171 127.625 127.171C130.289 127.171 131.849 129.499 131.849 134.155C131.849 138.787 130.289 141.163 127.625 141.163ZM121.265 134.155C121.265 139.675 123.785 143.011 127.625 143.011C131.465 143.011 133.961 139.675 133.961 134.155C133.961 128.587 131.441 125.299 127.625 125.299C123.785 125.299 121.265 128.611 121.265 134.155ZM139.889 142.867L146.801 127.291V125.419H136.265V127.291H144.497L137.561 142.867H139.889ZM148.957 140.995V142.867H159.829V140.995H151.933C155.245 138.019 159.541 134.443 159.541 130.771C159.541 127.291 156.805 125.251 154.189 125.251C152.557 125.251 150.037 125.995 148.765 128.899L150.661 129.739C151.501 127.795 152.965 127.171 154.189 127.171C155.965 127.171 157.429 128.467 157.429 130.771C157.429 133.819 152.437 137.659 148.957 140.995ZM176.74 123.475V135.955H172.516V137.491H176.74V139.579H178.924V123.475H176.74ZM161.38 133.171L161.668 134.971C163.372 134.971 165.34 134.947 167.38 134.851V138.859H169.564V134.731C171.436 134.611 173.332 134.419 175.132 134.131L174.988 132.547C170.5 133.123 165.268 133.171 161.38 133.171ZM163.012 128.011C163.012 130.267 165.148 131.731 168.244 131.731C171.34 131.731 173.452 130.267 173.452 128.011C173.452 125.779 171.34 124.315 168.244 124.315C165.148 124.315 163.012 125.779 163.012 128.011ZM164.308 144.211H179.428V142.411H166.492V138.019H164.308V144.211ZM165.1 128.011C165.1 126.739 166.396 125.923 168.244 125.923C170.092 125.923 171.364 126.739 171.364 128.011C171.364 129.307 170.092 130.099 168.244 130.099C166.396 130.099 165.1 129.307 165.1 128.011ZM188.895 134.155C188.895 130.579 189.975 127.219 191.823 124.315H194.103C192.039 127.171 190.815 130.555 190.815 134.155C190.815 137.755 192.039 141.139 194.103 143.995H191.823C189.975 141.091 188.895 137.731 188.895 134.155ZM205.041 126.907H203.001V132.931H196.977V134.995H203.001V140.995H205.041V134.995H211.065V132.931H205.041V126.907ZM213.719 140.995V142.867H224.591V140.995H216.695C220.007 138.019 224.303 134.443 224.303 130.771C224.303 127.291 221.567 125.251 218.951 125.251C217.319 125.251 214.799 125.995 213.527 128.899L215.423 129.739C216.263 127.795 217.727 127.171 218.951 127.171C220.727 127.171 222.191 128.467 222.191 130.771C222.191 133.819 217.199 137.659 213.719 140.995ZM232.406 136.843C232.766 136.843 233.102 136.819 233.438 136.747L229.934 142.867H232.382L237.374 134.083C237.926 133.171 238.262 132.139 238.262 131.011C238.262 127.771 235.55 125.251 232.406 125.251C229.238 125.251 226.526 127.771 226.526 131.011C226.526 134.227 229.238 136.843 232.406 136.843ZM228.638 131.011C228.638 128.875 230.246 127.123 232.43 127.123C234.614 127.123 236.15 128.875 236.15 131.011C236.15 133.147 234.59 134.971 232.43 134.971C230.27 134.971 228.638 133.147 228.638 131.011ZM250.141 125.467H248.101L240.229 136.291V138.139H248.029V142.843H250.141V138.139H252.541V136.291H250.141V125.467ZM242.773 136.291L248.029 129.043V136.291H242.773ZM259.51 142.867H261.742L272.71 125.395H270.454L259.51 142.867ZM255.502 129.859C255.502 132.427 257.542 134.611 260.134 134.611C262.726 134.611 264.742 132.427 264.742 129.859C264.742 127.267 262.726 125.107 260.134 125.107C257.542 125.107 255.502 127.267 255.502 129.859ZM257.59 129.859C257.59 128.347 258.766 127.147 260.134 127.147C261.55 127.147 262.702 128.347 262.702 129.859C262.702 131.371 261.55 132.571 260.134 132.571C258.766 132.571 257.59 131.371 257.59 129.859ZM267.262 138.307C267.262 140.875 269.302 143.059 271.894 143.059C274.486 143.059 276.502 140.875 276.502 138.307C276.502 135.691 274.486 133.555 271.894 133.555C269.302 133.555 267.262 135.691 267.262 138.307ZM269.326 138.307C269.326 136.795 270.526 135.595 271.894 135.595C273.31 135.595 274.462 136.795 274.462 138.307C274.462 139.795 273.31 141.019 271.894 141.019C270.526 141.019 269.326 139.795 269.326 138.307ZM285.062 134.155C285.062 137.731 283.982 141.091 282.158 143.995H279.854C281.942 141.139 283.142 137.755 283.142 134.155C283.142 130.555 281.942 127.171 279.854 124.315H282.158C283.982 127.219 285.062 130.579 285.062 134.155ZM303.248 123.451V144.691H305.432V123.451H303.248ZM288.8 132.499C288.8 137.035 291.056 139.939 294.224 139.939C297.368 139.939 299.648 137.035 299.648 132.499C299.648 127.939 297.368 125.083 294.224 125.083C291.056 125.083 288.8 127.939 288.8 132.499ZM290.912 132.499C290.912 129.139 292.28 127.051 294.224 127.051C296.168 127.051 297.536 129.139 297.536 132.499C297.536 135.859 296.168 137.971 294.224 137.971C292.28 137.971 290.912 135.859 290.912 132.499ZM315.452 125.467V134.251H319.724V138.307C317.708 138.355 315.74 138.379 313.964 138.379L314.228 140.179C318.236 140.203 323.228 140.107 327.836 139.411L327.668 137.803C325.82 138.019 323.876 138.163 321.908 138.235V134.251H326.348V132.475H317.66V127.243H326.252V125.467H315.452ZM328.988 144.691H331.196V123.451H328.988V144.691ZM339.812 136.315V137.467C339.812 139.531 338.348 141.787 335.636 142.771L336.74 144.379C338.708 143.635 340.1 142.219 340.868 140.563C341.516 142.291 342.764 143.803 344.78 144.595C346.748 143.755 347.996 142.171 348.668 140.443C349.388 142.195 350.78 143.635 352.844 144.379L353.948 142.771C351.212 141.859 349.772 139.675 349.772 137.467V136.315H347.612V137.467C347.612 139.075 346.676 141.163 344.732 142.459C342.812 141.259 341.924 139.315 341.924 137.467V136.315H339.812ZM334.844 129.643C334.844 132.571 337.148 134.611 340.292 134.611C343.1 134.611 345.284 132.955 345.668 130.483H349.796V135.499H351.98V123.499H349.796V128.707H345.668C345.212 126.283 343.076 124.651 340.292 124.651C337.148 124.651 334.844 126.715 334.844 129.643ZM336.908 129.643C336.908 127.771 338.348 126.475 340.292 126.475C342.212 126.475 343.652 127.771 343.652 129.643C343.652 131.515 342.212 132.811 340.292 132.811C338.348 132.811 336.908 131.515 336.908 129.643ZM364.653 123.859C359.973 123.859 357.165 125.131 357.165 127.483C357.165 129.859 359.973 131.155 364.653 131.155C369.357 131.155 372.165 129.859 372.165 127.483C372.165 125.131 369.357 123.859 364.653 123.859ZM355.101 134.227H374.229V132.475H355.101V134.227ZM357.381 137.539H369.645V139.243H357.453V144.451H372.429V142.747H359.589V140.803H371.805V135.883H357.381V137.539ZM359.421 127.483C359.421 126.187 361.317 125.467 364.653 125.467C368.013 125.467 369.909 126.187 369.909 127.483C369.909 128.803 368.013 129.499 364.653 129.499C361.317 129.499 359.421 128.803 359.421 127.483ZM396.153 123.499V131.875H391.401V133.699H396.153V144.667H398.313V123.499H396.153ZM380.817 139.027L381.993 140.731C389.097 137.179 391.473 131.851 391.473 125.731H381.729V127.507H389.289C388.881 132.403 386.385 136.267 380.817 139.027ZM417.441 123.475V144.643H419.529V123.475H417.441ZM401.745 132.619C401.745 137.227 403.521 140.083 406.257 140.083C408.849 140.083 410.577 137.563 410.769 133.411H413.193V143.611H415.257V123.931H413.193V131.611H410.769C410.529 127.627 408.801 125.179 406.257 125.179C403.521 125.179 401.745 128.035 401.745 132.619ZM403.737 132.619C403.737 129.235 404.697 127.243 406.257 127.243C407.841 127.243 408.801 129.235 408.801 132.619C408.801 136.027 407.841 138.019 406.257 138.019C404.697 138.019 403.737 136.027 403.737 132.619ZM422.122 140.179V141.979H441.298V140.179H436.714V134.563C438.418 133.603 439.426 132.115 439.426 130.243C439.426 126.907 436.21 124.747 431.674 124.747C427.21 124.747 423.946 126.907 423.946 130.243C423.946 132.139 425.002 133.651 426.73 134.587V140.179H422.122ZM426.082 130.243C426.082 127.939 428.41 126.475 431.674 126.475C434.962 126.475 437.29 127.939 437.29 130.243C437.29 132.547 434.962 134.011 431.674 134.011C428.41 134.011 426.082 132.547 426.082 130.243ZM428.89 140.179V135.403C429.754 135.619 430.69 135.715 431.674 135.715C432.682 135.715 433.642 135.619 434.506 135.403V140.179H428.89ZM444.586 140.587C443.722 140.587 443.242 141.163 443.242 141.907C443.242 142.675 443.722 143.251 444.586 143.251C445.45 143.251 445.906 142.675 445.906 141.907C445.906 141.163 445.45 140.587 444.586 140.587Z" fill="#3B3B3B"/>
<mask id="mask0_1636_17738" style="mask-type:alpha" maskUnits="userSpaceOnUse" x="0" y="0" width="591" height="505">
<rect x="0.5" y="0.631836" width="590.5" height="504" rx="25" fill="#F6F8FF"/>
</mask>
<g mask="url(#mask0_1636_17738)">
<g filter="url(#filter0_d_1636_17738)">
<rect x="108" y="190.383" width="483" height="334" rx="25" fill="white"/>
</g>
<path d="M180.07 220.587V228.062H179.164V220.587H180.07ZM173.946 226.024C174.902 225.565 175.621 225.014 176.102 224.371C176.588 223.728 176.871 222.973 176.949 222.106H174.323V221.376H177.864C177.864 222.562 177.598 223.605 177.067 224.505C176.535 225.4 175.654 226.147 174.424 226.745L173.946 226.024ZM187.361 220.94V221.653H185.205C185.233 221.899 185.347 222.134 185.549 222.357C185.756 222.576 186.035 222.763 186.388 222.919C186.746 223.071 187.157 223.174 187.621 223.23L187.294 223.96C186.639 223.876 186.074 223.694 185.599 223.414C185.129 223.135 184.794 222.788 184.592 222.374C184.391 222.788 184.055 223.135 183.586 223.414C183.116 223.694 182.554 223.876 181.899 223.96L181.564 223.23C182.028 223.174 182.436 223.071 182.788 222.919C183.141 222.763 183.418 222.576 183.619 222.357C183.826 222.134 183.943 221.899 183.971 221.653H181.84V220.94H187.361ZM181.22 224.539H184.131V223.431H185.029V224.539H187.973V225.269H181.22V224.539ZM182.059 225.797H182.965V227.181H187.201V227.911H182.059V225.797ZM193.397 226.452V224.958H191.065V224.237H192.114V221.98H191.04V221.242H196.661V221.98H195.579V224.237H196.644V224.958H194.295V226.452H197.248V227.19H190.486V226.452H193.397ZM194.672 224.237V221.98H193.02V224.237H194.672ZM203.767 221.183V221.913H199.564V222.827H203.608V223.549H199.564V224.514H203.834V225.235H198.649V221.183H203.767ZM197.819 226.426H204.581V227.173H197.819V226.426ZM211.284 220.772V221.468H210.252V222.609H211.226V223.297H208.96V223.859H211.897V224.572H205.152V223.859H208.063V223.297H205.798V222.609H206.779V221.468H205.747V220.772H211.284ZM205.94 225.034H211.058V226.787H206.846V227.324H211.268V227.995H205.957V226.166H210.169V225.688H205.94V225.034ZM209.346 222.609V221.468H207.685V222.609H209.346ZM218.651 220.587V228.079H217.745V220.587H218.651ZM212.895 221.25H216.377V224.052H213.827V225.562C214.47 225.557 215.052 225.537 215.572 225.504C216.092 225.464 216.62 225.397 217.157 225.302L217.25 226.04C216.657 226.141 216.072 226.211 215.496 226.25C214.92 226.289 214.269 226.309 213.541 226.309H212.904V223.322H215.463V221.988H212.895V221.25ZM223.19 221.032C223.716 221.032 224.188 221.116 224.608 221.283C225.027 221.446 225.354 221.681 225.589 221.988C225.83 222.29 225.95 222.64 225.95 223.037C225.95 223.401 225.852 223.725 225.656 224.01C225.461 224.29 225.187 224.519 224.834 224.698C224.487 224.871 224.088 224.981 223.634 225.025V226.418H226.579V227.165H219.817V226.418H222.737V225.025C222.284 224.981 221.884 224.871 221.537 224.698C221.19 224.519 220.919 224.29 220.723 224.01C220.527 223.725 220.43 223.401 220.43 223.037C220.43 222.64 220.547 222.29 220.782 221.988C221.022 221.681 221.352 221.446 221.772 221.283C222.191 221.116 222.664 221.032 223.19 221.032ZM221.319 223.037C221.319 223.434 221.492 223.75 221.839 223.985C222.186 224.214 222.636 224.329 223.19 224.329C223.744 224.329 224.191 224.214 224.532 223.985C224.879 223.75 225.052 223.434 225.052 223.037C225.052 222.645 224.879 222.332 224.532 222.097C224.191 221.862 223.744 221.745 223.19 221.745C222.636 221.745 222.186 221.862 221.839 222.097C221.492 222.332 221.319 222.645 221.319 223.037Z" fill="#808080"/>
<path d="M285.356 221.267V222.534C285.356 223.205 285.477 223.817 285.717 224.371C285.963 224.919 286.33 225.325 286.816 225.587L286.288 226.309C285.65 225.957 285.194 225.341 284.92 224.463C284.78 224.916 284.59 225.322 284.35 225.68C284.109 226.032 283.818 226.312 283.477 226.519L282.907 225.847C283.421 225.54 283.813 225.09 284.081 224.497C284.35 223.904 284.484 223.269 284.484 222.592V221.267H285.356ZM286.917 220.738H287.764V223.54H288.536V220.587H289.409V228.062H288.536V224.279H287.764V227.702H286.917V220.738ZM293.268 226.46V225.227H291.154V222.785H295.416V221.837H291.146V221.107H296.322V223.498H292.052V224.497H296.49V225.227H294.166V226.46H297.111V227.198H290.349V226.46H293.268ZM303.365 221.233V224.782H299.858V221.233H303.365ZM300.706 225.529H301.603V227.181H305.739V227.92H300.706V225.529ZM302.476 224.052V221.955H300.756V224.052H302.476ZM304.54 220.596H305.446V222.802H306.486V223.549H305.446V226.049H304.54V220.596ZM313.701 224.321V225.05H306.956V224.321H313.701ZM307.778 225.705H308.676V227.181H313.005V227.911H307.778V225.705ZM307.787 220.889H312.879V221.611H308.684V222.886H312.946V223.624H307.787V220.889ZM319.125 226.452V224.958H316.793V224.237H317.842V221.98H316.768V221.242H322.389V221.98H321.307V224.237H322.372V224.958H320.023V226.452H322.976V227.19H316.214V226.452H319.125ZM320.4 224.237V221.98H318.748V224.237H320.4ZM329.495 221.183V221.913H325.292V222.827H329.336V223.549H325.292V224.514H329.562V225.235H324.377V221.183H329.495ZM323.547 226.426H330.309V227.173H323.547V226.426ZM337.012 220.772V221.468H335.981V222.609H336.954V223.297H334.689V223.859H337.625V224.572H330.88V223.859H333.791V223.297H331.526V222.609H332.507V221.468H331.475V220.772H337.012ZM331.668 225.034H336.786V226.787H332.574V227.324H336.996V227.995H331.685V226.166H335.897V225.688H331.668V225.034ZM335.074 222.609V221.468H333.413V222.609H335.074ZM344.379 220.587V228.079H343.473V220.587H344.379ZM338.624 221.25H342.105V224.052H339.555V225.562C340.198 225.557 340.78 225.537 341.3 225.504C341.82 225.464 342.349 225.397 342.885 225.302L342.978 226.04C342.385 226.141 341.8 226.211 341.224 226.25C340.648 226.289 339.997 226.309 339.27 226.309H338.632V223.322H341.191V221.988H338.624V221.25ZM348.918 221.032C349.444 221.032 349.916 221.116 350.336 221.283C350.755 221.446 351.082 221.681 351.317 221.988C351.558 222.29 351.678 222.64 351.678 223.037C351.678 223.401 351.58 223.725 351.384 224.01C351.189 224.29 350.915 224.519 350.562 224.698C350.215 224.871 349.816 224.981 349.363 225.025V226.418H352.307V227.165H345.545V226.418H348.465V225.025C348.012 224.981 347.612 224.871 347.265 224.698C346.918 224.519 346.647 224.29 346.451 224.01C346.256 223.725 346.158 223.401 346.158 223.037C346.158 222.64 346.275 222.29 346.51 221.988C346.751 221.681 347.081 221.446 347.5 221.283C347.919 221.116 348.392 221.032 348.918 221.032ZM347.047 223.037C347.047 223.434 347.22 223.75 347.567 223.985C347.914 224.214 348.364 224.329 348.918 224.329C349.472 224.329 349.919 224.214 350.26 223.985C350.607 223.75 350.78 223.434 350.78 223.037C350.78 222.645 350.607 222.332 350.26 222.097C349.919 221.862 349.472 221.745 348.918 221.745C348.364 221.745 347.914 221.862 347.567 222.097C347.22 222.332 347.047 222.645 347.047 223.037Z" fill="#808080"/>
<path d="M137 280.153H587.429" stroke="#D8D8D8" stroke-width="0.840801"/>
<path d="M137 354.527H587.429" stroke="#D8D8D8" stroke-width="0.840801"/>
<path d="M137 427.227H587.429" stroke="#D8D8D8" stroke-width="0.840801"/>
<rect x="141" y="222.678" width="22.8798" height="3.8862" rx="1.9431" fill="#6792F8"/>
<rect x="250.477" y="222.678" width="22.8798" height="3.8862" rx="1.9431" fill="#FF5858"/>
<path d="M141.406 426.923H145.497C146.736 426.923 147.924 427.42 148.795 428.303L149.005 428.516C150.703 430.239 153.482 430.239 155.18 428.516V428.516C156.706 426.968 159.143 426.79 160.879 428.099L166.533 432.364C167.853 433.359 169.376 434.086 170.978 434.492V434.492C173.639 435.167 176.478 434.968 179.011 433.91L181.916 432.696C183.554 432.012 185.354 431.812 187.102 432.121L188.218 432.318C189.829 432.602 191.489 432.26 192.857 431.362V431.362C194.458 430.311 196.444 430.03 198.274 430.595L200.452 431.267C201.268 431.519 202.029 431.922 202.697 432.454V432.454C204.465 433.863 206.815 434.307 208.976 433.64L209.804 433.384C211.131 432.975 212.538 432.897 213.902 433.159L219.775 434.286C221.216 434.563 222.577 435.156 223.76 436.022V436.022C225.775 437.499 228.274 438.159 230.755 437.87L240.671 436.716C242.574 436.494 244.495 436.923 246.123 437.932V437.932C247.692 438.905 249.536 439.339 251.374 439.17L251.563 439.152C253.511 438.973 255.464 439.448 257.112 440.504V440.504C258.833 441.607 260.886 442.075 262.916 441.828L264.085 441.686C265.744 441.484 267.427 441.756 268.939 442.472V442.472C270.122 443.032 271.414 443.322 272.723 443.322H285.081C286.621 443.322 288.121 442.836 289.368 441.933V441.933C290.614 441.029 292.115 440.543 293.654 440.543H296.616C298.706 440.543 300.777 440.144 302.717 439.369L307.25 437.557C308.288 437.143 309.396 436.93 310.514 436.93H311.003C312.945 436.93 314.813 436.183 316.22 434.845L316.412 434.662C317.696 433.441 319.4 432.76 321.172 432.76V432.76C323.082 432.76 324.907 431.969 326.213 430.575L326.769 429.981C328.43 428.208 330.751 427.201 333.18 427.201H333.345C334.343 427.201 335.334 427.364 336.28 427.684L337.318 428.035C338.951 428.587 340.663 428.869 342.387 428.869H347.761C348.286 428.869 348.81 428.804 349.318 428.675V428.675C350.934 428.265 352.646 428.508 354.083 429.353L355.194 430.005C356.39 430.707 357.796 430.966 359.164 430.734V430.734C360.942 430.434 362.759 430.963 364.098 432.17L365.637 433.558C366.478 434.316 367.459 434.901 368.526 435.28L369.155 435.503C371.202 436.23 373.467 435.996 375.323 434.867L375.581 434.71C377.047 433.817 378.807 433.542 380.476 433.945L380.919 434.053C382.622 434.464 384.42 434.05 385.772 432.936V432.936C387.174 431.781 389.051 431.381 390.802 431.865L392.165 432.242C393.387 432.581 394.487 433.261 395.336 434.204L396.895 435.936C398.494 437.712 401.23 437.855 403.005 436.255V436.255C404.078 435.287 405.564 434.919 406.964 435.274L412.395 436.652V436.652C414.391 437.02 416.433 437.059 418.442 436.768L419.245 436.652L422.99 436.348C425.029 436.182 426.995 435.519 428.717 434.415V434.415C430.414 433.328 432.349 432.668 434.357 432.491L435.764 432.367C436.976 432.26 438.151 431.895 439.211 431.298L439.57 431.096C441.457 430.032 443.707 429.821 445.759 430.515V430.515C447.397 431.069 449.174 431.05 450.8 430.461L451.024 430.38C451.754 430.115 452.518 429.954 453.293 429.902L457.53 429.615C459.39 429.489 461.21 429.015 462.895 428.218L463.424 427.967C464.109 427.643 464.754 427.241 465.347 426.768V426.768C467.243 425.257 469.63 424.499 472.05 424.64L475.318 424.829C476.983 424.926 478.635 424.486 480.032 423.575L483.339 421.418C484.618 420.585 486.311 420.795 487.347 421.916V421.916C488.593 423.263 490.725 423.255 491.96 421.898L495.082 418.467C495.843 417.63 496.402 416.63 496.716 415.542L500.729 401.615C501.162 400.111 502.463 399.02 504.019 398.853V398.853C505.605 398.684 506.922 397.555 507.331 396.013L510.488 384.119L513.135 376.958C514.742 372.609 520.638 371.99 523.114 375.911L523.393 376.353C525.571 379.801 530.667 379.595 532.559 375.982V375.982C532.822 375.48 533.163 375.024 533.571 374.631L535.642 372.629C537.67 370.67 539.323 368.356 540.519 365.803L547.925 349.985C548.696 348.338 550.042 347.029 551.71 346.304V346.304C553.718 345.431 555.242 343.72 555.878 341.624L558.6 332.649C559.039 331.202 559.608 329.798 560.301 328.454L564.727 319.865C565.279 318.794 565.628 317.63 565.757 316.433L569.172 284.681C569.484 281.774 573.53 281.327 574.469 284.095L574.812 285.105C575.399 286.835 577.716 287.14 578.73 285.621V285.621C579.862 283.926 582.49 284.544 582.748 286.565L586.934 319.356" stroke="#FF5858" stroke-width="2.24654" stroke-linecap="round" stroke-linejoin="round"/>
<path d="M140.922 426.4L145.461 425.283C146.816 424.949 148.206 424.781 149.602 424.781H150.301C151.354 424.781 152.402 424.919 153.419 425.192L155.151 425.657C156.931 426.135 158.826 425.931 160.464 425.085V425.085C161.668 424.462 163.019 424.183 164.371 424.277L168.934 424.594C170.715 424.718 172.504 424.537 174.224 424.059L175.025 423.836C175.861 423.604 176.725 423.486 177.594 423.486H180.791C181.585 423.486 182.338 423.835 182.851 424.441V424.441C183.78 425.538 185.406 425.714 186.549 424.841L187.295 424.271C188.438 423.398 189.984 423.269 191.256 423.94L194.588 425.701C197.672 427.33 201.398 427.154 204.314 425.241L204.502 425.118C206.124 424.053 208.022 423.486 209.963 423.486H211.883C214.771 423.486 217.595 424.33 220.01 425.914L221.482 426.88C222.936 427.834 224.637 428.342 226.377 428.342V428.342C228.379 428.342 230.342 427.654 231.915 426.415V426.415C233.514 425.157 235.508 424.457 237.542 424.457H242.621C245.345 424.457 248.049 423.988 250.615 423.07L251.7 422.682C254.403 421.714 257.252 421.22 260.123 421.22H264.678C265.682 421.22 266.675 421.435 267.589 421.85V421.85C269 422.491 270.584 422.648 272.094 422.297L286.459 418.955C287.385 418.74 288.267 418.367 289.066 417.852V417.852C290.252 417.088 291.613 416.64 293.02 416.55L298.516 416.199C300.169 416.094 301.787 415.681 303.289 414.983L307.614 412.97C309.136 412.263 310.916 412.397 312.313 413.325V413.325C313.649 414.213 315.338 414.377 316.82 413.765L318.443 413.094C319.426 412.688 320.48 412.478 321.544 412.478H324.922C327.946 412.478 330.923 411.736 333.593 410.317L338.139 407.902C339.643 407.102 341.408 406.946 343.03 407.468L343.511 407.623C345.373 408.223 347.414 407.776 348.854 406.453V406.453C350.437 404.998 352.729 404.614 354.7 405.471L360.004 407.779C361.238 408.316 362.569 408.593 363.915 408.593H364.041C366.019 408.593 367.947 407.97 369.551 406.813V406.813C371.155 405.655 373.083 405.032 375.061 405.032H377.764C380.3 405.032 382.808 404.489 385.117 403.441L387.187 402.5C388.21 402.035 389.322 401.795 390.447 401.795H390.677C392.76 401.795 394.746 402.677 396.142 404.223V404.223C397.538 405.769 399.524 406.651 401.607 406.651H401.945C403.513 406.651 405.036 407.178 406.268 408.148V408.148C408.581 409.97 411.788 410.146 414.287 408.588L417.406 406.644C419.096 405.59 421.047 405.032 423.038 405.032H424.647C425.896 405.032 427.112 404.629 428.113 403.882L429.135 403.12C430.686 401.963 432.828 402.021 434.314 403.26V403.26C435.603 404.334 437.409 404.534 438.902 403.768L441.378 402.497C442.282 402.033 443.262 401.737 444.272 401.623L445.69 401.463C447.541 401.255 449.415 401.464 451.175 402.076V402.076C452.49 402.533 453.887 402.766 455.28 402.766V402.766C457.983 402.766 460.642 401.904 462.822 400.306L464.83 398.835C466.543 397.58 468.453 396.619 470.483 395.994L475.475 394.456C478.326 393.578 481.426 394.155 483.77 396L484.15 396.3C484.688 396.723 485.151 397.232 485.522 397.806V397.806C487.548 400.948 491.877 401.587 494.725 399.165L496.201 397.91L500.405 394.364C501.408 393.518 502.678 393.054 503.99 393.054V393.054C505.331 393.054 506.627 392.568 507.639 391.688L511.279 388.521L514.163 385.411C516.15 383.268 519.377 382.831 521.862 384.369V384.369C522.829 384.967 523.943 385.284 525.079 385.284H525.288C528.086 385.284 530.603 383.581 531.644 380.984L531.748 380.726C532.168 379.678 532.827 378.742 533.672 377.994L535.623 376.266C537.819 374.321 540.453 372.932 543.299 372.219L545.36 371.703C547.123 371.261 548.833 370.629 550.459 369.816L553.935 368.08C554.735 367.68 555.474 367.17 556.133 366.566L557.272 365.52C559.014 363.92 561.461 363.338 563.737 363.983V363.983C565.751 364.554 567.916 364.166 569.608 362.932L576.249 358.089V358.089C579.19 356.078 583.182 356.666 585.418 359.439L586.94 361.326" stroke="#6792F8" stroke-width="2.24654" stroke-linecap="round" stroke-linejoin="round"/>
</g>
<path d="M62 358.819H591V479.819C591 493.074 580.255 503.819 567 503.819H62V358.819Z" fill="url(#paint0_linear_1636_17738)"/>
<defs>
<filter id="filter0_d_1636_17738" x="97.1483" y="179.531" width="495" height="346" filterUnits="userSpaceOnUse" color-interpolation-filters="sRGB">
<feFlood flood-opacity="0" result="BackgroundImageFix"/>
<feColorMatrix in="SourceAlpha" type="matrix" values="0 0 0 0 0 0 0 0 0 0 0 0 0 0 0 0 0 0 127 0" result="hardAlpha"/>
<feOffset dx="-4.85165" dy="-4.85165"/>
<feGaussianBlur stdDeviation="3"/>
<feComposite in2="hardAlpha" operator="out"/>
<feColorMatrix type="matrix" values="0 0 0 0 0 0 0 0 0 0 0 0 0 0 0 0 0 0 0.03 0"/>
<feBlend mode="normal" in2="BackgroundImageFix" result="effect1_dropShadow_1636_17738"/>
<feBlend mode="normal" in="SourceGraphic" in2="effect1_dropShadow_1636_17738" result="shape"/>
</filter>
<linearGradient id="paint0_linear_1636_17738" x1="326.5" y1="358.819" x2="348.068" y2="493.776" gradientUnits="userSpaceOnUse">
<stop stop-color="#F6F8FF" stop-opacity="0"/>
<stop offset="1" stop-color="#F6F8FF"/>
</linearGradient>
</defs>
</svg>
