<svg width="672" height="808" viewBox="0 0 672 808" fill="none" xmlns="http://www.w3.org/2000/svg">
<g filter="url(#filter0_d_1959_15217)">
<rect x="20.5" y="20.9106" width="592.5" height="767" rx="25" fill="white"/>
</g>
<path d="M79.336 151.884V147.492H73.096V136.596H75.304V140.268H85.624V136.596H87.832V147.492H81.52V151.884H90.064V153.708H70.888V151.884H79.336ZM85.624 145.692V142.068H75.304V145.692H85.624ZM110.681 147.132V148.932H105.809V156.324H103.553V148.932H98.5366V156.324H96.2806V148.932H91.5046V147.132H110.681ZM93.5926 140.604C93.5926 139.66 93.8966 138.844 94.5046 138.156C95.1286 137.452 96.0006 136.916 97.1206 136.548C98.2566 136.164 99.5606 135.972 101.033 135.972C102.521 135.972 103.825 136.164 104.945 136.548C106.065 136.916 106.937 137.452 107.561 138.156C108.185 138.844 108.497 139.66 108.497 140.604C108.497 141.532 108.185 142.348 107.561 143.052C106.937 143.756 106.057 144.3 104.921 144.684C103.801 145.052 102.505 145.236 101.033 145.236C99.5606 145.236 98.2646 145.052 97.1446 144.684C96.0246 144.3 95.1526 143.756 94.5286 143.052C93.9046 142.348 93.5926 141.532 93.5926 140.604ZM95.8486 140.604C95.8486 141.468 96.3206 142.164 97.2646 142.692C98.2246 143.204 99.4806 143.46 101.033 143.46C102.617 143.46 103.881 143.204 104.825 142.692C105.769 142.18 106.241 141.484 106.241 140.604C106.241 139.724 105.761 139.028 104.801 138.516C103.857 137.988 102.601 137.724 101.033 137.724C99.4806 137.724 98.2246 137.988 97.2646 138.516C96.3206 139.028 95.8486 139.724 95.8486 140.604ZM136.444 144.996V146.772H127.924V148.812C129.892 148.924 131.412 149.308 132.484 149.964C133.572 150.604 134.116 151.468 134.116 152.556C134.116 153.74 133.476 154.652 132.196 155.292C130.916 155.948 129.132 156.276 126.844 156.276C124.556 156.276 122.772 155.948 121.492 155.292C120.212 154.652 119.572 153.74 119.572 152.556C119.572 151.452 120.108 150.58 121.18 149.94C122.268 149.3 123.788 148.924 125.74 148.812V146.772H117.292V144.996H136.444ZM118.3 142.068C119.548 141.956 120.692 141.7 121.732 141.3C122.788 140.884 123.636 140.38 124.276 139.788C124.932 139.196 125.308 138.556 125.404 137.868H119.044V136.092H134.716V137.868H128.356C128.452 138.556 128.82 139.204 129.46 139.812C130.1 140.404 130.94 140.9 131.98 141.3C133.02 141.7 134.172 141.956 135.436 142.068L134.644 143.82C132.804 143.612 131.188 143.14 129.796 142.404C128.404 141.652 127.428 140.716 126.868 139.596C126.292 140.716 125.308 141.652 123.916 142.404C122.524 143.14 120.916 143.612 119.092 143.82L118.3 142.068ZM121.78 152.556C121.78 153.212 122.22 153.716 123.1 154.068C123.98 154.404 125.228 154.572 126.844 154.572C128.444 154.572 129.676 154.404 130.54 154.068C131.42 153.716 131.86 153.212 131.86 152.556C131.86 151.884 131.42 151.38 130.54 151.044C129.676 150.692 128.444 150.516 126.844 150.516C125.228 150.516 123.98 150.692 123.1 151.044C122.22 151.38 121.78 151.884 121.78 152.556ZM155.309 135.156V150.564H153.101V135.156H155.309ZM138.365 141.852C138.365 140.844 138.605 139.94 139.085 139.14C139.581 138.34 140.253 137.716 141.101 137.268C141.949 136.82 142.893 136.596 143.933 136.596C144.989 136.596 145.941 136.82 146.789 137.268C147.637 137.716 148.301 138.34 148.781 139.14C149.277 139.94 149.525 140.844 149.525 141.852C149.525 142.86 149.277 143.764 148.781 144.564C148.301 145.364 147.637 145.988 146.789 146.436C145.941 146.884 144.989 147.108 143.933 147.108C142.893 147.108 141.949 146.884 141.101 146.436C140.253 145.988 139.581 145.364 139.085 144.564C138.605 143.764 138.365 142.86 138.365 141.852ZM140.525 141.852C140.525 142.844 140.845 143.652 141.485 144.276C142.141 144.884 142.957 145.188 143.933 145.188C144.925 145.188 145.741 144.884 146.381 144.276C147.037 143.652 147.365 142.844 147.365 141.852C147.365 140.86 147.037 140.06 146.381 139.452C145.741 138.828 144.925 138.516 143.933 138.516C142.957 138.516 142.141 138.828 141.485 139.452C140.845 140.06 140.525 140.86 140.525 141.852ZM141.629 149.004H143.813V154.068H155.957V155.892H141.629V149.004ZM182.849 147.084V148.908H174.305V156.324H172.121V148.908H163.697V147.084H182.849ZM164.777 143.724C166.073 143.548 167.273 143.188 168.377 142.644C169.497 142.084 170.385 141.412 171.041 140.628C171.697 139.844 172.033 139.02 172.049 138.156H165.449V136.404H181.025V138.156H174.497C174.513 139.02 174.849 139.844 175.505 140.628C176.161 141.412 177.041 142.084 178.145 142.644C179.265 143.188 180.473 143.548 181.769 143.724L180.953 145.476C179.225 145.188 177.673 144.636 176.297 143.82C174.921 142.988 173.913 141.972 173.273 140.772C172.649 141.956 171.649 142.964 170.273 143.796C168.897 144.628 167.345 145.188 165.617 145.476L164.777 143.724ZM191.945 136.14V138.204C191.945 139.692 192.417 141.052 193.361 142.284C194.305 143.5 195.569 144.38 197.153 144.924L196.073 146.652C194.857 146.236 193.801 145.612 192.905 144.78C192.025 143.948 191.345 142.972 190.865 141.852C190.401 143.052 189.713 144.108 188.801 145.02C187.889 145.932 186.809 146.612 185.561 147.06L184.457 145.284C186.073 144.708 187.353 143.772 188.297 142.476C189.241 141.18 189.713 139.756 189.713 138.204V136.14H191.945ZM187.553 148.884H201.737V156.348H199.529V150.684H187.553V148.884ZM199.529 135.156H201.737V147.876H199.529V135.156ZM214.482 135.516C216.866 135.516 218.714 135.828 220.026 136.452C221.338 137.076 221.994 137.972 221.994 139.14C221.994 140.324 221.338 141.236 220.026 141.876C218.714 142.516 216.866 142.836 214.482 142.836C212.114 142.836 210.274 142.516 208.962 141.876C207.666 141.236 207.018 140.324 207.018 139.14C207.018 137.972 207.666 137.076 208.962 136.452C210.274 135.828 212.114 135.516 214.482 135.516ZM204.93 144.132H224.082V145.884H204.93V144.132ZM207.21 147.564H221.658V152.484H209.442V154.404H222.258V156.108H207.282V150.9H219.474V149.196H207.21V147.564ZM209.274 139.14C209.274 139.796 209.722 140.3 210.618 140.652C211.53 140.988 212.818 141.156 214.482 141.156C216.178 141.156 217.474 140.988 218.37 140.652C219.266 140.3 219.714 139.796 219.714 139.14C219.714 138.5 219.258 138.012 218.346 137.676C217.45 137.324 216.162 137.148 214.482 137.148C212.818 137.148 211.53 137.324 210.618 137.676C209.722 138.012 209.274 138.5 209.274 139.14ZM248.142 135.156V146.508H245.91V135.156H248.142ZM231.174 141.012C231.174 140.068 231.414 139.228 231.894 138.492C232.374 137.756 233.038 137.18 233.886 136.764C234.734 136.348 235.686 136.14 236.742 136.14C237.798 136.14 238.75 136.348 239.598 136.764C240.462 137.18 241.134 137.756 241.614 138.492C242.094 139.228 242.334 140.068 242.334 141.012C242.334 141.972 242.094 142.828 241.614 143.58C241.134 144.332 240.462 144.916 239.598 145.332C238.75 145.748 237.798 145.956 236.742 145.956C235.686 145.956 234.734 145.748 233.886 145.332C233.038 144.916 232.374 144.332 231.894 143.58C231.414 142.828 231.174 141.972 231.174 141.012ZM233.334 141.012C233.334 141.924 233.654 142.668 234.294 143.244C234.934 143.804 235.75 144.084 236.742 144.084C237.75 144.084 238.574 143.804 239.214 143.244C239.854 142.668 240.174 141.924 240.174 141.012C240.174 140.1 239.854 139.364 239.214 138.804C238.574 138.244 237.75 137.964 236.742 137.964C235.75 137.964 234.934 138.244 234.294 138.804C233.654 139.364 233.334 140.1 233.334 141.012ZM234.414 147.54H236.574V149.988H245.958V147.54H248.142V156.036H234.414V147.54ZM245.958 154.284V151.716H236.574V154.284H245.958ZM261.342 136.404V142.572H254.406V145.548C256.326 145.548 257.854 145.516 258.99 145.452C260.142 145.372 261.294 145.228 262.446 145.02L262.662 146.796C261.446 147.02 260.214 147.172 258.966 147.252C257.734 147.316 255.99 147.348 253.734 147.348H252.198V140.868H259.158V138.204H252.174V136.404H261.342ZM254.598 149.292H268.854V156.372H266.622V151.044H254.598V149.292ZM262.71 142.668H266.622V140.028H262.71V138.252H266.622V135.156H268.854V148.188H266.622V144.444H262.71V142.668ZM276.079 138.66V135.756H278.263V138.66H282.343V140.46H271.951V138.66H276.079ZM272.599 146.604C272.599 145.676 272.791 144.844 273.175 144.108C273.575 143.372 274.119 142.796 274.807 142.38C275.511 141.964 276.295 141.756 277.159 141.756C278.039 141.756 278.823 141.964 279.511 142.38C280.215 142.796 280.759 143.372 281.143 144.108C281.543 144.844 281.743 145.676 281.743 146.604C281.743 147.564 281.543 148.42 281.143 149.172C280.759 149.908 280.215 150.484 279.511 150.9C278.823 151.3 278.039 151.5 277.159 151.5C276.279 151.5 275.495 151.3 274.807 150.9C274.119 150.484 273.575 149.908 273.175 149.172C272.791 148.42 272.599 147.564 272.599 146.604ZM274.567 146.604C274.567 147.516 274.807 148.26 275.287 148.836C275.767 149.396 276.391 149.676 277.159 149.676C277.927 149.676 278.551 149.396 279.031 148.836C279.511 148.26 279.751 147.516 279.751 146.604C279.751 145.724 279.503 145.012 279.007 144.468C278.527 143.908 277.911 143.628 277.159 143.628C276.407 143.628 275.783 143.908 275.287 144.468C274.807 145.012 274.567 145.724 274.567 146.604ZM283.327 135.612H285.415V143.988H287.863V135.132H289.951V156.324H287.863V145.788H285.415V155.316H283.327V135.612ZM316.891 147.9V149.724H308.395V156.348H306.211V149.724H297.715V147.9H316.891ZM300.235 136.092H314.563V137.844H302.419V140.052H314.083V141.78H302.419V144.108H314.803V145.884H300.235V136.092ZM330.211 137.268V139.116H325.651V141.42C325.651 142.524 325.875 143.644 326.323 144.78C326.787 145.916 327.427 146.948 328.243 147.876C329.059 148.804 329.987 149.516 331.027 150.012L329.779 151.764C328.611 151.188 327.571 150.34 326.659 149.22C325.763 148.1 325.075 146.836 324.595 145.428C324.115 146.948 323.403 148.324 322.459 149.556C321.515 150.772 320.451 151.684 319.267 152.292L317.971 150.54C318.995 150.044 319.923 149.308 320.755 148.332C321.603 147.34 322.267 146.236 322.747 145.02C323.227 143.804 323.467 142.604 323.467 141.42V139.116H318.763V137.268H330.211ZM332.491 135.156H334.699V143.58H338.059V145.428H334.699V156.348H332.491V135.156ZM361.663 135.156V151.308H359.431V146.964H356.071V145.188H359.431V142.5H356.071V140.7H359.431V135.156H361.663ZM344.191 137.652H349.087V135.132H351.295V137.652H356.023V139.404H344.191V137.652ZM345.343 144.588C345.343 143.788 345.551 143.076 345.967 142.452C346.383 141.828 346.951 141.348 347.671 141.012C348.407 140.66 349.247 140.484 350.191 140.484C351.135 140.484 351.967 140.66 352.687 141.012C353.423 141.348 353.991 141.828 354.391 142.452C354.807 143.076 355.015 143.788 355.015 144.588C355.015 145.372 354.807 146.076 354.391 146.7C353.991 147.308 353.423 147.788 352.687 148.14C351.967 148.476 351.135 148.644 350.191 148.644C349.263 148.644 348.431 148.476 347.695 148.14C346.959 147.788 346.383 147.308 345.967 146.7C345.551 146.076 345.343 145.372 345.343 144.588ZM347.455 144.588C347.455 145.276 347.703 145.836 348.199 146.268C348.711 146.7 349.375 146.916 350.191 146.916C351.007 146.916 351.663 146.7 352.159 146.268C352.671 145.836 352.927 145.276 352.927 144.588C352.927 143.868 352.671 143.292 352.159 142.86C351.663 142.428 351.007 142.212 350.191 142.212C349.375 142.212 348.711 142.428 348.199 142.86C347.703 143.292 347.455 143.868 347.455 144.588ZM347.959 149.94H350.167V154.068H362.143V155.892H347.959V149.94ZM381.272 135.156V141.444H384.272V143.292H381.272V149.508H379.04V135.156H381.272ZM364.592 146.916C366.96 146.916 368.8 146.892 370.112 146.844V145.308C368.896 145.18 367.944 144.86 367.256 144.348C366.568 143.82 366.224 143.148 366.224 142.332C366.224 141.404 366.672 140.676 367.568 140.148C368.464 139.604 369.68 139.332 371.216 139.332C372.736 139.332 373.944 139.604 374.84 140.148C375.736 140.676 376.184 141.404 376.184 142.332C376.184 143.148 375.84 143.82 375.152 144.348C374.464 144.86 373.52 145.18 372.32 145.308V146.772C374.528 146.66 376.384 146.492 377.888 146.268L378.032 147.804C376.048 148.156 373.984 148.388 371.84 148.5C369.712 148.596 367.392 148.644 364.88 148.644L364.592 146.916ZM365.144 136.908H370.112V134.988H372.32V136.908H377.264V138.516H365.144V136.908ZM367.4 153.036C367.4 151.98 368.008 151.172 369.224 150.612C370.44 150.052 372.168 149.772 374.408 149.772C376.632 149.772 378.352 150.052 379.568 150.612C380.8 151.172 381.416 151.98 381.416 153.036C381.416 154.092 380.8 154.9 379.568 155.46C378.352 156.036 376.632 156.324 374.408 156.324C372.168 156.324 370.44 156.036 369.224 155.46C368.008 154.9 367.4 154.092 367.4 153.036ZM368.312 142.332C368.312 142.812 368.56 143.188 369.056 143.46C369.568 143.716 370.288 143.844 371.216 143.844C372.112 143.844 372.816 143.716 373.328 143.46C373.84 143.188 374.096 142.812 374.096 142.332C374.096 141.852 373.84 141.484 373.328 141.228C372.816 140.956 372.112 140.82 371.216 140.82C370.304 140.82 369.592 140.956 369.08 141.228C368.568 141.484 368.312 141.852 368.312 142.332ZM369.608 153.036C369.608 153.58 370.016 153.996 370.832 154.284C371.648 154.556 372.84 154.692 374.408 154.692C375.96 154.692 377.144 154.556 377.96 154.284C378.776 153.996 379.184 153.58 379.184 153.036C379.184 152.492 378.776 152.084 377.96 151.812C377.144 151.524 375.96 151.38 374.408 151.38C372.84 151.38 371.648 151.524 370.832 151.812C370.016 152.084 369.608 152.492 369.608 153.036ZM394.928 135.516C397.312 135.516 399.16 135.828 400.472 136.452C401.784 137.076 402.44 137.972 402.44 139.14C402.44 140.324 401.784 141.236 400.472 141.876C399.16 142.516 397.312 142.836 394.928 142.836C392.56 142.836 390.72 142.516 389.408 141.876C388.112 141.236 387.464 140.324 387.464 139.14C387.464 137.972 388.112 137.076 389.408 136.452C390.72 135.828 392.56 135.516 394.928 135.516ZM385.376 144.132H404.528V145.884H385.376V144.132ZM387.656 147.564H402.104V152.484H389.888V154.404H402.704V156.108H387.728V150.9H399.92V149.196H387.656V147.564ZM389.72 139.14C389.72 139.796 390.168 140.3 391.064 140.652C391.976 140.988 393.264 141.156 394.928 141.156C396.624 141.156 397.92 140.988 398.816 140.652C399.712 140.3 400.16 139.796 400.16 139.14C400.16 138.5 399.704 138.012 398.792 137.676C397.896 137.324 396.608 137.148 394.928 137.148C393.264 137.148 391.976 137.324 391.064 137.676C390.168 138.012 389.72 138.5 389.72 139.14ZM423.572 136.86V138.636H418.94V139.572C418.94 140.964 419.42 142.244 420.38 143.412C421.34 144.58 422.612 145.428 424.196 145.956L423.092 147.684C421.892 147.284 420.836 146.684 419.924 145.884C419.028 145.068 418.34 144.124 417.86 143.052C417.396 144.22 416.708 145.244 415.796 146.124C414.884 147.004 413.804 147.66 412.556 148.092L411.428 146.34C413.044 145.78 414.324 144.884 415.268 143.652C416.228 142.404 416.708 141.044 416.708 139.572V138.636H412.004V136.86H423.572ZM414.884 149.172H417.068V154.068H429.212V155.892H414.884V149.172ZM426.356 135.156H428.564V150.612H426.356V135.156ZM448.268 135.156V141.3H451.316V143.124H448.268V150.468H446.036V135.156H448.268ZM432.692 136.932H442.076V138.732H434.876V144.996C436.988 144.996 438.708 144.948 440.036 144.852C441.364 144.756 442.668 144.572 443.948 144.3L444.164 146.052C442.788 146.34 441.38 146.54 439.94 146.652C438.516 146.764 436.652 146.82 434.348 146.82H432.692V136.932ZM434.948 148.908H437.132V154.068H449.132V155.892H434.948V148.908ZM468.885 135.156V140.172H471.909V142.02H468.885V147.516H466.677V135.156H468.885ZM453.189 136.356H455.373V139.428H460.893V136.356H463.101V146.268H453.189V136.356ZM460.893 144.516V141.18H455.373V144.516H460.893ZM455.493 148.62H469.029V150.396H457.701V154.26H469.437V156.036H455.493V148.62ZM489.982 137.196V139.26C489.982 141.068 489.934 142.692 489.838 144.132C489.758 145.572 489.542 147.252 489.19 149.172L486.982 148.908C487.334 147.1 487.55 145.484 487.63 144.06C487.726 142.636 487.774 141.036 487.774 139.26V138.996H475.03V137.196H489.982ZM473.014 151.668H480.286V144.156H482.518V151.668H492.166V153.468H473.014V151.668Z" fill="#3B3B3B"/>
<g filter="url(#filter1_d_1959_15217)">
<path d="M103 245.059C103 224.303 119.826 207.476 140.583 207.476H613V763.476C613 776.731 602.255 787.476 589 787.476H103V245.059Z" fill="white"/>
</g>
<path d="M480.368 690.902C480.309 691.019 480.279 691.123 480.25 691.226L479.028 690.902C479.072 690.74 479.131 690.563 479.219 690.401C480.014 688.722 482.061 688.015 483.784 688.766C485.522 689.414 486.303 691.402 485.522 693.096C485.345 693.42 485.139 693.744 484.86 694.009L480.986 697.882H486.067V699.164H479.101V697.912L483.961 693.14C484.108 692.978 484.256 692.801 484.344 692.61C484.801 691.623 484.374 690.401 483.254 689.915C482.15 689.444 480.868 689.915 480.368 690.902ZM493.004 697.028C492.769 697.485 492.253 698.089 491.09 698.089C489.912 698.089 489.411 697.485 489.175 697.013C488.704 696.248 488.66 695.335 488.66 693.921C488.66 692.507 488.704 691.609 489.175 690.828C489.411 690.371 489.912 689.768 491.09 689.768C492.253 689.768 492.769 690.386 493.004 690.843C493.476 691.609 493.52 692.507 493.52 693.921C493.52 695.349 493.476 696.262 493.004 697.028ZM487.349 693.921C487.349 695.335 487.364 696.586 488.027 697.706C488.424 698.427 489.337 699.429 491.09 699.429C492.857 699.429 493.756 698.442 494.168 697.706C494.831 696.601 494.831 695.364 494.831 693.921C494.831 692.522 494.831 691.27 494.168 690.165C493.756 689.444 492.857 688.442 491.09 688.442C489.337 688.442 488.424 689.429 488.027 690.165C487.364 691.27 487.349 692.507 487.349 693.921ZM496.235 698.015V699.355H497.619V698.015H496.235ZM502.958 688.56H501.692L499.792 689.399L500.307 690.548L501.692 689.944V699.311H502.958V688.56ZM511.805 688.722H504.75V690.003H510.288L505.531 698.766L506.694 699.37L511.805 689.989V688.722ZM516.12 699.281H517.49L524.22 688.56H522.836L516.12 699.281ZM513.661 691.152C513.661 692.728 514.913 694.068 516.503 694.068C518.094 694.068 519.331 692.728 519.331 691.152C519.331 689.561 518.094 688.236 516.503 688.236C514.913 688.236 513.661 689.561 513.661 691.152ZM514.942 691.152C514.942 690.224 515.664 689.488 516.503 689.488C517.372 689.488 518.079 690.224 518.079 691.152C518.079 692.08 517.372 692.816 516.503 692.816C515.664 692.816 514.942 692.08 514.942 691.152ZM520.877 696.631C520.877 698.206 522.129 699.546 523.72 699.546C525.31 699.546 526.547 698.206 526.547 696.631C526.547 695.025 525.31 693.715 523.72 693.715C522.129 693.715 520.877 695.025 520.877 696.631ZM522.144 696.631C522.144 695.703 522.88 694.966 523.72 694.966C524.589 694.966 525.296 695.703 525.296 696.631C525.296 697.544 524.589 698.295 523.72 698.295C522.88 698.295 522.144 697.544 522.144 696.631Z" fill="#4492F7"/>
<path d="M467.318 650.562V651.38H473.073V651.468C473.073 651.91 473.073 652.385 473.051 652.915L467.042 653.136L467.197 654.008L472.995 653.677C472.94 654.34 472.841 655.08 472.653 655.919L473.669 656.03C474.078 653.986 474.067 652.65 474.067 651.468V650.562H467.318ZM466.28 658.106H475.094V657.289H470.654V654.793H469.627V657.289H466.28V658.106ZM479.601 650.286V651.026C479.601 652.617 477.922 654.119 476.11 654.45L476.552 655.301C478.088 654.969 479.512 653.942 480.142 652.573C480.772 653.942 482.196 654.969 483.743 655.301L484.196 654.45C482.362 654.119 480.672 652.639 480.672 651.026V650.286H479.601ZM475.768 658.106H484.593V657.278H475.768V658.106ZM492.281 649.646V659.399H493.297V649.646H492.281ZM485.267 656.173L485.367 657.024C487.134 657.013 489.465 656.98 491.541 656.637L491.486 655.897C491 655.952 490.503 656.008 489.995 656.041V651.468H491.022V650.651H485.51V651.468H486.538V656.162L485.267 656.173ZM487.521 656.151V651.468H489.012V656.096C488.515 656.129 488.007 656.14 487.521 656.151Z" fill="#3B3B3B"/>
<path d="M466.622 713.01V713.971H471.769V713.01H466.622ZM483.108 709.586H482.202L481.352 712.91H479.75L478.889 709.597H477.839L476.978 712.91H475.376L474.526 709.586H473.609L474.471 712.91H473.189V713.849H474.725L475.686 717.561H476.669L477.608 713.849H479.11L480.06 717.561H481.043L482.004 713.849H483.528V712.91H482.247L483.108 709.586ZM475.608 713.849H476.735L476.172 716.047L475.608 713.849ZM477.851 712.91L478.359 710.911L478.867 712.91H477.851ZM479.993 713.849H481.12L480.557 716.047L479.993 713.849ZM487.415 716.71C486.387 716.71 485.725 715.981 485.725 715.164C485.725 714.357 486.387 713.639 487.415 713.639C488.431 713.639 489.094 714.357 489.094 715.164C489.094 715.981 488.431 716.71 487.415 716.71ZM484.764 715.164C484.764 716.611 485.923 717.693 487.415 717.693C488.895 717.693 490.043 716.611 490.043 715.164C490.043 713.761 488.961 712.712 487.547 712.701C487.348 712.69 487.249 712.701 487.039 712.734L488.784 710.017L487.945 709.486L485.029 714.081C484.863 714.424 484.764 714.788 484.764 715.164ZM495.257 715.893C495.081 716.235 494.694 716.688 493.822 716.688C492.938 716.688 492.562 716.235 492.386 715.882C492.032 715.307 491.999 714.622 491.999 713.562C491.999 712.502 492.032 711.828 492.386 711.243C492.562 710.9 492.938 710.447 493.822 710.447C494.694 710.447 495.081 710.911 495.257 711.254C495.611 711.828 495.644 712.502 495.644 713.562C495.644 714.634 495.611 715.318 495.257 715.893ZM491.016 713.562C491.016 714.622 491.027 715.561 491.524 716.401C491.822 716.942 492.507 717.693 493.822 717.693C495.147 717.693 495.821 716.953 496.13 716.401C496.627 715.572 496.627 714.645 496.627 713.562C496.627 712.513 496.627 711.574 496.13 710.746C495.821 710.204 495.147 709.453 493.822 709.453C492.507 709.453 491.822 710.193 491.524 710.746C491.027 711.574 491.016 712.502 491.016 713.562ZM502.452 709.542H501.524L497.592 714.744V715.661H501.524V717.605H502.452V715.661H503.59V714.722H502.452V709.542ZM498.763 714.722L501.524 711.011V714.722H498.763ZM505.816 716.644H504.788L504.424 718.919H505.142L505.816 716.644ZM508.524 711.298C508.48 711.386 508.458 711.463 508.436 711.541L507.519 711.298C507.552 711.176 507.596 711.044 507.662 710.922C508.259 709.663 509.794 709.133 511.086 709.696C512.39 710.182 512.975 711.673 512.39 712.944C512.257 713.187 512.103 713.43 511.893 713.628L508.988 716.533H512.798V717.494H507.574V716.555L511.219 712.977C511.329 712.855 511.44 712.723 511.506 712.579C511.849 711.839 511.528 710.922 510.689 710.558C509.86 710.204 508.899 710.558 508.524 711.298ZM518.001 715.893C517.825 716.235 517.438 716.688 516.566 716.688C515.682 716.688 515.306 716.235 515.13 715.882C514.776 715.307 514.743 714.622 514.743 713.562C514.743 712.502 514.776 711.828 515.13 711.243C515.306 710.9 515.682 710.447 516.566 710.447C517.438 710.447 517.825 710.911 518.001 711.254C518.355 711.828 518.388 712.502 518.388 713.562C518.388 714.634 518.355 715.318 518.001 715.893ZM513.76 713.562C513.76 714.622 513.771 715.561 514.268 716.401C514.566 716.942 515.251 717.693 516.566 717.693C517.891 717.693 518.565 716.953 518.874 716.401C519.371 715.572 519.371 714.645 519.371 713.562C519.371 712.513 519.371 711.574 518.874 710.746C518.565 710.204 517.891 709.453 516.566 709.453C515.251 709.453 514.566 710.193 514.268 710.746C513.771 711.574 513.76 712.502 513.76 713.562ZM524.577 715.893C524.401 716.235 524.014 716.688 523.141 716.688C522.258 716.688 521.882 716.235 521.706 715.882C521.352 715.307 521.319 714.622 521.319 713.562C521.319 712.502 521.352 711.828 521.706 711.243C521.882 710.9 522.258 710.447 523.141 710.447C524.014 710.447 524.401 710.911 524.577 711.254C524.931 711.828 524.964 712.502 524.964 713.562C524.964 714.634 524.931 715.318 524.577 715.893ZM520.336 713.562C520.336 714.622 520.347 715.561 520.844 716.401C521.142 716.942 521.827 717.693 523.141 717.693C524.467 717.693 525.141 716.953 525.45 716.401C525.947 715.572 525.947 714.645 525.947 713.562C525.947 712.513 525.947 711.574 525.45 710.746C525.141 710.204 524.467 709.453 523.141 709.453C521.827 709.453 521.142 710.193 520.844 710.746C520.347 711.574 520.336 712.502 520.336 713.562Z" fill="#818181"/>
<path d="M537.791 693.825C537.791 692.316 538.247 690.899 539.027 689.674H539.988C539.118 690.879 538.601 692.306 538.601 693.825C538.601 695.344 539.118 696.771 539.988 697.976H539.027C538.247 696.751 537.791 695.333 537.791 693.825ZM543.529 694.078V695.668C542.648 695.698 541.808 695.698 541.089 695.698L541.201 696.478C542.79 696.467 544.957 696.467 546.941 696.083L546.871 695.394C546.101 695.516 545.271 695.587 544.461 695.627V694.078H543.529ZM541.342 693.653L541.768 694.382C542.831 694.058 543.62 693.369 544.005 692.468C544.41 693.319 545.2 693.977 546.253 694.28L546.678 693.552C545.362 693.197 544.511 692.276 544.461 691.213H546.466V690.463H544.461V689.4H543.529V690.463H541.565V691.213H543.529C543.489 692.337 542.648 693.268 541.342 693.653ZM547.427 698.28H548.359V689.309H547.427V698.28ZM556.601 689.319V692.873H555.447V689.512H554.576V697.804H555.447V693.643H556.601V698.26H557.492V689.319H556.601ZM550.192 696.103H550.789C552.065 696.103 552.986 696.062 554.059 695.85L553.968 695.07C553.027 695.273 552.196 695.313 551.113 695.323V691.152H553.503V690.403H550.192V696.103ZM567.075 689.319V694.463H568.017V692.276H569.292V691.496H568.017V689.319H567.075ZM561.466 693.876H562.175C563.491 693.876 564.837 693.774 566.336 693.481L566.224 692.721C564.858 692.985 563.602 693.076 562.387 693.086V689.836H561.466V693.876ZM562.205 695.688H567.075V698.27H568.017V694.928H562.205V695.688ZM570.639 689.643V690.393H571.945V692.205H570.69V692.954H573.484V693.946H569.91V694.706H577.99V693.946H574.406V692.954H577.18V692.205H575.924V690.393H577.231V689.643H570.639ZM570.811 696.265H576.056V698.27H576.998V695.526H570.811V696.265ZM572.877 692.205V690.393H575.003V692.205H572.877ZM581.24 693.825C581.24 695.333 580.785 696.751 580.015 697.976H579.043C579.924 696.771 580.43 695.344 580.43 693.825C580.43 692.306 579.924 690.879 579.043 689.674H580.015C580.785 690.899 581.24 692.316 581.24 693.825Z" fill="#818181"/>
<path d="M535.619 717.85C537.715 717.85 539.414 716.151 539.414 714.055C539.414 711.959 537.715 710.26 535.619 710.26C533.523 710.26 531.824 711.959 531.824 714.055C531.824 716.151 533.523 717.85 535.619 717.85Z" stroke="#818181" stroke-width="0.798626" stroke-linecap="round" stroke-linejoin="round"/>
<path d="M535.619 716.584C535.881 716.584 536.093 716.372 536.093 716.11C536.093 715.848 535.881 715.636 535.619 715.636C535.357 715.636 535.145 715.848 535.145 716.11C535.145 716.372 535.357 716.584 535.619 716.584Z" fill="#818181"/>
<path d="M535.619 714.687V714.37C535.837 714.37 536.051 714.306 536.233 714.184C536.415 714.062 536.557 713.889 536.641 713.687C536.725 713.485 536.747 713.262 536.704 713.048C536.661 712.833 536.556 712.636 536.401 712.481C536.246 712.326 536.049 712.221 535.834 712.178C535.62 712.135 535.397 712.157 535.195 712.241C534.993 712.325 534.82 712.467 534.698 712.649C534.577 712.831 534.512 713.045 534.512 713.264" stroke="#818181" stroke-width="0.798626" stroke-linecap="round" stroke-linejoin="round"/>
<path d="M471.92 688.02L470.606 688.02L470.606 697.885L467.537 694.815L466.605 695.747L471.263 700.405L475.921 695.747L474.989 694.815L471.92 697.885V688.02Z" fill="#4492F7"/>
<rect x="136.805" y="635.281" width="227.121" height="119.428" rx="8.3991" fill="white" stroke="#FF5852" stroke-width="1.61079"/>
<path d="M177.537 693.759C178.362 693.229 179.054 692.389 179.054 691.402C179.054 689.709 177.537 688.472 175.697 688.472C173.856 688.472 172.339 689.709 172.339 691.447H173.62C173.62 690.592 174.415 689.753 175.697 689.753C176.978 689.753 177.788 690.607 177.788 691.432C177.788 692.301 177.051 693.125 175.638 693.125H174.842V694.363H175.638C177.287 694.363 177.935 695.29 177.935 696.233C177.935 697.175 177.037 698.118 175.608 698.118C174.18 698.118 173.311 697.161 173.311 696.218H172.015C172.015 698.074 173.605 699.399 175.608 699.399C177.611 699.399 179.202 698.074 179.202 696.277C179.202 695.202 178.436 694.289 177.537 693.759ZM186.961 688.56H185.723L180.481 695.497V696.719H185.723V699.311H186.961V696.719H188.477V695.467H186.961V688.56ZM182.042 695.467L185.723 690.519V695.467H182.042ZM189.87 698.015V699.355H191.254V698.015H189.87ZM197.123 692.477C196.534 692.477 195.989 692.61 195.503 692.86V689.827H199.818V688.575H194.207V693.98L195.135 694.51C195.606 694.053 196.402 693.773 197.094 693.773C198.316 693.773 199.318 694.687 199.318 695.968C199.318 697.175 198.346 698.118 197.094 698.118C196.181 698.118 195.238 697.647 194.811 697.043L194.649 696.793L193.5 697.411C193.574 697.544 193.692 697.676 193.736 697.75C194.428 698.795 195.827 699.429 197.094 699.429C199.023 699.429 200.584 697.941 200.584 695.968C200.584 694.053 199.067 692.477 197.123 692.477ZM203.22 690.902C203.162 691.019 203.132 691.123 203.103 691.226L201.88 690.902C201.924 690.74 201.983 690.563 202.072 690.401C202.867 688.722 204.914 688.015 206.637 688.766C208.375 689.414 209.155 691.402 208.375 693.096C208.198 693.42 207.992 693.744 207.712 694.009L203.839 697.882H208.92V699.164H201.954V697.912L206.814 693.14C206.961 692.978 207.108 692.801 207.197 692.61C207.653 691.623 207.226 690.401 206.107 689.915C205.002 689.444 203.721 689.915 203.22 690.902ZM213.236 699.281H214.605L221.336 688.56H219.951L213.236 699.281ZM210.776 691.152C210.776 692.728 212.028 694.068 213.619 694.068C215.209 694.068 216.446 692.728 216.446 691.152C216.446 689.561 215.209 688.236 213.619 688.236C212.028 688.236 210.776 689.561 210.776 691.152ZM212.058 691.152C212.058 690.224 212.779 689.488 213.619 689.488C214.488 689.488 215.194 690.224 215.194 691.152C215.194 692.08 214.488 692.816 213.619 692.816C212.779 692.816 212.058 692.08 212.058 691.152ZM217.993 696.631C217.993 698.206 219.244 699.546 220.835 699.546C222.425 699.546 223.663 698.206 223.663 696.631C223.663 695.025 222.425 693.715 220.835 693.715C219.244 693.715 217.993 695.025 217.993 696.631ZM219.259 696.631C219.259 695.703 219.995 694.966 220.835 694.966C221.704 694.966 222.411 695.703 222.411 696.631C222.411 697.544 221.704 698.295 220.835 698.295C219.995 698.295 219.259 697.544 219.259 696.631Z" fill="#4492F7"/>
<path d="M166.594 649.635V653.556H165.346V649.844H164.385V658.891H165.346V654.395H166.594V659.388H167.566V649.635H166.594ZM159.735 656.891H160.375C161.402 656.891 162.518 656.847 163.832 656.604L163.722 655.721C162.617 655.93 161.634 655.997 160.751 656.019V650.794H159.735V656.891ZM171.15 657.377V658.217H179.975V657.377H176.032V655.268H179.158V654.45H177.711V651.369H179.18V650.529H171.901V651.369H173.37V654.45H171.923V655.268H175.027V657.377H171.15ZM174.386 654.45V651.369H176.695V654.45H174.386ZM181.754 650.452V655.654H188.48V654.837H182.77V653.423H188.171V652.606H182.77V651.28H188.381V650.452H181.754ZM180.638 658.184H189.463V657.333H180.638V658.184ZM190.922 649.889V650.673H192.347V652.363H190.977V653.158H194.014V653.997H190.126V654.804H198.941V653.997H195.02V653.158H198.057V652.363H196.687V650.673H198.112V649.889H190.922ZM191.176 656.24H196.82V656.98H191.209V659.288H198.101V658.526H192.203V657.687H197.825V655.5H191.176V656.24ZM193.363 652.363V650.673H195.682V652.363H193.363ZM206.617 649.623V659.41H207.634V649.623H206.617ZM200.156 651.358H203.657V653.257H200.178V657.068H200.995C202.696 657.068 204.165 657.002 205.866 656.715L205.767 655.886C204.154 656.162 202.774 656.229 201.205 656.229V654.086H204.685V650.518H200.156V651.358ZM213.499 650.253C211.445 650.253 209.942 651.269 209.942 652.838C209.942 654.274 211.202 655.246 212.991 655.4V657.344H209.103V658.184H217.928V657.344H213.996V655.4C215.807 655.257 217.078 654.274 217.078 652.838C217.078 651.269 215.576 650.253 213.499 650.253ZM210.925 652.838C210.925 651.755 212.008 651.059 213.499 651.059C215.001 651.059 216.073 651.755 216.073 652.838C216.073 653.92 215.001 654.605 213.499 654.605C212.008 654.605 210.925 653.92 210.925 652.838Z" fill="#3B3B3B"/>
<path d="M159.624 713.01V713.971H164.771V713.01H159.624ZM176.11 709.586H175.204L174.354 712.91H172.752L171.891 709.597H170.841L169.98 712.91H168.378L167.528 709.586H166.611L167.473 712.91H166.191V713.849H167.727L168.688 717.561H169.671L170.609 713.849H172.112L173.062 717.561H174.045L175.006 713.849H176.53V712.91H175.249L176.11 709.586ZM168.61 713.849H169.737L169.174 716.047L168.61 713.849ZM170.852 712.91L171.361 710.911L171.869 712.91H170.852ZM172.995 713.849H174.122L173.559 716.047L172.995 713.849ZM180.085 709.542H179.135L177.71 710.171L178.097 711.033L179.135 710.58V717.605H180.085V709.542ZM182.699 716.644H181.672L181.308 718.919H182.026L182.699 716.644ZM188.633 715.893C188.456 716.235 188.07 716.688 187.197 716.688C186.314 716.688 185.938 716.235 185.761 715.882C185.408 715.307 185.375 714.622 185.375 713.562C185.375 712.502 185.408 711.828 185.761 711.243C185.938 710.9 186.314 710.447 187.197 710.447C188.07 710.447 188.456 710.911 188.633 711.254C188.986 711.828 189.02 712.502 189.02 713.562C189.02 714.634 188.986 715.318 188.633 715.893ZM184.392 713.562C184.392 714.622 184.403 715.561 184.9 716.401C185.198 716.942 185.883 717.693 187.197 717.693C188.523 717.693 189.196 716.953 189.506 716.401C190.003 715.572 190.003 714.645 190.003 713.562C190.003 712.513 190.003 711.574 189.506 710.746C189.196 710.204 188.523 709.453 187.197 709.453C185.883 709.453 185.198 710.193 184.9 710.746C184.403 711.574 184.392 712.502 184.392 713.562ZM195.11 713.441C195.728 713.043 196.247 712.413 196.247 711.673C196.247 710.403 195.11 709.475 193.729 709.475C192.348 709.475 191.211 710.403 191.211 711.706H192.171C192.171 711.066 192.768 710.436 193.729 710.436C194.69 710.436 195.297 711.077 195.297 711.695C195.297 712.347 194.745 712.966 193.685 712.966H193.088V713.893H193.685C194.922 713.893 195.408 714.589 195.408 715.296C195.408 716.003 194.734 716.71 193.663 716.71C192.591 716.71 191.94 715.992 191.94 715.285H190.968C190.968 716.677 192.16 717.671 193.663 717.671C195.165 717.671 196.358 716.677 196.358 715.329C196.358 714.523 195.783 713.838 195.11 713.441ZM200.034 712.48C199.592 712.48 199.184 712.579 198.819 712.767V710.491H202.055V709.553H197.847V713.606L198.543 714.004C198.896 713.662 199.493 713.452 200.012 713.452C200.929 713.452 201.68 714.136 201.68 715.097C201.68 716.003 200.951 716.71 200.012 716.71C199.327 716.71 198.62 716.357 198.3 715.904L198.178 715.716L197.317 716.18C197.372 716.279 197.46 716.379 197.494 716.434C198.013 717.218 199.062 717.693 200.012 717.693C201.459 717.693 202.63 716.578 202.63 715.097C202.63 713.662 201.492 712.48 200.034 712.48ZM204.861 716.644H203.834L203.469 718.919H204.187L204.861 716.644ZM209.204 716.71C208.177 716.71 207.514 715.981 207.514 715.164C207.514 714.357 208.177 713.639 209.204 713.639C210.22 713.639 210.883 714.357 210.883 715.164C210.883 715.981 210.22 716.71 209.204 716.71ZM206.553 715.164C206.553 716.611 207.713 717.693 209.204 717.693C210.684 717.693 211.833 716.611 211.833 715.164C211.833 713.761 210.75 712.712 209.337 712.701C209.138 712.69 209.038 712.701 208.829 712.734L210.574 710.017L209.734 709.486L206.818 714.081C206.653 714.424 206.553 714.788 206.553 715.164ZM217.047 715.893C216.87 716.235 216.484 716.688 215.611 716.688C214.727 716.688 214.352 716.235 214.175 715.882C213.822 715.307 213.788 714.622 213.788 713.562C213.788 712.502 213.822 711.828 214.175 711.243C214.352 710.9 214.727 710.447 215.611 710.447C216.484 710.447 216.87 710.911 217.047 711.254C217.4 711.828 217.433 712.502 217.433 713.562C217.433 714.634 217.4 715.318 217.047 715.893ZM212.805 713.562C212.805 714.622 212.817 715.561 213.314 716.401C213.612 716.942 214.297 717.693 215.611 717.693C216.936 717.693 217.61 716.953 217.919 716.401C218.417 715.572 218.417 714.645 218.417 713.562C218.417 712.513 218.417 711.574 217.919 710.746C217.61 710.204 216.936 709.453 215.611 709.453C214.297 709.453 213.612 710.193 213.314 710.746C212.817 711.574 212.805 712.502 212.805 713.562ZM223.623 715.893C223.446 716.235 223.059 716.688 222.187 716.688C221.303 716.688 220.928 716.235 220.751 715.882C220.398 715.307 220.364 714.622 220.364 713.562C220.364 712.502 220.398 711.828 220.751 711.243C220.928 710.9 221.303 710.447 222.187 710.447C223.059 710.447 223.446 710.911 223.623 711.254C223.976 711.828 224.009 712.502 224.009 713.562C224.009 714.634 223.976 715.318 223.623 715.893ZM219.381 713.562C219.381 714.622 219.392 715.561 219.889 716.401C220.188 716.942 220.872 717.693 222.187 717.693C223.512 717.693 224.186 716.953 224.495 716.401C224.992 715.572 224.992 714.645 224.992 713.562C224.992 712.513 224.992 711.574 224.495 710.746C224.186 710.204 223.512 709.453 222.187 709.453C220.872 709.453 220.188 710.193 219.889 710.746C219.392 711.574 219.381 712.502 219.381 713.562Z" fill="#818181"/>
<path d="M230.791 693.825C230.791 692.316 231.247 690.899 232.027 689.674H232.988C232.118 690.879 231.601 692.306 231.601 693.825C231.601 695.344 232.118 696.771 232.988 697.976H232.027C231.247 696.751 230.791 695.333 230.791 693.825ZM236.529 694.078V695.668C235.648 695.698 234.808 695.698 234.089 695.698L234.201 696.478C235.79 696.467 237.957 696.467 239.941 696.083L239.871 695.394C239.101 695.516 238.271 695.587 237.461 695.627V694.078H236.529ZM234.342 693.653L234.768 694.382C235.831 694.058 236.62 693.369 237.005 692.468C237.41 693.319 238.2 693.977 239.253 694.28L239.678 693.552C238.362 693.197 237.511 692.276 237.461 691.213H239.466V690.463H237.461V689.4H236.529V690.463H234.565V691.213H236.529C236.489 692.337 235.648 693.268 234.342 693.653ZM240.427 698.28H241.359V689.309H240.427V698.28ZM249.601 689.319V692.873H248.447V689.512H247.576V697.804H248.447V693.643H249.601V698.26H250.492V689.319H249.601ZM243.192 696.103H243.789C245.065 696.103 245.986 696.062 247.059 695.85L246.968 695.07C246.027 695.273 245.196 695.313 244.113 695.323V691.152H246.503V690.403H243.192V696.103ZM260.075 689.319V694.463H261.017V692.276H262.292V691.496H261.017V689.319H260.075ZM254.466 693.876H255.175C256.491 693.876 257.837 693.774 259.336 693.481L259.224 692.721C257.858 692.985 256.602 693.076 255.387 693.086V689.836H254.466V693.876ZM255.205 695.688H260.075V698.27H261.017V694.928H255.205V695.688ZM263.639 689.643V690.393H264.945V692.205H263.69V692.954H266.484V693.946H262.91V694.706H270.99V693.946H267.406V692.954H270.18V692.205H268.924V690.393H270.231V689.643H263.639ZM263.811 696.265H269.056V698.27H269.998V695.526H263.811V696.265ZM265.877 692.205V690.393H268.003V692.205H265.877ZM274.24 693.825C274.24 695.333 273.785 696.751 273.015 697.976H272.043C272.924 696.771 273.43 695.344 273.43 693.825C273.43 692.306 272.924 690.879 272.043 689.674H273.015C273.785 690.899 274.24 692.316 274.24 693.825Z" fill="#818181"/>
<rect x="312.078" y="651.592" width="5.98156" height="5.98165" rx="2.99078" fill="#FF5852"/>
<path d="M328.463 650.333C327.016 650.333 325.966 651.15 325.966 652.354C325.966 653.547 327.016 654.376 328.463 654.376C329.921 654.376 330.959 653.547 330.959 652.354C330.959 651.15 329.921 650.333 328.463 650.333ZM325.271 655.138L325.403 655.988C326.176 655.988 327.06 655.977 327.999 655.933V659.324H329.015V655.878C329.91 655.812 330.826 655.712 331.71 655.546L331.644 654.795C329.512 655.105 327.06 655.138 325.271 655.138ZM326.938 652.354C326.938 651.636 327.579 651.161 328.463 651.161C329.357 651.161 329.987 651.636 329.987 652.354C329.987 653.072 329.357 653.536 328.463 653.536C327.579 653.536 326.938 653.072 326.938 652.354ZM332.307 659.644H333.312V649.88H332.307V659.644ZM341.806 649.891V652.807H340.282V653.658H341.806V655.789H342.822V649.891H341.806ZM334.781 651.681H340.436V650.863H338.117V649.803H337.112V650.863H334.781V651.681ZM335.333 653.879C335.333 654.917 336.283 655.613 337.609 655.613C338.934 655.613 339.884 654.917 339.884 653.879C339.884 652.851 338.934 652.133 337.609 652.133C336.283 652.133 335.333 652.851 335.333 653.879ZM336.316 653.879C336.316 653.293 336.846 652.907 337.609 652.907C338.371 652.907 338.912 653.293 338.912 653.879C338.912 654.464 338.371 654.851 337.609 654.851C336.846 654.851 336.316 654.464 336.316 653.879ZM336.46 659.501H342.822V656.275H336.46V659.501ZM337.454 658.694V657.093H341.828V658.694H337.454Z" fill="black"/>
<path d="M234.603 717.849C236.699 717.849 238.398 716.15 238.398 714.054C238.398 711.958 236.699 710.259 234.603 710.259C232.508 710.259 230.809 711.958 230.809 714.054C230.809 716.15 232.508 717.849 234.603 717.849Z" stroke="#818181" stroke-width="0.798626" stroke-linecap="round" stroke-linejoin="round"/>
<path d="M234.603 716.584C234.865 716.584 235.078 716.372 235.078 716.11C235.078 715.848 234.865 715.635 234.603 715.635C234.341 715.635 234.129 715.848 234.129 716.11C234.129 716.372 234.341 716.584 234.603 716.584Z" fill="#818181"/>
<path d="M234.603 714.686V714.37C234.822 714.37 235.036 714.305 235.218 714.183C235.4 714.062 235.542 713.889 235.625 713.687C235.709 713.484 235.731 713.262 235.688 713.047C235.646 712.832 235.54 712.635 235.386 712.48C235.231 712.326 235.034 712.22 234.819 712.178C234.604 712.135 234.382 712.157 234.179 712.241C233.977 712.324 233.804 712.466 233.683 712.648C233.561 712.83 233.496 713.044 233.496 713.263" stroke="#818181" stroke-width="0.798626" stroke-linecap="round" stroke-linejoin="round"/>
<path d="M164.918 688.02L163.604 688.02L163.604 697.885L160.535 694.815L159.603 695.747L164.261 700.405L168.919 695.747L167.987 694.815L164.918 697.885V688.02Z" fill="#4492F7"/>
<circle cx="218.864" cy="325.214" r="72.3481" fill="#4FEDAE"/>
<path d="M218.864 252.866C230.177 252.866 241.332 255.519 251.434 260.612C261.535 265.704 270.302 273.095 277.029 282.191C283.757 291.286 288.258 301.832 290.17 312.982C292.083 324.132 291.354 335.575 288.042 346.393C284.731 357.21 278.928 367.1 271.102 375.268C263.275 383.437 253.641 389.656 242.975 393.426C232.309 397.196 220.907 398.412 209.686 396.977C198.464 395.542 187.736 391.495 178.362 385.162L218.864 325.214V252.866Z" fill="#6792F8"/>
<path d="M178.885 385.513C166.843 377.529 157.467 366.122 151.966 352.762C146.464 339.401 145.089 324.7 148.017 310.551L218.864 325.214L178.885 385.513Z" fill="#FFE07E"/>
<ellipse cx="218.865" cy="325.497" rx="42.9567" ry="42.674" fill="white"/>
<path d="M200.048 320.844H199.276L198.551 323.679H197.185L196.451 320.854H195.556L194.821 323.679H193.456L192.731 320.844H191.949L192.684 323.679H191.591V324.48H192.9L193.719 327.644H194.558L195.358 324.48H196.639L197.449 327.644H198.287L199.106 324.48H200.406V323.679H199.314L200.048 320.844ZM193.654 324.48H194.614L194.134 326.354L193.654 324.48ZM195.565 323.679L195.999 321.975L196.432 323.679H195.565ZM197.392 324.48H198.353L197.873 326.354L197.392 324.48ZM205.133 324.131C205.66 323.792 206.103 323.255 206.103 322.624C206.103 321.541 205.133 320.75 203.956 320.75C202.778 320.75 201.808 321.541 201.808 322.653H202.628C202.628 322.106 203.136 321.57 203.956 321.57C204.775 321.57 205.293 322.116 205.293 322.643C205.293 323.199 204.822 323.726 203.918 323.726H203.409V324.517H203.918C204.973 324.517 205.387 325.111 205.387 325.713C205.387 326.316 204.813 326.919 203.899 326.919C202.986 326.919 202.43 326.307 202.43 325.704H201.601C201.601 326.891 202.618 327.738 203.899 327.738C205.18 327.738 206.197 326.891 206.197 325.742C206.197 325.054 205.707 324.47 205.133 324.131ZM208.239 326.862H207.363L207.053 328.802H207.665L208.239 326.862ZM213.355 324.131C213.882 323.792 214.325 323.255 214.325 322.624C214.325 321.541 213.355 320.75 212.178 320.75C211.001 320.75 210.031 321.541 210.031 322.653H210.85C210.85 322.106 211.358 321.57 212.178 321.57C212.997 321.57 213.515 322.116 213.515 322.643C213.515 323.199 213.044 323.726 212.14 323.726H211.632V324.517H212.14C213.195 324.517 213.609 325.111 213.609 325.713C213.609 326.316 213.035 326.919 212.121 326.919C211.208 326.919 210.652 326.307 210.652 325.704H209.823C209.823 326.891 210.84 327.738 212.121 327.738C213.402 327.738 214.419 326.891 214.419 325.742C214.419 325.054 213.929 324.47 213.355 324.131ZM219.522 320.807H218.731L215.378 325.243V326.024H218.731V327.682H219.522V326.024H220.492V325.224H219.522V320.807ZM216.377 325.224L218.731 322.059V325.224H216.377ZM223.765 326.957C222.889 326.957 222.277 326.354 222.277 325.742C222.277 325.12 222.899 324.527 223.765 324.527C224.641 324.527 225.244 325.12 225.244 325.742C225.244 326.354 224.641 326.957 223.765 326.957ZM221.448 325.742C221.448 326.909 222.541 327.766 223.765 327.766C224.99 327.766 226.082 326.909 226.082 325.742C226.082 325.035 225.668 324.433 225.055 324.084C225.564 323.745 225.903 323.237 225.903 322.624C225.903 321.541 224.877 320.76 223.765 320.76C222.654 320.76 221.646 321.541 221.646 322.624C221.646 323.237 221.985 323.745 222.494 324.084C221.872 324.433 221.448 325.035 221.448 325.742ZM222.484 322.615C222.484 322.088 223.012 321.57 223.765 321.57C224.537 321.57 225.055 322.088 225.055 322.615C225.055 323.142 224.537 323.66 223.765 323.66C223.012 323.66 222.484 323.142 222.484 322.615ZM228.123 326.862H227.247L226.937 328.802H227.549L228.123 326.862ZM231.958 324.207C231.092 324.207 230.527 323.585 230.527 322.897C230.527 322.191 231.092 321.57 231.958 321.57C232.825 321.57 233.39 322.191 233.39 322.897C233.39 323.585 232.825 324.207 231.958 324.207ZM229.707 322.897C229.707 324.037 230.574 324.941 231.808 324.979C231.968 324.988 232.1 324.998 232.26 324.969L230.79 327.267L231.516 327.71L233.993 323.811C234.143 323.528 234.209 323.227 234.209 322.897C234.209 321.664 233.22 320.741 231.968 320.741C230.696 320.741 229.707 321.664 229.707 322.897ZM237.148 320.807H236.338L235.123 321.344L235.453 322.078L236.338 321.692V327.682H237.148V320.807ZM240.696 326.919C239.82 326.919 239.255 326.297 239.255 325.6C239.255 324.913 239.82 324.301 240.696 324.301C241.562 324.301 242.127 324.913 242.127 325.6C242.127 326.297 241.562 326.919 240.696 326.919ZM238.435 325.6C238.435 326.834 239.424 327.757 240.696 327.757C241.958 327.757 242.937 326.834 242.937 325.6C242.937 324.404 242.014 323.51 240.809 323.5C240.639 323.491 240.554 323.5 240.375 323.528L241.864 321.212L241.148 320.76L238.661 324.677C238.52 324.969 238.435 325.28 238.435 325.6Z" fill="#8C8C8C"/>
<path d="M141.506 231.979V233.261H137.777V234.045H146.232V233.261H142.47V231.979H141.506ZM138.222 231.682L138.561 232.456C140.161 232.276 141.496 231.598 141.994 230.602C142.502 231.608 143.837 232.276 145.437 232.456L145.787 231.682C144.113 231.523 142.788 230.761 142.661 229.849H145.469V229.065H138.55V229.849H141.358C141.231 230.771 139.896 231.523 138.222 231.682ZM138.783 236.376C138.783 237.404 139.981 237.976 141.994 237.976C144.007 237.976 145.204 237.404 145.204 236.376C145.204 235.327 144.007 234.744 141.994 234.744C139.981 234.744 138.783 235.327 138.783 236.376ZM139.758 236.376C139.758 235.793 140.574 235.486 141.994 235.486C143.403 235.486 144.208 235.793 144.208 236.376C144.208 236.927 143.403 237.245 141.994 237.245C140.574 237.245 139.758 236.927 139.758 236.376ZM148.107 229.034V232.244H150.777V233.335H147.037V234.119H155.492V233.335H151.741V232.244H154.401V229.034H148.107ZM147.98 235.793H153.468V238.008H154.454V235.009H147.98V235.793ZM149.061 231.46V229.796H153.436V231.46H149.061ZM163.046 228.652V229.934H161.012V229.076H160.048V230.347H157.707V229.076H156.732V233.166H161.012V232.392H163.046V233.505H164.011V228.652H163.046ZM157.707 232.382V231.1H160.048V232.382H157.707ZM157.961 234.713H163.057V235.497H157.982V237.87H164.35V237.096H158.936V236.228H164.011V233.939H157.961V234.713ZM161.012 231.64V230.686H163.046V231.64H161.012ZM174.696 228.631V238.018H175.67V228.631H174.696ZM168.519 235.772H172.969V229.415H172.004V231.852H169.483V229.415H168.519V235.772ZM169.483 234.977V232.615H172.004V234.977H169.483ZM177.26 232.996V233.78H180.989V234.681C179.273 234.776 178.266 235.359 178.266 236.334C178.266 237.382 179.464 237.976 181.477 237.976C183.479 237.976 184.687 237.382 184.687 236.334C184.687 235.359 183.67 234.776 181.953 234.681V233.78H185.715V232.996H177.26ZM177.705 231.704L178.054 232.477C179.644 232.297 180.979 231.608 181.487 230.612C181.985 231.608 183.32 232.297 184.92 232.477L185.27 231.704C183.574 231.545 182.271 230.771 182.144 229.849H184.952V229.065H178.033V229.849H180.841C180.714 230.771 179.379 231.545 177.705 231.704ZM179.241 236.334C179.241 235.74 180.067 235.433 181.477 235.433C182.875 235.433 183.691 235.74 183.691 236.334C183.691 236.916 182.875 237.224 181.477 237.224C180.067 237.224 179.241 236.916 179.241 236.334Z" fill="#818181"/>
<rect x="316.93" y="255.438" width="7.71713" height="19.9359" fill="#6792F8"/>
<rect x="316.93" y="285.021" width="7.71713" height="19.9359" fill="#6FC183"/>
<rect x="471.918" y="254.795" width="7.71713" height="19.9359" fill="#F8D25C"/>
<path d="M335.071 262.267H331.313V262.964H334.214C334.186 263.444 334.11 263.906 333.979 264.339L330.89 264.537L331.012 265.29L333.715 265.027C333.225 266.091 332.33 266.995 330.842 267.739L331.304 268.398C334.308 266.891 335.071 264.716 335.071 262.267ZM336.333 269.726H337.209V265.46H338.49V264.744H337.209V261.41H336.333V269.726ZM343.302 262.267H339.545V262.964H342.445C342.417 263.444 342.342 263.906 342.21 264.339L339.121 264.537L339.243 265.29L341.946 265.027C341.457 266.091 340.562 266.995 339.074 267.739L339.535 268.398C342.54 266.891 343.302 264.716 343.302 262.267ZM344.564 269.726H345.44V265.46H346.721V264.744H345.44V261.41H344.564V269.726ZM350.997 261.937C349.245 261.937 347.964 262.804 347.964 264.132C347.964 265.366 349.038 266.194 350.573 266.317V267.974H347.249V268.681H354.774V267.974H351.43V266.317C352.975 266.185 354.039 265.366 354.039 264.132C354.039 262.804 352.768 261.937 350.997 261.937ZM348.803 264.132C348.803 263.209 349.726 262.616 350.997 262.616C352.278 262.616 353.201 263.209 353.201 264.132C353.201 265.055 352.278 265.658 350.997 265.658C349.726 265.658 348.803 265.055 348.803 264.132Z" fill="#4A4A4A"/>
<path d="M334.214 294.129V294.826H335.354V298.895H336.164V291.191H335.354V294.129H334.214ZM331.078 297.36H331.624C332.896 297.36 333.677 297.331 334.619 297.143L334.544 296.455C333.696 296.625 332.98 296.653 331.897 296.663V294.911H333.79V294.242H331.897V292.679H334.158V291.982H331.078V297.36ZM337.039 299.309H337.859V291.003H337.039V299.309ZM342.332 291.068V291.342C342.332 292.312 341.014 293.14 339.422 293.319L339.714 293.979C341.061 293.8 342.248 293.216 342.775 292.349C343.293 293.216 344.48 293.8 345.826 293.979L346.118 293.319C344.527 293.14 343.218 292.312 343.218 291.342V291.068H342.332ZM339.017 295.137H346.523V294.449H339.017V295.137ZM339.912 296.493H344.725V297.19H339.94V299.234H345.817V298.565H340.778V297.802H345.572V295.834H339.912V296.493ZM352.824 290.993V299.328H353.672V294.986H354.99V294.261H353.672V290.993H352.824ZM347.578 292.462H350.498V294.101H347.597V297.341H348.266C349.82 297.341 350.931 297.275 352.212 297.039L352.137 296.342C350.94 296.559 349.886 296.616 348.454 296.625V294.798H351.345V291.765H347.578V292.462Z" fill="#4A4A4A"/>
<path d="M487.635 261.445C486.561 261.445 485.865 262.566 485.865 264.365C485.865 266.173 486.561 267.294 487.635 267.294C488.718 267.294 489.415 266.173 489.415 264.365C489.415 262.566 488.718 261.445 487.635 261.445ZM486.656 264.365C486.656 263.037 487.032 262.255 487.635 262.255C488.247 262.255 488.624 263.037 488.624 264.365C488.624 265.702 488.247 266.484 487.635 266.484C487.032 266.484 486.656 265.702 486.656 264.365ZM490.187 268.678H490.997V264.741H492.024V269.083H492.843V260.776H492.024V264.044H490.997V260.955H490.187V268.678ZM494.689 261.04V261.69H495.895V263.15H494.727V263.809H500.764V263.15H499.596V261.69H500.801V261.04H494.689ZM494.002 265.118H501.508V264.44H494.002V265.118ZM494.896 266.427H499.709V267.068H494.925V269.008H500.801V268.358H495.763V267.67H500.557V265.787H494.896V266.427ZM496.761 263.15V261.69H498.739V263.15H496.761Z" fill="#4A4A4A"/>
<path d="M426.655 268.36C425.798 268.36 425.195 267.682 425.195 266.835C425.195 266.006 425.807 265.3 426.655 265.3C427.512 265.3 428.143 266.006 428.143 266.835C428.143 267.682 427.512 268.36 426.655 268.36ZM424.366 266.835C424.366 268.106 425.44 269.095 426.674 269.095C427.917 269.095 428.972 268.106 428.972 266.835C428.972 265.582 427.907 264.574 426.674 264.574C426.532 264.574 426.391 264.584 426.25 264.612L427.634 262.192H426.683L424.724 265.629C424.498 265.978 424.366 266.392 424.366 266.835ZM432.098 262.201H431.269L429.819 263.058L430.214 263.727L431.269 263.105V269.02H432.098V262.201ZM434.065 268.134C433.726 268.134 433.538 268.36 433.538 268.652C433.538 268.954 433.726 269.18 434.065 269.18C434.404 269.18 434.583 268.954 434.583 268.652C434.583 268.36 434.404 268.134 434.065 268.134ZM438.468 268.36C437.423 268.36 436.801 267.428 436.801 265.61C436.801 263.783 437.423 262.87 438.468 262.87C439.514 262.87 440.126 263.783 440.126 265.61C440.126 267.428 439.514 268.36 438.468 268.36ZM435.973 265.61C435.973 267.777 436.962 269.086 438.468 269.086C439.975 269.086 440.955 267.777 440.955 265.61C440.955 263.425 439.966 262.135 438.468 262.135C436.962 262.135 435.973 263.435 435.973 265.61ZM443.827 269.029H444.703L449.007 262.173H448.122L443.827 269.029ZM442.255 263.925C442.255 264.932 443.055 265.789 444.072 265.789C445.089 265.789 445.88 264.932 445.88 263.925C445.88 262.908 445.089 262.06 444.072 262.06C443.055 262.06 442.255 262.908 442.255 263.925ZM443.074 263.925C443.074 263.331 443.535 262.86 444.072 262.86C444.628 262.86 445.08 263.331 445.08 263.925C445.08 264.518 444.628 264.989 444.072 264.989C443.535 264.989 443.074 264.518 443.074 263.925ZM446.869 267.24C446.869 268.247 447.67 269.104 448.687 269.104C449.704 269.104 450.495 268.247 450.495 267.24C450.495 266.213 449.704 265.375 448.687 265.375C447.67 265.375 446.869 266.213 446.869 267.24ZM447.679 267.24C447.679 266.646 448.15 266.175 448.687 266.175C449.243 266.175 449.695 266.646 449.695 267.24C449.695 267.824 449.243 268.304 448.687 268.304C448.15 268.304 447.679 267.824 447.679 267.24Z" fill="#4A4A4A"/>
<path d="M424.718 297.878V298.612H428.984V297.878H425.885C427.185 296.71 428.871 295.306 428.871 293.866C428.871 292.5 427.797 291.699 426.771 291.699C426.13 291.699 425.141 291.991 424.642 293.131L425.386 293.461C425.716 292.698 426.29 292.453 426.771 292.453C427.468 292.453 428.042 292.961 428.042 293.866C428.042 295.062 426.083 296.568 424.718 297.878ZM432.098 291.784H431.269L429.819 292.641L430.214 293.31L431.269 292.688V298.603H432.098V291.784ZM434.065 297.717C433.726 297.717 433.538 297.943 433.538 298.235C433.538 298.537 433.726 298.763 434.065 298.763C434.404 298.763 434.583 298.537 434.583 298.235C434.583 297.943 434.404 297.717 434.065 297.717ZM438.468 297.943C437.423 297.943 436.801 297.011 436.801 295.193C436.801 293.366 437.423 292.453 438.468 292.453C439.514 292.453 440.126 293.366 440.126 295.193C440.126 297.011 439.514 297.943 438.468 297.943ZM435.973 295.193C435.973 297.36 436.962 298.669 438.468 298.669C439.975 298.669 440.955 297.36 440.955 295.193C440.955 293.009 439.966 291.718 438.468 291.718C436.962 291.718 435.973 293.018 435.973 295.193ZM443.827 298.612H444.703L449.007 291.756H448.122L443.827 298.612ZM442.255 293.508C442.255 294.515 443.055 295.372 444.072 295.372C445.089 295.372 445.88 294.515 445.88 293.508C445.88 292.491 445.089 291.643 444.072 291.643C443.055 291.643 442.255 292.491 442.255 293.508ZM443.074 293.508C443.074 292.914 443.535 292.443 444.072 292.443C444.628 292.443 445.08 292.914 445.08 293.508C445.08 294.101 444.628 294.572 444.072 294.572C443.535 294.572 443.074 294.101 443.074 293.508ZM446.869 296.823C446.869 297.83 447.67 298.687 448.687 298.687C449.704 298.687 450.495 297.83 450.495 296.823C450.495 295.796 449.704 294.958 448.687 294.958C447.67 294.958 446.869 295.796 446.869 296.823ZM447.679 296.823C447.679 296.229 448.15 295.759 448.687 295.759C449.243 295.759 449.695 296.229 449.695 296.823C449.695 297.407 449.243 297.887 448.687 297.887C448.15 297.887 447.679 297.407 447.679 296.823Z" fill="#4A4A4A"/>
<path d="M581.637 261.558H580.809L579.358 262.415L579.754 263.084L580.809 262.462V268.377H581.637V261.558ZM585.253 267.755C584.415 267.755 583.812 267.077 583.812 266.437C583.812 265.787 584.424 265.146 585.253 265.146C586.101 265.146 586.694 265.787 586.694 266.437C586.694 267.077 586.101 267.755 585.253 267.755ZM582.983 266.437C582.983 267.614 584.057 268.48 585.253 268.48C586.449 268.48 587.523 267.614 587.523 266.437C587.523 265.73 587.024 265.127 586.421 264.779C586.92 264.44 587.353 263.922 587.353 263.31C587.353 262.217 586.346 261.436 585.253 261.436C584.17 261.436 583.172 262.217 583.172 263.31C583.172 263.922 583.605 264.44 584.104 264.779C583.492 265.127 582.983 265.73 582.983 266.437ZM584.001 263.3C584.001 262.745 584.519 262.151 585.253 262.151C585.997 262.151 586.525 262.745 586.525 263.3C586.525 263.856 585.997 264.421 585.253 264.421C584.519 264.421 584.001 263.856 584.001 263.3ZM589.05 267.491C588.711 267.491 588.522 267.717 588.522 268.009C588.522 268.311 588.711 268.537 589.05 268.537C589.389 268.537 589.568 268.311 589.568 268.009C589.568 267.717 589.389 267.491 589.05 267.491ZM593.453 267.717C592.407 267.717 591.786 266.785 591.786 264.967C591.786 263.14 592.407 262.227 593.453 262.227C594.498 262.227 595.11 263.14 595.11 264.967C595.11 266.785 594.498 267.717 593.453 267.717ZM590.957 264.967C590.957 267.133 591.946 268.443 593.453 268.443C594.96 268.443 595.939 267.133 595.939 264.967C595.939 262.782 594.95 261.492 593.453 261.492C591.946 261.492 590.957 262.792 590.957 264.967ZM598.812 268.386H599.688L603.992 261.53H603.106L598.812 268.386ZM597.239 263.282C597.239 264.289 598.039 265.146 599.057 265.146C600.074 265.146 600.865 264.289 600.865 263.282C600.865 262.264 600.074 261.417 599.057 261.417C598.039 261.417 597.239 262.264 597.239 263.282ZM598.058 263.282C598.058 262.688 598.52 262.217 599.057 262.217C599.612 262.217 600.064 262.688 600.064 263.282C600.064 263.875 599.612 264.346 599.057 264.346C598.52 264.346 598.058 263.875 598.058 263.282ZM601.854 266.597C601.854 267.604 602.654 268.461 603.671 268.461C604.688 268.461 605.48 267.604 605.48 266.597C605.48 265.57 604.688 264.732 603.671 264.732C602.654 264.732 601.854 265.57 601.854 266.597ZM602.664 266.597C602.664 266.003 603.135 265.532 603.671 265.532C604.227 265.532 604.679 266.003 604.679 266.597C604.679 267.181 604.227 267.661 603.671 267.661C603.135 267.661 602.664 267.181 602.664 266.597Z" fill="#4A4A4A"/>
<rect x="145.85" y="418.216" width="467.529" height="11.5757" fill="#FFE07E"/>
<rect x="145.85" y="418.216" width="340.197" height="11.5757" fill="#6792F8"/>
<path d="M135.455 465.953C135.455 460.245 140.082 455.618 145.79 455.618H612.758V613.466H145.79C140.082 613.466 135.455 608.839 135.455 603.131V465.953Z" fill="#F6F8FF"/>
<path d="M155.186 479.107H612.758" stroke="#D8D8D8" stroke-width="0.789994"/>
<path d="M155.186 535.482H612.758" stroke="#D8D8D8" stroke-width="0.789994"/>
<path d="M155.186 592.795H612.758" stroke="#D8D8D8" stroke-width="0.789994"/>
<path d="M156.125 491.224H162.252L166.987 488.004L172.836 491.982L183.699 486.488L190.383 485.352L199.853 488.004L206.259 487.246L210.994 489.33L217.399 488.004L221.299 485.92L227.705 487.246L238.01 485.92L243.023 483.457L260.013 484.783L265.026 482.699L271.154 483.078L276.446 480.805L283.409 481.373L287.587 480.047H304.576L308.476 481.942H317.11L326.301 484.404H331.593L336.049 487.246H341.898L347.19 491.035H352.76L357.774 489.898H366.686L370.029 490.466L375.321 488.383L380.334 488.951L385.347 485.92L390.918 484.594L396.488 486.867L402.337 485.92L406.793 488.383L412.921 487.246L418.77 482.889L423.783 485.92L431.582 484.594L434.645 484.215L438.545 484.594L445.508 484.973L450.8 487.246L457.206 487.625L462.219 489.519L468.068 488.193L471.967 489.14L480.323 489.519L484.501 490.845L488.4 492.929L498.148 492.55L505.947 495.96L510.124 492.929L516.809 497.855L522.101 510.168L527.393 510.547L531.292 520.398L537.976 532.523L549.396 520.398L554.131 526.461L559.98 530.249L570.563 545.405L576.412 547.11L580.869 556.961L587.275 565.296L592.288 596.554L598.137 584.998L603.986 590.871L608.999 564.538" stroke="#6792F8" stroke-width="1.87915" stroke-linecap="round" stroke-linejoin="round"/>
<path d="M155.186 492.286L161.039 493.249H166.057L171.353 491.9L177.486 493.635H180.274L183.061 492.671L193.375 493.635H195.884L198.95 492.671H201.459L202.295 493.249H204.246L212.609 491.322H215.954L221.251 493.249H228.219L237.418 491.322H242.993L247.732 492.671H257.21L260.834 493.635H266.688L269.196 494.213L280.904 494.02L286.201 493.442L292.054 494.213L301.532 494.984L307.107 496.14H319.372L324.111 496.718H332.195L336.098 497.489L348.921 498.26L355.889 500.188H361.743L368.433 501.922L379.584 499.609H385.716L391.57 500.766H396.309L405.229 502.308H412.477L416.937 500.766H423.627L428.087 497.875L435.892 501.151H442.861L450.666 503.464L455.963 500.573L460.98 502.886L466.834 503.464L471.294 502.886L477.984 503.079L493.037 506.162H499.448L510.32 498.838L515.895 502.693L522.306 504.235H527.324L537.359 509.053L548.231 506.933L553.527 510.981L560.217 512.33H567.465L580.845 517.341H588.65L602.588 521.388L608.999 518.112" stroke="#FF5852" stroke-width="1.87915" stroke-linecap="round" stroke-linejoin="round"/>
<ellipse cx="406.847" cy="691.323" rx="12.8472" ry="12.8472" fill="#6792F8" fill-opacity="0.15"/>
<path d="M405.544 688.291L403.765 693.7H403.692L401.918 688.291H400.433L402.986 695.332H404.467L407.024 688.291H405.544ZM413.237 690.212C413.109 689.002 412.128 688.2 410.565 688.2C408.929 688.2 407.838 689.061 407.838 690.313C407.838 691.289 408.502 691.967 409.767 692.242L410.867 692.485C411.619 692.655 411.954 692.948 411.954 693.402C411.954 693.993 411.376 694.364 410.478 694.364C409.648 694.364 409.167 694.048 409.048 693.407H407.632C407.806 694.722 408.805 695.474 410.492 695.474C412.293 695.474 413.37 694.566 413.37 693.292C413.37 692.302 412.738 691.683 411.45 691.385L410.322 691.129C409.552 690.95 409.217 690.652 409.222 690.235C409.217 689.703 409.786 689.291 410.574 689.291C411.34 689.291 411.78 689.653 411.908 690.212H413.237Z" fill="#6792F8"/>
<path d="M20 504.476C20 490.669 31.1929 479.476 45 479.476H588C601.807 479.476 613 490.669 613 504.476V763.476C613 777.283 601.807 788.476 588 788.476H45C31.1929 788.476 20 777.283 20 763.476V504.476Z" fill="url(#paint0_linear_1959_15217)"/>
<path d="M84.9376 80.7205C84.7696 80.4591 84.5736 80.2258 84.3496 80.0205C84.1256 79.7965 83.8083 79.5725 83.3976 79.3485C82.4083 78.7512 81.307 78.4525 80.0936 78.4525C79.8696 78.4525 79.5523 78.4712 79.1416 78.5085C77.8536 78.6952 77.0416 79.2365 76.7056 80.1325C76.5936 80.3752 76.5376 80.6365 76.5376 80.9165C76.5376 81.4205 76.687 81.8778 76.9856 82.2885C77.2843 82.5872 77.611 82.8672 77.9656 83.1285C78.3576 83.3712 78.9083 83.5952 79.6176 83.8005L80.9896 84.1925C82.6696 84.5472 83.9576 84.9392 84.8536 85.3685C85.7496 85.7978 86.4403 86.2645 86.9256 86.7685C87.3176 87.1605 87.6536 87.6832 87.9336 88.3365C88.2136 88.9712 88.3536 89.6712 88.3536 90.4365C88.3536 91.1645 88.2136 91.8738 87.9336 92.5645C87.6723 93.1245 87.271 93.6752 86.7296 94.2165C86.207 94.7392 85.647 95.1778 85.0496 95.5325C84.6016 95.7565 84.0976 95.9618 83.5376 96.1485C82.9963 96.3352 82.5016 96.4565 82.0536 96.5125C81.587 96.5685 81.111 96.5965 80.6256 96.5965C78.8523 96.5965 77.1536 96.1298 75.5296 95.1965C74.559 94.6365 73.775 93.9738 73.1776 93.2085C72.5803 92.4432 72.179 91.7712 71.9736 91.1925L75.2776 90.0165C75.371 90.3152 75.5763 90.6698 75.8936 91.0805C76.2296 91.4725 76.687 91.8365 77.2656 92.1725C77.863 92.5085 78.4043 92.7512 78.8896 92.9005C79.3936 93.0498 79.9163 93.1245 80.4576 93.1245C80.8123 93.1245 81.195 93.0965 81.6056 93.0405C82.0536 92.9845 82.6603 92.7885 83.4256 92.4525C84.0043 92.1165 84.443 91.6872 84.7416 91.1645C84.8536 90.7912 84.9096 90.4925 84.9096 90.2685C84.9096 89.8392 84.7603 89.4938 84.4616 89.2325C84.1816 88.9338 83.743 88.6632 83.1456 88.4205C82.567 88.1592 81.5683 87.8698 80.1496 87.5525L78.6656 87.1605C77.5643 86.8432 76.6776 86.4512 76.0056 85.9845C75.4643 85.6112 74.923 85.1538 74.3816 84.6125C73.9896 84.1458 73.6723 83.5765 73.4296 82.9045C73.2056 82.2138 73.0936 81.4952 73.0936 80.7485C73.0936 80.0391 73.215 79.3858 73.4576 78.7885C73.943 77.6125 74.6896 76.7258 75.6976 76.1285C76.7243 75.5312 77.723 75.1671 78.6936 75.0365C79.0856 74.9805 79.5056 74.9525 79.9536 74.9525C80.8123 74.9525 81.6896 75.0645 82.5856 75.2885C83.5003 75.4938 84.3683 75.8392 85.1896 76.3245C86.403 77.0338 87.3083 77.9018 87.9056 78.9285L84.9376 80.7205ZM100.966 94.7485C99.9577 95.7005 98.847 96.1765 97.6337 96.1765C96.831 96.1765 96.075 95.9618 95.3657 95.5325C94.6563 95.0845 94.0777 94.4965 93.6297 93.7685C93.2003 93.0218 92.9857 92.2285 92.9857 91.3885V84.0805H90.4377V80.8325H92.9857V76.0165H96.4577V80.8325H100.35V84.0805H96.4577V91.3885C96.4577 92.2658 96.8497 92.7045 97.6337 92.7045C97.8203 92.7045 97.9697 92.6765 98.0817 92.6205C98.1937 92.5645 98.3523 92.4338 98.5577 92.2285L100.966 94.7485ZM113.317 87.2445C112.925 86.3858 112.383 85.7232 111.693 85.2565C111.021 84.7712 110.293 84.5285 109.509 84.5285C108.706 84.5285 107.941 84.7712 107.213 85.2565C106.485 85.7418 105.943 86.4045 105.589 87.2445H113.317ZM102.369 88.8125C102.369 87.4685 102.686 86.2272 103.321 85.0885C103.955 83.9498 104.814 83.0445 105.897 82.3725C106.998 81.6818 108.202 81.3365 109.509 81.3365C110.797 81.3365 111.898 81.6258 112.813 82.2045C113.727 82.7832 114.418 83.3898 114.885 84.0245C115.351 84.6405 115.641 85.0792 115.753 85.3405C116.257 86.3112 116.509 87.4965 116.509 88.8965C116.509 89.3632 116.481 89.7645 116.425 90.1005H105.617C105.822 90.9965 106.298 91.7245 107.045 92.2845C107.81 92.8445 108.641 93.1245 109.537 93.1245C110.227 93.1245 110.843 92.9658 111.385 92.6485C111.945 92.3312 112.393 91.9485 112.729 91.5005L115.669 92.7885C115.071 93.7592 114.241 94.5805 113.177 95.2525C112.131 95.9245 110.909 96.2605 109.509 96.2605C108.202 96.2605 106.998 95.9245 105.897 95.2525C104.814 94.5618 103.955 93.6472 103.321 92.5085C102.686 91.3698 102.369 90.1378 102.369 88.8125ZM127.144 93.2365C127.853 93.2365 128.516 93.0405 129.132 92.6485C129.766 92.2565 130.27 91.7245 130.644 91.0525C131.017 90.3618 131.204 89.6058 131.204 88.7845C131.204 87.9818 131.017 87.2445 130.644 86.5725C130.27 85.9005 129.766 85.3685 129.132 84.9765C128.516 84.5845 127.853 84.3885 127.144 84.3885C126.434 84.3885 125.772 84.5845 125.156 84.9765C124.54 85.3685 124.045 85.9005 123.672 86.5725C123.298 87.2445 123.112 87.9818 123.112 88.7845C123.112 89.6058 123.298 90.3618 123.672 91.0525C124.045 91.7245 124.54 92.2565 125.156 92.6485C125.772 93.0405 126.434 93.2365 127.144 93.2365ZM119.612 81.3085H122.972V83.6325C123.438 82.8485 124.12 82.2698 125.016 81.8965C125.93 81.5045 126.724 81.3085 127.396 81.3085C128.684 81.3085 129.869 81.6538 130.952 82.3445C132.034 83.0165 132.884 83.9312 133.5 85.0885C134.134 86.2272 134.452 87.4592 134.452 88.7845C134.452 90.1285 134.134 91.3792 133.5 92.5365C132.884 93.6752 132.034 94.5898 130.952 95.2805C129.869 95.9525 128.684 96.2885 127.396 96.2885C126.686 96.2885 125.884 96.1018 124.988 95.7285C124.11 95.3552 123.438 94.7578 122.972 93.9365V103.176H119.612V81.3085ZM150.94 96.2045H147.608V79.0685L144.78 80.3285L143.464 77.3045L147.608 75.3725H150.94V96.2045Z" fill="#6792F8"/>
<path d="M362.501 262.615V268.648H363.228V262.615H362.501ZM368.616 262.615H364.377V263.326H366.129V268.648H366.864V263.326H368.616V262.615Z" fill="#A5A5A5"/>
<path d="M518.357 262.739V263.35H519.927V263.458C519.927 264.391 519.249 265.226 518.142 265.548L518.505 266.143C519.365 265.871 520.001 265.309 520.323 264.581C520.654 265.251 521.29 265.763 522.141 266.011L522.48 265.416C521.381 265.102 520.679 264.334 520.679 263.458V263.35H522.249V262.739H520.679V261.896H519.927V262.739H518.357ZM519.414 269.11H524.174V266.59H519.414V269.11ZM520.158 268.507V267.193H523.43V268.507H520.158ZM522.05 264.548H523.414V266.226H524.174V261.921H523.414V263.92H522.05V264.548ZM530.273 261.921V267.193H531.041V264.664H532.091V264.036H531.041V261.921H530.273ZM525.678 265.937H526.248C527.802 265.937 528.661 265.879 529.628 265.672L529.554 265.069C528.645 265.259 527.843 265.309 526.43 265.309V263.152H528.909V262.532H525.678V265.937ZM526.455 269.06H531.339V268.432H527.207V266.656H526.455V269.06ZM539.747 261.912V269.209H540.507V261.912H539.747ZM534.574 267.275L534.979 267.879C537.45 266.672 538.359 264.829 538.359 262.689H534.921V263.309H537.59C537.441 265.019 536.499 266.342 534.574 267.275ZM544.622 261.962V262.193C544.622 263.044 543.466 263.747 542.069 263.904L542.317 264.482C543.499 264.334 544.548 263.821 545.011 263.069C545.474 263.821 546.515 264.334 547.697 264.482L547.953 263.904C546.548 263.747 545.391 263.044 545.391 262.193V261.962H544.622ZM541.714 265.524H544.622V266.176H542.499V266.755H546.721V267.35H542.524V269.135H547.68V268.548H543.267V267.903H547.473V266.176H545.374V265.524H548.308V264.904H541.714V265.524Z" fill="#A5A5A5"/>
<path d="M361.146 292.706V293.317H362.716V293.425C362.716 294.359 362.038 295.193 360.931 295.516L361.294 296.111C362.154 295.838 362.79 295.276 363.112 294.549C363.443 295.218 364.079 295.73 364.93 295.978L365.269 295.383C364.17 295.069 363.468 294.301 363.468 293.425V293.317H365.038V292.706H363.468V291.863H362.716V292.706H361.146ZM362.203 299.077H366.963V296.557H362.203V299.077ZM362.947 298.474V297.16H366.219V298.474H362.947ZM364.839 294.516H366.203V296.193H366.963V291.888H366.203V293.888H364.839V294.516ZM373.062 291.888V297.16H373.83V294.631H374.88V294.003H373.83V291.888H373.062ZM368.467 295.904H369.037C370.591 295.904 371.45 295.846 372.417 295.64L372.343 295.036C371.434 295.226 370.632 295.276 369.219 295.276V293.119H371.698V292.499H368.467V295.904ZM369.244 299.028H374.128V298.4H369.996V296.623H369.244V299.028ZM382.536 291.88V299.176H383.296V291.88H382.536ZM377.363 297.243L377.768 297.846C380.239 296.639 381.148 294.797 381.148 292.656H377.71V293.276H380.379C380.23 294.987 379.288 296.309 377.363 297.243ZM387.412 291.929V292.161C387.412 293.012 386.255 293.714 384.858 293.871L385.106 294.45C386.288 294.301 387.337 293.789 387.8 293.037C388.263 293.789 389.304 294.301 390.486 294.45L390.742 293.871C389.337 293.714 388.18 293.012 388.18 292.161V291.929H387.412ZM384.503 295.491H387.412V296.144H385.288V296.722H389.51V297.317H385.313V299.102H390.469V298.515H386.056V297.871H390.262V296.144H388.164V295.491H391.097V294.871H384.503V295.491Z" fill="#A5A5A5"/>
<defs>
<filter id="filter0_d_1959_15217" x="0.5" y="0.910645" width="632.5" height="807" filterUnits="userSpaceOnUse" color-interpolation-filters="sRGB">
<feFlood flood-opacity="0" result="BackgroundImageFix"/>
<feColorMatrix in="SourceAlpha" type="matrix" values="0 0 0 0 0 0 0 0 0 0 0 0 0 0 0 0 0 0 127 0" result="hardAlpha"/>
<feOffset/>
<feGaussianBlur stdDeviation="10"/>
<feComposite in2="hardAlpha" operator="out"/>
<feColorMatrix type="matrix" values="0 0 0 0 0 0 0 0 0 0 0 0 0 0 0 0 0 0 0.1 0"/>
<feBlend mode="normal" in2="BackgroundImageFix" result="effect1_dropShadow_1959_15217"/>
<feBlend mode="normal" in="SourceGraphic" in2="effect1_dropShadow_1959_15217" result="shape"/>
</filter>
<filter id="filter1_d_1959_15217" x="81.6496" y="186.126" width="538.467" height="608.467" filterUnits="userSpaceOnUse" color-interpolation-filters="sRGB">
<feFlood flood-opacity="0" result="BackgroundImageFix"/>
<feColorMatrix in="SourceAlpha" type="matrix" values="0 0 0 0 0 0 0 0 0 0 0 0 0 0 0 0 0 0 127 0" result="hardAlpha"/>
<feOffset dx="-7.11682" dy="-7.11682"/>
<feGaussianBlur stdDeviation="7.11682"/>
<feComposite in2="hardAlpha" operator="out"/>
<feColorMatrix type="matrix" values="0 0 0 0 0 0 0 0 0 0 0 0 0 0 0 0 0 0 0.05 0"/>
<feBlend mode="normal" in2="BackgroundImageFix" result="effect1_dropShadow_1959_15217"/>
<feBlend mode="normal" in="SourceGraphic" in2="effect1_dropShadow_1959_15217" result="shape"/>
</filter>
<linearGradient id="paint0_linear_1959_15217" x1="960.803" y1="479.476" x2="960.803" y2="788.476" gradientUnits="userSpaceOnUse">
<stop stop-color="#F6F8FF" stop-opacity="0"/>
<stop offset="1" stop-color="#EEF1FF"/>
</linearGradient>
</defs>
</svg>
