<svg width="477" height="614" viewBox="0 0 477 614" fill="none" xmlns="http://www.w3.org/2000/svg">
<g filter="url(#filter0_d_823_2767)">
<rect x="15.3633" y="16" width="445.637" height="582.102" rx="18.9733" fill="white"/>
</g>
<g filter="url(#filter1_d_823_2767)">
<path d="M108 221.067C108 206.651 119.686 194.965 134.101 194.965H461V524.965C461 565.282 428.317 597.965 388 597.965H108V221.067Z" fill="white"/>
</g>
<path d="M364.869 522.619C364.838 522.68 364.823 522.734 364.808 522.787L364.172 522.619C364.195 522.534 364.225 522.442 364.271 522.358C364.685 521.485 365.75 521.117 366.646 521.508C367.55 521.845 367.956 522.879 367.55 523.76C367.458 523.929 367.351 524.097 367.205 524.235L365.191 526.25H367.833V526.916H364.21V526.265L366.738 523.783C366.814 523.699 366.891 523.607 366.937 523.507C367.175 522.994 366.952 522.358 366.37 522.105C365.796 521.86 365.129 522.105 364.869 522.619ZM371.442 525.805C371.319 526.043 371.051 526.357 370.446 526.357C369.833 526.357 369.573 526.043 369.45 525.798C369.205 525.399 369.182 524.924 369.182 524.189C369.182 523.454 369.205 522.986 369.45 522.58C369.573 522.343 369.833 522.029 370.446 522.029C371.051 522.029 371.319 522.351 371.442 522.588C371.687 522.986 371.71 523.454 371.71 524.189C371.71 524.932 371.687 525.407 371.442 525.805ZM368.5 524.189C368.5 524.924 368.508 525.575 368.852 526.158C369.059 526.533 369.534 527.054 370.446 527.054C371.365 527.054 371.832 526.541 372.047 526.158C372.391 525.583 372.391 524.94 372.391 524.189C372.391 523.461 372.391 522.81 372.047 522.236C371.832 521.86 371.365 521.339 370.446 521.339C369.534 521.339 369.059 521.853 368.852 522.236C368.508 522.81 368.5 523.454 368.5 524.189ZM373.122 526.318V527.016H373.842V526.318H373.122ZM376.619 521.401H375.96L374.972 521.837L375.24 522.435L375.96 522.121V526.993H376.619V521.401ZM381.22 521.485H377.551V522.151H380.431L377.957 526.709L378.562 527.023L381.22 522.144V521.485ZM383.465 526.977H384.177L387.678 521.401H386.958L383.465 526.977ZM382.186 522.749C382.186 523.568 382.837 524.266 383.664 524.266C384.491 524.266 385.135 523.568 385.135 522.749C385.135 521.922 384.491 521.232 383.664 521.232C382.837 521.232 382.186 521.922 382.186 522.749ZM382.852 522.749C382.852 522.266 383.228 521.883 383.664 521.883C384.116 521.883 384.484 522.266 384.484 522.749C384.484 523.231 384.116 523.614 383.664 523.614C383.228 523.614 382.852 523.231 382.852 522.749ZM385.939 525.598C385.939 526.418 386.59 527.115 387.418 527.115C388.245 527.115 388.888 526.418 388.888 525.598C388.888 524.763 388.245 524.082 387.418 524.082C386.59 524.082 385.939 524.763 385.939 525.598ZM386.598 525.598C386.598 525.116 386.981 524.733 387.418 524.733C387.87 524.733 388.237 525.116 388.237 525.598C388.237 526.073 387.87 526.464 387.418 526.464C386.981 526.464 386.598 526.073 386.598 525.598Z" fill="#4492F7"/>
<path d="M358.123 501.492V501.964H361.449V502.015C361.449 502.271 361.449 502.545 361.436 502.851L357.964 502.979L358.053 503.483L361.404 503.292C361.372 503.675 361.315 504.103 361.207 504.588L361.794 504.652C362.03 503.471 362.024 502.698 362.024 502.015V501.492H358.123ZM357.523 505.852H362.617V505.379H360.051V503.937H359.457V505.379H357.523V505.852ZM365.222 501.332V501.76C365.222 502.679 364.252 503.547 363.205 503.739L363.46 504.23C364.347 504.039 365.171 503.445 365.535 502.654C365.898 503.445 366.722 504.039 367.616 504.23L367.877 503.739C366.818 503.547 365.841 502.692 365.841 501.76V501.332H365.222ZM363.007 505.852H368.107V505.373H363.007V505.852ZM372.55 500.962V506.598H373.137V500.962H372.55ZM368.497 504.735L368.554 505.226C369.575 505.22 370.922 505.201 372.122 505.003L372.091 504.575C371.81 504.607 371.522 504.639 371.229 504.658V502.015H371.822V501.543H368.637V502.015H369.231V504.728L368.497 504.735ZM369.799 504.722V502.015H370.661V504.69C370.373 504.709 370.08 504.715 369.799 504.722Z" fill="#3B3B3B"/>
<path d="M360.178 521.477L359.433 521.477L359.433 526.679L357.695 525.061L357.167 525.552L359.806 528.008L362.444 525.552L361.917 525.061L360.178 526.679V521.477Z" fill="#4492F7"/>
<path d="M395.863 524.862C395.863 523.91 396.15 523.017 396.642 522.244H397.248C396.699 523.004 396.374 523.904 396.374 524.862C396.374 525.819 396.699 526.719 397.248 527.479H396.642C396.15 526.706 395.863 525.813 395.863 524.862ZM399.385 525.021V526.023C398.83 526.043 398.3 526.043 397.847 526.043L397.917 526.534C398.919 526.528 400.285 526.528 401.536 526.285L401.491 525.851C401.006 525.928 400.483 525.972 399.972 525.998V525.021H399.385ZM398.006 524.753L398.274 525.213C398.944 525.008 399.442 524.574 399.685 524.006C399.94 524.542 400.438 524.957 401.102 525.149L401.37 524.689C400.54 524.466 400.004 523.885 399.972 523.215H401.236V522.742H399.972V522.072H399.385V522.742H398.147V523.215H399.385C399.359 523.923 398.83 524.511 398.006 524.753ZM401.843 527.67H402.43V522.015H401.843V527.67ZM407.53 522.021V524.262H406.803V522.142H406.254V527.37H406.803V524.747H407.53V527.658H408.092V522.021H407.53ZM403.49 526.298H403.866C404.671 526.298 405.251 526.272 405.928 526.138L405.871 525.647C405.277 525.774 404.754 525.8 404.071 525.806V523.176H405.577V522.704H403.49V526.298ZM413.942 522.021V525.264H414.536V523.885H415.34V523.393H414.536V522.021H413.942ZM410.406 524.894H410.853C411.683 524.894 412.532 524.83 413.476 524.645L413.406 524.166C412.544 524.332 411.753 524.389 410.987 524.396V522.347H410.406V524.894ZM410.872 526.036H413.942V527.664H414.536V525.557H410.872V526.036ZM416.094 522.225V522.698H416.917V523.84H416.126V524.313H417.887V524.938H415.634V525.417H420.728V524.938H418.468V524.313H420.217V523.84H419.426V522.698H420.249V522.225H416.094ZM416.202 526.4H419.509V527.664H420.103V525.934H416.202V526.4ZM417.504 523.84V522.698H418.845V523.84H417.504ZM422.682 524.862C422.682 525.813 422.394 526.706 421.909 527.479H421.296C421.852 526.719 422.171 525.819 422.171 524.862C422.171 523.904 421.852 523.004 421.296 522.244H421.909C422.394 523.017 422.682 523.91 422.682 524.862Z" fill="#818181"/>
<path d="M357.186 535.596V536.151H360.161V535.596H357.186ZM366.714 533.617H366.19L365.699 535.538H364.773L364.275 533.623H363.669L363.171 535.538H362.245L361.754 533.617H361.224L361.722 535.538H360.981V536.081H361.869L362.424 538.226H362.992L363.535 536.081H364.403L364.952 538.226H365.52L366.075 536.081H366.956V535.538H366.216L366.714 533.617ZM362.379 536.081H363.03L362.705 537.351L362.379 536.081ZM363.675 535.538L363.969 534.383L364.262 535.538H363.675ZM364.914 536.081H365.565L365.239 537.351L364.914 536.081ZM369.202 537.734C368.609 537.734 368.226 537.313 368.226 536.84C368.226 536.374 368.609 535.959 369.202 535.959C369.79 535.959 370.173 536.374 370.173 536.84C370.173 537.313 369.79 537.734 369.202 537.734ZM367.67 536.84C367.67 537.677 368.341 538.302 369.202 538.302C370.058 538.302 370.722 537.677 370.722 536.84C370.722 536.03 370.096 535.423 369.279 535.417C369.164 535.411 369.107 535.417 368.985 535.436L369.994 533.866L369.509 533.559L367.824 536.215C367.728 536.413 367.67 536.623 367.67 536.84ZM373.735 537.262C373.633 537.46 373.409 537.721 372.905 537.721C372.395 537.721 372.177 537.46 372.075 537.255C371.871 536.923 371.852 536.528 371.852 535.915C371.852 535.302 371.871 534.913 372.075 534.574C372.177 534.376 372.395 534.115 372.905 534.115C373.409 534.115 373.633 534.383 373.735 534.581C373.939 534.913 373.958 535.302 373.958 535.915C373.958 536.534 373.939 536.93 373.735 537.262ZM371.284 535.915C371.284 536.528 371.29 537.07 371.577 537.555C371.75 537.868 372.146 538.302 372.905 538.302C373.671 538.302 374.061 537.874 374.239 537.555C374.527 537.077 374.527 536.54 374.527 535.915C374.527 535.308 374.527 534.766 374.239 534.287C374.061 533.974 373.671 533.54 372.905 533.54C372.146 533.54 371.75 533.968 371.577 534.287C371.29 534.766 371.284 535.302 371.284 535.915ZM377.893 533.591H377.357L375.084 536.598V537.128H377.357V538.251H377.893V537.128H378.55V536.585H377.893V533.591ZM375.761 536.585L377.357 534.44V536.585H375.761ZM379.837 537.696H379.243L379.033 539.011H379.447L379.837 537.696ZM381.402 534.606C381.377 534.657 381.364 534.702 381.351 534.747L380.821 534.606C380.84 534.536 380.866 534.459 380.904 534.389C381.249 533.661 382.136 533.355 382.883 533.681C383.636 533.961 383.975 534.823 383.636 535.557C383.56 535.698 383.47 535.838 383.349 535.953L381.67 537.632H383.872V538.187H380.853V537.645L382.96 535.576C383.023 535.506 383.087 535.43 383.126 535.347C383.323 534.919 383.138 534.389 382.653 534.179C382.174 533.974 381.619 534.179 381.402 534.606ZM386.879 537.262C386.777 537.46 386.554 537.721 386.05 537.721C385.539 537.721 385.322 537.46 385.22 537.255C385.015 536.923 384.996 536.528 384.996 535.915C384.996 535.302 385.015 534.913 385.22 534.574C385.322 534.376 385.539 534.115 386.05 534.115C386.554 534.115 386.777 534.383 386.879 534.581C387.084 534.913 387.103 535.302 387.103 535.915C387.103 536.534 387.084 536.93 386.879 537.262ZM384.428 535.915C384.428 536.528 384.435 537.07 384.722 537.555C384.894 537.868 385.29 538.302 386.05 538.302C386.816 538.302 387.205 537.874 387.384 537.555C387.671 537.077 387.671 536.54 387.671 535.915C387.671 535.308 387.671 534.766 387.384 534.287C387.205 533.974 386.816 533.54 386.05 533.54C385.29 533.54 384.894 533.968 384.722 534.287C384.435 534.766 384.428 535.302 384.428 535.915ZM390.68 537.262C390.578 537.46 390.354 537.721 389.85 537.721C389.339 537.721 389.122 537.46 389.02 537.255C388.816 536.923 388.797 536.528 388.797 535.915C388.797 535.302 388.816 534.913 389.02 534.574C389.122 534.376 389.339 534.115 389.85 534.115C390.354 534.115 390.578 534.383 390.68 534.581C390.884 534.913 390.903 535.302 390.903 535.915C390.903 536.534 390.884 536.93 390.68 537.262ZM388.229 535.915C388.229 536.528 388.235 537.07 388.522 537.555C388.695 537.868 389.09 538.302 389.85 538.302C390.616 538.302 391.005 537.874 391.184 537.555C391.471 537.077 391.471 536.54 391.471 535.915C391.471 535.308 391.471 534.766 391.184 534.287C391.005 533.974 390.616 533.54 389.85 533.54C389.09 533.54 388.695 533.968 388.522 534.287C388.235 534.766 388.229 535.302 388.229 535.915Z" fill="#818181"/>
<path d="M398.533 538.132C397.035 538.132 395.82 536.917 395.82 535.419C395.82 533.921 397.035 532.706 398.533 532.706C400.032 532.706 401.246 533.921 401.246 535.419C401.246 536.917 400.032 538.132 398.533 538.132ZM398.533 537.589C399.109 537.589 399.661 537.361 400.068 536.954C400.475 536.547 400.704 535.995 400.704 535.419C400.704 534.843 400.475 534.291 400.068 533.884C399.661 533.477 399.109 533.249 398.533 533.249C397.958 533.249 397.406 533.477 396.999 533.884C396.592 534.291 396.363 534.843 396.363 535.419C396.363 535.995 396.592 536.547 396.999 536.954C397.406 537.361 397.958 537.589 398.533 537.589ZM398.262 536.233H398.805V536.775H398.262V536.233ZM398.805 535.787V535.962H398.262V535.555C398.262 535.483 398.291 535.414 398.341 535.363C398.392 535.312 398.461 535.283 398.533 535.283C398.61 535.283 398.686 535.261 398.751 535.22C398.816 535.179 398.868 535.12 398.901 535.05C398.934 534.981 398.947 534.903 398.937 534.827C398.928 534.75 398.897 534.678 398.848 534.618C398.799 534.559 398.734 534.514 398.661 534.49C398.588 534.466 398.509 534.463 398.435 534.482C398.36 534.5 398.292 534.54 398.239 534.596C398.186 534.651 398.149 534.721 398.134 534.797L397.602 534.69C397.635 534.525 397.711 534.372 397.823 534.246C397.934 534.12 398.077 534.026 398.237 533.974C398.397 533.921 398.568 533.912 398.732 533.948C398.897 533.983 399.049 534.061 399.173 534.175C399.297 534.288 399.389 534.432 399.44 534.593C399.49 534.753 399.497 534.924 399.459 535.088C399.422 535.252 399.341 535.403 399.226 535.526C399.111 535.649 398.966 535.739 398.805 535.787Z" fill="#818181"/>
<rect x="131.126" y="492.73" width="129.104" height="63.3854" rx="4.54818" fill="white" stroke="#FF5852" stroke-width="0.478755"/>
<path d="M152.111 526.336C152.54 526.06 152.9 525.624 152.9 525.111C152.9 524.23 152.111 523.586 151.153 523.586C150.196 523.586 149.407 524.23 149.407 525.134H150.073C150.073 524.689 150.487 524.253 151.153 524.253C151.82 524.253 152.241 524.697 152.241 525.126C152.241 525.578 151.858 526.007 151.123 526.007H150.709V526.65H151.123C151.981 526.65 152.318 527.133 152.318 527.623C152.318 528.113 151.85 528.604 151.107 528.604C150.364 528.604 149.912 528.106 149.912 527.615H149.238C149.238 528.581 150.066 529.27 151.107 529.27C152.149 529.27 152.976 528.581 152.976 527.646C152.976 527.087 152.578 526.612 152.111 526.336ZM157.012 523.632H156.369L153.642 527.24V527.876H156.369V529.224H157.012V527.876H157.801V527.225H157.012V523.632ZM154.454 527.225L156.369 524.651V527.225H154.454ZM158.525 528.55V529.247H159.245V528.55H158.525ZM162.298 525.67C161.992 525.67 161.708 525.739 161.455 525.869V524.291H163.7V523.64H160.781V526.451L161.264 526.727C161.509 526.489 161.923 526.344 162.283 526.344C162.919 526.344 163.439 526.819 163.439 527.485C163.439 528.113 162.934 528.604 162.283 528.604C161.808 528.604 161.318 528.358 161.095 528.044L161.011 527.914L160.414 528.236C160.452 528.305 160.513 528.374 160.536 528.412C160.896 528.956 161.624 529.285 162.283 529.285C163.286 529.285 164.098 528.512 164.098 527.485C164.098 526.489 163.309 525.67 162.298 525.67ZM165.469 524.85C165.439 524.911 165.423 524.965 165.408 525.019L164.772 524.85C164.795 524.766 164.826 524.674 164.872 524.59C165.286 523.716 166.35 523.349 167.247 523.739C168.15 524.076 168.556 525.111 168.15 525.991C168.058 526.16 167.951 526.328 167.806 526.466L165.791 528.481H168.434V529.147H164.811V528.496L167.338 526.014C167.415 525.93 167.492 525.838 167.538 525.739C167.775 525.225 167.553 524.59 166.971 524.337C166.396 524.092 165.73 524.337 165.469 524.85ZM170.679 529.209H171.391L174.892 523.632H174.172L170.679 529.209ZM169.399 524.98C169.399 525.8 170.051 526.497 170.878 526.497C171.705 526.497 172.349 525.8 172.349 524.98C172.349 524.153 171.705 523.464 170.878 523.464C170.051 523.464 169.399 524.153 169.399 524.98ZM170.066 524.98C170.066 524.498 170.441 524.115 170.878 524.115C171.33 524.115 171.697 524.498 171.697 524.98C171.697 525.463 171.33 525.846 170.878 525.846C170.441 525.846 170.066 525.463 170.066 524.98ZM173.153 527.83C173.153 528.649 173.804 529.347 174.631 529.347C175.459 529.347 176.102 528.649 176.102 527.83C176.102 526.995 175.459 526.313 174.631 526.313C173.804 526.313 173.153 526.995 173.153 527.83ZM173.812 527.83C173.812 527.347 174.195 526.964 174.631 526.964C175.083 526.964 175.451 527.347 175.451 527.83C175.451 528.305 175.083 528.695 174.631 528.695C174.195 528.695 173.812 528.305 173.812 527.83Z" fill="#4492F7"/>
<path d="M145.656 501.352V503.391H145.007V501.461H144.507V506.166H145.007V503.828H145.656V506.425H146.162V501.352H145.656ZM142.089 505.126H142.422C142.956 505.126 143.536 505.103 144.22 504.977L144.163 504.517C143.588 504.627 143.077 504.661 142.617 504.673V501.955H142.089V505.126ZM148.199 505.379V505.816H152.789V505.379H150.738V504.282H152.364V503.857H151.611V502.254H152.375V501.817H148.589V502.254H149.353V503.857H148.601V504.282H150.215V505.379H148.199ZM149.882 503.857V502.254H151.083V503.857H149.882ZM153.8 501.777V504.483H157.299V504.058H154.329V503.322H157.138V502.897H154.329V502.208H157.247V501.777H153.8ZM153.22 505.799H157.81V505.356H153.22V505.799ZM158.655 501.484V501.892H159.396V502.771H158.684V503.185H160.263V503.621H158.241V504.041H162.826V503.621H160.786V503.185H162.366V502.771H161.654V501.892H162.395V501.484H158.655ZM158.787 504.787H161.723V505.172H158.804V506.373H162.389V505.977H159.321V505.54H162.246V504.403H158.787V504.787ZM159.925 502.771V501.892H161.131V502.771H159.925ZM166.905 501.346V506.436H167.433V501.346H166.905ZM163.544 502.248H165.365V503.236H163.556V505.218H163.981C164.865 505.218 165.629 505.184 166.514 505.034L166.463 504.604C165.624 504.747 164.906 504.782 164.09 504.782V503.667H165.9V501.812H163.544V502.248ZM170.57 501.674C169.502 501.674 168.72 502.202 168.72 503.018C168.72 503.765 169.375 504.27 170.306 504.351V505.362H168.284V505.799H172.874V505.362H170.829V504.351C171.771 504.276 172.432 503.765 172.432 503.018C172.432 502.202 171.65 501.674 170.57 501.674ZM169.232 503.018C169.232 502.455 169.795 502.093 170.57 502.093C171.352 502.093 171.909 502.455 171.909 503.018C171.909 503.581 171.352 503.937 170.57 503.937C169.795 503.937 169.232 503.581 169.232 503.018Z" fill="#3B3B3B"/>
<path d="M142.031 538.191V538.69H144.708V538.191H142.031ZM150.692 536.41H150.221L149.779 538.139H148.946L148.498 536.415H147.952L147.504 538.139H146.671L146.228 536.41H145.752L146.2 538.139H145.533V538.627H146.332L146.832 540.558H147.343L147.831 538.627H148.613L149.107 540.558H149.618L150.118 538.627H150.911V538.139H150.244L150.692 536.41ZM146.791 538.627H147.377L147.084 539.771L146.791 538.627ZM147.958 538.139L148.222 537.099L148.486 538.139H147.958ZM149.072 538.627H149.658L149.365 539.771L149.072 538.627ZM152.846 536.387H152.352L151.611 536.714L151.812 537.162L152.352 536.927V540.581H152.846V536.387ZM154.292 540.081H153.758L153.568 541.264H153.942L154.292 540.081ZM157.464 539.69C157.373 539.868 157.171 540.104 156.718 540.104C156.258 540.104 156.063 539.868 155.971 539.684C155.787 539.386 155.77 539.029 155.77 538.478C155.77 537.926 155.787 537.576 155.971 537.271C156.063 537.093 156.258 536.858 156.718 536.858C157.171 536.858 157.373 537.099 157.464 537.277C157.648 537.576 157.666 537.926 157.666 538.478C157.666 539.035 157.648 539.391 157.464 539.69ZM155.258 538.478C155.258 539.029 155.264 539.518 155.523 539.954C155.678 540.236 156.034 540.627 156.718 540.627C157.407 540.627 157.757 540.242 157.918 539.954C158.177 539.524 158.177 539.041 158.177 538.478C158.177 537.932 158.177 537.444 157.918 537.013C157.757 536.731 157.407 536.341 156.718 536.341C156.034 536.341 155.678 536.726 155.523 537.013C155.264 537.444 155.258 537.926 155.258 538.478ZM160.919 538.415C161.241 538.208 161.511 537.88 161.511 537.495C161.511 536.835 160.919 536.352 160.201 536.352C159.483 536.352 158.891 536.835 158.891 537.513H159.391C159.391 537.18 159.701 536.852 160.201 536.852C160.701 536.852 161.017 537.185 161.017 537.507C161.017 537.846 160.73 538.168 160.178 538.168H159.868V538.65H160.178C160.822 538.65 161.074 539.012 161.074 539.38C161.074 539.748 160.724 540.115 160.167 540.115C159.609 540.115 159.27 539.742 159.27 539.374H158.765C158.765 540.098 159.385 540.615 160.167 540.615C160.948 540.615 161.568 540.098 161.568 539.397C161.568 538.978 161.27 538.622 160.919 538.415ZM163.567 537.915C163.337 537.915 163.124 537.967 162.935 538.064V536.881H164.618V536.392H162.429V538.501L162.791 538.708C162.975 538.53 163.285 538.42 163.555 538.42C164.032 538.42 164.423 538.777 164.423 539.276C164.423 539.748 164.044 540.115 163.555 540.115C163.199 540.115 162.831 539.931 162.665 539.696L162.602 539.598L162.154 539.839C162.182 539.891 162.228 539.943 162.245 539.972C162.515 540.38 163.061 540.627 163.555 540.627C164.308 540.627 164.917 540.046 164.917 539.276C164.917 538.53 164.325 537.915 163.567 537.915ZM166.164 540.081H165.629L165.44 541.264H165.813L166.164 540.081ZM168.509 540.115C167.975 540.115 167.63 539.736 167.63 539.311C167.63 538.892 167.975 538.518 168.509 538.518C169.037 538.518 169.382 538.892 169.382 539.311C169.382 539.736 169.037 540.115 168.509 540.115ZM167.13 539.311C167.13 540.064 167.733 540.627 168.509 540.627C169.279 540.627 169.876 540.064 169.876 539.311C169.876 538.581 169.313 538.036 168.578 538.03C168.474 538.024 168.423 538.03 168.313 538.047L169.221 536.634L168.785 536.358L167.268 538.748C167.182 538.926 167.13 539.116 167.13 539.311ZM172.674 539.69C172.582 539.868 172.381 540.104 171.927 540.104C171.468 540.104 171.272 539.868 171.181 539.684C170.997 539.386 170.979 539.029 170.979 538.478C170.979 537.926 170.997 537.576 171.181 537.271C171.272 537.093 171.468 536.858 171.927 536.858C172.381 536.858 172.582 537.099 172.674 537.277C172.858 537.576 172.875 537.926 172.875 538.478C172.875 539.035 172.858 539.391 172.674 539.69ZM170.468 538.478C170.468 539.029 170.474 539.518 170.732 539.954C170.888 540.236 171.244 540.627 171.927 540.627C172.617 540.627 172.967 540.242 173.128 539.954C173.387 539.524 173.387 539.041 173.387 538.478C173.387 537.932 173.387 537.444 173.128 537.013C172.967 536.731 172.617 536.341 171.927 536.341C171.244 536.341 170.888 536.726 170.732 537.013C170.474 537.444 170.468 537.926 170.468 538.478ZM176.181 539.69C176.089 539.868 175.888 540.104 175.434 540.104C174.974 540.104 174.779 539.868 174.687 539.684C174.503 539.386 174.486 539.029 174.486 538.478C174.486 537.926 174.503 537.576 174.687 537.271C174.779 537.093 174.974 536.858 175.434 536.858C175.888 536.858 176.089 537.099 176.181 537.277C176.365 537.576 176.382 537.926 176.382 538.478C176.382 539.035 176.365 539.391 176.181 539.69ZM173.975 538.478C173.975 539.029 173.98 539.518 174.239 539.954C174.394 540.236 174.75 540.627 175.434 540.627C176.123 540.627 176.474 540.242 176.635 539.954C176.893 539.524 176.893 539.041 176.893 538.478C176.893 537.932 176.893 537.444 176.635 537.013C176.474 536.731 176.123 536.341 175.434 536.341C174.75 536.341 174.394 536.726 174.239 537.013C173.98 537.444 173.975 537.926 173.975 538.478Z" fill="#818181"/>
<rect x="226.957" y="499.192" width="26.4911" height="10.5326" rx="5.26631" fill="#FF5852" fill-opacity="0.13"/>
<rect x="232.09" y="502.536" width="3.1917" height="3.1917" rx="1.59585" fill="#FF5852"/>
<path d="M239.27 501.536C238.517 501.536 237.971 501.961 237.971 502.587C237.971 503.208 238.517 503.638 239.27 503.638C240.028 503.638 240.568 503.208 240.568 502.587C240.568 501.961 240.028 501.536 239.27 501.536ZM237.61 504.035L237.678 504.477C238.081 504.477 238.54 504.471 239.029 504.448V506.212H239.557V504.42C240.022 504.385 240.499 504.334 240.959 504.247L240.924 503.857C239.816 504.018 238.54 504.035 237.61 504.035ZM238.477 502.587C238.477 502.214 238.81 501.967 239.27 501.967C239.735 501.967 240.063 502.214 240.063 502.587C240.063 502.96 239.735 503.202 239.27 503.202C238.81 503.202 238.477 502.96 238.477 502.587ZM241.269 506.379H241.792V501.3H241.269V506.379ZM246.296 501.306V502.823H245.503V503.265H246.296V504.374H246.825V501.306H246.296ZM242.642 502.237H245.584V501.811H244.377V501.26H243.855V501.811H242.642V502.237ZM242.93 503.38C242.93 503.92 243.424 504.282 244.113 504.282C244.802 504.282 245.297 503.92 245.297 503.38C245.297 502.846 244.802 502.472 244.113 502.472C243.424 502.472 242.93 502.846 242.93 503.38ZM243.441 503.38C243.441 503.075 243.717 502.874 244.113 502.874C244.509 502.874 244.791 503.075 244.791 503.38C244.791 503.684 244.509 503.885 244.113 503.885C243.717 503.885 243.441 503.684 243.441 503.38ZM243.516 506.304H246.825V504.627H243.516V506.304ZM244.033 505.885V505.052H246.308V505.885H244.033Z" fill="black"/>
<path d="M145.158 522.777L144.394 522.777L144.394 528.122L142.608 526.459L142.066 526.964L144.776 529.487L147.485 526.964L146.944 526.459L145.158 528.122V522.777Z" fill="#4492F7"/>
<path d="M182.752 541.004C181.254 541.004 180.039 539.789 180.039 538.291C180.039 536.793 181.254 535.578 182.752 535.578C184.25 535.578 185.465 536.793 185.465 538.291C185.465 539.789 184.25 541.004 182.752 541.004ZM182.752 540.461C183.328 540.461 183.88 540.233 184.287 539.826C184.694 539.419 184.922 538.867 184.922 538.291C184.922 537.715 184.694 537.163 184.287 536.756C183.88 536.349 183.328 536.121 182.752 536.121C182.176 536.121 181.624 536.349 181.217 536.756C180.81 537.163 180.582 537.715 180.582 538.291C180.582 538.867 180.81 539.419 181.217 539.826C181.624 540.233 182.176 540.461 182.752 540.461ZM182.481 539.105H183.023V539.648H182.481V539.105ZM183.023 538.659V538.834H182.481V538.427C182.481 538.355 182.509 538.286 182.56 538.235C182.611 538.184 182.68 538.155 182.752 538.155C182.829 538.155 182.905 538.134 182.97 538.092C183.035 538.051 183.087 537.992 183.12 537.923C183.153 537.853 183.165 537.775 183.156 537.699C183.146 537.622 183.116 537.55 183.067 537.49C183.018 537.431 182.953 537.386 182.88 537.362C182.807 537.338 182.728 537.335 182.653 537.354C182.579 537.372 182.511 537.412 182.457 537.468C182.404 537.523 182.368 537.593 182.353 537.669L181.821 537.562C181.854 537.397 181.93 537.244 182.041 537.118C182.153 536.992 182.296 536.898 182.456 536.846C182.616 536.794 182.787 536.784 182.951 536.82C183.116 536.855 183.268 536.933 183.392 537.047C183.516 537.16 183.608 537.304 183.658 537.465C183.709 537.625 183.715 537.796 183.678 537.96C183.64 538.124 183.56 538.275 183.445 538.398C183.33 538.521 183.184 538.611 183.023 538.659Z" fill="#818181"/>
<path d="M179.041 526.418C179.041 525.562 179.299 524.758 179.742 524.063H180.288C179.793 524.746 179.5 525.556 179.5 526.418C179.5 527.28 179.793 528.09 180.288 528.774H179.742C179.299 528.079 179.041 527.274 179.041 526.418ZM182.297 526.562V527.464C181.797 527.481 181.32 527.481 180.912 527.481L180.975 527.923C181.877 527.918 183.107 527.918 184.233 527.699L184.193 527.309C183.756 527.378 183.285 527.418 182.825 527.441V526.562H182.297ZM181.056 526.321L181.297 526.734C181.9 526.55 182.348 526.16 182.567 525.648C182.797 526.131 183.245 526.504 183.842 526.677L184.083 526.263C183.337 526.062 182.854 525.539 182.825 524.936H183.963V524.511H182.825V523.908H182.297V524.511H181.182V524.936H182.297C182.274 525.574 181.797 526.102 181.056 526.321ZM184.509 528.946H185.037V523.856H184.509V528.946ZM189.714 523.862V525.878H189.059V523.971H188.565V528.676H189.059V526.315H189.714V528.935H190.219V523.862H189.714ZM186.077 527.711H186.416C187.14 527.711 187.663 527.688 188.272 527.567L188.22 527.125C187.686 527.24 187.215 527.263 186.6 527.268V524.902H187.956V524.476H186.077V527.711ZM195.657 523.862V526.78H196.191V525.539H196.915V525.097H196.191V523.862H195.657ZM192.474 526.447H192.876C193.623 526.447 194.387 526.389 195.238 526.223L195.174 525.792C194.399 525.941 193.686 525.993 192.997 525.999V524.155H192.474V526.447ZM192.894 527.475H195.657V528.94H196.191V527.044H192.894V527.475ZM197.679 524.046V524.471H198.42V525.499H197.708V525.924H199.294V526.487H197.266V526.918H201.85V526.487H199.816V525.924H201.391V525.499H200.678V524.471H201.419V524.046H197.679ZM197.777 527.803H200.753V528.94H201.287V527.383H197.777V527.803ZM198.949 525.499V524.471H200.155V525.499H198.949ZM203.695 526.418C203.695 527.274 203.436 528.079 202.999 528.774H202.448C202.948 528.09 203.235 527.28 203.235 526.418C203.235 525.556 202.948 524.746 202.448 524.063H202.999C203.436 524.758 203.695 525.562 203.695 526.418Z" fill="#818181"/>
<circle cx="188.354" cy="278.015" r="50.1741" fill="#4FEDAE"/>
<path d="M188.354 227.841C196.199 227.841 203.936 229.681 210.941 233.213C217.947 236.745 224.027 241.871 228.692 248.178C233.358 254.486 236.479 261.8 237.806 269.533C239.132 277.265 238.627 285.201 236.33 292.703C234.033 300.205 230.009 307.064 224.581 312.729C219.153 318.393 212.472 322.706 205.075 325.321C197.678 327.936 189.771 328.779 181.989 327.784C174.206 326.789 166.766 323.982 160.265 319.59L188.354 278.015L188.354 227.841Z" fill="#6792F8"/>
<path d="M160.365 319.657C151.968 314.014 145.473 305.963 141.733 296.562C137.993 287.161 137.183 276.848 139.409 266.979L188.354 278.015L160.365 319.657Z" fill="#FFE073"/>
<ellipse cx="188.353" cy="278.211" rx="29.7908" ry="29.5949" fill="white"/>
<path d="M174.5 277.015H175.258V277.57H174.356L173.788 279.765H173.207L172.645 277.57H171.757L171.202 279.765H170.62L170.052 277.57H169.144V277.015H169.902L169.393 275.049H169.935L170.438 277.015H171.385L171.894 275.056H172.515L173.024 277.015H173.971L174.474 275.049H175.01L174.5 277.015ZM170.908 278.87L171.241 277.57H170.575L170.908 278.87ZM172.501 277.015L172.201 275.833L171.901 277.015H172.501ZM173.501 278.87L173.834 277.57H173.168L173.501 278.87ZM178.575 277.328C178.793 277.455 178.971 277.616 179.11 277.812C179.25 278.008 179.319 278.219 179.319 278.445C179.319 278.707 179.248 278.944 179.104 279.157C178.965 279.366 178.771 279.532 178.523 279.654C178.279 279.771 178.011 279.83 177.719 279.83C177.428 279.83 177.16 279.769 176.916 279.647C176.676 279.525 176.485 279.358 176.341 279.144C176.202 278.931 176.132 278.689 176.132 278.419H176.7C176.7 278.563 176.742 278.7 176.825 278.831C176.912 278.957 177.031 279.061 177.184 279.144C177.34 279.223 177.519 279.262 177.719 279.262C177.924 279.262 178.105 279.223 178.261 279.144C178.418 279.066 178.538 278.961 178.621 278.831C178.708 278.7 178.751 278.565 178.751 278.426C178.751 278.195 178.666 277.999 178.497 277.838C178.327 277.677 178.072 277.596 177.732 277.596H177.386V277.048H177.739C177.939 277.048 178.111 277.013 178.255 276.943C178.399 276.873 178.507 276.782 178.581 276.669C178.655 276.551 178.692 276.427 178.692 276.297C178.692 276.17 178.653 276.05 178.575 275.937C178.497 275.824 178.385 275.733 178.242 275.663C178.102 275.589 177.941 275.552 177.758 275.552C177.576 275.552 177.415 275.589 177.275 275.663C177.136 275.733 177.027 275.826 176.949 275.944C176.875 276.057 176.838 276.177 176.838 276.303H176.269C176.269 276.05 176.335 275.824 176.465 275.624C176.6 275.423 176.781 275.267 177.007 275.154C177.238 275.04 177.489 274.984 177.758 274.984C178.028 274.984 178.277 275.04 178.503 275.154C178.734 275.267 178.915 275.423 179.045 275.624C179.18 275.82 179.248 276.04 179.248 276.283C179.248 276.492 179.184 276.688 179.058 276.871C178.936 277.05 178.775 277.202 178.575 277.328ZM180.375 280.568H179.95L180.166 279.223H180.773L180.375 280.568ZM184.36 277.328C184.578 277.455 184.756 277.616 184.896 277.812C185.035 278.008 185.105 278.219 185.105 278.445C185.105 278.707 185.033 278.944 184.889 279.157C184.75 279.366 184.556 279.532 184.308 279.654C184.064 279.771 183.796 279.83 183.504 279.83C183.213 279.83 182.945 279.769 182.701 279.647C182.462 279.525 182.27 279.358 182.126 279.144C181.987 278.931 181.917 278.689 181.917 278.419H182.485C182.485 278.563 182.527 278.7 182.61 278.831C182.697 278.957 182.816 279.061 182.969 279.144C183.126 279.223 183.304 279.262 183.504 279.262C183.709 279.262 183.89 279.223 184.046 279.144C184.203 279.066 184.323 278.961 184.406 278.831C184.493 278.7 184.536 278.565 184.536 278.426C184.536 278.195 184.451 277.999 184.282 277.838C184.112 277.677 183.857 277.596 183.517 277.596H183.171V277.048H183.524C183.724 277.048 183.896 277.013 184.04 276.943C184.184 276.873 184.292 276.782 184.367 276.669C184.441 276.551 184.478 276.427 184.478 276.297C184.478 276.17 184.438 276.05 184.36 275.937C184.282 275.824 184.171 275.733 184.027 275.663C183.888 275.589 183.726 275.552 183.544 275.552C183.361 275.552 183.2 275.589 183.06 275.663C182.921 275.733 182.812 275.826 182.734 275.944C182.66 276.057 182.623 276.177 182.623 276.303H182.054C182.054 276.05 182.12 275.824 182.25 275.624C182.385 275.423 182.566 275.267 182.792 275.154C183.023 275.04 183.274 274.984 183.544 274.984C183.814 274.984 184.062 275.04 184.288 275.154C184.519 275.267 184.7 275.423 184.83 275.624C184.965 275.82 185.033 276.04 185.033 276.283C185.033 276.492 184.97 276.688 184.843 276.871C184.721 277.05 184.56 277.202 184.36 277.328ZM188.72 278.086H189.393V278.641H188.72V279.791H188.171V278.641H185.853V278.099L188.171 275.023H188.72V278.086ZM188.171 278.086V275.892L186.545 278.086H188.171ZM191.758 279.288C191.95 279.288 192.124 279.249 192.281 279.17C192.438 279.088 192.559 278.983 192.647 278.857C192.738 278.726 192.784 278.589 192.784 278.445C192.784 278.302 192.738 278.164 192.647 278.034C192.559 277.903 192.438 277.799 192.281 277.72C192.128 277.642 191.954 277.603 191.758 277.603C191.562 277.603 191.386 277.642 191.229 277.72C191.073 277.799 190.948 277.903 190.857 278.034C190.77 278.164 190.726 278.302 190.726 278.445C190.726 278.589 190.77 278.726 190.857 278.857C190.948 278.983 191.073 279.088 191.229 279.17C191.386 279.249 191.562 279.288 191.758 279.288ZM190.152 278.445C190.152 278.206 190.215 277.986 190.341 277.786C190.472 277.581 190.648 277.418 190.87 277.296C190.687 277.174 190.543 277.026 190.439 276.852C190.334 276.678 190.282 276.488 190.282 276.283C190.282 276.04 190.35 275.82 190.485 275.624C190.624 275.423 190.807 275.269 191.033 275.16C191.26 275.047 191.501 274.99 191.758 274.99C192.015 274.99 192.257 275.047 192.483 275.16C192.71 275.269 192.89 275.423 193.025 275.624C193.165 275.82 193.234 276.04 193.234 276.283C193.234 276.488 193.182 276.678 193.078 276.852C192.973 277.026 192.829 277.174 192.647 277.296C192.864 277.422 193.038 277.585 193.169 277.786C193.3 277.986 193.365 278.206 193.365 278.445C193.365 278.707 193.291 278.946 193.143 279.164C192.995 279.377 192.797 279.545 192.549 279.667C192.305 279.789 192.041 279.85 191.758 279.85C191.475 279.85 191.21 279.789 190.961 279.667C190.718 279.545 190.522 279.377 190.374 279.164C190.226 278.946 190.152 278.707 190.152 278.445ZM190.864 276.277C190.864 276.399 190.901 276.516 190.975 276.63C191.053 276.738 191.16 276.828 191.295 276.897C191.434 276.967 191.588 277.002 191.758 277.002C191.928 277.002 192.081 276.967 192.215 276.897C192.355 276.828 192.462 276.738 192.536 276.63C192.614 276.516 192.653 276.399 192.653 276.277C192.653 276.155 192.614 276.04 192.536 275.931C192.462 275.818 192.355 275.726 192.215 275.656C192.081 275.587 191.928 275.552 191.758 275.552C191.588 275.552 191.434 275.587 191.295 275.656C191.16 275.726 191.053 275.818 190.975 275.931C190.901 276.04 190.864 276.155 190.864 276.277ZM194.426 280.568H194.001L194.217 279.223H194.824L194.426 280.568ZM197.523 277.381C197.719 277.381 197.891 277.339 198.039 277.257C198.191 277.174 198.309 277.063 198.392 276.924C198.474 276.784 198.516 276.634 198.516 276.473C198.516 276.307 198.474 276.155 198.392 276.016C198.309 275.876 198.191 275.765 198.039 275.683C197.891 275.595 197.719 275.552 197.523 275.552C197.327 275.552 197.155 275.595 197.007 275.683C196.859 275.765 196.744 275.876 196.661 276.016C196.578 276.155 196.537 276.307 196.537 276.473C196.537 276.634 196.578 276.784 196.661 276.924C196.744 277.063 196.859 277.174 197.007 277.257C197.155 277.339 197.327 277.381 197.523 277.381ZM195.969 276.473C195.969 276.194 196.036 275.942 196.171 275.715C196.31 275.484 196.498 275.304 196.733 275.173C196.972 275.042 197.238 274.977 197.53 274.977C197.817 274.977 198.078 275.042 198.313 275.173C198.553 275.304 198.74 275.484 198.875 275.715C199.014 275.942 199.084 276.194 199.084 276.473C199.084 276.704 199.036 276.915 198.94 277.106L197.216 279.81L196.72 279.503L197.732 277.91C197.662 277.918 197.612 277.923 197.582 277.923L197.425 277.916C197.146 277.908 196.896 277.84 196.674 277.714C196.452 277.583 196.278 277.409 196.151 277.191C196.03 276.974 195.969 276.734 195.969 276.473ZM201.212 279.791H200.644V275.637L200.03 275.905L199.808 275.395L200.644 275.023H201.212V279.791ZM203.755 279.262C203.951 279.262 204.123 279.22 204.271 279.138C204.423 279.051 204.541 278.937 204.623 278.798C204.706 278.659 204.747 278.508 204.747 278.347C204.747 278.186 204.706 278.038 204.623 277.903C204.541 277.764 204.423 277.653 204.271 277.57C204.123 277.487 203.951 277.446 203.755 277.446C203.559 277.446 203.385 277.487 203.232 277.57C203.084 277.653 202.969 277.764 202.886 277.903C202.803 278.038 202.762 278.186 202.762 278.347C202.762 278.508 202.803 278.661 202.886 278.805C202.969 278.944 203.084 279.055 203.232 279.138C203.385 279.22 203.559 279.262 203.755 279.262ZM202.194 278.347C202.194 278.143 202.244 277.929 202.344 277.707L204.068 274.99L204.565 275.304L203.539 276.91C203.648 276.893 203.748 276.887 203.84 276.891C204.114 276.891 204.364 276.956 204.591 277.087C204.817 277.213 204.994 277.387 205.12 277.609C205.25 277.831 205.316 278.077 205.316 278.347C205.316 278.626 205.246 278.881 205.107 279.112C204.972 279.338 204.785 279.516 204.545 279.647C204.306 279.778 204.042 279.843 203.755 279.843C203.463 279.843 203.197 279.778 202.958 279.647C202.723 279.516 202.536 279.338 202.396 279.112C202.261 278.881 202.194 278.626 202.194 278.347Z" fill="#8C8C8C"/>
<path d="M135.285 213.53V214.42H137.893V214.963H132.03V214.42H134.616V213.53H135.285ZM132.338 213.325C132.72 213.29 133.071 213.212 133.389 213.09C133.712 212.967 133.972 212.818 134.168 212.641C134.369 212.46 134.484 212.264 134.513 212.054H132.566V211.51H137.364V212.054H135.417C135.446 212.259 135.559 212.453 135.755 212.634C135.951 212.815 136.208 212.967 136.527 213.09C136.85 213.212 137.202 213.29 137.585 213.325L137.342 213.861C136.779 213.797 136.282 213.653 135.851 213.428C135.424 213.202 135.126 212.918 134.954 212.575C134.783 212.918 134.484 213.202 134.058 213.428C133.631 213.653 133.137 213.797 132.573 213.861L132.338 213.325ZM132.728 216.58C132.728 216.217 132.924 215.938 133.316 215.742C133.707 215.546 134.254 215.448 134.954 215.448C135.655 215.448 136.201 215.546 136.593 215.742C136.985 215.938 137.18 216.217 137.18 216.58C137.18 216.932 136.985 217.204 136.593 217.395C136.201 217.591 135.655 217.689 134.954 217.689C134.254 217.689 133.707 217.591 133.316 217.395C132.924 217.204 132.728 216.932 132.728 216.58ZM133.404 216.58C133.404 216.771 133.538 216.92 133.808 217.028C134.082 217.131 134.464 217.182 134.954 217.182C135.444 217.182 135.821 217.131 136.086 217.028C136.355 216.92 136.49 216.771 136.49 216.58C136.49 216.379 136.355 216.227 136.086 216.124C135.821 216.016 135.444 215.963 134.954 215.963C134.459 215.963 134.077 216.016 133.808 216.124C133.538 216.227 133.404 216.379 133.404 216.58ZM143.558 211.488V213.714H141.714V214.471H144.315V215.015H138.452V214.471H141.046V213.714H139.194V211.488H143.558ZM139.106 215.632H143.595V217.711H142.912V216.176H139.106V215.632ZM142.89 213.17V212.017H139.855V213.17H142.89ZM150.223 211.223V214.589H149.554V213.817H148.144V214.353H145.175V211.517H145.851V212.399H147.475V211.517H148.144V212.112H149.554V211.223H150.223ZM147.475 213.81V212.921H145.851V213.81H147.475ZM146.027 214.89H150.223V216.477H146.703V217.079H150.458V217.616H146.042V215.97H149.562V215.426H146.027V214.89ZM149.554 213.295V212.634H148.144V213.295H149.554ZM158.309 211.209V217.719H157.633V211.209H158.309ZM153.349 211.752H154.018V213.442H155.767V211.752H156.436V216.161H153.349V211.752ZM155.767 215.61V213.971H154.018V215.61H155.767ZM165.275 214.236V214.78H162.667V215.404C163.269 215.438 163.734 215.556 164.063 215.757C164.396 215.953 164.562 216.217 164.562 216.55C164.562 216.913 164.366 217.192 163.974 217.388C163.583 217.589 163.036 217.689 162.336 217.689C161.635 217.689 161.089 217.589 160.697 217.388C160.306 217.192 160.11 216.913 160.11 216.55C160.11 216.212 160.274 215.945 160.602 215.749C160.935 215.554 161.4 215.438 161.998 215.404V214.78H159.412V214.236H165.275ZM159.72 213.339C160.102 213.305 160.452 213.227 160.771 213.104C161.094 212.977 161.354 212.823 161.55 212.641C161.751 212.46 161.866 212.264 161.895 212.054H159.948V211.51H164.746V212.054H162.799C162.828 212.264 162.941 212.463 163.137 212.649C163.333 212.83 163.59 212.982 163.908 213.104C164.227 213.227 164.579 213.305 164.966 213.339L164.724 213.876C164.161 213.812 163.666 213.668 163.24 213.442C162.814 213.212 162.515 212.925 162.343 212.583C162.167 212.925 161.866 213.212 161.44 213.442C161.013 213.668 160.521 213.812 159.963 213.876L159.72 213.339ZM160.786 216.55C160.786 216.751 160.92 216.906 161.19 217.013C161.459 217.116 161.841 217.168 162.336 217.168C162.826 217.168 163.203 217.116 163.468 217.013C163.737 216.906 163.872 216.751 163.872 216.55C163.872 216.345 163.737 216.19 163.468 216.087C163.203 215.98 162.826 215.926 162.336 215.926C161.841 215.926 161.459 215.98 161.19 216.087C160.92 216.19 160.786 216.345 160.786 216.55Z" fill="#818181"/>
<rect x="256.361" y="229.626" width="5.3519" height="13.8257" fill="#6792F8"/>
<rect x="256.361" y="250.14" width="5.3519" height="13.8257" fill="#6FC183"/>
<rect x="363.848" y="229.18" width="5.3519" height="13.8257" fill="#F8D25C"/>
<path d="M268.937 233.731C268.937 234.345 268.861 234.907 268.709 235.416C268.556 235.921 268.289 236.394 267.905 236.834C267.522 237.269 266.998 237.654 266.331 237.99L266.005 237.519C266.514 237.271 266.93 236.993 267.252 236.683C267.579 236.374 267.829 236.03 268.003 235.651L266.122 235.834L266.037 235.312L268.186 235.168C268.273 234.868 268.326 234.552 268.343 234.221H266.331V233.731H268.937ZM269.819 233.137H270.42V235.449H271.315V235.952H270.42V238.911H269.819V233.137ZM274.646 233.731C274.646 234.345 274.57 234.907 274.417 235.416C274.265 235.921 273.997 236.394 273.614 236.834C273.231 237.269 272.706 237.654 272.04 237.99L271.713 237.519C272.223 237.271 272.639 236.993 272.961 236.683C273.287 236.374 273.538 236.03 273.712 235.651L271.831 235.834L271.746 235.312L273.895 235.168C273.982 234.868 274.034 234.552 274.052 234.221H272.04V233.731H274.646ZM275.528 233.137H276.129V235.449H277.023V235.952H276.129V238.911H275.528V233.137ZM279.989 233.509C280.398 233.509 280.762 233.572 281.079 233.699C281.402 233.825 281.652 234.003 281.831 234.234C282.013 234.465 282.105 234.733 282.105 235.038C282.105 235.316 282.026 235.567 281.87 235.789C281.717 236.006 281.504 236.183 281.23 236.318C280.955 236.448 280.64 236.527 280.283 236.553V237.702H282.608V238.199H277.389V237.702H279.688V236.553C279.336 236.522 279.022 236.442 278.748 236.311C278.478 236.176 278.267 236 278.114 235.782C277.962 235.564 277.886 235.316 277.886 235.038C277.886 234.733 277.975 234.465 278.153 234.234C278.336 234.003 278.587 233.825 278.904 233.699C279.222 233.572 279.584 233.509 279.989 233.509ZM278.467 235.038C278.467 235.247 278.532 235.432 278.663 235.593C278.793 235.749 278.974 235.871 279.205 235.958C279.436 236.041 279.697 236.083 279.989 236.083C280.285 236.083 280.548 236.041 280.779 235.958C281.01 235.871 281.188 235.749 281.315 235.593C281.445 235.432 281.51 235.247 281.51 235.038C281.51 234.829 281.445 234.646 281.315 234.489C281.188 234.328 281.01 234.204 280.779 234.117C280.548 234.03 280.285 233.986 279.989 233.986C279.697 233.986 279.436 234.03 279.205 234.117C278.974 234.204 278.793 234.328 278.663 234.489C278.532 234.646 278.467 234.829 278.467 235.038Z" fill="#4A4A4A"/>
<path d="M269.133 255.829V253.798H269.702V259.14H269.133V256.319H268.356V255.829H269.133ZM266.181 254.34H268.317V254.83H266.749V255.901H268.062V256.371H266.749V257.586C267.167 257.582 267.509 257.571 267.775 257.553C268.04 257.536 268.308 257.499 268.578 257.442L268.637 257.932C268.328 257.989 268.023 258.026 267.723 258.043C267.422 258.06 267.032 258.069 266.553 258.069H266.181V254.34ZM270.309 253.661H270.884V259.428H270.309V253.661ZM274.587 253.713V253.896C274.587 254.113 274.676 254.32 274.855 254.516C275.038 254.712 275.284 254.875 275.593 255.006C275.902 255.137 276.242 255.222 276.612 255.261L276.403 255.724C275.928 255.659 275.501 255.529 275.123 255.333C274.744 255.137 274.465 254.891 274.287 254.595C274.108 254.891 273.827 255.137 273.444 255.333C273.065 255.529 272.639 255.659 272.164 255.724L271.962 255.261C272.327 255.222 272.665 255.137 272.974 255.006C273.283 254.875 273.527 254.712 273.705 254.516C273.888 254.32 273.98 254.113 273.98 253.896V253.713H274.587ZM271.681 256.051H276.893V256.534H271.681V256.051ZM272.301 257.018H276.233V258.383H272.909V258.905H276.396V259.369H272.321V257.952H275.639V257.468H272.301V257.018ZM281.837 253.654V255.92H282.745V256.43H281.837V259.441H281.236V253.654H281.837ZM277.611 254.183H280.217V256.299H278.212V257.56C278.739 257.56 279.196 257.547 279.584 257.521C279.976 257.49 280.37 257.438 280.766 257.364L280.825 257.854C280.394 257.932 279.969 257.986 279.551 258.017C279.133 258.047 278.643 258.063 278.082 258.063H277.618V255.809H279.629V254.679H277.611V254.183Z" fill="#4A4A4A"/>
<path d="M374.756 233.162C375.004 233.162 375.222 233.245 375.409 233.411C375.597 233.572 375.74 233.805 375.84 234.109C375.941 234.414 375.991 234.773 375.991 235.187C375.991 235.601 375.941 235.962 375.84 236.271C375.74 236.576 375.597 236.811 375.409 236.977C375.222 237.142 375.004 237.225 374.756 237.225C374.508 237.225 374.29 237.142 374.103 236.977C373.92 236.811 373.779 236.576 373.679 236.271C373.578 235.962 373.528 235.601 373.528 235.187C373.528 234.778 373.578 234.421 373.679 234.116C373.779 233.807 373.92 233.572 374.103 233.411C374.29 233.245 374.508 233.162 374.756 233.162ZM374.077 235.187C374.077 235.649 374.138 236.01 374.26 236.271C374.382 236.528 374.547 236.657 374.756 236.657C374.97 236.657 375.137 236.528 375.259 236.271C375.381 236.01 375.442 235.649 375.442 235.187C375.442 234.73 375.381 234.373 375.259 234.116C375.137 233.859 374.97 233.731 374.756 233.731C374.547 233.731 374.382 233.859 374.26 234.116C374.138 234.373 374.077 234.73 374.077 235.187ZM376.52 232.823H377.088V234.965H377.793V232.699H378.375V238.466H377.793V235.455H377.088V238.185H376.52V232.823ZM383.887 232.875V233.332H383.045V234.345H383.855V234.802H379.668V234.345H380.478V233.332H379.635V232.875H383.887ZM379.165 235.226H384.377V235.716H379.165V235.226ZM379.786 236.173H383.717V237.48H380.393V237.956H383.881V238.407H379.805V237.055H383.123V236.617H379.786V236.173ZM382.45 234.345V233.332H381.079V234.345H382.45Z" fill="#4A4A4A"/>
<path d="M332.572 237.905C332.768 237.905 332.94 237.863 333.088 237.781C333.241 237.694 333.358 237.58 333.441 237.441C333.524 237.302 333.565 237.152 333.565 236.99C333.565 236.829 333.524 236.681 333.441 236.546C333.358 236.407 333.241 236.296 333.088 236.213C332.94 236.13 332.768 236.089 332.572 236.089C332.376 236.089 332.202 236.13 332.05 236.213C331.902 236.296 331.786 236.407 331.704 236.546C331.621 236.681 331.58 236.829 331.58 236.99C331.58 237.152 331.621 237.304 331.704 237.448C331.786 237.587 331.902 237.698 332.05 237.781C332.202 237.863 332.376 237.905 332.572 237.905ZM331.011 236.99C331.011 236.786 331.061 236.572 331.162 236.35L332.886 233.633L333.382 233.947L332.357 235.554C332.466 235.536 332.566 235.53 332.657 235.534C332.932 235.534 333.182 235.599 333.408 235.73C333.635 235.856 333.811 236.03 333.937 236.252C334.068 236.474 334.133 236.72 334.133 236.99C334.133 237.269 334.064 237.524 333.924 237.755C333.789 237.981 333.602 238.16 333.363 238.29C333.123 238.421 332.86 238.486 332.572 238.486C332.281 238.486 332.015 238.421 331.775 238.29C331.54 238.16 331.353 237.981 331.214 237.755C331.079 237.524 331.011 237.269 331.011 236.99ZM336.254 238.434H335.686V234.28L335.072 234.548L334.85 234.038L335.686 233.666H336.254V238.434ZM337.857 237.859V238.453H337.243V237.859H337.857ZM341.505 237.421C341.601 237.265 341.662 237.086 341.688 236.886C341.714 236.686 341.727 236.405 341.727 236.043C341.727 235.686 341.714 235.41 341.688 235.214C341.662 235.014 341.601 234.835 341.505 234.678C341.331 234.36 341.046 234.202 340.649 234.202C340.244 234.202 339.961 234.358 339.8 234.672C339.704 234.833 339.643 235.011 339.617 235.207C339.591 235.403 339.578 235.682 339.578 236.043C339.578 236.409 339.591 236.69 339.617 236.886C339.643 237.082 339.704 237.258 339.8 237.415C339.961 237.733 340.244 237.892 340.649 237.892C341.05 237.892 341.335 237.735 341.505 237.421ZM338.997 236.043C338.997 235.647 339.012 235.325 339.043 235.077C339.077 234.829 339.16 234.596 339.291 234.378C339.404 234.173 339.572 233.995 339.794 233.842C340.016 233.69 340.301 233.614 340.649 233.614C340.998 233.614 341.283 233.69 341.505 233.842C341.727 233.99 341.897 234.169 342.014 234.378C342.145 234.596 342.226 234.826 342.256 235.07C342.291 235.314 342.308 235.638 342.308 236.043C342.308 236.453 342.291 236.781 342.256 237.03C342.226 237.273 342.145 237.504 342.014 237.722C341.897 237.931 341.727 238.112 341.505 238.264C341.287 238.412 341.002 238.486 340.649 238.486C340.301 238.486 340.016 238.41 339.794 238.257C339.572 238.105 339.404 237.927 339.291 237.722C339.16 237.5 339.077 237.265 339.043 237.017C339.012 236.764 338.997 236.44 338.997 236.043ZM347.344 233.666H347.958L344.973 238.421H344.366L347.344 233.666ZM343.275 234.815C343.275 234.585 343.33 234.371 343.438 234.175C343.552 233.975 343.704 233.816 343.896 233.699C344.092 233.581 344.305 233.522 344.536 233.522C344.767 233.522 344.978 233.581 345.169 233.699C345.361 233.816 345.511 233.975 345.62 234.175C345.733 234.371 345.79 234.585 345.79 234.815C345.79 235.046 345.733 235.262 345.62 235.462C345.511 235.658 345.361 235.815 345.169 235.932C344.978 236.05 344.767 236.109 344.536 236.109C344.305 236.109 344.094 236.05 343.902 235.932C343.711 235.815 343.558 235.658 343.445 235.462C343.332 235.262 343.275 235.046 343.275 234.815ZM343.843 234.815C343.843 235.02 343.911 235.194 344.046 235.338C344.185 235.482 344.349 235.554 344.536 235.554C344.727 235.554 344.891 235.482 345.026 235.338C345.165 235.194 345.235 235.02 345.235 234.815C345.235 234.611 345.165 234.437 345.026 234.293C344.891 234.149 344.727 234.077 344.536 234.077C344.349 234.077 344.185 234.149 344.046 234.293C343.911 234.437 343.843 234.611 343.843 234.815ZM346.476 237.245C346.476 237.01 346.53 236.794 346.639 236.599C346.752 236.398 346.904 236.241 347.096 236.128C347.292 236.011 347.505 235.952 347.736 235.952C347.967 235.952 348.178 236.011 348.37 236.128C348.561 236.241 348.711 236.398 348.82 236.599C348.934 236.794 348.99 237.01 348.99 237.245C348.99 237.476 348.934 237.691 348.82 237.892C348.711 238.088 348.561 238.244 348.37 238.362C348.178 238.48 347.967 238.538 347.736 238.538C347.505 238.538 347.294 238.48 347.103 238.362C346.911 238.244 346.759 238.088 346.645 237.892C346.532 237.691 346.476 237.476 346.476 237.245ZM347.037 237.245C347.037 237.445 347.107 237.62 347.246 237.768C347.386 237.911 347.549 237.983 347.736 237.983C347.928 237.983 348.091 237.911 348.226 237.768C348.365 237.624 348.435 237.45 348.435 237.245C348.435 237.04 348.365 236.866 348.226 236.723C348.091 236.579 347.928 236.507 347.736 236.507C347.549 236.507 347.386 236.579 347.246 236.723C347.107 236.866 347.037 237.04 347.037 237.245Z" fill="#4A4A4A"/>
<path d="M331.601 255.222C331.684 255.065 331.804 254.941 331.96 254.849C332.122 254.753 332.294 254.706 332.476 254.706C332.629 254.706 332.764 254.732 332.881 254.784C333.06 254.862 333.197 254.978 333.293 255.13C333.393 255.278 333.443 255.439 333.443 255.613C333.443 255.74 333.417 255.862 333.365 255.979C333.334 256.031 333.278 256.11 333.195 256.214L330.922 258.337V258.886H334.122V258.324H331.771L333.606 256.6C333.715 256.5 333.813 256.365 333.9 256.195C333.987 256.007 334.031 255.807 334.031 255.594C334.031 255.306 333.948 255.041 333.783 254.797C333.617 254.553 333.395 254.379 333.117 254.274C332.916 254.187 332.703 254.144 332.476 254.144C332.185 254.144 331.913 254.22 331.66 254.372C331.407 254.525 331.218 254.734 331.092 254.999C331.061 255.06 331.033 255.134 331.007 255.222L331.549 255.365C331.566 255.304 331.584 255.256 331.601 255.222ZM336.254 258.951H335.686V254.797L335.072 255.065L334.85 254.555L335.686 254.183H336.254V258.951ZM337.857 258.376V258.971H337.243V258.376H337.857ZM341.505 257.939C341.601 257.782 341.662 257.603 341.688 257.403C341.714 257.203 341.727 256.922 341.727 256.56C341.727 256.203 341.714 255.927 341.688 255.731C341.662 255.531 341.601 255.352 341.505 255.195C341.331 254.878 341.046 254.719 340.649 254.719C340.244 254.719 339.961 254.875 339.8 255.189C339.704 255.35 339.643 255.529 339.617 255.724C339.591 255.92 339.578 256.199 339.578 256.56C339.578 256.926 339.591 257.207 339.617 257.403C339.643 257.599 339.704 257.775 339.8 257.932C339.961 258.25 340.244 258.409 340.649 258.409C341.05 258.409 341.335 258.252 341.505 257.939ZM338.997 256.56C338.997 256.164 339.012 255.842 339.043 255.594C339.077 255.346 339.16 255.113 339.291 254.895C339.404 254.69 339.572 254.512 339.794 254.359C340.016 254.207 340.301 254.131 340.649 254.131C340.998 254.131 341.283 254.207 341.505 254.359C341.727 254.507 341.897 254.686 342.014 254.895C342.145 255.113 342.226 255.343 342.256 255.587C342.291 255.831 342.308 256.156 342.308 256.56C342.308 256.97 342.291 257.299 342.256 257.547C342.226 257.791 342.145 258.021 342.014 258.239C341.897 258.448 341.727 258.629 341.505 258.781C341.287 258.929 341.002 259.003 340.649 259.003C340.301 259.003 340.016 258.927 339.794 258.775C339.572 258.622 339.404 258.444 339.291 258.239C339.16 258.017 339.077 257.782 339.043 257.534C339.012 257.281 338.997 256.957 338.997 256.56ZM347.344 254.183H347.958L344.973 258.938H344.366L347.344 254.183ZM343.275 255.333C343.275 255.102 343.33 254.888 343.438 254.692C343.552 254.492 343.704 254.333 343.896 254.216C344.092 254.098 344.305 254.039 344.536 254.039C344.767 254.039 344.978 254.098 345.169 254.216C345.361 254.333 345.511 254.492 345.62 254.692C345.733 254.888 345.79 255.102 345.79 255.333C345.79 255.563 345.733 255.779 345.62 255.979C345.511 256.175 345.361 256.332 345.169 256.449C344.978 256.567 344.767 256.626 344.536 256.626C344.305 256.626 344.094 256.567 343.902 256.449C343.711 256.332 343.558 256.175 343.445 255.979C343.332 255.779 343.275 255.563 343.275 255.333ZM343.843 255.333C343.843 255.537 343.911 255.711 344.046 255.855C344.185 255.999 344.349 256.071 344.536 256.071C344.727 256.071 344.891 255.999 345.026 255.855C345.165 255.711 345.235 255.537 345.235 255.333C345.235 255.128 345.165 254.954 345.026 254.81C344.891 254.666 344.727 254.595 344.536 254.595C344.349 254.595 344.185 254.666 344.046 254.81C343.911 254.954 343.843 255.128 343.843 255.333ZM346.476 257.762C346.476 257.527 346.53 257.312 346.639 257.116C346.752 256.915 346.904 256.759 347.096 256.645C347.292 256.528 347.505 256.469 347.736 256.469C347.967 256.469 348.178 256.528 348.37 256.645C348.561 256.759 348.711 256.915 348.82 257.116C348.934 257.312 348.99 257.527 348.99 257.762C348.99 257.993 348.934 258.209 348.82 258.409C348.711 258.605 348.561 258.762 348.37 258.879C348.178 258.997 347.967 259.055 347.736 259.055C347.505 259.055 347.294 258.997 347.103 258.879C346.911 258.762 346.759 258.605 346.645 258.409C346.532 258.209 346.476 257.993 346.476 257.762ZM347.037 257.762C347.037 257.963 347.107 258.137 347.246 258.285C347.386 258.428 347.549 258.5 347.736 258.5C347.928 258.5 348.091 258.428 348.226 258.285C348.365 258.141 348.435 257.967 348.435 257.762C348.435 257.558 348.365 257.383 348.226 257.24C348.091 257.096 347.928 257.024 347.736 257.024C347.549 257.024 347.386 257.096 347.246 257.24C347.107 257.383 347.037 257.558 347.037 257.762Z" fill="#4A4A4A"/>
<rect x="138" y="342.965" width="323" height="8" fill="#FFE07E"/>
<rect x="138" y="342.965" width="235.93" height="8.02785" fill="#6792F8"/>
<path d="M131 375.132C131 371.174 134.209 367.965 138.168 367.965H461V477.965H138.168C134.209 477.965 131 474.756 131 470.797V375.132Z" fill="#F6F8FF"/>
<path d="M143.191 384.74H460.522" stroke="#D8D8D8" stroke-width="0.547868"/>
<path d="M143.191 423.838H460.522" stroke="#D8D8D8" stroke-width="0.547868"/>
<path d="M143.191 463.586H460.522" stroke="#D8D8D8" stroke-width="0.547868"/>
<path d="M143.844 393.146H148.093L151.377 390.913L155.433 393.672L162.966 389.862L167.602 389.073L174.169 390.913L178.612 390.387L181.896 391.832L186.338 390.913L189.042 389.467L193.485 390.387L200.632 389.467L204.109 387.759L215.891 388.679L219.368 387.234L223.617 387.497L227.287 385.92L232.116 386.314L235.014 385.395H246.796L249.5 386.708H255.488L261.862 388.416H265.532L268.623 390.387H272.679L276.349 393.015H280.212L283.689 392.226H289.87L292.188 392.621L295.858 391.175L299.335 391.569L302.812 389.467L306.675 388.548L310.538 390.124L314.594 389.467L317.685 391.175L321.934 390.387L325.99 387.365L329.467 389.467L334.876 388.548L337 388.285L339.704 388.548L344.533 388.811L348.203 390.387L352.646 390.65L356.123 391.964L360.179 391.044L362.883 391.701L368.678 391.964L371.575 392.883L374.279 394.328L381.04 394.066L386.448 396.431L389.346 394.328L393.981 397.744L397.651 406.284L401.321 406.547L404.026 413.379L408.661 421.787L416.581 413.379L419.864 417.583L423.921 420.21L431.261 430.721L435.317 431.903L438.407 438.735L442.85 444.516L446.327 466.193L450.383 458.179L454.439 462.252L457.916 443.99" stroke="#6792F8" stroke-width="1.30321" stroke-linecap="round" stroke-linejoin="round"/>
<path d="M143.191 393.88L147.251 394.548H150.731L154.404 393.612L158.657 394.815H160.59L162.523 394.147L169.676 394.815H171.416L173.543 394.147H175.282L175.862 394.548H177.216L183.015 393.211H185.335L189.008 394.548H193.841L200.221 393.211H204.087L207.373 394.147H213.946L216.459 394.815H220.519L222.259 395.216L230.378 395.082L234.052 394.681L238.111 395.216L244.684 395.751L248.551 396.553H257.057L260.343 396.954H265.949L268.656 397.488L277.548 398.023L282.381 399.36H286.441L291.081 400.563L298.814 398.959H303.067L307.126 399.761H310.413L316.599 400.83H321.625L324.718 399.761H329.358L332.451 397.756L337.864 400.028H342.697L348.11 401.632L351.783 399.627L355.263 401.231L359.323 401.632L362.416 401.231L367.055 401.365L377.495 403.503H381.941L389.48 398.424L393.347 401.097L397.793 402.167H401.273L408.232 405.508L415.772 404.038L419.445 406.845L424.085 407.78H429.111L438.39 411.256H443.803L453.469 414.062L457.916 411.79" stroke="#FF5852" stroke-width="1.30321" stroke-linecap="round" stroke-linejoin="round"/>
<circle cx="306.998" cy="531.085" r="8.90966" fill="#6792F8" fill-opacity="0.15"/>
<path d="M307.121 529.276H306.087L304.856 533.025H304.811L303.579 529.276H302.545L304.316 534.157H305.35L307.121 529.276ZM310.507 530.606H311.433C311.339 529.766 310.66 529.213 309.572 529.213C308.439 529.213 307.684 529.811 307.684 530.678C307.684 531.352 308.143 531.824 309.024 532.018L309.788 532.18C310.305 532.301 310.538 532.503 310.543 532.818C310.538 533.227 310.138 533.488 309.518 533.483C308.938 533.488 308.606 533.267 308.52 532.827H307.54C307.662 533.735 308.354 534.256 309.527 534.256C310.772 534.256 311.518 533.627 311.523 532.746C311.518 532.054 311.082 531.627 310.183 531.424L309.41 531.245C308.871 531.119 308.642 530.912 308.646 530.624C308.642 530.251 309.033 529.968 309.581 529.968C310.111 529.968 310.417 530.22 310.507 530.606Z" fill="#6792F8"/>
<path d="M288.473 234.441V238.625H287.968V234.441H288.473ZM292.209 234.934H290.994V238.625H290.484V234.934H289.269V234.441H292.209V234.934Z" fill="#A5A5A5"/>
<path d="M397.145 234.526V233.941H397.667V234.526H398.756V234.95H397.667V235.024C397.667 235.33 397.779 235.607 398.005 235.855C398.23 236.1 398.534 236.276 398.916 236.383L398.681 236.795C398.387 236.711 398.131 236.583 397.913 236.411C397.699 236.239 397.535 236.037 397.42 235.804C397.309 236.06 397.145 236.281 396.927 236.469C396.71 236.652 396.454 236.791 396.16 236.887L395.907 236.474C396.286 236.363 396.586 236.176 396.807 235.913C397.033 235.649 397.145 235.353 397.145 235.024V234.95H396.056V234.526H397.145ZM396.79 237.196H400.091V238.944H396.79V237.196ZM399.575 238.526V237.615H397.306V238.526H399.575ZM398.618 235.345H399.564V233.958H400.091V236.944H399.564V235.781H398.618V235.345ZM404.853 233.958V235.426H405.581V235.861H404.853V237.615H404.32V233.958H404.853ZM401.134 234.383H403.375V234.812H401.656V236.308C402.16 236.308 402.571 236.297 402.888 236.274C403.205 236.251 403.516 236.207 403.822 236.142L403.873 236.56C403.545 236.629 403.209 236.677 402.865 236.704C402.525 236.73 402.08 236.744 401.529 236.744H401.134V234.383ZM401.673 237.242H402.194V238.474H405.06V238.91H401.673V237.242ZM411.418 233.953V239.013H410.891V233.953H411.418ZM407.303 237.672C407.96 237.351 408.459 236.963 408.799 236.509C409.143 236.05 409.341 235.521 409.395 234.921H407.544V234.491H409.928C409.928 235.275 409.743 235.97 409.372 236.577C409.001 237.185 408.405 237.689 407.584 238.09L407.303 237.672ZM414.805 233.987V234.148C414.805 234.339 414.883 234.518 415.04 234.686C415.2 234.854 415.416 234.996 415.688 235.11C415.959 235.225 416.257 235.299 416.582 235.334L416.404 235.735C415.987 235.682 415.611 235.569 415.275 235.397C414.943 235.225 414.698 235.011 414.541 234.755C414.385 235.011 414.138 235.225 413.802 235.397C413.466 235.569 413.09 235.682 412.673 235.735L412.501 235.334C412.822 235.299 413.118 235.225 413.389 235.11C413.661 234.996 413.875 234.854 414.031 234.686C414.192 234.518 414.272 234.339 414.272 234.148V233.987H414.805ZM412.255 236.027H416.828V236.457H414.794V236.91H416.249V238.108H413.332V238.555H416.392V238.961H412.816V237.724H415.728V237.311H412.799V236.91H414.272V236.457H412.255V236.027Z" fill="#A5A5A5"/>
<path d="M288.116 255.309V254.724H288.637V255.309H289.726V255.733H288.637V255.807C288.637 256.113 288.75 256.39 288.976 256.638C289.201 256.883 289.505 257.058 289.887 257.165L289.652 257.578C289.358 257.494 289.102 257.366 288.884 257.194C288.67 257.022 288.506 256.82 288.391 256.586C288.28 256.842 288.116 257.064 287.898 257.251C287.68 257.435 287.424 257.574 287.13 257.67L286.878 257.257C287.256 257.146 287.556 256.959 287.778 256.695C288.003 256.432 288.116 256.136 288.116 255.807V255.733H287.027V255.309H288.116ZM287.761 257.979H291.062V259.727H287.761V257.979ZM290.546 259.309V258.397H288.276V259.309H290.546ZM289.589 256.128H290.534V254.741H291.062V257.727H290.534V256.564H289.589V256.128ZM295.824 254.741V256.208H296.552V256.644H295.824V258.397H295.291V254.741H295.824ZM292.105 255.165H294.345V255.595H292.626V257.091C293.131 257.091 293.541 257.079 293.858 257.056C294.175 257.034 294.487 256.99 294.792 256.925L294.844 257.343C294.515 257.412 294.179 257.459 293.835 257.486C293.495 257.513 293.05 257.526 292.5 257.526H292.105V255.165ZM292.643 258.025H293.165V259.257H296.03V259.693H292.643V258.025ZM302.389 254.735V259.796H301.861V254.735H302.389ZM298.274 258.455C298.931 258.134 299.43 257.746 299.77 257.291C300.114 256.833 300.312 256.304 300.366 255.704H298.515V255.274H300.899C300.899 256.057 300.713 256.753 300.343 257.36C299.972 257.968 299.376 258.472 298.555 258.873L298.274 258.455ZM305.776 254.77V254.93C305.776 255.121 305.854 255.301 306.011 255.469C306.171 255.637 306.387 255.778 306.658 255.893C306.93 256.008 307.228 256.082 307.552 256.117L307.375 256.518C306.958 256.464 306.582 256.352 306.246 256.18C305.913 256.008 305.669 255.794 305.512 255.538C305.355 255.794 305.109 256.008 304.773 256.18C304.437 256.352 304.06 256.464 303.644 256.518L303.472 256.117C303.793 256.082 304.089 256.008 304.36 255.893C304.631 255.778 304.845 255.637 305.002 255.469C305.163 255.301 305.243 255.121 305.243 254.93V254.77H305.776ZM303.225 256.81H307.799V257.24H305.764V257.693H307.22V258.89H304.303V259.337H307.363V259.744H303.787V258.506H306.698V258.094H303.77V257.693H305.243V257.24H303.225V256.81Z" fill="#A5A5A5"/>
<path d="M52.78 105.805V102.145H47.58V93.0653H49.42V96.1253H58.02V93.0653H59.86V102.145H54.6V105.805H61.72V107.325H45.74V105.805H52.78ZM58.02 100.645V97.6253H49.42V100.645H58.02ZM78.9005 101.845V103.345H74.8405V109.505H72.9605V103.345H68.7805V109.505H66.9005V103.345H62.9205V101.845H78.9005ZM64.6605 96.4053C64.6605 95.6187 64.9138 94.9387 65.4205 94.3653C65.9405 93.7787 66.6671 93.332 67.6005 93.0253C68.5471 92.7053 69.6338 92.5453 70.8605 92.5453C72.1005 92.5453 73.1871 92.7053 74.1205 93.0253C75.0538 93.332 75.7805 93.7787 76.3005 94.3653C76.8205 94.9387 77.0805 95.6187 77.0805 96.4053C77.0805 97.1787 76.8205 97.8587 76.3005 98.4453C75.7805 99.032 75.0471 99.4853 74.1005 99.8053C73.1671 100.112 72.0871 100.265 70.8605 100.265C69.6338 100.265 68.5538 100.112 67.6205 99.8053C66.6871 99.4853 65.9605 99.032 65.4405 98.4453C64.9205 97.8587 64.6605 97.1787 64.6605 96.4053ZM66.5405 96.4053C66.5405 97.1253 66.9338 97.7053 67.7205 98.1453C68.5205 98.572 69.5671 98.7853 70.8605 98.7853C72.1805 98.7853 73.2338 98.572 74.0205 98.1453C74.8071 97.7187 75.2005 97.1387 75.2005 96.4053C75.2005 95.672 74.8005 95.092 74.0005 94.6653C73.2138 94.2253 72.1671 94.0053 70.8605 94.0053C69.5671 94.0053 68.5205 94.2253 67.7205 94.6653C66.9338 95.092 66.5405 95.672 66.5405 96.4053ZM100.37 100.065V101.545H93.2703V103.245C94.9103 103.339 96.177 103.659 97.0703 104.205C97.977 104.739 98.4303 105.459 98.4303 106.365C98.4303 107.352 97.897 108.112 96.8303 108.645C95.7636 109.192 94.277 109.465 92.3703 109.465C90.4636 109.465 88.977 109.192 87.9103 108.645C86.8436 108.112 86.3103 107.352 86.3103 106.365C86.3103 105.445 86.757 104.719 87.6503 104.185C88.557 103.652 89.8236 103.339 91.4503 103.245V101.545H84.4103V100.065H100.37ZM85.2503 97.6253C86.2903 97.532 87.2436 97.3187 88.1103 96.9853C88.9903 96.6387 89.697 96.2187 90.2303 95.7253C90.777 95.232 91.0903 94.6987 91.1703 94.1253H85.8703V92.6453H98.9303V94.1253H93.6303C93.7103 94.6987 94.017 95.2387 94.5503 95.7453C95.0836 96.2387 95.7836 96.652 96.6503 96.9853C97.517 97.3187 98.477 97.532 99.5303 97.6253L98.8703 99.0853C97.337 98.912 95.9903 98.5187 94.8303 97.9053C93.6703 97.2787 92.857 96.4987 92.3903 95.5653C91.9103 96.4987 91.0903 97.2787 89.9303 97.9053C88.7703 98.5187 87.4303 98.912 85.9103 99.0853L85.2503 97.6253ZM88.1503 106.365C88.1503 106.912 88.517 107.332 89.2503 107.625C89.9836 107.905 91.0236 108.045 92.3703 108.045C93.7036 108.045 94.7303 107.905 95.4503 107.625C96.1836 107.332 96.5503 106.912 96.5503 106.365C96.5503 105.805 96.1836 105.385 95.4503 105.105C94.7303 104.812 93.7036 104.665 92.3703 104.665C91.0236 104.665 89.9836 104.812 89.2503 105.105C88.517 105.385 88.1503 105.805 88.1503 106.365ZM116.091 91.8653V104.705H114.251V91.8653H116.091ZM101.971 97.4453C101.971 96.6053 102.171 95.852 102.571 95.1853C102.984 94.5187 103.544 93.9987 104.251 93.6253C104.957 93.252 105.744 93.0653 106.611 93.0653C107.491 93.0653 108.284 93.252 108.991 93.6253C109.697 93.9987 110.251 94.5187 110.651 95.1853C111.064 95.852 111.271 96.6053 111.271 97.4453C111.271 98.2853 111.064 99.0387 110.651 99.7053C110.251 100.372 109.697 100.892 108.991 101.265C108.284 101.639 107.491 101.825 106.611 101.825C105.744 101.825 104.957 101.639 104.251 101.265C103.544 100.892 102.984 100.372 102.571 99.7053C102.171 99.0387 101.971 98.2853 101.971 97.4453ZM103.771 97.4453C103.771 98.272 104.037 98.9453 104.571 99.4653C105.117 99.972 105.797 100.225 106.611 100.225C107.437 100.225 108.117 99.972 108.651 99.4653C109.197 98.9453 109.471 98.272 109.471 97.4453C109.471 96.6187 109.197 95.952 108.651 95.4453C108.117 94.9253 107.437 94.6653 106.611 94.6653C105.797 94.6653 105.117 94.9253 104.571 95.4453C104.037 95.952 103.771 96.6187 103.771 97.4453ZM104.691 103.405H106.511V107.625H116.631V109.145H104.691V103.405ZM139.041 101.805V103.325H131.921V109.505H130.101V103.325H123.081V101.805H139.041ZM123.981 99.0053C125.061 98.8587 126.061 98.5587 126.981 98.1053C127.914 97.6387 128.654 97.0787 129.201 96.4253C129.747 95.772 130.027 95.0853 130.041 94.3653H124.541V92.9053H137.521V94.3653H132.081C132.094 95.0853 132.374 95.772 132.921 96.4253C133.467 97.0787 134.201 97.6387 135.121 98.1053C136.054 98.5587 137.061 98.8587 138.141 99.0053L137.461 100.465C136.021 100.225 134.727 99.7653 133.581 99.0853C132.434 98.392 131.594 97.5453 131.061 96.5453C130.541 97.532 129.707 98.372 128.561 99.0653C127.414 99.7587 126.121 100.225 124.681 100.465L123.981 99.0053ZM146.621 92.6853V94.4053C146.621 95.6453 147.014 96.7787 147.801 97.8053C148.588 98.8187 149.641 99.552 150.961 100.005L150.061 101.445C149.048 101.099 148.168 100.579 147.421 99.8853C146.688 99.192 146.121 98.3787 145.721 97.4453C145.334 98.4453 144.761 99.3253 144.001 100.085C143.241 100.845 142.341 101.412 141.301 101.785L140.381 100.305C141.728 99.8253 142.794 99.0453 143.581 97.9653C144.368 96.8853 144.761 95.6987 144.761 94.4053V92.6853H146.621ZM142.961 103.305H154.781V109.525H152.941V104.805H142.961V103.305ZM152.941 91.8653H154.781V102.465H152.941V91.8653ZM165.402 92.1653C167.388 92.1653 168.928 92.4253 170.022 92.9453C171.115 93.4653 171.662 94.212 171.662 95.1853C171.662 96.172 171.115 96.932 170.022 97.4653C168.928 97.9987 167.388 98.2653 165.402 98.2653C163.428 98.2653 161.895 97.9987 160.802 97.4653C159.722 96.932 159.182 96.172 159.182 95.1853C159.182 94.212 159.722 93.4653 160.802 92.9453C161.895 92.4253 163.428 92.1653 165.402 92.1653ZM157.442 99.3453H173.402V100.805H157.442V99.3453ZM159.342 102.205H171.382V106.305H161.202V107.905H171.882V109.325H159.402V104.985H169.562V103.565H159.342V102.205ZM161.062 95.1853C161.062 95.732 161.435 96.152 162.182 96.4453C162.942 96.7253 164.015 96.8653 165.402 96.8653C166.815 96.8653 167.895 96.7253 168.642 96.4453C169.388 96.152 169.762 95.732 169.762 95.1853C169.762 94.652 169.382 94.2453 168.622 93.9653C167.875 93.672 166.802 93.5253 165.402 93.5253C164.015 93.5253 162.942 93.672 162.182 93.9653C161.435 94.2453 161.062 94.652 161.062 95.1853ZM193.451 91.8653V101.325H191.591V91.8653H193.451ZM179.311 96.7453C179.311 95.9587 179.511 95.2587 179.911 94.6453C180.311 94.032 180.865 93.552 181.571 93.2053C182.278 92.8587 183.071 92.6853 183.951 92.6853C184.831 92.6853 185.625 92.8587 186.331 93.2053C187.051 93.552 187.611 94.032 188.011 94.6453C188.411 95.2587 188.611 95.9587 188.611 96.7453C188.611 97.5453 188.411 98.2587 188.011 98.8853C187.611 99.512 187.051 99.9987 186.331 100.345C185.625 100.692 184.831 100.865 183.951 100.865C183.071 100.865 182.278 100.692 181.571 100.345C180.865 99.9987 180.311 99.512 179.911 98.8853C179.511 98.2587 179.311 97.5453 179.311 96.7453ZM181.111 96.7453C181.111 97.5053 181.378 98.1253 181.911 98.6053C182.445 99.072 183.125 99.3053 183.951 99.3053C184.791 99.3053 185.478 99.072 186.011 98.6053C186.545 98.1253 186.811 97.5053 186.811 96.7453C186.811 95.9853 186.545 95.372 186.011 94.9053C185.478 94.4387 184.791 94.2053 183.951 94.2053C183.125 94.2053 182.445 94.4387 181.911 94.9053C181.378 95.372 181.111 95.9853 181.111 96.7453ZM182.011 102.185H183.811V104.225H191.631V102.185H193.451V109.265H182.011V102.185ZM191.631 107.805V105.665H183.811V107.805H191.631ZM204.452 92.9053V98.0453H198.672V100.525C200.272 100.525 201.545 100.499 202.492 100.445C203.452 100.379 204.412 100.259 205.372 100.085L205.552 101.565C204.539 101.752 203.512 101.879 202.472 101.945C201.445 101.999 199.992 102.025 198.112 102.025H196.832V96.6253H202.632V94.4053H196.812V92.9053H204.452ZM198.832 103.645H210.712V109.545H208.852V105.105H198.832V103.645ZM205.592 98.1253H208.852V95.9253H205.592V94.4453H208.852V91.8653H210.712V102.725H208.852V99.6053H205.592V98.1253ZM216.732 94.7853V92.3653H218.552V94.7853H221.952V96.2853H213.292V94.7853H216.732ZM213.832 101.405C213.832 100.632 213.992 99.9387 214.312 99.3253C214.646 98.712 215.099 98.232 215.672 97.8853C216.259 97.5387 216.912 97.3653 217.632 97.3653C218.366 97.3653 219.019 97.5387 219.592 97.8853C220.179 98.232 220.632 98.712 220.952 99.3253C221.286 99.9387 221.452 100.632 221.452 101.405C221.452 102.205 221.286 102.919 220.952 103.545C220.632 104.159 220.179 104.639 219.592 104.985C219.019 105.319 218.366 105.485 217.632 105.485C216.899 105.485 216.246 105.319 215.672 104.985C215.099 104.639 214.646 104.159 214.312 103.545C213.992 102.919 213.832 102.205 213.832 101.405ZM215.472 101.405C215.472 102.165 215.672 102.785 216.072 103.265C216.472 103.732 216.992 103.965 217.632 103.965C218.272 103.965 218.792 103.732 219.192 103.265C219.592 102.785 219.792 102.165 219.792 101.405C219.792 100.672 219.586 100.079 219.172 99.6253C218.772 99.1587 218.259 98.9253 217.632 98.9253C217.006 98.9253 216.486 99.1587 216.072 99.6253C215.672 100.079 215.472 100.672 215.472 101.405ZM222.772 92.2453H224.512V99.2253H226.552V91.8453H228.292V109.505H226.552V100.725H224.512V108.665H222.772V92.2453ZM250.742 102.485V104.005H243.662V109.525H241.842V104.005H234.762V102.485H250.742ZM236.862 92.6453H248.802V94.1053H238.682V95.9453H248.402V97.3853H238.682V99.3253H249.002V100.805H236.862V92.6453ZM261.843 93.6253V95.1653H258.043V97.0853C258.043 98.0053 258.229 98.9387 258.603 99.8853C258.989 100.832 259.523 101.692 260.203 102.465C260.883 103.239 261.656 103.832 262.523 104.245L261.483 105.705C260.509 105.225 259.643 104.519 258.883 103.585C258.136 102.652 257.563 101.599 257.163 100.425C256.763 101.692 256.169 102.839 255.383 103.865C254.596 104.879 253.709 105.639 252.723 106.145L251.643 104.685C252.496 104.272 253.269 103.659 253.963 102.845C254.669 102.019 255.223 101.099 255.623 100.085C256.023 99.072 256.223 98.072 256.223 97.0853V95.1653H252.303V93.6253H261.843ZM263.743 91.8653H265.583V98.8853H268.383V100.425H265.583V109.525H263.743V91.8653ZM288.052 91.8653V105.325H286.192V101.705H283.392V100.225H286.192V97.9853H283.392V96.4853H286.192V91.8653H288.052ZM273.492 93.9453H277.572V91.8453H279.412V93.9453H283.352V95.4053H273.492V93.9453ZM274.452 99.7253C274.452 99.0587 274.626 98.4653 274.972 97.9453C275.319 97.4253 275.792 97.0253 276.392 96.7453C277.006 96.452 277.706 96.3053 278.492 96.3053C279.279 96.3053 279.972 96.452 280.572 96.7453C281.186 97.0253 281.659 97.4253 281.992 97.9453C282.339 98.4653 282.512 99.0587 282.512 99.7253C282.512 100.379 282.339 100.965 281.992 101.485C281.659 101.992 281.186 102.392 280.572 102.685C279.972 102.965 279.279 103.105 278.492 103.105C277.719 103.105 277.026 102.965 276.412 102.685C275.799 102.392 275.319 101.992 274.972 101.485C274.626 100.965 274.452 100.379 274.452 99.7253ZM276.212 99.7253C276.212 100.299 276.419 100.765 276.832 101.125C277.259 101.485 277.812 101.665 278.492 101.665C279.172 101.665 279.719 101.485 280.132 101.125C280.559 100.765 280.772 100.299 280.772 99.7253C280.772 99.1253 280.559 98.6453 280.132 98.2853C279.719 97.9253 279.172 97.7453 278.492 97.7453C277.812 97.7453 277.259 97.9253 276.832 98.2853C276.419 98.6453 276.212 99.1253 276.212 99.7253ZM276.632 104.185H278.472V107.625H288.452V109.145H276.632V104.185ZM304.393 91.8653V97.1053H306.893V98.6453H304.393V103.825H302.533V91.8653H304.393ZM290.493 101.665C292.466 101.665 294 101.645 295.093 101.605V100.325C294.08 100.219 293.286 99.952 292.713 99.5253C292.14 99.0853 291.853 98.5253 291.853 97.8453C291.853 97.072 292.226 96.4653 292.973 96.0253C293.72 95.572 294.733 95.3453 296.013 95.3453C297.28 95.3453 298.286 95.572 299.033 96.0253C299.78 96.4653 300.153 97.072 300.153 97.8453C300.153 98.5253 299.866 99.0853 299.293 99.5253C298.72 99.952 297.933 100.219 296.933 100.325V101.545C298.773 101.452 300.32 101.312 301.573 101.125L301.693 102.405C300.04 102.699 298.32 102.892 296.533 102.985C294.76 103.065 292.826 103.105 290.733 103.105L290.493 101.665ZM290.953 93.3253H295.093V91.7253H296.933V93.3253H301.053V94.6653H290.953V93.3253ZM292.833 106.765C292.833 105.885 293.34 105.212 294.353 104.745C295.366 104.279 296.806 104.045 298.673 104.045C300.526 104.045 301.96 104.279 302.973 104.745C304 105.212 304.513 105.885 304.513 106.765C304.513 107.645 304 108.319 302.973 108.785C301.96 109.265 300.526 109.505 298.673 109.505C296.806 109.505 295.366 109.265 294.353 108.785C293.34 108.319 292.833 107.645 292.833 106.765ZM293.593 97.8453C293.593 98.2453 293.8 98.5587 294.213 98.7853C294.64 98.9987 295.24 99.1053 296.013 99.1053C296.76 99.1053 297.346 98.9987 297.773 98.7853C298.2 98.5587 298.413 98.2453 298.413 97.8453C298.413 97.4453 298.2 97.1387 297.773 96.9253C297.346 96.6987 296.76 96.5853 296.013 96.5853C295.253 96.5853 294.66 96.6987 294.233 96.9253C293.806 97.1387 293.593 97.4453 293.593 97.8453ZM294.673 106.765C294.673 107.219 295.013 107.565 295.693 107.805C296.373 108.032 297.366 108.145 298.673 108.145C299.966 108.145 300.953 108.032 301.633 107.805C302.313 107.565 302.653 107.219 302.653 106.765C302.653 106.312 302.313 105.972 301.633 105.745C300.953 105.505 299.966 105.385 298.673 105.385C297.366 105.385 296.373 105.505 295.693 105.745C295.013 105.972 294.673 106.312 294.673 106.765ZM315.773 92.1653C317.76 92.1653 319.3 92.4253 320.393 92.9453C321.487 93.4653 322.033 94.212 322.033 95.1853C322.033 96.172 321.487 96.932 320.393 97.4653C319.3 97.9987 317.76 98.2653 315.773 98.2653C313.8 98.2653 312.267 97.9987 311.173 97.4653C310.093 96.932 309.553 96.172 309.553 95.1853C309.553 94.212 310.093 93.4653 311.173 92.9453C312.267 92.4253 313.8 92.1653 315.773 92.1653ZM307.813 99.3453H323.773V100.805H307.813V99.3453ZM309.713 102.205H321.753V106.305H311.573V107.905H322.253V109.325H309.773V104.985H319.933V103.565H309.713V102.205ZM311.433 95.1853C311.433 95.732 311.807 96.152 312.553 96.4453C313.313 96.7253 314.387 96.8653 315.773 96.8653C317.187 96.8653 318.267 96.7253 319.013 96.4453C319.76 96.152 320.133 95.732 320.133 95.1853C320.133 94.652 319.753 94.2453 318.993 93.9653C318.247 93.672 317.173 93.5253 315.773 93.5253C314.387 93.5253 313.313 93.672 312.553 93.9653C311.807 94.2453 311.433 94.652 311.433 95.1853ZM339.643 93.2853V94.7653H335.783V95.5453C335.783 96.7053 336.183 97.772 336.983 98.7453C337.783 99.7187 338.843 100.425 340.163 100.865L339.243 102.305C338.243 101.972 337.363 101.472 336.603 100.805C335.857 100.125 335.283 99.3387 334.883 98.4453C334.497 99.4187 333.923 100.272 333.163 101.005C332.403 101.739 331.503 102.285 330.463 102.645L329.523 101.185C330.87 100.719 331.937 99.972 332.723 98.9453C333.523 97.9053 333.923 96.772 333.923 95.5453V94.7653H330.003V93.2853H339.643ZM332.403 103.545H334.223V107.625H344.343V109.145H332.403V103.545ZM341.963 91.8653H343.803V104.745H341.963V91.8653ZM360.224 91.8653V96.9853H362.764V98.5053H360.224V104.625H358.364V91.8653H360.224ZM347.244 93.3453H355.064V94.8453H349.064V100.065C350.824 100.065 352.257 100.025 353.364 99.9453C354.47 99.8653 355.557 99.712 356.624 99.4853L356.804 100.945C355.657 101.185 354.484 101.352 353.284 101.445C352.097 101.539 350.544 101.585 348.624 101.585H347.244V93.3453ZM349.124 103.325H350.944V107.625H360.944V109.145H349.124V103.325ZM377.404 91.8653V96.0453H379.924V97.5853H377.404V102.165H375.564V91.8653H377.404ZM364.324 92.8653H366.144V95.4253H370.744V92.8653H372.584V101.125H364.324V92.8653ZM370.744 99.6653V96.8853H366.144V99.6653H370.744ZM366.244 103.085H377.524V104.565H368.084V107.785H377.864V109.265H366.244V103.085ZM394.985 93.5653V95.2853C394.985 96.792 394.945 98.1453 394.865 99.3453C394.798 100.545 394.618 101.945 394.325 103.545L392.485 103.325C392.778 101.819 392.958 100.472 393.025 99.2853C393.105 98.0987 393.145 96.7653 393.145 95.2853V95.0653H382.525V93.5653H394.985ZM380.845 105.625H386.905V99.3653H388.765V105.625H396.805V107.125H380.845V105.625Z" fill="#3B3B3B"/>
<rect x="42" y="39.9653" width="83" height="31" rx="15.5" fill="#EBF0FE"/>
<path d="M66.4073 51.0253C66.1407 50.5453 65.7673 50.152 65.2873 49.8453C64.5673 49.3387 63.7073 49.0853 62.7073 49.0853C61.4407 49.0853 60.5807 49.5053 60.1273 50.3453C60.0207 50.612 59.9673 50.8853 59.9673 51.1653C59.9673 51.592 60.1007 51.9853 60.3673 52.3453C60.5673 52.572 60.8273 52.7987 61.1473 53.0253C61.5873 53.3053 62.0207 53.5187 62.4473 53.6653L63.3873 53.9453C65.374 54.5053 66.6873 55.1587 67.3273 55.9053C67.554 56.172 67.754 56.512 67.9273 56.9253C68.1007 57.3253 68.1873 57.7587 68.1873 58.2253C68.1873 58.732 68.074 59.2387 67.8473 59.7453C67.434 60.532 66.794 61.152 65.9273 61.6053C65.1273 61.992 64.4473 62.192 63.8873 62.2053C63.5673 62.232 63.3273 62.2453 63.1673 62.2453C61.954 62.2453 60.7873 61.8787 59.6673 61.1453C59.054 60.732 58.5673 60.2653 58.2073 59.7453C57.8473 59.2253 57.6073 58.7787 57.4873 58.4053L59.2073 57.8053C59.2873 58.0587 59.4473 58.3587 59.6873 58.7053C59.9273 59.0387 60.254 59.3453 60.6673 59.6253C61.1207 59.9187 61.534 60.132 61.9073 60.2653C62.294 60.3853 62.7073 60.4453 63.1473 60.4453C63.2673 60.4453 63.474 60.432 63.7673 60.4053C64.1007 60.392 64.5407 60.2453 65.0873 59.9653C65.354 59.832 65.574 59.6853 65.7473 59.5253C65.934 59.3653 66.0873 59.172 66.2073 58.9453C66.3273 58.6653 66.3873 58.4053 66.3873 58.1653C66.3873 57.792 66.2473 57.4387 65.9673 57.1053C65.7673 56.8787 65.4407 56.6587 64.9873 56.4453C64.5473 56.232 63.8407 55.9853 62.8673 55.7053L61.8873 55.3853C61.2473 55.1853 60.654 54.892 60.1073 54.5053C59.6007 54.1587 59.2207 53.8253 58.9673 53.5053C58.7407 53.212 58.5473 52.8587 58.3873 52.4453C58.2407 52.0187 58.1673 51.5787 58.1673 51.1253C58.1673 50.5653 58.274 50.052 58.4873 49.5853C58.8473 48.8253 59.3673 48.272 60.0473 47.9253C60.7407 47.5653 61.4207 47.3587 62.0873 47.3053C62.2207 47.292 62.4273 47.2853 62.7073 47.2853C64.094 47.2853 65.3007 47.632 66.3273 48.3253C67.0473 48.832 67.6073 49.4387 68.0073 50.1453L66.4073 51.0253ZM76.2519 61.2253C75.6519 61.7453 74.9852 62.0053 74.2519 62.0053C73.7319 62.0053 73.2452 61.872 72.7919 61.6053C72.3385 61.3387 71.9785 60.9787 71.7119 60.5253C71.4452 60.072 71.3119 59.5787 71.3119 59.0453V53.2253H69.6119V51.5453H71.3119V48.3053H73.1119V51.5453H75.6319V53.2253H73.1119V59.0453C73.1119 59.4187 73.2119 59.7053 73.4119 59.9053C73.6119 60.1053 73.8919 60.2053 74.2519 60.2053C74.4252 60.2053 74.5652 60.1853 74.6719 60.1453C74.7785 60.092 74.9052 59.9987 75.0519 59.8653L76.2519 61.2253ZM84.9147 55.9253C84.7014 55.1787 84.3147 54.572 83.7547 54.1053C83.1947 53.6253 82.568 53.3853 81.8747 53.3853C81.1547 53.3853 80.5014 53.6253 79.9147 54.1053C79.328 54.572 78.9347 55.1787 78.7347 55.9253H84.9147ZM76.9747 56.8853C76.9747 55.952 77.188 55.092 77.6147 54.3053C78.0547 53.5053 78.648 52.872 79.3947 52.4053C80.1414 51.9253 80.968 51.6853 81.8747 51.6853C82.7414 51.6853 83.488 51.892 84.1147 52.3053C84.7414 52.7053 85.208 53.1187 85.5147 53.5453C85.8347 53.972 86.0347 54.2853 86.1147 54.4853C86.4614 55.1253 86.6347 55.912 86.6347 56.8453C86.6347 57.112 86.6214 57.3387 86.5947 57.5253H78.6947C78.8147 58.3653 79.1814 59.0587 79.7947 59.6053C80.408 60.1387 81.108 60.4053 81.8947 60.4053C82.4814 60.4053 83.0014 60.272 83.4547 60.0053C83.9214 59.7387 84.288 59.412 84.5547 59.0253L86.0547 59.7453C85.6547 60.3987 85.0947 60.952 84.3747 61.4053C83.6547 61.8587 82.8214 62.0853 81.8747 62.0853C80.968 62.0853 80.1414 61.852 79.3947 61.3853C78.648 60.9053 78.0547 60.272 77.6147 59.4853C77.188 58.6853 76.9747 57.8187 76.9747 56.8853ZM93.7381 60.4853C94.3115 60.4853 94.8448 60.332 95.3381 60.0253C95.8315 59.7053 96.2248 59.272 96.5181 58.7253C96.8248 58.1787 96.9781 57.5787 96.9781 56.9253C96.9781 56.272 96.8248 55.6787 96.5181 55.1453C96.2248 54.612 95.8315 54.192 95.3381 53.8853C94.8448 53.5653 94.3115 53.4053 93.7381 53.4053C93.1648 53.4053 92.6248 53.5587 92.1181 53.8653C91.6248 54.172 91.2315 54.5987 90.9381 55.1453C90.6448 55.6787 90.4981 56.272 90.4981 56.9253C90.4981 57.5787 90.6448 58.1787 90.9381 58.7253C91.2315 59.272 91.6248 59.7053 92.1181 60.0253C92.6248 60.332 93.1648 60.4853 93.7381 60.4853ZM88.6981 51.7253H90.4781V53.7053C90.7981 53.0653 91.2848 52.5787 91.9381 52.2453C92.5915 51.8987 93.2181 51.7253 93.8181 51.7253C94.7248 51.7253 95.5515 51.9653 96.2981 52.4453C97.0448 52.912 97.6381 53.5453 98.0781 54.3453C98.5181 55.1453 98.7381 56.0053 98.7381 56.9253C98.7381 57.8587 98.5181 58.732 98.0781 59.5453C97.6381 60.3453 97.0448 60.9853 96.2981 61.4653C95.5515 61.932 94.7248 62.1653 93.8181 62.1653C93.2181 62.1653 92.5915 61.9853 91.9381 61.6253C91.2848 61.2653 90.7981 60.7787 90.4781 60.1653V67.1653H88.6981V51.7253ZM109.126 62.0453H107.386V49.3253L105.506 50.1453L104.826 48.5853L107.386 47.4453H109.126V62.0453Z" fill="#6792F8"/>
<path d="M15 386.805C15 376.419 23.4195 368 33.8054 368H443.195C453.581 368 462 376.419 462 386.805V582.195C462 592.581 453.581 601 443.195 601H33.8054C23.4195 601 15 592.581 15 582.195V386.805Z" fill="url(#paint0_linear_823_2767)"/>
<defs>
<filter id="filter0_d_823_2767" x="0.184608" y="0.821327" width="475.994" height="612.459" filterUnits="userSpaceOnUse" color-interpolation-filters="sRGB">
<feFlood flood-opacity="0" result="BackgroundImageFix"/>
<feColorMatrix in="SourceAlpha" type="matrix" values="0 0 0 0 0 0 0 0 0 0 0 0 0 0 0 0 0 0 127 0" result="hardAlpha"/>
<feOffset/>
<feGaussianBlur stdDeviation="7.58934"/>
<feComposite in2="hardAlpha" operator="out"/>
<feColorMatrix type="matrix" values="0 0 0 0 0 0 0 0 0 0 0 0 0 0 0 0 0 0 0.1 0"/>
<feBlend mode="normal" in2="BackgroundImageFix" result="effect1_dropShadow_823_2767"/>
<feBlend mode="normal" in="SourceGraphic" in2="effect1_dropShadow_823_2767" result="shape"/>
</filter>
<filter id="filter1_d_823_2767" x="93.1722" y="180.138" width="372.77" height="422.77" filterUnits="userSpaceOnUse" color-interpolation-filters="sRGB">
<feFlood flood-opacity="0" result="BackgroundImageFix"/>
<feColorMatrix in="SourceAlpha" type="matrix" values="0 0 0 0 0 0 0 0 0 0 0 0 0 0 0 0 0 0 127 0" result="hardAlpha"/>
<feOffset dx="-4.9426" dy="-4.9426"/>
<feGaussianBlur stdDeviation="4.9426"/>
<feComposite in2="hardAlpha" operator="out"/>
<feColorMatrix type="matrix" values="0 0 0 0 0 0 0 0 0 0 0 0 0 0 0 0 0 0 0.05 0"/>
<feBlend mode="normal" in2="BackgroundImageFix" result="effect1_dropShadow_823_2767"/>
<feBlend mode="normal" in="SourceGraphic" in2="effect1_dropShadow_823_2767" result="shape"/>
</filter>
<linearGradient id="paint0_linear_823_2767" x1="724.172" y1="368" x2="724.172" y2="601" gradientUnits="userSpaceOnUse">
<stop stop-color="#F6F8FF" stop-opacity="0"/>
<stop offset="1" stop-color="#EEF1FF"/>
</linearGradient>
</defs>
</svg>
