<svg width="564" height="679" viewBox="0 0 564 679" fill="none" xmlns="http://www.w3.org/2000/svg">
<g filter="url(#filter0_d_823_2767)">
<rect x="17.4199" y="17.5732" width="519.58" height="644.369" rx="21.0029" fill="white"/>
</g>
<g filter="url(#filter1_d_823_2767)">
<path d="M108.729 205.885C108.729 188.447 122.865 174.311 140.303 174.311H537.188V641.415C537.188 652.551 528.161 661.578 517.025 661.578H108.729V205.885Z" fill="white"/>
</g>
<path d="M421.98 575.695C422.097 575.472 422.267 575.296 422.49 575.166C422.719 575.03 422.963 574.962 423.223 574.962C423.44 574.962 423.632 574.999 423.799 575.073C424.052 575.184 424.247 575.348 424.383 575.565C424.525 575.775 424.597 576.004 424.597 576.251C424.597 576.431 424.56 576.604 424.485 576.771C424.442 576.845 424.362 576.957 424.244 577.105L421.015 580.121V580.9H425.562V580.102H422.221L424.829 577.653C424.983 577.51 425.122 577.319 425.246 577.077C425.37 576.811 425.432 576.527 425.432 576.224C425.432 575.815 425.314 575.438 425.079 575.091C424.844 574.745 424.529 574.498 424.133 574.349C423.848 574.225 423.545 574.164 423.223 574.164C422.809 574.164 422.422 574.272 422.063 574.488C421.705 574.705 421.435 575.002 421.256 575.379C421.213 575.466 421.173 575.571 421.135 575.695L421.906 575.899C421.93 575.812 421.955 575.744 421.98 575.695ZM430.066 579.555C430.202 579.332 430.289 579.079 430.326 578.794C430.363 578.509 430.382 578.11 430.382 577.597C430.382 577.09 430.363 576.697 430.326 576.418C430.289 576.134 430.202 575.88 430.066 575.658C429.819 575.206 429.414 574.98 428.851 574.98C428.275 574.98 427.873 575.203 427.644 575.648C427.508 575.877 427.422 576.131 427.385 576.409C427.347 576.688 427.329 577.083 427.329 577.597C427.329 578.117 427.347 578.516 427.385 578.794C427.422 579.072 427.508 579.323 427.644 579.546C427.873 579.997 428.275 580.223 428.851 580.223C429.42 580.223 429.825 580 430.066 579.555ZM426.503 577.597C426.503 577.034 426.525 576.576 426.568 576.224C426.617 575.871 426.735 575.54 426.921 575.231C427.081 574.94 427.32 574.686 427.635 574.47C427.951 574.253 428.356 574.145 428.851 574.145C429.346 574.145 429.751 574.253 430.066 574.47C430.382 574.68 430.623 574.934 430.79 575.231C430.976 575.54 431.09 575.868 431.133 576.214C431.183 576.561 431.208 577.022 431.208 577.597C431.208 578.178 431.183 578.645 431.133 578.998C431.09 579.345 430.976 579.672 430.79 579.982C430.623 580.279 430.382 580.535 430.066 580.752C429.757 580.962 429.352 581.067 428.851 581.067C428.356 581.067 427.951 580.959 427.635 580.743C427.32 580.526 427.081 580.272 426.921 579.982C426.735 579.666 426.617 579.332 426.568 578.98C426.525 578.621 426.503 578.16 426.503 577.597ZM433.027 580.177V581.021H432.155V580.177H433.027ZM436.456 580.993H435.649V575.091L434.776 575.472L434.461 574.748L435.649 574.219H436.456V580.993ZM442.147 575.119L438.928 581.03L438.194 580.65L441.201 575.129H437.712V574.321H442.147V575.119ZM449.16 574.219H450.033L445.792 580.975H444.929L449.16 574.219ZM443.379 575.852C443.379 575.525 443.457 575.221 443.611 574.943C443.772 574.658 443.989 574.433 444.261 574.266C444.539 574.099 444.842 574.015 445.17 574.015C445.498 574.015 445.798 574.099 446.07 574.266C446.343 574.433 446.556 574.658 446.711 574.943C446.871 575.221 446.952 575.525 446.952 575.852C446.952 576.18 446.871 576.486 446.711 576.771C446.556 577.049 446.343 577.272 446.07 577.439C445.798 577.606 445.498 577.69 445.17 577.69C444.842 577.69 444.542 577.606 444.27 577.439C443.998 577.272 443.781 577.049 443.621 576.771C443.46 576.486 443.379 576.18 443.379 575.852ZM444.187 575.852C444.187 576.143 444.283 576.391 444.474 576.595C444.672 576.799 444.904 576.901 445.17 576.901C445.442 576.901 445.674 576.799 445.866 576.595C446.064 576.391 446.163 576.143 446.163 575.852C446.163 575.562 446.064 575.314 445.866 575.11C445.674 574.906 445.442 574.804 445.17 574.804C444.904 574.804 444.672 574.906 444.474 575.11C444.283 575.314 444.187 575.562 444.187 575.852ZM447.926 579.304C447.926 578.97 448.004 578.664 448.158 578.386C448.319 578.101 448.536 577.878 448.808 577.718C449.086 577.551 449.389 577.467 449.717 577.467C450.045 577.467 450.345 577.551 450.617 577.718C450.889 577.878 451.103 578.101 451.258 578.386C451.418 578.664 451.499 578.97 451.499 579.304C451.499 579.632 451.418 579.938 451.258 580.223C451.103 580.501 450.889 580.724 450.617 580.891C450.345 581.058 450.045 581.142 449.717 581.142C449.389 581.142 449.089 581.058 448.817 580.891C448.545 580.724 448.328 580.501 448.167 580.223C448.007 579.938 447.926 579.632 447.926 579.304ZM448.724 579.304C448.724 579.589 448.823 579.836 449.021 580.047C449.219 580.251 449.451 580.353 449.717 580.353C449.989 580.353 450.221 580.251 450.413 580.047C450.611 579.843 450.71 579.595 450.71 579.304C450.71 579.014 450.611 578.766 450.413 578.562C450.221 578.358 449.989 578.256 449.717 578.256C449.451 578.256 449.219 578.358 449.021 578.562C448.823 578.766 448.724 579.014 448.724 579.304Z" fill="#4492F7"/>
<path d="M417.742 546.426V547.06C417.742 547.647 417.726 548.171 417.695 548.63C417.664 549.083 417.587 549.624 417.463 550.253L416.752 550.176C416.865 549.661 416.945 549.137 416.992 548.606L412.932 548.838L412.824 548.227L417.03 548.073C417.041 547.825 417.046 547.488 417.046 547.06V546.998H413.017V546.426H417.742ZM412.29 551.135H414.633V549.387H415.352V551.135H418.461V551.707H412.29V551.135ZM422.366 546.232V546.75C422.366 547.116 422.48 547.47 422.706 547.81C422.938 548.15 423.242 548.439 423.619 548.676C424 548.913 424.405 549.07 424.833 549.148L424.516 549.743C423.964 549.624 423.459 549.395 423 549.055C422.547 548.715 422.211 548.307 421.995 547.833C421.778 548.307 421.441 548.715 420.982 549.055C420.528 549.395 420.028 549.624 419.482 549.743L419.172 549.148C419.595 549.07 419.992 548.913 420.363 548.676C420.74 548.434 421.041 548.142 421.268 547.802C421.5 547.462 421.616 547.111 421.616 546.75V546.232H422.366ZM418.933 551.127H425.111V551.707H418.933V551.127ZM431.205 545.784V552.612H430.493V545.784H431.205ZM426.472 550.346V547.06H425.753V546.488H429.612V547.06H428.893V550.261C429.14 550.246 429.488 550.212 429.937 550.161L429.975 550.679C429.331 550.787 428.658 550.859 427.957 550.895C427.261 550.926 426.493 550.944 425.653 550.949L425.583 550.354L426.472 550.346ZM427.161 550.338C427.63 550.328 427.978 550.315 428.205 550.3V547.06H427.161V550.338Z" fill="#3B3B3B"/>
<path d="M415.779 573.367L414.807 573.367L414.807 580.426L412.534 578.23L411.844 578.897L415.293 582.229L418.741 578.897L418.052 578.23L415.779 580.426V573.367Z" fill="#4492F7"/>
<path d="M462.355 578.155C462.355 578.722 462.435 579.273 462.595 579.81C462.76 580.341 462.994 580.846 463.298 581.325H464.033C463.693 580.856 463.43 580.353 463.244 579.817C463.064 579.276 462.974 578.722 462.974 578.155C462.974 577.588 463.064 577.036 463.244 576.5C463.43 575.959 463.693 575.453 464.033 574.984H463.298C462.994 575.464 462.76 575.971 462.595 576.508C462.435 577.039 462.355 577.588 462.355 578.155ZM467.333 578.348V579.531C468.029 579.495 468.642 579.436 469.173 579.353L469.227 579.879C468.567 580.008 467.902 580.091 467.232 580.127C466.562 580.158 465.766 580.176 464.843 580.181L464.758 579.585C465.552 579.585 466.173 579.578 466.621 579.562V578.348H467.333ZM464.951 578.023C465.451 577.874 465.851 577.634 466.15 577.304C466.449 576.969 466.606 576.588 466.621 576.16H465.121V575.587H466.621V574.775H467.333V575.587H468.864V576.16H467.333C467.353 576.567 467.516 576.933 467.82 577.258C468.124 577.583 468.526 577.812 469.026 577.946L468.701 578.503C468.305 578.389 467.957 578.214 467.658 577.977C467.364 577.735 467.139 577.448 466.985 577.119C466.835 577.464 466.614 577.763 466.32 578.016C466.026 578.268 465.678 578.456 465.276 578.58L464.951 578.023ZM469.598 574.706H470.31V581.557H469.598V574.706ZM477.169 574.714V581.542H476.489V578.016H475.607V581.194H474.942V574.861H475.607V577.428H476.489V574.714H477.169ZM471.594 575.541H474.122V576.113H472.297V579.299C472.756 579.294 473.151 579.279 473.481 579.253C473.811 579.227 474.143 579.178 474.478 579.106L474.548 579.701C474.161 579.779 473.78 579.83 473.403 579.856C473.032 579.882 472.581 579.895 472.05 579.895H471.594V575.541ZM484.975 574.714V576.376H485.95V576.972H484.975V578.642H484.256V574.714H484.975ZM479.972 575.108H480.676V577.59C481.712 577.58 482.689 577.487 483.607 577.312L483.692 577.892C482.666 578.093 481.606 578.193 480.514 578.193H479.972V575.108ZM480.537 578.998H484.975V581.549H484.256V579.578H480.537V578.998ZM491.896 574.961V575.533H490.899V576.917H491.858V577.49H489.739V578.248H492.476V578.827H486.306V578.248H489.035V577.49H486.901V576.917H487.86V575.533H486.862V574.961H491.896ZM486.994 579.454H491.719V581.549H490.999V580.018H486.994V579.454ZM490.195 576.917V575.533H488.571V576.917H490.195ZM494.843 578.155C494.843 577.593 494.76 577.044 494.595 576.508C494.436 575.971 494.206 575.464 493.907 574.984H493.165C493.505 575.453 493.765 575.956 493.946 576.492C494.131 577.028 494.224 577.583 494.224 578.155C494.224 578.727 494.131 579.281 493.946 579.817C493.765 580.353 493.505 580.856 493.165 581.325H493.907C494.206 580.846 494.436 580.338 494.595 579.802C494.76 579.266 494.843 578.717 494.843 578.155Z" fill="#818181"/>
<path d="M415.432 592.409V593.082H411.829V592.409H415.432ZM422.767 592.339H423.664V592.996H422.597L421.924 595.595H421.236L420.571 592.996H419.519L418.862 595.595H418.174L417.501 592.996H416.426V592.339H417.323L416.72 590.012H417.362L417.957 592.339H419.079L419.682 590.019H420.416L421.02 592.339H422.141L422.736 590.012H423.37L422.767 592.339ZM418.514 594.535L418.908 592.996H418.12L418.514 594.535ZM420.401 592.339L420.045 590.94L419.689 592.339H420.401ZM421.584 594.535L421.978 592.996H421.19L421.584 594.535ZM426.432 594.999C426.664 594.999 426.867 594.95 427.043 594.852C427.223 594.749 427.362 594.615 427.46 594.45C427.558 594.285 427.607 594.107 427.607 593.917C427.607 593.726 427.558 593.551 427.46 593.391C427.362 593.226 427.223 593.094 427.043 592.996C426.867 592.899 426.664 592.85 426.432 592.85C426.2 592.85 425.993 592.899 425.813 592.996C425.638 593.094 425.501 593.226 425.403 593.391C425.305 593.551 425.256 593.726 425.256 593.917C425.256 594.107 425.305 594.288 425.403 594.458C425.501 594.623 425.638 594.754 425.813 594.852C425.993 594.95 426.2 594.999 426.432 594.999ZM424.584 593.917C424.584 593.674 424.643 593.422 424.761 593.159L426.803 589.942L427.391 590.313L426.176 592.215C426.305 592.195 426.424 592.187 426.532 592.192C426.857 592.192 427.153 592.27 427.421 592.424C427.69 592.574 427.898 592.78 428.048 593.043C428.203 593.306 428.28 593.597 428.28 593.917C428.28 594.247 428.197 594.548 428.032 594.821C427.873 595.09 427.651 595.301 427.367 595.456C427.084 595.61 426.772 595.688 426.432 595.688C426.086 595.688 425.772 595.61 425.488 595.456C425.21 595.301 424.988 595.09 424.823 594.821C424.663 594.548 424.584 594.247 424.584 593.917ZM432.021 594.427C432.134 594.241 432.206 594.03 432.237 593.793C432.268 593.556 432.284 593.223 432.284 592.795C432.284 592.373 432.268 592.045 432.237 591.813C432.206 591.576 432.134 591.365 432.021 591.179C431.815 590.803 431.477 590.615 431.008 590.615C430.528 590.615 430.193 590.8 430.003 591.172C429.889 591.362 429.817 591.574 429.786 591.806C429.755 592.038 429.74 592.368 429.74 592.795C429.74 593.228 429.755 593.561 429.786 593.793C429.817 594.025 429.889 594.234 430.003 594.419C430.193 594.796 430.528 594.984 431.008 594.984C431.482 594.984 431.82 594.798 432.021 594.427ZM429.051 592.795C429.051 592.326 429.069 591.945 429.105 591.651C429.147 591.357 429.245 591.081 429.399 590.824C429.533 590.581 429.732 590.37 429.995 590.189C430.258 590.009 430.595 589.919 431.008 589.919C431.42 589.919 431.758 590.009 432.021 590.189C432.284 590.365 432.485 590.576 432.624 590.824C432.779 591.081 432.874 591.355 432.91 591.643C432.951 591.932 432.972 592.316 432.972 592.795C432.972 593.28 432.951 593.669 432.91 593.963C432.874 594.252 432.779 594.525 432.624 594.783C432.485 595.03 432.284 595.244 432.021 595.425C431.763 595.6 431.425 595.688 431.008 595.688C430.595 595.688 430.258 595.597 429.995 595.417C429.732 595.236 429.533 595.025 429.399 594.783C429.245 594.52 429.147 594.241 429.105 593.948C429.069 593.649 429.051 593.265 429.051 592.795ZM437.148 593.607H437.944V594.265H437.148V595.626H436.498V594.265H433.753V593.623L436.498 589.981H437.148V593.607ZM436.498 593.607V591.009L434.573 593.607H436.498ZM439.091 596.546H438.588L438.843 594.953H439.562L439.091 596.546ZM441.605 591.21C441.703 591.025 441.845 590.878 442.031 590.769C442.221 590.656 442.425 590.599 442.641 590.599C442.822 590.599 442.982 590.63 443.121 590.692C443.332 590.785 443.495 590.922 443.608 591.102C443.727 591.277 443.786 591.468 443.786 591.674C443.786 591.824 443.755 591.968 443.693 592.107C443.657 592.169 443.59 592.262 443.492 592.386L440.801 594.899V595.548H444.59V594.883H441.806L443.979 592.842C444.108 592.723 444.224 592.563 444.327 592.362C444.43 592.141 444.482 591.904 444.482 591.651C444.482 591.311 444.384 590.996 444.188 590.708C443.992 590.419 443.729 590.213 443.399 590.089C443.162 589.986 442.91 589.934 442.641 589.934C442.296 589.934 441.974 590.025 441.675 590.205C441.376 590.385 441.152 590.633 441.002 590.947C440.966 591.019 440.933 591.107 440.902 591.21L441.543 591.38C441.564 591.308 441.585 591.251 441.605 591.21ZM448.344 594.427C448.457 594.241 448.53 594.03 448.561 593.793C448.591 593.556 448.607 593.223 448.607 592.795C448.607 592.373 448.591 592.045 448.561 591.813C448.53 591.576 448.457 591.365 448.344 591.179C448.138 590.803 447.8 590.615 447.331 590.615C446.852 590.615 446.516 590.8 446.326 591.172C446.212 591.362 446.14 591.574 446.109 591.806C446.078 592.038 446.063 592.368 446.063 592.795C446.063 593.228 446.078 593.561 446.109 593.793C446.14 594.025 446.212 594.234 446.326 594.419C446.516 594.796 446.852 594.984 447.331 594.984C447.805 594.984 448.143 594.798 448.344 594.427ZM445.375 592.795C445.375 592.326 445.393 591.945 445.429 591.651C445.47 591.357 445.568 591.081 445.723 590.824C445.857 590.581 446.055 590.37 446.318 590.189C446.581 590.009 446.919 589.919 447.331 589.919C447.743 589.919 448.081 590.009 448.344 590.189C448.607 590.365 448.808 590.576 448.947 590.824C449.102 591.081 449.197 591.355 449.233 591.643C449.275 591.932 449.295 592.316 449.295 592.795C449.295 593.28 449.275 593.669 449.233 593.963C449.197 594.252 449.102 594.525 448.947 594.783C448.808 595.03 448.607 595.244 448.344 595.425C448.086 595.6 447.749 595.688 447.331 595.688C446.919 595.688 446.581 595.597 446.318 595.417C446.055 595.236 445.857 595.025 445.723 594.783C445.568 594.52 445.47 594.241 445.429 593.948C445.393 593.649 445.375 593.265 445.375 592.795ZM453.046 594.427C453.159 594.241 453.232 594.03 453.262 593.793C453.293 593.556 453.309 593.223 453.309 592.795C453.309 592.373 453.293 592.045 453.262 591.813C453.232 591.576 453.159 591.365 453.046 591.179C452.84 590.803 452.502 590.615 452.033 590.615C451.554 590.615 451.218 590.8 451.028 591.172C450.914 591.362 450.842 591.574 450.811 591.806C450.78 592.038 450.765 592.368 450.765 592.795C450.765 593.228 450.78 593.561 450.811 593.793C450.842 594.025 450.914 594.234 451.028 594.419C451.218 594.796 451.554 594.984 452.033 594.984C452.507 594.984 452.845 594.798 453.046 594.427ZM450.077 592.795C450.077 592.326 450.095 591.945 450.131 591.651C450.172 591.357 450.27 591.081 450.425 590.824C450.559 590.581 450.757 590.37 451.02 590.189C451.283 590.009 451.621 589.919 452.033 589.919C452.445 589.919 452.783 590.009 453.046 590.189C453.309 590.365 453.51 590.576 453.649 590.824C453.804 591.081 453.899 591.355 453.935 591.643C453.976 591.932 453.997 592.316 453.997 592.795C453.997 593.28 453.976 593.669 453.935 593.963C453.899 594.252 453.804 594.525 453.649 594.783C453.51 595.03 453.309 595.244 453.046 595.425C452.788 595.6 452.451 595.688 452.033 595.688C451.621 595.688 451.283 595.597 451.02 595.417C450.757 595.236 450.559 595.025 450.425 594.783C450.27 594.52 450.172 594.241 450.131 593.948C450.095 593.649 450.077 593.265 450.077 592.795Z" fill="#818181"/>
<path d="M462.193 595.633C463.728 595.633 464.972 594.399 464.972 592.878C464.972 591.356 463.728 590.123 462.193 590.123C460.658 590.123 459.414 591.356 459.414 592.878C459.414 594.399 460.658 595.633 462.193 595.633Z" stroke="#818181" stroke-width="0.670939" stroke-linecap="round" stroke-linejoin="round"/>
<path d="M462.195 594.714C462.387 594.714 462.542 594.56 462.542 594.37C462.542 594.18 462.387 594.025 462.195 594.025C462.003 594.025 461.848 594.18 461.848 594.37C461.848 594.56 462.003 594.714 462.195 594.714Z" fill="#818181"/>
<path d="M462.193 593.337V593.107C462.354 593.107 462.51 593.06 462.644 592.972C462.777 592.883 462.881 592.758 462.942 592.611C463.004 592.464 463.02 592.303 462.988 592.147C462.957 591.991 462.88 591.848 462.767 591.735C462.653 591.623 462.509 591.546 462.352 591.515C462.194 591.484 462.031 591.5 461.883 591.561C461.735 591.622 461.608 591.725 461.519 591.857C461.43 591.989 461.383 592.145 461.383 592.303" stroke="#818181" stroke-width="0.670939" stroke-linecap="round" stroke-linejoin="round"/>
<rect x="137.112" y="534.699" width="168.031" height="85.3308" rx="6.87165" fill="white" stroke="#FF5852" stroke-width="1.31785"/>
<path d="M167.272 577.434C167.582 577.614 167.835 577.843 168.033 578.121C168.231 578.399 168.33 578.699 168.33 579.021C168.33 579.392 168.228 579.729 168.024 580.033C167.826 580.329 167.551 580.565 167.198 580.738C166.852 580.905 166.471 580.988 166.057 580.988C165.642 580.988 165.262 580.902 164.915 580.728C164.575 580.555 164.303 580.317 164.099 580.014C163.901 579.711 163.802 579.367 163.802 578.984H164.609C164.609 579.188 164.668 579.383 164.785 579.569C164.909 579.748 165.079 579.896 165.296 580.014C165.519 580.125 165.772 580.181 166.057 580.181C166.348 580.181 166.604 580.125 166.827 580.014C167.05 579.903 167.22 579.754 167.337 579.569C167.461 579.383 167.523 579.191 167.523 578.993C167.523 578.665 167.402 578.387 167.161 578.158C166.92 577.929 166.558 577.815 166.075 577.815H165.584V577.035H166.085C166.369 577.035 166.614 576.986 166.818 576.887C167.022 576.788 167.176 576.658 167.282 576.497C167.387 576.33 167.439 576.154 167.439 575.968C167.439 575.789 167.384 575.619 167.272 575.458C167.161 575.297 167.003 575.167 166.799 575.068C166.601 574.963 166.372 574.91 166.112 574.91C165.853 574.91 165.624 574.963 165.426 575.068C165.228 575.167 165.073 575.3 164.962 575.467C164.857 575.628 164.804 575.798 164.804 575.977H163.997C163.997 575.619 164.09 575.297 164.275 575.012C164.467 574.728 164.724 574.505 165.045 574.344C165.373 574.183 165.729 574.103 166.112 574.103C166.496 574.103 166.849 574.183 167.17 574.344C167.498 574.505 167.755 574.728 167.94 575.012C168.132 575.291 168.228 575.603 168.228 575.95C168.228 576.247 168.138 576.525 167.959 576.785C167.786 577.038 167.557 577.255 167.272 577.434ZM173.328 578.511H174.283V579.299H173.328V580.933H172.548V579.299H169.254V578.529L172.548 574.159H173.328V578.511ZM172.548 578.511V575.393L170.238 578.511H172.548ZM176.104 580.116V580.96H175.232V580.116H176.104ZM179.867 576.627C180.263 576.627 180.628 576.726 180.962 576.924C181.296 577.122 181.559 577.391 181.751 577.731C181.943 578.065 182.038 578.43 182.038 578.826C182.038 579.234 181.939 579.606 181.742 579.94C181.55 580.268 181.284 580.527 180.943 580.719C180.609 580.911 180.241 581.007 179.839 581.007C179.431 581.007 179.029 580.911 178.633 580.719C178.237 580.527 177.934 580.271 177.724 579.949C177.711 579.93 177.693 579.903 177.668 579.865C177.643 579.828 177.615 579.785 177.584 579.736L178.308 579.346L178.41 579.504C178.546 579.695 178.747 579.856 179.013 579.986C179.286 580.116 179.561 580.181 179.839 580.181C180.099 580.181 180.334 580.122 180.544 580.005C180.761 579.881 180.931 579.717 181.055 579.513C181.179 579.303 181.24 579.074 181.24 578.826C181.24 578.56 181.175 578.322 181.046 578.112C180.922 577.901 180.752 577.737 180.535 577.62C180.325 577.502 180.093 577.444 179.839 577.444C179.617 577.444 179.391 577.487 179.162 577.573C178.939 577.654 178.754 577.765 178.605 577.908L178.03 577.573V574.168H181.565V574.957H178.837V576.868C179.146 576.707 179.49 576.627 179.867 576.627ZM183.938 575.634C184.056 575.411 184.226 575.235 184.448 575.105C184.677 574.969 184.922 574.901 185.181 574.901C185.398 574.901 185.59 574.938 185.757 575.012C186.01 575.124 186.205 575.288 186.341 575.504C186.484 575.715 186.555 575.943 186.555 576.191C186.555 576.37 186.518 576.543 186.443 576.71C186.4 576.785 186.32 576.896 186.202 577.045L182.973 580.06V580.84H187.52V580.042H184.179L186.787 577.592C186.941 577.45 187.081 577.258 187.204 577.017C187.328 576.751 187.39 576.466 187.39 576.163C187.39 575.755 187.272 575.377 187.037 575.031C186.802 574.684 186.487 574.437 186.091 574.289C185.806 574.165 185.503 574.103 185.181 574.103C184.767 574.103 184.38 574.211 184.022 574.428C183.663 574.644 183.394 574.941 183.214 575.319C183.171 575.405 183.131 575.51 183.094 575.634L183.864 575.838C183.888 575.752 183.913 575.684 183.938 575.634ZM194.539 574.159H195.411L191.171 580.914H190.308L194.539 574.159ZM188.758 575.792C188.758 575.464 188.835 575.161 188.99 574.882C189.151 574.598 189.367 574.372 189.64 574.205C189.918 574.038 190.221 573.955 190.549 573.955C190.877 573.955 191.177 574.038 191.449 574.205C191.721 574.372 191.935 574.598 192.089 574.882C192.25 575.161 192.331 575.464 192.331 575.792C192.331 576.12 192.25 576.426 192.089 576.71C191.935 576.989 191.721 577.212 191.449 577.379C191.177 577.546 190.877 577.629 190.549 577.629C190.221 577.629 189.921 577.546 189.649 577.379C189.377 577.212 189.16 576.989 188.999 576.71C188.839 576.426 188.758 576.12 188.758 575.792ZM189.565 575.792C189.565 576.083 189.661 576.33 189.853 576.534C190.051 576.738 190.283 576.84 190.549 576.84C190.821 576.84 191.053 576.738 191.245 576.534C191.443 576.33 191.542 576.083 191.542 575.792C191.542 575.501 191.443 575.254 191.245 575.049C191.053 574.845 190.821 574.743 190.549 574.743C190.283 574.743 190.051 574.845 189.853 575.049C189.661 575.254 189.565 575.501 189.565 575.792ZM193.305 579.244C193.305 578.91 193.382 578.603 193.537 578.325C193.698 578.041 193.914 577.818 194.187 577.657C194.465 577.49 194.768 577.406 195.096 577.406C195.424 577.406 195.724 577.49 195.996 577.657C196.268 577.818 196.482 578.041 196.636 578.325C196.797 578.603 196.878 578.91 196.878 579.244C196.878 579.572 196.797 579.878 196.636 580.162C196.482 580.441 196.268 580.664 195.996 580.831C195.724 580.998 195.424 581.081 195.096 581.081C194.768 581.081 194.468 580.998 194.196 580.831C193.924 580.664 193.707 580.441 193.546 580.162C193.385 579.878 193.305 579.572 193.305 579.244ZM194.103 579.244C194.103 579.528 194.202 579.776 194.4 579.986C194.598 580.19 194.83 580.292 195.096 580.292C195.368 580.292 195.6 580.19 195.792 579.986C195.99 579.782 196.089 579.535 196.089 579.244C196.089 578.953 195.99 578.706 195.792 578.501C195.6 578.297 195.368 578.195 195.096 578.195C194.83 578.195 194.598 578.297 194.4 578.501C194.202 578.706 194.103 578.953 194.103 579.244Z" fill="#4492F7"/>
<path d="M159.929 545.674V552.502H159.249V549.006H158.375V552.154H157.702V545.821H158.375V548.419H159.249V545.674H159.929ZM154.447 546.486H155.158V550.143C155.911 550.123 156.604 550.053 157.238 549.934L157.316 550.553C156.893 550.63 156.488 550.684 156.102 550.715C155.715 550.741 155.313 550.754 154.895 550.754H154.447V546.486ZM165.153 551.094V549.617H162.98V549.045H163.993V546.888H162.965V546.3H168.061V546.888H167.032V549.045H168.045V549.617H165.857V551.094H168.617V551.682H162.439V551.094H165.153ZM166.321 549.045V546.888H164.704V549.045H166.321ZM174.502 546.246V546.826H170.574V547.754H174.355V548.326H170.574V549.316H174.572V549.888H169.862V546.246H174.502ZM169.081 551.063H175.26V551.659H169.081V551.063ZM181.315 545.851V546.4H180.317V547.584H181.276V548.14H179.15V548.728H181.895V549.293H175.724V548.728H178.446V548.14H176.32V547.584H177.278V546.4H176.281V545.851H181.315ZM176.459 549.78H181.114V551.311H177.178V551.899H181.307V552.432H176.482V550.816H180.41V550.298H176.459V549.78ZM179.614 547.584V546.4H177.99V547.584H179.614ZM187.981 545.666V552.517H187.269V545.666H187.981ZM182.746 546.292H185.916V548.79H183.48V550.29C184.078 550.29 184.627 550.275 185.127 550.244C185.628 550.208 186.143 550.143 186.674 550.05L186.744 550.63C186.182 550.723 185.635 550.788 185.104 550.824C184.573 550.86 183.983 550.878 183.333 550.878H182.761V548.21H185.197V546.88H182.746V546.292ZM192.087 546.107C192.572 546.107 193.002 546.181 193.379 546.331C193.76 546.48 194.056 546.692 194.268 546.965C194.484 547.238 194.593 547.555 194.593 547.916C194.593 548.246 194.5 548.542 194.314 548.805C194.134 549.063 193.881 549.272 193.556 549.432C193.232 549.586 192.858 549.679 192.435 549.71V551.071H195.188V551.659H189.01V551.071H191.731V549.71C191.314 549.674 190.943 549.579 190.618 549.424C190.298 549.264 190.048 549.055 189.868 548.798C189.687 548.54 189.597 548.246 189.597 547.916C189.597 547.555 189.703 547.238 189.914 546.965C190.131 546.692 190.427 546.48 190.804 546.331C191.18 546.181 191.608 546.107 192.087 546.107ZM190.285 547.916C190.285 548.164 190.363 548.383 190.517 548.573C190.672 548.759 190.886 548.903 191.159 549.006C191.432 549.104 191.742 549.153 192.087 549.153C192.438 549.153 192.75 549.104 193.023 549.006C193.296 548.903 193.507 548.759 193.657 548.573C193.812 548.383 193.889 548.164 193.889 547.916C193.889 547.669 193.812 547.452 193.657 547.267C193.507 547.076 193.296 546.929 193.023 546.826C192.75 546.723 192.438 546.671 192.087 546.671C191.742 546.671 191.432 546.723 191.159 546.826C190.886 546.929 190.672 547.076 190.517 547.267C190.363 547.452 190.285 547.669 190.285 547.916Z" fill="#3B3B3B"/>
<path d="M157.973 592.108V592.781H154.37V592.108H157.973ZM165.308 592.038H166.205V592.696H165.138L164.465 595.294H163.777L163.112 592.696H162.06L161.403 595.294H160.715L160.042 592.696H158.967V592.038H159.864L159.261 589.711H159.903L160.498 592.038H161.62L162.223 589.719H162.957L163.561 592.038H164.682L165.277 589.711H165.911L165.308 592.038ZM161.055 594.235L161.449 592.696H160.661L161.055 594.235ZM162.942 592.038L162.586 590.639L162.231 592.038H162.942ZM164.125 594.235L164.519 592.696H163.731L164.125 594.235ZM168.748 595.325H168.076V590.407L167.349 590.724L167.086 590.121L168.076 589.68H168.748V595.325ZM170.159 596.245H169.656L169.911 594.652H170.63L170.159 596.245ZM174.838 594.126C174.952 593.941 175.024 593.729 175.055 593.492C175.086 593.255 175.101 592.923 175.101 592.495C175.101 592.072 175.086 591.745 175.055 591.513C175.024 591.275 174.952 591.064 174.838 590.878C174.632 590.502 174.295 590.314 173.825 590.314C173.346 590.314 173.011 590.5 172.82 590.871C172.707 591.062 172.635 591.273 172.604 591.505C172.573 591.737 172.557 592.067 172.557 592.495C172.557 592.928 172.573 593.26 172.604 593.492C172.635 593.724 172.707 593.933 172.82 594.119C173.011 594.495 173.346 594.683 173.825 594.683C174.3 594.683 174.637 594.497 174.838 594.126ZM171.869 592.495C171.869 592.026 171.887 591.644 171.923 591.35C171.964 591.056 172.062 590.781 172.217 590.523C172.351 590.28 172.55 590.069 172.812 589.889C173.075 589.708 173.413 589.618 173.825 589.618C174.238 589.618 174.576 589.708 174.838 589.889C175.101 590.064 175.302 590.275 175.442 590.523C175.596 590.781 175.692 591.054 175.728 591.342C175.769 591.631 175.79 592.015 175.79 592.495C175.79 592.979 175.769 593.368 175.728 593.662C175.692 593.951 175.596 594.224 175.442 594.482C175.302 594.729 175.101 594.943 174.838 595.124C174.581 595.299 174.243 595.387 173.825 595.387C173.413 595.387 173.075 595.297 172.812 595.116C172.55 594.936 172.351 594.724 172.217 594.482C172.062 594.219 171.964 593.941 171.923 593.647C171.887 593.348 171.869 592.964 171.869 592.495ZM179.463 592.41C179.721 592.559 179.932 592.75 180.097 592.982C180.262 593.214 180.345 593.464 180.345 593.732C180.345 594.041 180.26 594.322 180.089 594.575C179.924 594.822 179.695 595.018 179.401 595.162C179.113 595.302 178.795 595.371 178.45 595.371C178.105 595.371 177.788 595.299 177.499 595.155C177.215 595.01 176.989 594.812 176.818 594.559C176.653 594.307 176.571 594.021 176.571 593.701H177.244C177.244 593.871 177.293 594.033 177.391 594.188C177.494 594.338 177.636 594.461 177.816 594.559C178.002 594.652 178.213 594.699 178.45 594.699C178.692 594.699 178.906 594.652 179.092 594.559C179.277 594.467 179.419 594.343 179.517 594.188C179.62 594.033 179.672 593.874 179.672 593.709C179.672 593.435 179.571 593.203 179.37 593.013C179.169 592.822 178.868 592.727 178.466 592.727H178.056V592.077H178.473C178.71 592.077 178.914 592.036 179.084 591.953C179.254 591.871 179.383 591.763 179.471 591.629C179.558 591.489 179.602 591.342 179.602 591.188C179.602 591.038 179.556 590.897 179.463 590.762C179.37 590.628 179.239 590.52 179.069 590.438C178.904 590.35 178.713 590.306 178.496 590.306C178.28 590.306 178.089 590.35 177.924 590.438C177.759 590.52 177.63 590.631 177.538 590.77C177.45 590.904 177.406 591.046 177.406 591.196H176.733C176.733 590.897 176.811 590.628 176.965 590.391C177.125 590.154 177.339 589.969 177.607 589.835C177.88 589.701 178.177 589.634 178.496 589.634C178.816 589.634 179.11 589.701 179.378 589.835C179.651 589.969 179.865 590.154 180.02 590.391C180.18 590.623 180.26 590.884 180.26 591.172C180.26 591.42 180.185 591.652 180.035 591.868C179.891 592.08 179.7 592.26 179.463 592.41ZM183.017 591.737C183.347 591.737 183.651 591.819 183.929 591.984C184.207 592.149 184.427 592.374 184.586 592.657C184.746 592.935 184.826 593.24 184.826 593.57C184.826 593.91 184.744 594.219 184.579 594.497C184.419 594.771 184.197 594.987 183.914 595.147C183.635 595.307 183.329 595.387 182.993 595.387C182.653 595.387 182.318 595.307 181.988 595.147C181.658 594.987 181.406 594.773 181.23 594.505C181.22 594.49 181.205 594.467 181.184 594.436C181.163 594.405 181.14 594.369 181.114 594.327L181.718 594.003L181.803 594.134C181.916 594.294 182.084 594.428 182.305 594.536C182.532 594.644 182.761 594.699 182.993 594.699C183.21 594.699 183.406 594.65 183.581 594.552C183.762 594.448 183.903 594.312 184.006 594.142C184.11 593.966 184.161 593.776 184.161 593.57C184.161 593.348 184.107 593.149 183.999 592.974C183.896 592.799 183.754 592.662 183.573 592.564C183.398 592.466 183.205 592.417 182.993 592.417C182.808 592.417 182.62 592.453 182.429 592.526C182.243 592.593 182.089 592.685 181.965 592.804L181.486 592.526V589.688H184.432V590.345H182.158V591.938C182.416 591.804 182.702 591.737 183.017 591.737ZM185.968 596.245H185.466L185.721 594.652H186.44L185.968 596.245ZM189.527 594.699C189.759 594.699 189.963 594.65 190.138 594.552C190.318 594.448 190.457 594.314 190.555 594.149C190.653 593.985 190.702 593.807 190.702 593.616C190.702 593.425 190.653 593.25 190.555 593.09C190.457 592.925 190.318 592.794 190.138 592.696C189.963 592.598 189.759 592.549 189.527 592.549C189.295 592.549 189.089 592.598 188.908 592.696C188.733 592.794 188.596 592.925 188.498 593.09C188.401 593.25 188.352 593.425 188.352 593.616C188.352 593.807 188.401 593.987 188.498 594.157C188.596 594.322 188.733 594.454 188.908 594.552C189.089 594.65 189.295 594.699 189.527 594.699ZM187.679 593.616C187.679 593.374 187.738 593.121 187.857 592.858L189.898 589.641L190.486 590.012L189.272 591.915C189.401 591.894 189.519 591.886 189.627 591.891C189.952 591.891 190.249 591.969 190.517 592.123C190.785 592.273 190.994 592.479 191.143 592.742C191.298 593.005 191.375 593.296 191.375 593.616C191.375 593.946 191.293 594.247 191.128 594.521C190.968 594.789 190.746 595 190.463 595.155C190.179 595.309 189.867 595.387 189.527 595.387C189.182 595.387 188.867 595.309 188.584 595.155C188.305 595 188.083 594.789 187.919 594.521C187.759 594.247 187.679 593.946 187.679 593.616ZM195.116 594.126C195.229 593.941 195.302 593.729 195.333 593.492C195.364 593.255 195.379 592.923 195.379 592.495C195.379 592.072 195.364 591.745 195.333 591.513C195.302 591.275 195.229 591.064 195.116 590.878C194.91 590.502 194.572 590.314 194.103 590.314C193.624 590.314 193.289 590.5 193.098 590.871C192.984 591.062 192.912 591.273 192.881 591.505C192.85 591.737 192.835 592.067 192.835 592.495C192.835 592.928 192.85 593.26 192.881 593.492C192.912 593.724 192.984 593.933 193.098 594.119C193.289 594.495 193.624 594.683 194.103 594.683C194.577 594.683 194.915 594.497 195.116 594.126ZM192.147 592.495C192.147 592.026 192.165 591.644 192.201 591.35C192.242 591.056 192.34 590.781 192.495 590.523C192.629 590.28 192.827 590.069 193.09 589.889C193.353 589.708 193.691 589.618 194.103 589.618C194.515 589.618 194.853 589.708 195.116 589.889C195.379 590.064 195.58 590.275 195.719 590.523C195.874 590.781 195.969 591.054 196.005 591.342C196.047 591.631 196.067 592.015 196.067 592.495C196.067 592.979 196.047 593.368 196.005 593.662C195.969 593.951 195.874 594.224 195.719 594.482C195.58 594.729 195.379 594.943 195.116 595.124C194.858 595.299 194.521 595.387 194.103 595.387C193.691 595.387 193.353 595.297 193.09 595.116C192.827 594.936 192.629 594.724 192.495 594.482C192.34 594.219 192.242 593.941 192.201 593.647C192.165 593.348 192.147 592.964 192.147 592.495ZM199.818 594.126C199.931 593.941 200.004 593.729 200.035 593.492C200.065 593.255 200.081 592.923 200.081 592.495C200.081 592.072 200.065 591.745 200.035 591.513C200.004 591.275 199.931 591.064 199.818 590.878C199.612 590.502 199.274 590.314 198.805 590.314C198.326 590.314 197.99 590.5 197.8 590.871C197.686 591.062 197.614 591.273 197.583 591.505C197.552 591.737 197.537 592.067 197.537 592.495C197.537 592.928 197.552 593.26 197.583 593.492C197.614 593.724 197.686 593.933 197.8 594.119C197.99 594.495 198.326 594.683 198.805 594.683C199.279 594.683 199.617 594.497 199.818 594.126ZM196.849 592.495C196.849 592.026 196.867 591.644 196.903 591.35C196.944 591.056 197.042 590.781 197.197 590.523C197.331 590.28 197.529 590.069 197.792 589.889C198.055 589.708 198.393 589.618 198.805 589.618C199.217 589.618 199.555 589.708 199.818 589.889C200.081 590.064 200.282 590.275 200.421 590.523C200.576 590.781 200.671 591.054 200.707 591.342C200.749 591.631 200.769 592.015 200.769 592.495C200.769 592.979 200.749 593.368 200.707 593.662C200.671 593.951 200.576 594.224 200.421 594.482C200.282 594.729 200.081 594.943 199.818 595.124C199.56 595.299 199.223 595.387 198.805 595.387C198.393 595.387 198.055 595.297 197.792 595.116C197.529 594.936 197.331 594.724 197.197 594.482C197.042 594.219 196.944 593.941 196.903 593.647C196.867 593.348 196.849 592.964 196.849 592.495Z" fill="#818181"/>
<rect x="268.713" y="546.372" width="4.5476" height="4.39712" rx="2.19856" fill="#FF5852"/>
<path d="M278.031 545.92C278.366 545.92 278.665 545.98 278.928 546.098C279.196 546.217 279.405 546.384 279.555 546.601C279.704 546.812 279.779 547.057 279.779 547.335C279.779 547.609 279.704 547.854 279.555 548.07C279.405 548.287 279.196 548.454 278.928 548.573C278.665 548.691 278.366 548.751 278.031 548.751C277.696 548.751 277.395 548.691 277.127 548.573C276.864 548.454 276.657 548.287 276.508 548.07C276.358 547.854 276.284 547.609 276.284 547.335C276.284 547.057 276.358 546.812 276.508 546.601C276.657 546.384 276.864 546.217 277.127 546.098C277.395 545.98 277.696 545.92 278.031 545.92ZM275.797 549.284C276.616 549.284 277.397 549.269 278.14 549.238C278.887 549.207 279.593 549.142 280.258 549.044L280.305 549.57C279.763 549.673 279.135 549.751 278.418 549.802V552.215H277.707V549.841C277.16 549.867 276.554 549.88 275.889 549.88L275.797 549.284ZM276.964 547.335C276.964 547.583 277.062 547.784 277.258 547.939C277.459 548.088 277.717 548.163 278.031 548.163C278.346 548.163 278.601 548.088 278.797 547.939C278.998 547.784 279.098 547.583 279.098 547.335C279.098 547.088 278.998 546.887 278.797 546.732C278.601 546.578 278.346 546.5 278.031 546.5C277.717 546.5 277.459 546.578 277.258 546.732C277.062 546.887 276.964 547.088 276.964 547.335ZM280.722 545.603H281.426V552.439H280.722V545.603ZM288.084 545.611V549.74H287.373V548.248H286.306V547.652H287.373V545.611H288.084ZM282.455 546.291H284.086V545.549H284.79V546.291H286.414V546.864H282.455V546.291ZM282.841 548.403C282.841 548.165 282.908 547.954 283.042 547.768C283.182 547.583 283.372 547.439 283.615 547.335C283.857 547.232 284.13 547.181 284.434 547.181C284.738 547.181 285.012 547.232 285.254 547.335C285.496 547.439 285.684 547.583 285.818 547.768C285.958 547.954 286.027 548.165 286.027 548.403C286.027 548.64 285.958 548.851 285.818 549.037C285.684 549.222 285.496 549.367 285.254 549.47C285.017 549.568 284.744 549.617 284.434 549.617C284.125 549.617 283.849 549.568 283.607 549.47C283.37 549.367 283.182 549.222 283.042 549.037C282.908 548.851 282.841 548.64 282.841 548.403ZM283.53 548.403C283.53 548.609 283.612 548.774 283.777 548.897C283.947 549.021 284.166 549.083 284.434 549.083C284.702 549.083 284.921 549.021 285.092 548.897C285.262 548.769 285.347 548.604 285.347 548.403C285.347 548.202 285.262 548.039 285.092 547.915C284.921 547.787 284.702 547.722 284.434 547.722C284.166 547.722 283.947 547.784 283.777 547.908C283.612 548.031 283.53 548.196 283.53 548.403ZM283.63 550.081H288.084V552.339H283.63V550.081ZM287.388 551.774V550.653H284.326V551.774H287.388Z" fill="black"/>
<path d="M158.439 573.4L157.441 573.4L157.441 580.652L155.107 578.396L154.399 579.081L157.94 582.504L161.481 579.081L160.773 578.396L158.439 580.652V573.4Z" fill="#4492F7"/>
<path d="M208.918 595.246C210.453 595.246 211.697 594.013 211.697 592.491C211.697 590.97 210.453 589.736 208.918 589.736C207.383 589.736 206.139 590.97 206.139 592.491C206.139 594.013 207.383 595.246 208.918 595.246Z" stroke="#818181" stroke-width="0.670939" stroke-linecap="round" stroke-linejoin="round"/>
<path d="M208.918 594.327C209.11 594.327 209.265 594.173 209.265 593.983C209.265 593.793 209.11 593.639 208.918 593.639C208.726 593.639 208.57 593.793 208.57 593.983C208.57 594.173 208.726 594.327 208.918 594.327Z" fill="#818181"/>
<path d="M208.916 592.95V592.72C209.076 592.72 209.233 592.673 209.366 592.585C209.5 592.497 209.604 592.371 209.665 592.224C209.726 592.077 209.742 591.916 209.711 591.76C209.68 591.604 209.603 591.461 209.489 591.349C209.376 591.236 209.231 591.16 209.074 591.129C208.917 591.098 208.754 591.114 208.606 591.174C208.458 591.235 208.331 591.338 208.242 591.47C208.153 591.603 208.105 591.758 208.105 591.917" stroke="#818181" stroke-width="0.670939" stroke-linecap="round" stroke-linejoin="round"/>
<circle cx="206.068" cy="274.224" r="60.7808" fill="#4FEDAE"/>
<path d="M206.068 213.443C215.572 213.443 224.944 215.672 233.43 219.951C241.917 224.229 249.282 230.439 254.934 238.08C260.586 245.721 264.367 254.581 265.974 263.948C267.581 273.315 266.968 282.929 264.186 292.017C261.404 301.105 256.529 309.413 249.954 316.276C243.378 323.138 235.285 328.363 226.324 331.53C217.363 334.698 207.785 335.72 198.357 334.514C188.93 333.308 179.917 329.908 172.041 324.588L206.068 274.224L206.068 213.443Z" fill="#6792F8"/>
<path d="M172.162 324.669C161.99 317.832 154.122 308.079 149.592 296.691C145.061 285.303 144.08 272.81 146.776 260.854L206.068 274.224L172.162 324.669Z" fill="#FFE073"/>
<ellipse cx="206.069" cy="274.462" rx="36.0886" ry="35.8512" fill="white"/>
<path d="M189.285 272.533H190.203V273.206H189.111L188.423 275.864H187.719L187.038 273.206H185.962L185.29 275.864H184.586L183.897 273.206H182.798V272.533H183.715L183.098 270.152H183.755L184.364 272.533H185.511L186.129 270.16H186.88L187.497 272.533H188.645L189.254 270.152H189.903L189.285 272.533ZM184.934 274.78L185.337 273.206H184.53L184.934 274.78ZM186.864 272.533L186.5 271.101L186.136 272.533H186.864ZM188.075 274.78L188.478 273.206H187.671L188.075 274.78ZM194.222 272.913C194.485 273.066 194.702 273.261 194.87 273.499C195.039 273.736 195.124 273.992 195.124 274.266C195.124 274.583 195.037 274.87 194.863 275.128C194.694 275.382 194.459 275.582 194.158 275.73C193.863 275.872 193.539 275.943 193.185 275.943C192.832 275.943 192.507 275.87 192.212 275.722C191.922 275.574 191.69 275.371 191.516 275.113C191.347 274.854 191.263 274.561 191.263 274.234H191.951C191.951 274.408 192.001 274.575 192.101 274.733C192.207 274.886 192.352 275.012 192.536 275.113C192.726 275.208 192.943 275.255 193.185 275.255C193.433 275.255 193.652 275.208 193.842 275.113C194.032 275.018 194.177 274.891 194.277 274.733C194.383 274.575 194.435 274.411 194.435 274.242C194.435 273.963 194.332 273.725 194.127 273.53C193.921 273.335 193.612 273.237 193.201 273.237H192.782V272.573H193.209C193.452 272.573 193.66 272.531 193.834 272.446C194.008 272.362 194.14 272.251 194.23 272.114C194.319 271.972 194.364 271.821 194.364 271.663C194.364 271.51 194.317 271.365 194.222 271.228C194.127 271.091 193.992 270.98 193.818 270.895C193.649 270.806 193.454 270.761 193.233 270.761C193.011 270.761 192.816 270.806 192.647 270.895C192.478 270.98 192.347 271.093 192.252 271.236C192.162 271.373 192.117 271.518 192.117 271.671H191.429C191.429 271.365 191.508 271.091 191.666 270.848C191.83 270.605 192.049 270.415 192.323 270.278C192.602 270.141 192.906 270.073 193.233 270.073C193.56 270.073 193.86 270.141 194.135 270.278C194.414 270.415 194.633 270.605 194.791 270.848C194.955 271.085 195.037 271.352 195.037 271.647C195.037 271.9 194.96 272.138 194.807 272.359C194.659 272.575 194.464 272.76 194.222 272.913ZM196.402 276.837H195.887L196.149 275.208H196.884L196.402 276.837ZM201.23 272.913C201.493 273.066 201.71 273.261 201.879 273.499C202.047 273.736 202.132 273.992 202.132 274.266C202.132 274.583 202.045 274.87 201.871 275.128C201.702 275.382 201.467 275.582 201.166 275.73C200.871 275.872 200.547 275.943 200.193 275.943C199.84 275.943 199.515 275.87 199.22 275.722C198.93 275.574 198.698 275.371 198.524 275.113C198.355 274.854 198.271 274.561 198.271 274.234H198.959C198.959 274.408 199.009 274.575 199.109 274.733C199.215 274.886 199.36 275.012 199.544 275.113C199.734 275.208 199.951 275.255 200.193 275.255C200.441 275.255 200.66 275.208 200.85 275.113C201.04 275.018 201.185 274.891 201.285 274.733C201.391 274.575 201.443 274.411 201.443 274.242C201.443 273.963 201.34 273.725 201.135 273.53C200.929 273.335 200.62 273.237 200.209 273.237H199.79V272.573H200.217C200.46 272.573 200.668 272.531 200.842 272.446C201.016 272.362 201.148 272.251 201.238 272.114C201.327 271.972 201.372 271.821 201.372 271.663C201.372 271.51 201.325 271.365 201.23 271.228C201.135 271.091 201 270.98 200.826 270.895C200.657 270.806 200.462 270.761 200.241 270.761C200.019 270.761 199.824 270.806 199.655 270.895C199.486 270.98 199.355 271.093 199.26 271.236C199.17 271.373 199.125 271.518 199.125 271.671H198.437C198.437 271.365 198.516 271.091 198.674 270.848C198.838 270.605 199.057 270.415 199.331 270.278C199.61 270.141 199.914 270.073 200.241 270.073C200.568 270.073 200.868 270.141 201.143 270.278C201.422 270.415 201.641 270.605 201.799 270.848C201.963 271.085 202.045 271.352 202.045 271.647C202.045 271.9 201.968 272.138 201.815 272.359C201.668 272.575 201.472 272.76 201.23 272.913ZM206.511 273.831H207.326V274.503H206.511V275.896H205.847V274.503H203.038V273.847L205.847 270.12H206.511V273.831ZM205.847 273.831V271.172L203.877 273.831H205.847ZM210.192 275.287C210.424 275.287 210.635 275.239 210.825 275.144C211.015 275.044 211.163 274.917 211.268 274.764C211.379 274.606 211.434 274.44 211.434 274.266C211.434 274.092 211.379 273.926 211.268 273.768C211.163 273.609 211.015 273.483 210.825 273.388C210.64 273.293 210.429 273.245 210.192 273.245C209.955 273.245 209.741 273.293 209.551 273.388C209.361 273.483 209.211 273.609 209.1 273.768C208.995 273.926 208.942 274.092 208.942 274.266C208.942 274.44 208.995 274.606 209.1 274.764C209.211 274.917 209.361 275.044 209.551 275.144C209.741 275.239 209.955 275.287 210.192 275.287ZM208.246 274.266C208.246 273.976 208.322 273.71 208.475 273.467C208.633 273.219 208.847 273.021 209.116 272.874C208.894 272.726 208.72 272.546 208.594 272.335C208.467 272.124 208.404 271.895 208.404 271.647C208.404 271.352 208.486 271.085 208.649 270.848C208.818 270.605 209.04 270.418 209.314 270.286C209.588 270.149 209.881 270.081 210.192 270.081C210.503 270.081 210.796 270.149 211.07 270.286C211.345 270.418 211.563 270.605 211.727 270.848C211.896 271.085 211.98 271.352 211.98 271.647C211.98 271.895 211.917 272.124 211.79 272.335C211.664 272.546 211.49 272.726 211.268 272.874C211.532 273.026 211.743 273.224 211.901 273.467C212.059 273.71 212.138 273.976 212.138 274.266C212.138 274.583 212.049 274.873 211.869 275.136C211.69 275.395 211.45 275.598 211.149 275.746C210.854 275.893 210.535 275.967 210.192 275.967C209.849 275.967 209.527 275.893 209.227 275.746C208.931 275.598 208.694 275.395 208.515 275.136C208.335 274.873 208.246 274.583 208.246 274.266ZM209.108 271.639C209.108 271.787 209.153 271.929 209.243 272.066C209.338 272.198 209.467 272.306 209.63 272.391C209.799 272.475 209.986 272.517 210.192 272.517C210.398 272.517 210.582 272.475 210.746 272.391C210.915 272.306 211.044 272.198 211.134 272.066C211.229 271.929 211.276 271.787 211.276 271.639C211.276 271.492 211.229 271.352 211.134 271.22C211.044 271.083 210.915 270.972 210.746 270.888C210.582 270.803 210.398 270.761 210.192 270.761C209.986 270.761 209.799 270.803 209.63 270.888C209.467 270.972 209.338 271.083 209.243 271.22C209.153 271.352 209.108 271.492 209.108 271.639ZM213.423 276.837H212.909L213.17 275.208H213.906L213.423 276.837ZM217.175 272.976C217.413 272.976 217.621 272.926 217.8 272.826C217.985 272.726 218.127 272.591 218.228 272.423C218.328 272.254 218.378 272.072 218.378 271.877C218.378 271.676 218.328 271.492 218.228 271.323C218.127 271.154 217.985 271.019 217.8 270.919C217.621 270.814 217.413 270.761 217.175 270.761C216.938 270.761 216.73 270.814 216.55 270.919C216.371 271.019 216.231 271.154 216.131 271.323C216.031 271.492 215.981 271.676 215.981 271.877C215.981 272.072 216.031 272.254 216.131 272.423C216.231 272.591 216.371 272.726 216.55 272.826C216.73 272.926 216.938 272.976 217.175 272.976ZM215.292 271.877C215.292 271.539 215.374 271.233 215.538 270.959C215.706 270.679 215.933 270.46 216.218 270.302C216.508 270.144 216.83 270.065 217.183 270.065C217.531 270.065 217.848 270.144 218.133 270.302C218.423 270.46 218.65 270.679 218.813 270.959C218.982 271.233 219.066 271.539 219.066 271.877C219.066 272.156 219.008 272.412 218.892 272.644L216.804 275.92L216.202 275.548L217.429 273.617C217.344 273.628 217.284 273.633 217.247 273.633L217.057 273.625C216.719 273.615 216.416 273.533 216.147 273.38C215.878 273.222 215.667 273.011 215.514 272.747C215.366 272.483 215.292 272.193 215.292 271.877ZM221.644 275.896H220.956V270.864L220.212 271.188L219.943 270.571L220.956 270.12H221.644V275.896ZM224.724 275.255C224.962 275.255 225.17 275.205 225.35 275.105C225.534 274.999 225.677 274.862 225.777 274.693C225.877 274.524 225.927 274.343 225.927 274.147C225.927 273.952 225.877 273.773 225.777 273.609C225.677 273.441 225.534 273.306 225.35 273.206C225.17 273.106 224.962 273.055 224.724 273.055C224.487 273.055 224.276 273.106 224.092 273.206C223.912 273.306 223.772 273.441 223.672 273.609C223.572 273.773 223.522 273.952 223.522 274.147C223.522 274.343 223.572 274.527 223.672 274.701C223.772 274.87 223.912 275.004 224.092 275.105C224.276 275.205 224.487 275.255 224.724 275.255ZM222.834 274.147C222.834 273.899 222.894 273.641 223.015 273.372L225.104 270.081L225.706 270.46L224.463 272.407C224.595 272.386 224.717 272.378 224.827 272.383C225.16 272.383 225.463 272.462 225.737 272.62C226.012 272.773 226.225 272.984 226.378 273.253C226.536 273.522 226.615 273.82 226.615 274.147C226.615 274.485 226.531 274.793 226.362 275.073C226.199 275.347 225.972 275.564 225.682 275.722C225.392 275.88 225.073 275.959 224.724 275.959C224.371 275.959 224.049 275.88 223.759 275.722C223.474 275.564 223.248 275.347 223.079 275.073C222.915 274.793 222.834 274.485 222.834 274.147Z" fill="#8C8C8C"/>
<path d="M141.782 195.839V196.916H144.942V197.574H137.839V196.916H140.972V195.839H141.782ZM138.213 195.589C138.676 195.548 139.1 195.453 139.486 195.305C139.877 195.156 140.192 194.975 140.429 194.762C140.673 194.542 140.812 194.305 140.848 194.049H138.489V193.391H144.301V194.049H141.942C141.978 194.299 142.115 194.533 142.352 194.753C142.589 194.972 142.901 195.156 143.287 195.305C143.678 195.453 144.105 195.548 144.568 195.589L144.275 196.239C143.592 196.162 142.99 195.987 142.468 195.714C141.951 195.441 141.589 195.097 141.382 194.681C141.174 195.097 140.812 195.441 140.296 195.714C139.78 195.987 139.18 196.162 138.498 196.239L138.213 195.589ZM138.685 199.533C138.685 199.093 138.922 198.755 139.397 198.518C139.872 198.28 140.533 198.162 141.382 198.162C142.23 198.162 142.892 198.28 143.367 198.518C143.841 198.755 144.079 199.093 144.079 199.533C144.079 199.96 143.841 200.289 143.367 200.521C142.892 200.758 142.23 200.877 141.382 200.877C140.533 200.877 139.872 200.758 139.397 200.521C138.922 200.289 138.685 199.96 138.685 199.533ZM139.504 199.533C139.504 199.764 139.667 199.945 139.993 200.075C140.325 200.2 140.788 200.262 141.382 200.262C141.975 200.262 142.432 200.2 142.752 200.075C143.079 199.945 143.242 199.764 143.242 199.533C143.242 199.289 143.079 199.105 142.752 198.981C142.432 198.85 141.975 198.785 141.382 198.785C140.782 198.785 140.32 198.85 139.993 198.981C139.667 199.105 139.504 199.289 139.504 199.533ZM151.805 193.364V196.061H149.571V196.978H152.722V197.637H145.619V196.978H148.761V196.061H146.518V193.364H151.805ZM146.411 198.384H151.85V200.903H151.022V199.043H146.411V198.384ZM150.995 195.402V194.005H147.319V195.402H150.995ZM159.879 193.044V197.12H159.069V196.186H157.36V196.835H153.764V193.4H154.582V194.468H156.55V193.4H157.36V194.121H159.069V193.044H159.879ZM156.55 196.177V195.1H154.582V196.177H156.55ZM154.796 197.485H159.879V199.408H155.615V200.138H160.163V200.788H154.814V198.794H159.077V198.135H154.796V197.485ZM159.069 195.554V194.753H157.36V195.554H159.069ZM169.674 193.026V200.912H168.855V193.026H169.674ZM163.666 193.685H164.476V195.732H166.594V193.685H167.404V199.025H163.666V193.685ZM166.594 198.358V196.373H164.476V198.358H166.594ZM178.112 196.693V197.352H174.953V198.108C175.682 198.15 176.246 198.292 176.644 198.536C177.047 198.773 177.249 199.093 177.249 199.497C177.249 199.936 177.012 200.274 176.537 200.512C176.062 200.755 175.401 200.877 174.552 200.877C173.703 200.877 173.042 200.755 172.567 200.512C172.092 200.274 171.855 199.936 171.855 199.497C171.855 199.087 172.054 198.764 172.451 198.527C172.855 198.289 173.419 198.15 174.143 198.108V197.352H171.009V196.693H178.112ZM171.383 195.607C171.846 195.566 172.27 195.471 172.656 195.322C173.048 195.168 173.362 194.981 173.6 194.762C173.843 194.542 173.982 194.305 174.018 194.049H171.659V193.391H177.472V194.049H175.113C175.148 194.305 175.285 194.545 175.522 194.77C175.76 194.99 176.071 195.174 176.457 195.322C176.843 195.471 177.27 195.566 177.739 195.607L177.445 196.257C176.762 196.18 176.163 196.005 175.647 195.732C175.131 195.453 174.769 195.106 174.561 194.69C174.347 195.106 173.982 195.453 173.466 195.732C172.95 196.005 172.354 196.18 171.677 196.257L171.383 195.607ZM172.674 199.497C172.674 199.74 172.837 199.927 173.163 200.058C173.49 200.182 173.953 200.245 174.552 200.245C175.145 200.245 175.602 200.182 175.923 200.058C176.249 199.927 176.412 199.74 176.412 199.497C176.412 199.248 176.249 199.061 175.923 198.936C175.602 198.806 175.145 198.74 174.552 198.74C173.953 198.74 173.49 198.806 173.163 198.936C172.837 199.061 172.674 199.248 172.674 199.497Z" fill="#818181"/>
<rect x="288.455" y="215.604" width="6.48328" height="16.7485" fill="#6792F8"/>
<rect x="288.455" y="240.457" width="6.48328" height="16.7485" fill="#6FC183"/>
<rect x="418.664" y="215.064" width="6.48328" height="16.7485" fill="#F8D25C"/>
<path d="M303.688 221.1C303.688 221.843 303.595 222.524 303.411 223.141C303.226 223.753 302.902 224.325 302.437 224.858C301.973 225.385 301.338 225.852 300.531 226.258L300.135 225.689C300.752 225.388 301.256 225.05 301.646 224.676C302.042 224.301 302.345 223.885 302.556 223.426L300.277 223.647L300.175 223.014L302.778 222.84C302.883 222.476 302.946 222.094 302.968 221.693H300.531V221.1H303.688ZM304.756 220.38H305.484V223.18H306.568V223.79H305.484V227.374H304.756V220.38ZM310.603 221.1C310.603 221.843 310.511 222.524 310.326 223.141C310.141 223.753 309.817 224.325 309.353 224.858C308.889 225.385 308.253 225.852 307.446 226.258L307.05 225.689C307.667 225.388 308.171 225.05 308.562 224.676C308.957 224.301 309.26 223.885 309.471 223.426L307.193 223.647L307.09 223.014L309.693 222.84C309.798 222.476 309.862 222.094 309.883 221.693H307.446V221.1H310.603ZM311.671 220.38H312.399V223.18H313.483V223.79H312.399V227.374H311.671V220.38ZM317.075 220.831C317.571 220.831 318.011 220.907 318.396 221.06C318.787 221.213 319.09 221.429 319.306 221.709C319.528 221.988 319.639 222.313 319.639 222.682C319.639 223.02 319.544 223.323 319.354 223.592C319.169 223.856 318.911 224.069 318.578 224.233C318.246 224.391 317.864 224.486 317.431 224.518V225.91H320.248V226.511H313.926V225.91H316.711V224.518C316.284 224.481 315.904 224.383 315.572 224.225C315.245 224.061 314.989 223.848 314.804 223.584C314.62 223.32 314.527 223.02 314.527 222.682C314.527 222.313 314.636 221.988 314.852 221.709C315.073 221.429 315.377 221.213 315.762 221.06C316.147 220.907 316.585 220.831 317.075 220.831ZM315.232 222.682C315.232 222.935 315.311 223.159 315.469 223.355C315.627 223.544 315.846 223.692 316.126 223.798C316.405 223.898 316.722 223.948 317.075 223.948C317.434 223.948 317.753 223.898 318.032 223.798C318.312 223.692 318.528 223.544 318.681 223.355C318.839 223.159 318.919 222.935 318.919 222.682C318.919 222.429 318.839 222.207 318.681 222.017C318.528 221.822 318.312 221.672 318.032 221.566C317.753 221.461 317.434 221.408 317.075 221.408C316.722 221.408 316.405 221.461 316.126 221.566C315.846 221.672 315.627 221.822 315.469 222.017C315.311 222.207 315.232 222.429 315.232 222.682Z" fill="#4A4A4A"/>
<path d="M303.925 247.868V245.407H304.613V251.879H303.925V248.461H302.983V247.868H303.925ZM300.349 246.064H302.936V246.657H301.037V247.955H302.627V248.525H301.037V249.996C301.543 249.991 301.957 249.978 302.279 249.957C302.601 249.936 302.925 249.891 303.252 249.822L303.324 250.416C302.949 250.484 302.58 250.529 302.216 250.55C301.852 250.571 301.38 250.582 300.8 250.582H300.349V246.064ZM305.349 245.241H306.045V252.227H305.349V245.241ZM310.532 245.304V245.526C310.532 245.79 310.64 246.04 310.856 246.278C311.078 246.515 311.376 246.713 311.75 246.871C312.125 247.029 312.536 247.132 312.984 247.18L312.731 247.741C312.156 247.662 311.639 247.504 311.18 247.267C310.722 247.029 310.384 246.731 310.168 246.372C309.951 246.731 309.611 247.029 309.147 247.267C308.688 247.504 308.171 247.662 307.596 247.741L307.351 247.18C307.794 247.132 308.203 247.029 308.577 246.871C308.952 246.713 309.247 246.515 309.464 246.278C309.685 246.04 309.796 245.79 309.796 245.526V245.304H310.532ZM307.011 248.137H313.325V248.722H307.011V248.137ZM307.762 249.308H312.525V250.961H308.498V251.594H312.723V252.156H307.786V250.439H311.805V249.854H307.762V249.308ZM319.314 245.233V247.979H320.414V248.596H319.314V252.243H318.586V245.233H319.314ZM314.195 245.874H317.352V248.438H314.923V249.965C315.561 249.965 316.115 249.949 316.585 249.917C317.059 249.88 317.537 249.817 318.017 249.727L318.088 250.321C317.566 250.416 317.051 250.481 316.545 250.518C316.039 250.555 315.445 250.574 314.765 250.574H314.203V247.844H316.64V246.475H314.195V245.874Z" fill="#4A4A4A"/>
<path d="M431.875 220.409C432.176 220.409 432.439 220.509 432.666 220.71C432.893 220.905 433.067 221.187 433.188 221.557C433.31 221.926 433.37 222.361 433.37 222.862C433.37 223.363 433.31 223.801 433.188 224.175C433.067 224.545 432.893 224.829 432.666 225.03C432.439 225.23 432.176 225.331 431.875 225.331C431.574 225.331 431.311 225.23 431.084 225.03C430.862 224.829 430.691 224.545 430.57 224.175C430.448 223.801 430.388 223.363 430.388 222.862C430.388 222.366 430.448 221.934 430.57 221.564C430.691 221.19 430.862 220.905 431.084 220.71C431.311 220.509 431.574 220.409 431.875 220.409ZM431.052 222.862C431.052 223.421 431.126 223.859 431.274 224.175C431.421 224.487 431.622 224.642 431.875 224.642C432.134 224.642 432.337 224.487 432.484 224.175C432.632 223.859 432.706 223.421 432.706 222.862C432.706 222.308 432.632 221.876 432.484 221.564C432.337 221.253 432.134 221.098 431.875 221.098C431.622 221.098 431.421 221.253 431.274 221.564C431.126 221.876 431.052 222.308 431.052 222.862ZM434.011 219.998H434.7V222.593H435.554V219.847H436.258V226.834H435.554V223.186H434.7V226.494H434.011V219.998ZM442.936 220.061V220.615H441.916V221.841H442.897V222.395H437.825V221.841H438.806V220.615H437.786V220.061H442.936ZM437.216 222.909H443.53V223.503H437.216V222.909ZM437.968 224.057H442.731V225.639H438.703V226.217H442.928V226.763H437.991V225.125H442.011V224.595H437.968V224.057ZM441.196 221.841V220.615H439.534V221.841H441.196Z" fill="#4A4A4A"/>
<path d="M380.776 226.155C381.014 226.155 381.222 226.105 381.401 226.005C381.586 225.9 381.728 225.762 381.829 225.594C381.929 225.425 381.979 225.243 381.979 225.048C381.979 224.853 381.929 224.673 381.829 224.51C381.728 224.341 381.586 224.206 381.401 224.106C381.222 224.006 381.014 223.956 380.776 223.956C380.539 223.956 380.328 224.006 380.143 224.106C379.964 224.206 379.824 224.341 379.724 224.51C379.624 224.673 379.574 224.853 379.574 225.048C379.574 225.243 379.624 225.428 379.724 225.602C379.824 225.77 379.964 225.905 380.143 226.005C380.328 226.105 380.539 226.155 380.776 226.155ZM378.885 225.048C378.885 224.8 378.946 224.541 379.067 224.272L381.156 220.981L381.757 221.361L380.515 223.307C380.647 223.286 380.768 223.278 380.879 223.283C381.211 223.283 381.515 223.362 381.789 223.521C382.063 223.674 382.277 223.885 382.43 224.154C382.588 224.423 382.667 224.721 382.667 225.048C382.667 225.385 382.583 225.694 382.414 225.973C382.251 226.248 382.024 226.464 381.734 226.622C381.444 226.78 381.124 226.86 380.776 226.86C380.423 226.86 380.101 226.78 379.811 226.622C379.526 226.464 379.299 226.248 379.131 225.973C378.967 225.694 378.885 225.385 378.885 225.048ZM385.237 226.796H384.549V221.764L383.805 222.089L383.536 221.471L384.549 221.021H385.237V226.796ZM387.178 226.1V226.82H386.434V226.1H387.178ZM391.597 225.57C391.713 225.38 391.787 225.164 391.819 224.921C391.85 224.679 391.866 224.338 391.866 223.9C391.866 223.468 391.85 223.133 391.819 222.896C391.787 222.653 391.713 222.437 391.597 222.247C391.386 221.862 391.041 221.669 390.561 221.669C390.07 221.669 389.727 221.859 389.532 222.239C389.416 222.434 389.342 222.65 389.311 222.888C389.279 223.125 389.263 223.463 389.263 223.9C389.263 224.344 389.279 224.684 389.311 224.921C389.342 225.159 389.416 225.372 389.532 225.562C389.727 225.947 390.07 226.14 390.561 226.14C391.046 226.14 391.392 225.95 391.597 225.57ZM388.559 223.9C388.559 223.42 388.578 223.03 388.614 222.73C388.657 222.429 388.757 222.147 388.915 221.883C389.052 221.635 389.255 221.419 389.524 221.234C389.793 221.05 390.139 220.957 390.561 220.957C390.983 220.957 391.328 221.05 391.597 221.234C391.866 221.413 392.072 221.63 392.214 221.883C392.373 222.147 392.47 222.426 392.507 222.722C392.549 223.017 392.57 223.41 392.57 223.9C392.57 224.396 392.549 224.795 392.507 225.095C392.47 225.391 392.373 225.67 392.214 225.934C392.072 226.187 391.866 226.406 391.597 226.591C391.334 226.77 390.988 226.86 390.561 226.86C390.139 226.86 389.793 226.767 389.524 226.583C389.255 226.398 389.052 226.182 388.915 225.934C388.757 225.665 388.657 225.38 388.614 225.079C388.578 224.773 388.559 224.38 388.559 223.9ZM398.671 221.021H399.415L395.799 226.78H395.063L398.671 221.021ZM393.742 222.413C393.742 222.133 393.808 221.875 393.94 221.638C394.077 221.395 394.261 221.202 394.493 221.06C394.731 220.918 394.989 220.846 395.269 220.846C395.548 220.846 395.804 220.918 396.036 221.06C396.268 221.202 396.45 221.395 396.582 221.638C396.719 221.875 396.788 222.133 396.788 222.413C396.788 222.693 396.719 222.954 396.582 223.196C396.45 223.434 396.268 223.624 396.036 223.766C395.804 223.908 395.548 223.98 395.269 223.98C394.989 223.98 394.733 223.908 394.501 223.766C394.269 223.624 394.085 223.434 393.948 223.196C393.81 222.954 393.742 222.693 393.742 222.413ZM394.43 222.413C394.43 222.661 394.512 222.872 394.675 223.046C394.844 223.22 395.042 223.307 395.269 223.307C395.501 223.307 395.699 223.22 395.862 223.046C396.031 222.872 396.115 222.661 396.115 222.413C396.115 222.165 396.031 221.954 395.862 221.78C395.699 221.606 395.501 221.519 395.269 221.519C395.042 221.519 394.844 221.606 394.675 221.78C394.512 221.954 394.43 222.165 394.43 222.413ZM397.619 225.356C397.619 225.071 397.685 224.81 397.817 224.573C397.954 224.33 398.138 224.14 398.37 224.003C398.608 223.861 398.866 223.79 399.146 223.79C399.425 223.79 399.681 223.861 399.913 224.003C400.145 224.14 400.327 224.33 400.459 224.573C400.596 224.81 400.665 225.071 400.665 225.356C400.665 225.636 400.596 225.897 400.459 226.14C400.327 226.377 400.145 226.567 399.913 226.709C399.681 226.852 399.425 226.923 399.146 226.923C398.866 226.923 398.61 226.852 398.378 226.709C398.146 226.567 397.962 226.377 397.824 226.14C397.687 225.897 397.619 225.636 397.619 225.356ZM398.299 225.356C398.299 225.599 398.384 225.81 398.552 225.989C398.721 226.163 398.919 226.25 399.146 226.25C399.378 226.25 399.576 226.163 399.739 225.989C399.908 225.815 399.992 225.604 399.992 225.356C399.992 225.108 399.908 224.897 399.739 224.723C399.576 224.549 399.378 224.462 399.146 224.462C398.919 224.462 398.721 224.549 398.552 224.723C398.384 224.897 398.299 225.108 398.299 225.356Z" fill="#4A4A4A"/>
<path d="M379.6 247.132C379.7 246.942 379.845 246.792 380.035 246.681C380.23 246.565 380.439 246.507 380.66 246.507C380.845 246.507 381.008 246.539 381.151 246.602C381.367 246.697 381.533 246.837 381.649 247.021C381.771 247.201 381.831 247.396 381.831 247.607C381.831 247.76 381.8 247.907 381.736 248.05C381.699 248.113 381.631 248.208 381.531 248.335L378.777 250.906V251.571H382.654V250.89H379.806L382.029 248.801C382.161 248.68 382.28 248.517 382.385 248.311C382.491 248.084 382.543 247.841 382.543 247.583C382.543 247.235 382.443 246.913 382.243 246.618C382.042 246.322 381.773 246.111 381.436 245.985C381.193 245.879 380.935 245.827 380.66 245.827C380.307 245.827 379.977 245.919 379.671 246.103C379.365 246.288 379.136 246.541 378.983 246.863C378.946 246.937 378.912 247.027 378.88 247.132L379.537 247.306C379.558 247.232 379.579 247.174 379.6 247.132ZM385.237 251.65H384.549V246.618L383.805 246.942L383.536 246.325L384.549 245.874H385.237V251.65ZM387.178 250.954V251.674H386.434V250.954H387.178ZM391.597 250.423C391.713 250.234 391.787 250.017 391.819 249.775C391.85 249.532 391.866 249.192 391.866 248.754C391.866 248.321 391.85 247.987 391.819 247.749C391.787 247.507 391.713 247.29 391.597 247.1C391.386 246.715 391.041 246.523 390.561 246.523C390.07 246.523 389.727 246.713 389.532 247.092C389.416 247.288 389.342 247.504 389.311 247.741C389.279 247.979 389.263 248.316 389.263 248.754C389.263 249.197 389.279 249.537 389.311 249.775C389.342 250.012 389.416 250.226 389.532 250.416C389.727 250.801 390.07 250.993 390.561 250.993C391.046 250.993 391.392 250.803 391.597 250.423ZM388.559 248.754C388.559 248.274 388.578 247.884 388.614 247.583C388.657 247.282 388.757 247 388.915 246.736C389.052 246.489 389.255 246.272 389.524 246.088C389.793 245.903 390.139 245.811 390.561 245.811C390.983 245.811 391.328 245.903 391.597 246.088C391.866 246.267 392.072 246.483 392.214 246.736C392.373 247 392.47 247.28 392.507 247.575C392.549 247.87 392.57 248.263 392.57 248.754C392.57 249.25 392.549 249.648 392.507 249.949C392.47 250.244 392.373 250.524 392.214 250.787C392.072 251.041 391.866 251.259 391.597 251.444C391.334 251.623 390.988 251.713 390.561 251.713C390.139 251.713 389.793 251.621 389.524 251.436C389.255 251.252 389.052 251.035 388.915 250.787C388.757 250.518 388.657 250.234 388.614 249.933C388.578 249.627 388.559 249.234 388.559 248.754ZM398.671 245.874H399.415L395.799 251.634H395.063L398.671 245.874ZM393.742 247.267C393.742 246.987 393.808 246.729 393.94 246.491C394.077 246.249 394.261 246.056 394.493 245.914C394.731 245.771 394.989 245.7 395.269 245.7C395.548 245.7 395.804 245.771 396.036 245.914C396.268 246.056 396.45 246.249 396.582 246.491C396.719 246.729 396.788 246.987 396.788 247.267C396.788 247.546 396.719 247.807 396.582 248.05C396.45 248.287 396.268 248.477 396.036 248.619C395.804 248.762 395.548 248.833 395.269 248.833C394.989 248.833 394.733 248.762 394.501 248.619C394.269 248.477 394.085 248.287 393.948 248.05C393.81 247.807 393.742 247.546 393.742 247.267ZM394.43 247.267C394.43 247.514 394.512 247.725 394.675 247.9C394.844 248.074 395.042 248.161 395.269 248.161C395.501 248.161 395.699 248.074 395.862 247.9C396.031 247.725 396.115 247.514 396.115 247.267C396.115 247.019 396.031 246.808 395.862 246.634C395.699 246.46 395.501 246.372 395.269 246.372C395.042 246.372 394.844 246.46 394.675 246.634C394.512 246.808 394.43 247.019 394.43 247.267ZM397.619 250.21C397.619 249.925 397.685 249.664 397.817 249.427C397.954 249.184 398.138 248.994 398.37 248.857C398.608 248.714 398.866 248.643 399.146 248.643C399.425 248.643 399.681 248.714 399.913 248.857C400.145 248.994 400.327 249.184 400.459 249.427C400.596 249.664 400.665 249.925 400.665 250.21C400.665 250.489 400.596 250.75 400.459 250.993C400.327 251.23 400.145 251.42 399.913 251.563C399.681 251.705 399.425 251.776 399.146 251.776C398.866 251.776 398.61 251.705 398.378 251.563C398.146 251.42 397.962 251.23 397.824 250.993C397.687 250.75 397.619 250.489 397.619 250.21ZM398.299 250.21C398.299 250.452 398.384 250.663 398.552 250.843C398.721 251.017 398.919 251.104 399.146 251.104C399.378 251.104 399.576 251.017 399.739 250.843C399.908 250.669 399.992 250.458 399.992 250.21C399.992 249.962 399.908 249.751 399.739 249.577C399.576 249.403 399.378 249.316 399.146 249.316C398.919 249.316 398.721 249.403 398.552 249.577C398.384 249.751 398.299 249.962 398.299 250.21Z" fill="#4A4A4A"/>
<rect x="144.729" y="352.356" width="392.779" height="9.72492" fill="#FFE07E"/>
<rect x="144.729" y="352.356" width="285.805" height="9.72492" fill="#6792F8"/>
<path d="M135.996 392.461C135.996 387.666 139.884 383.778 144.679 383.778H536.986V516.389H144.679C139.884 516.389 135.996 512.502 135.996 507.706V392.461Z" fill="#F6F8FF"/>
<path d="M152.57 403.512H536.984" stroke="#D8D8D8" stroke-width="0.663686"/>
<path d="M152.57 450.873H536.984" stroke="#D8D8D8" stroke-width="0.663686"/>
<path d="M152.57 499.023H536.984" stroke="#D8D8D8" stroke-width="0.663686"/>
<path d="M153.361 413.692H158.509L162.487 410.987L167.401 414.329L176.526 409.713L182.142 408.758L190.098 410.987L195.479 410.35L199.457 412.101L204.839 410.987L208.115 409.236L213.497 410.35L222.154 409.236L226.366 407.167L240.639 408.281L244.851 406.53L249.999 406.849L254.445 404.939L260.295 405.416L263.804 404.302H278.078L281.354 405.894H288.607L296.329 407.963H300.775L304.519 410.35H309.432L313.878 413.533H318.558L322.77 412.578H330.257L333.065 413.056L337.511 411.305L341.723 411.782L345.935 409.236L350.614 408.122L355.294 410.032L360.208 409.236L363.952 411.305L369.1 410.35L374.013 406.689L378.225 409.236L384.777 408.122L387.351 407.804L390.627 408.122L396.476 408.44L400.922 410.35L406.304 410.668L410.516 412.26L415.43 411.146L418.705 411.942L425.725 412.26L429.235 413.374L432.511 415.125L440.7 414.806L447.252 417.671L450.762 415.125L456.378 419.263L460.824 429.608L465.269 429.926L468.545 438.202L474.161 448.388L483.754 438.202L487.732 443.295L492.646 446.478L501.538 459.21L506.451 460.643L510.195 468.919L515.577 475.921L519.789 502.182L524.703 492.473L529.616 497.407L533.828 475.285" stroke="#6792F8" stroke-width="1.5787" stroke-linecap="round" stroke-linejoin="round"/>
<path d="M152.57 414.584L157.488 415.393H161.704L166.153 414.26L171.305 415.717H173.647L175.989 414.907L184.654 415.717H186.762L189.338 414.907H191.445L192.148 415.393H193.787L200.813 413.774H203.623L208.073 415.393H213.927L221.655 413.774H226.339L230.32 414.907H238.283L241.327 415.717H246.245L248.353 416.203L258.189 416.041L262.638 415.555L267.556 416.203L275.518 416.85L280.202 417.822H290.506L294.488 418.308H301.279L304.558 418.955L315.33 419.603L321.185 421.222H326.103L331.723 422.679L341.091 420.736H346.243L351.161 421.708H355.142L362.636 423.003H368.725L372.472 421.708H378.092L381.839 419.279L388.397 422.032H394.251L400.808 423.975L405.258 421.546L409.473 423.489L414.391 423.975L418.138 423.489L423.759 423.651L436.405 426.242H441.791L450.924 420.089L455.608 423.327L460.994 424.622H465.21L473.641 428.67L482.774 426.889L487.223 430.29L492.844 431.423H498.933L510.174 435.633H516.731L528.44 439.033L533.827 436.281" stroke="#FF5852" stroke-width="1.5787" stroke-linecap="round" stroke-linejoin="round"/>
<circle cx="349.793" cy="580.793" r="10.7931" fill="#6792F8" fill-opacity="0.15"/>
<path d="M349.945 578.486H348.692L347.2 583.027H347.146L345.654 578.486H344.402L346.547 584.399H347.799L349.945 578.486ZM354.046 580.098H355.168C355.054 579.08 354.231 578.41 352.914 578.41C351.542 578.41 350.627 579.134 350.627 580.185C350.627 581.002 351.182 581.573 352.249 581.808L353.175 582.004C353.801 582.151 354.084 582.396 354.09 582.777C354.084 583.272 353.6 583.588 352.848 583.583C352.146 583.588 351.743 583.321 351.64 582.788H350.453C350.6 583.888 351.438 584.519 352.859 584.519C354.368 584.519 355.271 583.757 355.277 582.69C355.271 581.851 354.743 581.334 353.654 581.089L352.718 580.871C352.064 580.719 351.787 580.468 351.792 580.12C351.787 579.668 352.26 579.325 352.925 579.325C353.567 579.325 353.937 579.63 354.046 580.098Z" fill="#6792F8"/>
<path d="M17 425.003C17 413.403 26.4033 404 38.0029 404H515.766C527.366 404 536.769 413.403 536.769 425.003V642.593C536.769 654.193 527.366 663.596 515.766 663.596H38.0029C26.4033 663.596 17 654.193 17 642.593V425.003Z" fill="url(#paint0_linear_823_2767)"/>
<path d="M327.352 221.593V226.661H326.741V221.593H327.352ZM331.879 222.19H330.407V226.661H329.789V222.19H328.317V221.593H331.879V222.19Z" fill="#A5A5A5"/>
<path d="M458.999 221.696V220.988H459.63V221.696H460.949V222.21H459.63V222.3C459.63 222.671 459.767 223.006 460.04 223.307C460.313 223.603 460.681 223.816 461.144 223.946L460.859 224.446C460.503 224.344 460.193 224.189 459.929 223.98C459.67 223.772 459.471 223.527 459.332 223.245C459.198 223.555 458.999 223.823 458.735 224.05C458.471 224.272 458.161 224.441 457.805 224.557L457.499 224.057C457.957 223.923 458.321 223.696 458.589 223.376C458.862 223.057 458.999 222.698 458.999 222.3V222.21H457.68V221.696H458.999ZM458.568 224.931H462.567V227.049H458.568V224.931ZM461.942 226.542V225.438H459.193V226.542H461.942ZM460.783 222.689H461.928V221.009H462.567V224.626H461.928V223.217H460.783V222.689ZM468.336 221.009V222.786H469.218V223.314H468.336V225.438H467.691V221.009H468.336ZM463.831 221.523H466.545V222.043H464.462V223.855C465.073 223.855 465.571 223.842 465.955 223.814C466.339 223.786 466.716 223.733 467.087 223.654L467.149 224.161C466.751 224.244 466.344 224.302 465.927 224.334C465.515 224.367 464.976 224.383 464.31 224.383H463.831V221.523ZM464.483 224.987H465.115V226.48H468.586V227.007H464.483V224.987ZM476.289 221.002V227.132H475.65V221.002H476.289ZM471.304 225.508C472.1 225.119 472.704 224.649 473.116 224.098C473.532 223.543 473.773 222.902 473.838 222.175H471.596V221.655H474.484C474.484 222.604 474.259 223.446 473.81 224.182C473.361 224.918 472.639 225.529 471.644 226.015L471.304 225.508ZM480.392 221.044V221.238C480.392 221.47 480.487 221.687 480.676 221.891C480.871 222.094 481.132 222.266 481.461 222.404C481.789 222.543 482.15 222.634 482.544 222.675L482.329 223.161C481.824 223.096 481.368 222.96 480.961 222.752C480.558 222.543 480.262 222.284 480.072 221.974C479.883 222.284 479.584 222.543 479.177 222.752C478.769 222.96 478.314 223.096 477.809 223.161L477.601 222.675C477.99 222.634 478.348 222.543 478.677 222.404C479.005 222.266 479.265 222.094 479.454 221.891C479.649 221.687 479.746 221.47 479.746 221.238V221.044H480.392ZM477.302 223.515H482.842V224.036H480.378V224.584H482.141V226.035H478.607V226.577H482.315V227.07H477.983V225.57H481.509V225.07H477.962V224.584H479.746V224.036H477.302V223.515Z" fill="#A5A5A5"/>
<path d="M326.92 246.872V246.164H327.552V246.872H328.871V247.386H327.552V247.476C327.552 247.846 327.689 248.182 327.962 248.483C328.235 248.779 328.603 248.992 329.066 249.121L328.781 249.621C328.425 249.519 328.115 249.364 327.851 249.156C327.592 248.948 327.393 248.703 327.254 248.42C327.119 248.73 326.92 248.999 326.657 249.226C326.393 249.448 326.083 249.617 325.726 249.732L325.421 249.233C325.879 249.098 326.242 248.872 326.511 248.552C326.784 248.233 326.92 247.874 326.92 247.476V247.386H325.601V246.872H326.92ZM326.49 250.107H330.489V252.225H326.49V250.107ZM329.864 251.718V250.614H327.115V251.718H329.864ZM328.705 247.865H329.85V246.185H330.489V249.802H329.85V248.393H328.705V247.865ZM336.258 246.185V247.962H337.14V248.49H336.258V250.614H335.612V246.185H336.258ZM331.752 246.699H334.467V247.219H332.384V249.031C332.995 249.031 333.493 249.017 333.877 248.99C334.261 248.962 334.638 248.909 335.008 248.83L335.071 249.337C334.673 249.42 334.266 249.478 333.849 249.51C333.437 249.543 332.898 249.559 332.232 249.559H331.752V246.699ZM332.405 250.163H333.037V251.655H336.508V252.183H332.405V250.163ZM344.21 246.178V252.308H343.572V246.178H344.21ZM339.226 250.683C340.022 250.295 340.626 249.825 341.038 249.274C341.454 248.719 341.695 248.078 341.76 247.351H339.517V246.831H342.405C342.405 247.779 342.181 248.622 341.732 249.358C341.283 250.093 340.561 250.704 339.566 251.19L339.226 250.683ZM348.314 246.22V246.414C348.314 246.645 348.408 246.863 348.598 247.067C348.793 247.27 349.054 247.441 349.383 247.58C349.711 247.719 350.072 247.809 350.466 247.851L350.25 248.337C349.746 248.272 349.29 248.136 348.883 247.927C348.48 247.719 348.184 247.46 347.994 247.15C347.804 247.46 347.506 247.719 347.099 247.927C346.691 248.136 346.235 248.272 345.731 248.337L345.523 247.851C345.911 247.809 346.27 247.719 346.599 247.58C346.927 247.441 347.187 247.27 347.376 247.067C347.571 246.863 347.668 246.645 347.668 246.414V246.22H348.314ZM345.224 248.691H350.764V249.212H348.3V249.76H350.063V251.211H346.529V251.753H350.237V252.246H345.905V250.746H349.431V250.246H345.884V249.76H347.668V249.212H345.224V248.691Z" fill="#A5A5A5"/>
<path d="M47.2498 124.628V126.148H63.2298V124.628H56.1098V120.968H61.3698V111.888H59.5298V114.948H50.9298V111.888H49.0898V120.968H54.2898V124.628H47.2498ZM50.9298 119.468V116.448H59.5298V119.468H50.9298ZM64.4302 120.668V122.168H68.4102V128.328H70.2902V122.168H74.4702V128.328H76.3502V122.168H80.4102V120.668H64.4302ZM66.1702 115.228C66.1702 117.588 68.6702 119.088 72.3702 119.088C76.0902 119.088 78.5902 117.588 78.5902 115.228C78.5902 112.848 76.0902 111.368 72.3702 111.368C68.6702 111.368 66.1702 112.848 66.1702 115.228ZM68.0502 115.228C68.0502 113.768 69.7902 112.828 72.3702 112.828C74.9902 112.828 76.7102 113.768 76.7102 115.228C76.7102 116.688 74.9902 117.608 72.3702 117.608C69.7902 117.608 68.0502 116.688 68.0502 115.228ZM85.9201 118.888V120.368H92.9601V122.068C89.7201 122.248 87.8201 123.348 87.8201 125.188C87.8201 127.168 90.0801 128.288 93.8801 128.288C97.6601 128.288 99.9401 127.168 99.9401 125.188C99.9401 123.348 98.0201 122.248 94.7801 122.068V120.368H101.88V118.888H85.9201ZM86.7601 116.448L87.4201 117.908C90.4201 117.568 92.9401 116.268 93.9001 114.388C94.8401 116.268 97.3601 117.568 100.38 117.908L101.04 116.448C97.8401 116.148 95.3801 114.688 95.1401 112.948H100.44V111.468H87.3801V112.948H92.6801C92.4401 114.688 89.9201 116.148 86.7601 116.448ZM89.6601 125.188C89.6601 124.068 91.2201 123.488 93.8801 123.488C96.5201 123.488 98.0601 124.068 98.0601 125.188C98.0601 126.288 96.5201 126.868 93.8801 126.868C91.2201 126.868 89.6601 126.288 89.6601 125.188ZM115.761 110.688V123.528H117.601V110.688H115.761ZM103.481 116.268C103.481 118.828 105.481 120.648 108.121 120.648C110.781 120.648 112.781 118.828 112.781 116.268C112.781 113.708 110.781 111.888 108.121 111.888C105.481 111.888 103.481 113.708 103.481 116.268ZM105.281 116.268C105.281 114.608 106.501 113.488 108.121 113.488C109.761 113.488 110.981 114.608 110.981 116.268C110.981 117.928 109.761 119.048 108.121 119.048C106.501 119.048 105.281 117.928 105.281 116.268ZM106.201 127.968H118.141V126.448H108.021V122.228H106.201V127.968ZM124.59 120.628V122.148H131.61V128.328H133.43V122.148H140.55V120.628H124.59ZM125.49 117.828L126.19 119.288C129.01 118.828 131.51 117.388 132.57 115.368C133.65 117.388 136.13 118.828 138.97 119.288L139.65 117.828C136.37 117.368 133.63 115.388 133.59 113.188H139.03V111.728H126.05V113.188H131.55C131.51 115.388 128.77 117.368 125.49 117.828ZM146.271 111.508V113.228C146.271 115.768 144.611 118.148 141.891 119.128L142.811 120.608C144.911 119.848 146.471 118.248 147.231 116.268C148.011 118.108 149.531 119.568 151.571 120.268L152.471 118.828C149.811 117.908 148.131 115.688 148.131 113.228V111.508H146.271ZM144.471 123.628H154.451V128.348H156.291V122.128H144.471V123.628ZM154.451 121.288H156.291V110.688H154.451V121.288ZM166.911 110.988C162.991 110.988 160.691 112.048 160.691 114.008C160.691 115.988 162.991 117.088 166.911 117.088C170.851 117.088 173.171 115.988 173.171 114.008C173.171 112.048 170.851 110.988 166.911 110.988ZM158.951 119.628H174.911V118.168H158.951V119.628ZM160.851 122.388H171.071V123.808H160.911V128.148H173.391V126.728H162.711V125.128H172.891V121.028H160.851V122.388ZM162.571 114.008C162.571 112.948 164.151 112.348 166.911 112.348C169.711 112.348 171.271 112.948 171.271 114.008C171.271 115.108 169.711 115.688 166.911 115.688C164.151 115.688 162.571 115.108 162.571 114.008ZM193.101 110.688V120.148H194.961V110.688H193.101ZM180.821 115.568C180.821 118.008 182.801 119.688 185.461 119.688C188.141 119.688 190.121 118.008 190.121 115.568C190.121 113.188 188.141 111.508 185.461 111.508C182.801 111.508 180.821 113.188 180.821 115.568ZM182.621 115.568C182.621 114.048 183.821 113.028 185.461 113.028C187.141 113.028 188.321 114.048 188.321 115.568C188.321 117.108 187.141 118.128 185.461 118.128C183.821 118.128 182.621 117.108 182.621 115.568ZM183.521 128.088H194.961V121.008H193.141V123.048H185.321V121.008H183.521V128.088ZM185.321 126.628V124.488H193.141V126.628H185.321ZM198.322 111.728V113.228H204.142V115.448H198.342V120.848H199.622C203.142 120.848 204.922 120.788 207.062 120.388L206.882 118.908C204.902 119.268 203.262 119.348 200.182 119.348V116.868H205.962V111.728H198.322ZM200.342 123.928H210.362V128.368H212.222V122.468H200.342V123.928ZM207.102 118.428H210.362V121.548H212.222V110.688H210.362V113.268H207.102V114.748H210.362V116.948H207.102V118.428ZM214.802 113.608V115.108H223.462V113.608H220.062V111.188H218.242V113.608H214.802ZM215.342 120.228C215.342 122.668 216.942 124.308 219.142 124.308C221.362 124.308 222.962 122.668 222.962 120.228C222.962 117.868 221.362 116.188 219.142 116.188C216.942 116.188 215.342 117.868 215.342 120.228ZM216.982 120.228C216.982 118.768 217.882 117.748 219.142 117.748C220.402 117.748 221.302 118.768 221.302 120.228C221.302 121.768 220.402 122.788 219.142 122.788C217.882 122.788 216.982 121.768 216.982 120.228ZM224.282 127.488H226.022V119.548H228.062V128.328H229.802V110.668H228.062V118.048H226.022V111.068H224.282V127.488ZM236.272 121.308V122.828H243.352V128.348H245.172V122.828H252.252V121.308H236.272ZM238.372 119.628H250.512V118.148H240.192V116.208H249.912V114.768H240.192V112.928H250.312V111.468H238.372V119.628ZM253.812 112.448V113.988H257.732V115.908C257.732 118.908 255.772 122.228 253.152 123.508L254.232 124.968C256.232 123.948 257.872 121.748 258.672 119.248C259.452 121.568 261.032 123.568 262.992 124.528L264.032 123.068C261.392 121.808 259.552 118.688 259.552 115.908V113.988H263.352V112.448H253.812ZM265.252 128.348H267.092V119.248H269.892V117.708H267.092V110.688H265.252V128.348ZM287.702 110.688V115.308H284.902V116.808H287.702V119.048H284.902V120.528H287.702V124.148H289.562V110.688H287.702ZM275.002 114.228H284.862V112.768H280.922V110.668H279.082V112.768H275.002V114.228ZM275.962 118.548C275.962 120.548 277.642 121.928 280.002 121.928C282.382 121.928 284.022 120.548 284.022 118.548C284.022 116.508 282.382 115.128 280.002 115.128C277.642 115.128 275.962 116.508 275.962 118.548ZM277.722 118.548C277.722 117.348 278.642 116.568 280.002 116.568C281.362 116.568 282.282 117.348 282.282 118.548C282.282 119.708 281.362 120.488 280.002 120.488C278.642 120.488 277.722 119.708 277.722 118.548ZM278.142 127.968H289.962V126.448H279.982V123.008H278.142V127.968ZM304.043 110.688V122.648H305.903V117.468H308.403V115.928H305.903V110.688H304.043ZM292.003 120.488L292.243 121.928C295.323 121.928 299.483 121.888 303.203 121.228L303.083 119.948C301.603 120.168 300.023 120.288 298.443 120.368V119.148C300.423 118.928 301.663 118.028 301.663 116.668C301.663 115.108 300.023 114.168 297.523 114.168C294.983 114.168 293.363 115.108 293.363 116.668C293.363 118.028 294.603 118.928 296.603 119.148V120.428C294.963 120.488 293.363 120.488 292.003 120.488ZM292.463 113.488H302.563V112.148H298.443V110.548H296.603V112.148H292.463V113.488ZM294.343 125.588C294.343 127.368 296.483 128.328 300.183 128.328C303.863 128.328 306.023 127.368 306.023 125.588C306.023 123.808 303.863 122.868 300.183 122.868C296.483 122.868 294.343 123.808 294.343 125.588ZM295.103 116.668C295.103 115.868 296.003 115.408 297.523 115.408C299.003 115.408 299.923 115.868 299.923 116.668C299.923 117.488 299.003 117.928 297.523 117.928C296.003 117.928 295.103 117.488 295.103 116.668ZM296.183 125.588C296.183 124.688 297.583 124.208 300.183 124.208C302.763 124.208 304.163 124.688 304.163 125.588C304.163 126.488 302.763 126.968 300.183 126.968C297.583 126.968 296.183 126.488 296.183 125.588ZM317.283 110.988C313.363 110.988 311.063 112.048 311.063 114.008C311.063 115.988 313.363 117.088 317.283 117.088C321.223 117.088 323.543 115.988 323.543 114.008C323.543 112.048 321.223 110.988 317.283 110.988ZM309.323 119.628H325.283V118.168H309.323V119.628ZM311.223 122.388H321.443V123.808H311.283V128.148H323.763V126.728H313.083V125.128H323.263V121.028H311.223V122.388ZM312.943 114.008C312.943 112.948 314.523 112.348 317.283 112.348C320.083 112.348 321.643 112.948 321.643 114.008C321.643 115.108 320.083 115.688 317.283 115.688C314.523 115.688 312.943 115.108 312.943 114.008ZM331.513 112.108V113.588H335.433V114.368C335.433 116.788 333.753 119.068 331.033 120.008L331.973 121.468C334.073 120.728 335.633 119.188 336.393 117.268C337.193 119.048 338.733 120.448 340.753 121.128L341.673 119.688C339.013 118.808 337.293 116.668 337.293 114.368V113.588H341.153V112.108H331.513ZM333.913 127.968H345.853V126.448H335.733V122.368H333.913V127.968ZM343.473 123.568H345.313V110.688H343.473V123.568ZM359.874 110.688V123.448H361.734V117.328H364.274V115.808H361.734V110.688H359.874ZM348.754 120.408H350.134C353.894 120.408 355.974 120.268 358.314 119.768L358.134 118.308C355.934 118.768 353.994 118.888 350.574 118.888V113.668H356.574V112.168H348.754V120.408ZM350.634 127.968H362.454V126.448H352.454V122.148H350.634V127.968ZM377.074 110.688V120.988H378.914V116.408H381.434V114.868H378.914V110.688H377.074ZM365.834 119.948H374.094V111.688H372.254V114.248H367.654V111.688H365.834V119.948ZM367.654 118.488V115.708H372.254V118.488H367.654ZM367.754 128.088H379.374V126.608H369.594V123.388H379.034V121.908H367.754V128.088ZM384.034 112.388V113.888H394.654V114.108C394.654 116.248 394.654 118.728 393.994 122.148L395.834 122.368C396.494 118.748 396.494 116.308 396.494 114.108V112.388H384.034ZM382.354 125.948H398.314V124.448H390.274V118.188H388.414V124.448H382.354V125.948Z" fill="#3B3B3B"/>
<path d="M59.3394 68.201C59.1954 67.977 59.0274 67.777 58.8354 67.601C58.6434 67.409 58.3714 67.217 58.0194 67.025C57.1714 66.513 56.2274 66.257 55.1874 66.257C54.9954 66.257 54.7234 66.273 54.3714 66.305C53.2674 66.465 52.5714 66.929 52.2834 67.697C52.1874 67.905 52.1394 68.129 52.1394 68.369C52.1394 68.801 52.2674 69.193 52.5234 69.545C52.7794 69.801 53.0594 70.041 53.3634 70.265C53.6994 70.473 54.1714 70.665 54.7794 70.841L55.9554 71.177C57.3954 71.481 58.4994 71.817 59.2674 72.185C60.0354 72.553 60.6274 72.953 61.0434 73.385C61.3794 73.721 61.6674 74.169 61.9074 74.729C62.1474 75.273 62.2674 75.873 62.2674 76.529C62.2674 77.153 62.1474 77.761 61.9074 78.353C61.6834 78.833 61.3394 79.305 60.8754 79.769C60.4274 80.217 59.9474 80.593 59.4354 80.897C59.0514 81.089 58.6194 81.265 58.1394 81.425C57.6754 81.585 57.2514 81.689 56.8674 81.737C56.4674 81.785 56.0594 81.809 55.6434 81.809C54.1234 81.809 52.6674 81.409 51.2754 80.609C50.4434 80.129 49.7714 79.561 49.2594 78.905C48.7474 78.249 48.4034 77.673 48.2274 77.177L51.0594 76.169C51.1394 76.425 51.3154 76.729 51.5874 77.081C51.8754 77.417 52.2674 77.729 52.7634 78.017C53.2754 78.305 53.7394 78.513 54.1554 78.641C54.5874 78.769 55.0354 78.833 55.4994 78.833C55.8034 78.833 56.1314 78.809 56.4834 78.761C56.8674 78.713 57.3874 78.545 58.0434 78.257C58.5394 77.969 58.9154 77.601 59.1714 77.153C59.2674 76.833 59.3154 76.577 59.3154 76.385C59.3154 76.017 59.1874 75.721 58.9314 75.497C58.6914 75.241 58.3154 75.009 57.8034 74.801C57.3074 74.577 56.4514 74.329 55.2354 74.057L53.9634 73.721C53.0194 73.449 52.2594 73.113 51.6834 72.713C51.2194 72.393 50.7554 72.001 50.2914 71.537C49.9554 71.137 49.6834 70.649 49.4754 70.073C49.2834 69.481 49.1874 68.865 49.1874 68.225C49.1874 67.617 49.2914 67.057 49.4994 66.545C49.9154 65.537 50.5554 64.777 51.4194 64.265C52.2994 63.753 53.1554 63.441 53.9874 63.329C54.3234 63.281 54.6834 63.257 55.0674 63.257C55.8034 63.257 56.5554 63.353 57.3234 63.545C58.1074 63.721 58.8514 64.017 59.5554 64.433C60.5954 65.041 61.3714 65.785 61.8834 66.665L59.3394 68.201ZM73.0777 80.225C72.2137 81.041 71.2617 81.449 70.2217 81.449C69.5337 81.449 68.8857 81.265 68.2777 80.897C67.6697 80.513 67.1737 80.009 66.7897 79.385C66.4217 78.745 66.2377 78.065 66.2377 77.345V71.081H64.0537V68.297H66.2377V64.169H69.2137V68.297H72.5497V71.081H69.2137V77.345C69.2137 78.097 69.5497 78.473 70.2217 78.473C70.3817 78.473 70.5097 78.449 70.6057 78.401C70.7017 78.353 70.8377 78.241 71.0137 78.065L73.0777 80.225ZM83.6643 73.793C83.3283 73.057 82.8643 72.489 82.2723 72.089C81.6963 71.673 81.0723 71.465 80.4003 71.465C79.7123 71.465 79.0563 71.673 78.4323 72.089C77.8083 72.505 77.3443 73.073 77.0403 73.793H83.6643ZM74.2803 75.137C74.2803 73.985 74.5523 72.921 75.0963 71.945C75.6403 70.969 76.3763 70.193 77.3043 69.617C78.2483 69.025 79.2803 68.729 80.4003 68.729C81.5043 68.729 82.4483 68.977 83.2323 69.473C84.0163 69.969 84.6083 70.489 85.0083 71.033C85.4083 71.561 85.6563 71.937 85.7523 72.161C86.1843 72.993 86.4003 74.009 86.4003 75.209C86.4003 75.609 86.3763 75.953 86.3283 76.241H77.0643C77.2403 77.009 77.6483 77.633 78.2883 78.113C78.9443 78.593 79.6563 78.833 80.4243 78.833C81.0163 78.833 81.5443 78.697 82.0083 78.425C82.4883 78.153 82.8723 77.825 83.1603 77.441L85.6803 78.545C85.1683 79.377 84.4563 80.081 83.5443 80.657C82.6483 81.233 81.6003 81.521 80.4003 81.521C79.2803 81.521 78.2483 81.233 77.3043 80.657C76.3763 80.065 75.6403 79.281 75.0963 78.305C74.5523 77.329 74.2803 76.273 74.2803 75.137ZM95.516 78.929C96.124 78.929 96.692 78.761 97.22 78.425C97.764 78.089 98.196 77.633 98.516 77.057C98.836 76.465 98.996 75.817 98.996 75.113C98.996 74.425 98.836 73.793 98.516 73.217C98.196 72.641 97.764 72.185 97.22 71.849C96.692 71.513 96.124 71.345 95.516 71.345C94.908 71.345 94.34 71.513 93.812 71.849C93.284 72.185 92.86 72.641 92.54 73.217C92.22 73.793 92.06 74.425 92.06 75.113C92.06 75.817 92.22 76.465 92.54 77.057C92.86 77.633 93.284 78.089 93.812 78.425C94.34 78.761 94.908 78.929 95.516 78.929ZM89.06 68.705H91.94V70.697C92.34 70.025 92.924 69.529 93.692 69.209C94.476 68.873 95.156 68.705 95.732 68.705C96.836 68.705 97.852 69.001 98.78 69.593C99.708 70.169 100.436 70.953 100.964 71.945C101.508 72.921 101.78 73.977 101.78 75.113C101.78 76.265 101.508 77.337 100.964 78.329C100.436 79.305 99.708 80.089 98.78 80.681C97.852 81.257 96.836 81.545 95.732 81.545C95.124 81.545 94.436 81.385 93.668 81.065C92.916 80.745 92.34 80.233 91.94 79.529V87.449H89.06V68.705ZM115.913 81.473H113.057V66.785L110.633 67.865L109.505 65.273L113.057 63.617H115.913V81.473Z" fill="#6792F8"/>
<defs>
<filter id="filter0_d_823_2767" x="0.617599" y="0.77092" width="553.185" height="677.974" filterUnits="userSpaceOnUse" color-interpolation-filters="sRGB">
<feFlood flood-opacity="0" result="BackgroundImageFix"/>
<feColorMatrix in="SourceAlpha" type="matrix" values="0 0 0 0 0 0 0 0 0 0 0 0 0 0 0 0 0 0 127 0" result="hardAlpha"/>
<feOffset/>
<feGaussianBlur stdDeviation="8.40116"/>
<feComposite in2="hardAlpha" operator="out"/>
<feColorMatrix type="matrix" values="0 0 0 0 0 0 0 0 0 0 0 0 0 0 0 0 0 0 0.1 0"/>
<feBlend mode="normal" in2="BackgroundImageFix" result="effect1_dropShadow_823_2767"/>
<feBlend mode="normal" in="SourceGraphic" in2="effect1_dropShadow_823_2767" result="shape"/>
</filter>
<filter id="filter1_d_823_2767" x="90.7917" y="156.374" width="452.375" height="511.183" filterUnits="userSpaceOnUse" color-interpolation-filters="sRGB">
<feFlood flood-opacity="0" result="BackgroundImageFix"/>
<feColorMatrix in="SourceAlpha" type="matrix" values="0 0 0 0 0 0 0 0 0 0 0 0 0 0 0 0 0 0 127 0" result="hardAlpha"/>
<feOffset dx="-5.97895" dy="-5.97895"/>
<feGaussianBlur stdDeviation="5.97895"/>
<feComposite in2="hardAlpha" operator="out"/>
<feColorMatrix type="matrix" values="0 0 0 0 0 0 0 0 0 0 0 0 0 0 0 0 0 0 0.05 0"/>
<feBlend mode="normal" in2="BackgroundImageFix" result="effect1_dropShadow_823_2767"/>
<feBlend mode="normal" in="SourceGraphic" in2="effect1_dropShadow_823_2767" result="shape"/>
</filter>
<linearGradient id="paint0_linear_823_2767" x1="841.621" y1="404" x2="841.621" y2="663.596" gradientUnits="userSpaceOnUse">
<stop stop-color="#F6F8FF" stop-opacity="0"/>
<stop offset="1" stop-color="#EEF1FF"/>
</linearGradient>
</defs>
</svg>
